<?xml version="1.0" standalone="no"?>
<!DOCTYPE svg PUBLIC "-//W3C//DTD SVG 20010904//EN"
 "http://www.w3.org/TR/2001/REC-SVG-20010904/DTD/svg10.dtd">
<svg version="1.0" xmlns="http://www.w3.org/2000/svg"
 width="940.000000pt" height="648.000000pt" viewBox="0 0 940.000000 648.000000"
 preserveAspectRatio="xMidYMid meet">
<metadata>
Created by potrace 1.16, written by Peter Selinger 2001-2019
</metadata>
<g transform="translate(0.000000,648.000000) scale(0.100000,-0.100000)"
fill="#000000" stroke="none">
<path d="M4287 3404 c-12 -13 17 -53 42 -58 42 -8 724 -11 747 -3 22 8 47 50
37 61 -8 8 -818 8 -826 0z"/>
<path d="M3459 2835 c-5 -20 -2 -32 11 -46 13 -15 60 -17 379 -22 218 -3 375
-1 391 5 34 11 56 53 34 62 -19 7 -813 8 -815 1z"/>
<path d="M5128 2833 c-3 -5 -3 -14 -2 -20 1 -7 2 -17 3 -23 2 -16 57 -19 415
-24 336 -4 405 1 390 25 -3 5 -1 9 5 9 5 0 8 8 7 18 -3 16 -31 17 -409 20
-223 1 -407 -1 -409 -5z"/>
<path d="M3320 2264 c-68 -23 -83 -60 -27 -67 l32 -4 -32 -1 c-26 -2 -33 -6
-33 -22 0 -17 7 -20 39 -20 33 0 38 3 34 19 -3 10 0 21 5 25 5 3 12 -7 15 -23
l6 -28 72 5 c48 3 70 1 66 -5 -4 -6 -1 -16 7 -22 11 -9 10 -21 -5 -68 -25 -73
-23 -78 5 -23 13 25 27 44 31 42 4 -2 13 5 20 15 20 27 29 9 15 -32 -7 -20
-10 -39 -7 -41 3 -3 9 9 15 25 6 17 18 31 26 31 9 0 16 5 16 11 0 5 5 7 11 4
5 -4 8 -21 5 -38 -6 -29 -5 -30 6 -9 14 28 25 28 50 -3 11 -14 28 -25 39 -25
15 0 19 -7 19 -31 0 -41 14 -64 48 -78 31 -13 67 -4 94 22 13 13 19 13 52 -1
l36 -17 -25 -29 c-25 -30 -32 -46 -17 -46 5 0 17 -8 28 -19 11 -10 30 -23 42
-30 32 -17 69 -88 82 -156 10 -50 16 -63 38 -73 19 -8 28 -9 30 -2 2 6 10 3
18 -7 13 -17 14 -17 7 2 -6 19 -5 19 19 -2 13 -13 28 -23 33 -23 5 0 0 7 -11
16 -18 14 -16 15 26 9 l45 -6 -55 38 c-46 32 -56 45 -62 78 -3 22 -14 60 -22
84 -20 55 -20 55 4 31 33 -33 91 -22 172 33 30 21 63 19 63 -3 0 -8 -16 -18
-40 -24 -48 -11 -64 -21 -100 -64 -26 -31 -26 -33 -11 -57 25 -38 63 -33 115
16 48 45 81 61 101 49 9 -6 7 -13 -9 -29 -11 -11 -27 -21 -33 -21 -22 -1 -54
-33 -68 -68 -11 -29 -11 -34 6 -47 11 -8 24 -15 31 -15 13 0 66 50 103 98 l25
33 35 -26 c32 -23 42 -25 149 -25 100 0 121 3 150 21 l35 21 56 -61 c31 -34
62 -61 69 -61 6 0 21 9 32 19 18 17 19 22 7 42 -21 38 -50 69 -65 69 -7 0 -22
8 -33 17 -14 12 -16 20 -9 30 12 14 34 3 105 -54 50 -40 87 -43 110 -8 15 24
15 26 -11 57 -32 39 -62 57 -91 58 -22 0 -37 13 -47 42 -5 14 -1 15 25 7 17
-4 38 -14 47 -22 9 -7 37 -23 62 -36 44 -21 48 -22 77 -7 17 9 33 20 35 26 6
12 4 3 -17 -65 -8 -27 -18 -62 -20 -76 -4 -17 -24 -39 -58 -63 l-53 -37 45 6
c42 6 44 5 26 -9 -11 -9 -16 -16 -11 -16 5 0 20 10 33 23 24 21 25 21 19 2 -7
-19 -6 -19 7 -2 10 13 15 15 18 5 4 -10 10 -9 29 3 18 12 28 34 41 87 19 82
43 118 107 163 25 18 48 34 50 35 1 2 -9 18 -23 37 l-27 35 38 15 c30 12 39
12 45 2 4 -7 21 -18 38 -25 55 -23 110 15 110 75 0 18 7 28 25 35 13 5 30 18
37 30 16 25 27 25 45 3 12 -16 13 -15 7 8 -7 33 12 48 21 18 6 -17 9 -18 16
-8 6 10 11 6 19 -15 6 -16 13 -27 16 -24 2 3 0 17 -6 32 -12 34 -13 46 -1 46
5 0 14 -12 19 -27 7 -19 11 -22 11 -10 1 24 20 12 32 -20 15 -40 19 -23 6 30
-9 40 -8 50 4 57 9 6 -15 10 -66 13 -44 2 -16 3 63 3 l144 -1 5 27 c3 15 8 27
12 26 3 0 23 0 44 1 28 1 37 5 37 19 0 49 54 47 -1425 49 -759 1 -1387 -1
-1395 -3z m1612 -131 c-23 -4 -23 -5 -6 -31 9 -15 23 -30 30 -35 21 -12 34
-74 22 -108 -5 -16 -8 -38 -5 -49 4 -16 1 -17 -18 -10 -12 5 -41 6 -65 3 -29
-4 -45 -2 -50 7 -11 18 -64 4 -56 -15 2 -7 0 -16 -7 -18 -9 -3 -8 -8 2 -20 16
-20 38 -22 44 -4 3 9 9 9 24 0 12 -7 38 -9 63 -6 38 5 43 4 37 -11 -4 -10 -7
-22 -7 -27 0 -5 -11 -4 -26 1 -35 14 -81 13 -90 -2 -4 -6 4 -21 19 -34 36 -31
34 -35 -10 -32 -31 2 -38 0 -37 -14 2 -24 -55 -34 -109 -19 -23 7 -52 13 -64
14 -13 1 -23 7 -23 13 0 17 -22 23 -42 11 -11 -8 -23 -7 -40 0 l-23 12 27 0
c28 1 62 37 51 54 -3 5 -30 7 -59 5 -30 -3 -54 -4 -54 -2 0 1 -3 10 -6 18 -5
14 0 16 35 10 27 -4 46 -2 56 6 12 10 18 10 30 0 8 -7 15 -19 15 -27 0 -8 14
-20 30 -27 38 -15 146 -5 167 17 14 13 12 17 -12 33 -17 11 -29 14 -33 7 -10
-15 -52 -26 -52 -14 0 6 -7 11 -16 11 -20 0 -44 24 -44 43 0 9 -6 18 -12 21
-7 3 -4 4 7 3 14 -1 20 4 19 16 -1 9 3 17 9 17 6 0 1 10 -11 23 -25 26 -30 46
-7 27 11 -9 19 -9 28 -2 7 6 24 8 37 5 16 -4 21 -3 16 5 -4 7 -15 12 -24 13
-9 0 -12 3 -6 5 15 6 6 44 -11 44 -6 0 -26 -5 -44 -11 -23 -8 -30 -16 -26 -27
4 -12 3 -12 -9 -3 -20 17 -44 -25 -48 -84 l-3 -47 -41 6 c-25 3 -50 0 -66 -9
-22 -11 -26 -11 -21 0 2 8 18 17 33 20 26 6 30 13 41 63 6 31 18 67 25 79 8
12 14 29 14 38 0 9 8 19 18 23 11 4 -5 9 -43 13 -33 3 55 6 195 6 140 0 245
-2 232 -4z m-539 -84 c-18 -38 -24 -64 -21 -100 3 -55 -2 -59 -84 -59 -58 0
-98 -15 -98 -36 0 -10 -5 -14 -16 -10 -8 3 -13 2 -10 -3 3 -4 -3 -16 -13 -25
-18 -17 -19 -16 -26 22 -5 31 -1 53 19 98 15 36 25 50 26 37 0 -12 5 -25 11
-29 8 -4 9 0 4 15 -8 27 5 27 39 0 21 -17 25 -24 15 -33 -8 -8 -13 -8 -16 2
-3 6 -9 12 -14 12 -4 0 -6 -7 -3 -15 4 -8 12 -15 19 -15 15 0 50 38 50 55 0
15 71 75 89 75 6 0 19 14 28 30 27 48 27 35 1 -21z m643 -9 c15 0 96 -71 89
-78 -7 -8 36 -52 51 -52 6 0 14 7 18 15 3 8 1 15 -3 15 -5 0 -11 -6 -14 -12
-3 -10 -8 -10 -16 -2 -10 9 -6 16 15 33 34 27 47 27 39 0 -5 -15 -4 -19 4 -15
6 4 11 17 11 29 0 16 5 11 19 -18 25 -57 31 -85 23 -122 l-7 -31 -26 22 c-14
12 -28 29 -31 37 -7 17 -49 29 -107 29 -73 0 -77 4 -89 88 -6 43 -14 86 -17
97 -4 13 0 10 11 -7 10 -16 24 -28 30 -28z"/>
</g>
</svg>
