<svg version="1.0" xmlns="http://www.w3.org/2000/svg"
 width="4580.000000pt" height="3188.000000pt" viewBox="0 0 4580.000000 3188.000000"
 preserveAspectRatio="xMidYMid meet">

<g transform="translate(0.000000,3188.000000) scale(0.100000,-0.100000)"
fill="#000000" stroke="none">
<path d="M0 15940 l0 -15940 22900 0 22900 0 0 15940 0 15940 -22900 0 -22900
0 0 -15940z m45310 0 l0 -15450 -22410 0 -22410 0 0 15450 0 15450 22410 0
22410 0 0 -15450z"/>
<path d="M21140 16795 c-22 -12 208 -14 1765 -14 1576 0 1788 1 1771 14 -29
22 -3498 22 -3536 0z"/>
<path d="M20985 16712 c-27 -15 -52 -28 -54 -30 -3 -1 4 -8 14 -16 10 -7 20
-21 21 -30 5 -34 14 -46 33 -46 25 0 36 -17 21 -35 -9 -10 -4 -19 23 -39 19
-14 38 -26 43 -26 5 0 27 -15 49 -32 l39 -33 1726 -5 1725 -5 64 48 c35 26 67
47 72 47 4 0 15 7 24 16 12 12 13 19 4 30 -13 16 -4 34 17 34 21 0 44 25 44
48 0 10 10 23 22 29 20 9 16 12 -42 41 l-63 32 -1866 0 -1866 -1 -50 -27z m74
-51 c18 -12 7 -41 -16 -41 -28 0 -47 16 -40 34 7 17 34 21 56 7z m109 3 c28
-8 25 -34 -4 -45 -30 -11 -70 17 -53 37 13 15 23 17 57 8z m110 -6 c17 -17 15
-23 -11 -35 -28 -13 -63 7 -54 32 7 18 48 20 65 3z m106 6 c35 -13 11 -44 -34
-44 -23 0 -34 16 -26 35 6 16 33 19 60 9z m117 -10 c11 -14 10 -18 -5 -30 -30
-22 -75 14 -49 39 12 12 40 7 54 -9z m107 4 c17 -17 15 -23 -12 -36 -20 -9
-27 -7 -41 8 -9 10 -14 24 -10 29 8 15 48 14 63 -1z m119 -4 c3 -8 -1 -22 -9
-31 -12 -12 -20 -13 -37 -4 -21 12 -27 31 -14 44 12 13 54 7 60 -9z m102 2
c16 -19 -12 -40 -44 -32 -24 6 -33 25 -18 39 11 12 50 8 62 -7z m95 8 c21 -8
20 -31 -1 -42 -20 -12 -48 11 -39 33 6 16 16 18 40 9z m105 -3 c17 -11 8 -39
-15 -48 -20 -8 -49 21 -41 41 7 18 34 21 56 7z m105 3 c21 -8 21 -43 0 -51
-21 -8 -64 13 -64 31 0 12 12 20 42 25 3 0 13 -2 22 -5z m111 -8 c16 -12 17
-16 6 -30 -7 -9 -21 -16 -31 -16 -10 0 -24 7 -31 16 -11 14 -10 18 6 30 10 8
22 14 25 14 3 0 15 -6 25 -14z m240 -22 c0 -26 -62 -33 -72 -8 -9 23 22 45 50
35 12 -5 22 -17 22 -27z m1126 26 c27 -15 8 -50 -27 -50 -32 0 -43 28 -19 46
23 17 21 17 46 4z m119 -5 c10 -12 10 -18 0 -31 -18 -21 -64 -14 -68 10 -7 33
45 49 68 21z m94 9 c20 -8 20 -21 2 -40 -21 -20 -44 -17 -51 6 -11 34 10 49
49 34z m124 -16 c5 -26 -46 -44 -66 -24 -8 8 -12 22 -8 31 8 23 70 17 74 -7z
m90 0 c4 -19 -35 -35 -50 -20 -6 6 -8 18 -4 27 8 21 50 16 54 -7z m100 16 c12
-4 22 -12 22 -19 0 -15 -42 -28 -64 -19 -19 7 -21 30 -3 37 17 7 19 7 45 1z
m130 -16 c2 -12 -5 -19 -23 -24 -31 -8 -50 7 -41 31 8 22 60 16 64 -7z m101
13 c12 -8 12 -12 2 -25 -17 -21 -60 -21 -68 0 -10 27 35 44 66 25z m119 -13
c2 -9 -6 -22 -18 -28 -18 -9 -25 -8 -41 6 -20 18 -20 19 -2 32 23 17 57 12 61
-10z m108 11 c3 -6 -3 -21 -15 -32 -19 -20 -22 -20 -37 -5 -9 9 -14 24 -11 32
7 18 52 22 63 5z m109 0 c4 -5 -1 -19 -10 -29 -14 -15 -22 -17 -36 -9 -22 11
-25 35 -6 42 21 9 46 7 52 -4z m103 -11 c2 -9 -5 -21 -16 -27 -25 -14 -58 9
-49 33 9 23 61 18 65 -6z m-2435 -2 c12 -32 -50 -50 -78 -22 -10 10 -11 16 -2
25 16 16 74 14 80 -3z m227 -11 c0 -22 -4 -25 -34 -25 -22 0 -36 6 -40 16 -9
24 2 34 40 34 30 0 34 -3 34 -25z m109 16 c12 -8 13 -12 1 -26 -20 -24 -64
-16 -68 13 -3 18 1 22 25 22 15 0 34 -4 42 -9z m126 -1 c11 -17 -15 -40 -46
-40 -31 0 -44 13 -35 35 6 17 71 21 81 5z m93 -2 c15 -15 -3 -38 -29 -38 -22
0 -33 16 -25 35 7 18 37 20 54 3z m126 3 c12 -19 -7 -41 -34 -41 -32 0 -45 13
-36 35 6 16 61 21 70 6z m111 -16 c0 -26 -46 -33 -65 -10 -12 14 -11 18 1 26
25 16 64 6 64 -16z m123 3 c-2 -17 -11 -24 -32 -26 -33 -4 -51 10 -43 32 4 11
19 16 42 16 32 0 36 -3 33 -22z m101 13 c12 -8 12 -12 2 -25 -8 -9 -21 -16
-31 -16 -22 0 -44 25 -35 40 8 12 45 13 64 1z m126 -16 c0 -26 -55 -34 -75
-10 -18 22 2 36 45 33 22 -2 30 -8 30 -23z m-2275 -70 c0 -18 -29 -23 -57 -10
-29 13 -29 19 0 32 25 12 57 0 57 -22z m95 22 c24 -18 11 -37 -25 -37 -36 0
-49 19 -25 37 11 7 22 13 25 13 3 0 14 -6 25 -13z m116 3 c5 0 9 -9 9 -20 0
-21 -30 -27 -64 -14 -35 14 -5 49 32 38 8 -2 18 -4 23 -4z m104 -3 c24 -18 11
-37 -25 -37 -36 0 -49 19 -25 37 11 7 22 13 25 13 3 0 14 -6 25 -13z m109 7
c9 -3 16 -15 16 -26 0 -16 -6 -19 -37 -16 -56 5 -55 25 4 47 1 1 8 -2 17 -5z
m112 -9 c18 -14 18 -16 1 -29 -23 -18 -57 -9 -57 14 0 16 11 26 31 29 3 1 14
-6 25 -14z m108 9 c9 -3 16 -15 16 -25 0 -15 -7 -19 -34 -19 -41 0 -56 18 -31
37 21 15 27 16 49 7z m2530 0 c22 -9 20 -31 -4 -44 -42 -23 -83 16 -42 39 20
12 25 13 46 5z m126 -25 c0 -15 -43 -28 -62 -17 -24 12 -22 27 5 37 23 9 57
-3 57 -20z m94 25 c24 -9 19 -33 -9 -44 -29 -11 -55 -4 -55 16 0 12 11 20 47
33 1 1 8 -2 17 -5z m116 -24 c0 -5 -10 -14 -21 -21 -17 -9 -25 -8 -38 6 -15
15 -15 17 3 30 19 15 56 5 56 -15z m-3615 0 c0 -18 -52 -27 -67 -12 -17 17 2
33 35 30 20 -2 32 -8 32 -18z m852 4 c5 -14 -11 -33 -28 -34 -15 0 -41 28 -35
38 11 18 56 14 63 -4z m97 10 c22 -9 20 -31 -4 -39 -26 -8 -60 3 -60 20 0 21
34 31 64 19z m110 0 c25 -9 19 -33 -10 -40 -29 -8 -49 7 -41 30 7 17 25 20 51
10z m107 -4 c5 0 9 -8 9 -19 0 -22 -30 -32 -54 -19 -31 17 -12 53 22 42 8 -2
18 -4 23 -4z m123 -6 c20 -20 20 -21 -3 -34 -24 -13 -71 3 -71 24 0 13 16 22
47 25 6 0 19 -6 27 -15z m100 10 c21 -8 21 -40 0 -48 -8 -3 -24 -1 -35 4 -41
22 -10 61 35 44z m125 -3 c17 -11 8 -39 -15 -48 -20 -8 -49 21 -41 41 7 18 34
21 56 7z m112 -1 c17 0 9 -29 -11 -40 -24 -13 -60 2 -60 25 0 15 26 25 48 19
8 -2 18 -4 23 -4z m117 -14 c2 -10 -1 -23 -6 -28 -15 -15 -52 1 -52 22 0 33
52 39 58 6z m216 18 c36 -14 3 -61 -34 -49 -22 7 -27 40 -7 48 18 8 23 8 41 1z
m136 -20 c0 -16 -43 -29 -65 -20 -21 8 -19 34 3 38 29 6 62 -3 62 -18z m101
16 c17 0 9 -29 -12 -40 -15 -9 -24 -8 -35 1 -27 22 -10 54 24 43 8 -2 18 -4
23 -4z m223 4 c22 -8 20 -31 -3 -44 -25 -13 -51 -3 -51 20 0 25 25 35 54 24z
m115 -3 c12 -8 12 -12 2 -25 -17 -21 -60 -21 -68 0 -10 27 35 44 66 25z m116
-1 c10 -16 -15 -40 -42 -40 -27 0 -43 28 -22 41 19 12 56 11 64 -1z m95 -9 c0
-26 -38 -38 -57 -18 -21 20 -8 37 28 37 22 0 29 -5 29 -19z m108 2 c-4 -20
-54 -31 -70 -15 -17 17 1 32 38 32 28 0 35 -4 32 -17z m102 -3 c0 -15 -7 -20
-29 -20 -31 0 -47 13 -36 30 3 6 19 10 36 10 22 0 29 -5 29 -20z m115 0 c0
-10 -12 -16 -37 -18 -37 -3 -51 12 -31 32 13 13 68 2 68 -14z m105 0 c0 -15
-7 -20 -29 -20 -34 0 -51 18 -30 31 26 17 59 10 59 -11z m-1322 -7 c-2 -12
-13 -18 -33 -18 -20 0 -31 6 -33 18 -3 14 4 17 33 17 29 0 36 -3 33 -17z m460
0 c-2 -13 -13 -18 -38 -18 -25 0 -36 5 -38 18 -3 14 4 17 38 17 34 0 41 -3 38
-17z"/>
<path d="M21248 16403 c7 -3 16 -2 19 1 4 3 -2 6 -13 5 -11 0 -14 -3 -6 -6z"/>
<path d="M24033 16403 c104 -2 270 -2 370 0 100 1 16 2 -188 2 -203 0 -285 -1
-182 -2z"/>
<path d="M17170 14075 c-22 -12 208 -14 1765 -14 1576 0 1788 1 1771 14 -29
22 -3498 22 -3536 0z"/>
<path d="M25110 14075 c-22 -12 208 -14 1765 -14 1576 0 1788 1 1771 14 -29
22 -3498 22 -3536 0z"/>
<path d="M17015 13992 c-27 -15 -52 -28 -54 -30 -3 -1 4 -8 14 -16 10 -7 20
-21 21 -30 5 -34 14 -46 33 -46 25 0 36 -17 21 -35 -9 -10 -4 -19 23 -39 19
-14 38 -26 43 -26 5 0 27 -15 49 -32 l39 -33 1726 -5 1725 -5 64 48 c35 26 67
47 72 47 4 0 15 7 24 16 12 12 13 19 4 30 -13 16 -4 34 17 34 21 0 44 25 44
48 0 10 10 23 22 29 20 9 16 12 -42 41 l-63 32 -1866 0 -1866 -1 -50 -27z m74
-51 c18 -12 7 -41 -16 -41 -28 0 -47 16 -40 34 7 17 34 21 56 7z m109 3 c28
-8 25 -34 -4 -45 -30 -11 -70 17 -53 37 13 15 23 17 57 8z m110 -6 c17 -17 15
-23 -11 -35 -28 -13 -63 7 -54 32 7 18 48 20 65 3z m106 6 c35 -13 11 -44 -34
-44 -23 0 -34 16 -26 35 6 16 33 19 60 9z m117 -10 c11 -14 10 -18 -5 -30 -30
-22 -75 14 -49 39 12 12 40 7 54 -9z m107 4 c17 -17 15 -23 -12 -36 -20 -9
-27 -7 -41 8 -9 10 -14 24 -10 29 8 15 48 14 63 -1z m119 -4 c3 -8 -1 -22 -9
-31 -12 -12 -20 -13 -37 -4 -21 12 -27 31 -14 44 12 13 54 7 60 -9z m102 2
c16 -19 -12 -40 -44 -32 -24 6 -33 25 -18 39 11 12 50 8 62 -7z m95 8 c21 -8
20 -31 -1 -42 -20 -12 -48 11 -39 33 6 16 16 18 40 9z m105 -3 c17 -11 8 -39
-15 -48 -20 -8 -49 21 -41 41 7 18 34 21 56 7z m105 3 c21 -8 21 -43 0 -51
-21 -8 -64 13 -64 31 0 12 12 20 42 25 3 0 13 -2 22 -5z m111 -8 c16 -12 17
-16 6 -30 -7 -9 -21 -16 -31 -16 -10 0 -24 7 -31 16 -11 14 -10 18 6 30 10 8
22 14 25 14 3 0 15 -6 25 -14z m240 -22 c0 -26 -62 -33 -72 -8 -9 23 22 45 50
35 12 -5 22 -17 22 -27z m1126 26 c27 -15 8 -50 -27 -50 -32 0 -43 28 -19 46
23 17 21 17 46 4z m119 -5 c10 -12 10 -18 0 -31 -18 -21 -64 -14 -68 10 -7 33
45 49 68 21z m94 9 c20 -8 20 -21 2 -40 -21 -20 -44 -17 -51 6 -11 34 10 49
49 34z m124 -16 c5 -26 -46 -44 -66 -24 -8 8 -12 22 -8 31 8 23 70 17 74 -7z
m90 0 c4 -19 -35 -35 -50 -20 -6 6 -8 18 -4 27 8 21 50 16 54 -7z m100 16 c12
-4 22 -12 22 -19 0 -15 -42 -28 -64 -19 -19 7 -21 30 -3 37 17 7 19 7 45 1z
m130 -16 c2 -12 -5 -19 -23 -24 -31 -8 -50 7 -41 31 8 22 60 16 64 -7z m101
13 c12 -8 12 -12 2 -25 -17 -21 -60 -21 -68 0 -10 27 35 44 66 25z m119 -13
c2 -9 -6 -22 -18 -28 -18 -9 -25 -8 -41 6 -20 18 -20 19 -2 32 23 17 57 12 61
-10z m108 11 c3 -6 -3 -21 -15 -32 -19 -20 -22 -20 -37 -5 -9 9 -14 24 -11 32
7 18 52 22 63 5z m109 0 c4 -5 -1 -19 -10 -29 -14 -15 -22 -17 -36 -9 -22 11
-25 35 -6 42 21 9 46 7 52 -4z m103 -11 c2 -9 -5 -21 -16 -27 -25 -14 -58 9
-49 33 9 23 61 18 65 -6z m-2435 -2 c12 -32 -50 -50 -78 -22 -10 10 -11 16 -2
25 16 16 74 14 80 -3z m227 -11 c0 -22 -4 -25 -34 -25 -22 0 -36 6 -40 16 -9
24 2 34 40 34 30 0 34 -3 34 -25z m109 16 c12 -8 13 -12 1 -26 -20 -24 -64
-16 -68 13 -3 18 1 22 25 22 15 0 34 -4 42 -9z m126 -1 c11 -17 -15 -40 -46
-40 -31 0 -44 13 -35 35 6 17 71 21 81 5z m93 -2 c15 -15 -3 -38 -29 -38 -22
0 -33 16 -25 35 7 18 37 20 54 3z m126 3 c12 -19 -7 -41 -34 -41 -32 0 -45 13
-36 35 6 16 61 21 70 6z m111 -16 c0 -26 -46 -33 -65 -10 -12 14 -11 18 1 26
25 16 64 6 64 -16z m123 3 c-2 -17 -11 -24 -32 -26 -33 -4 -51 10 -43 32 4 11
19 16 42 16 32 0 36 -3 33 -22z m101 13 c12 -8 12 -12 2 -25 -8 -9 -21 -16
-31 -16 -22 0 -44 25 -35 40 8 12 45 13 64 1z m126 -16 c0 -26 -55 -34 -75
-10 -18 22 2 36 45 33 22 -2 30 -8 30 -23z m-2275 -70 c0 -18 -29 -23 -57 -10
-29 13 -29 19 0 32 25 12 57 0 57 -22z m95 22 c24 -18 11 -37 -25 -37 -36 0
-49 19 -25 37 11 7 22 13 25 13 3 0 14 -6 25 -13z m116 3 c5 0 9 -9 9 -20 0
-21 -30 -27 -64 -14 -35 14 -5 49 32 38 8 -2 18 -4 23 -4z m104 -3 c24 -18 11
-37 -25 -37 -36 0 -49 19 -25 37 11 7 22 13 25 13 3 0 14 -6 25 -13z m109 7
c9 -3 16 -15 16 -26 0 -16 -6 -19 -37 -16 -56 5 -55 25 4 47 1 1 8 -2 17 -5z
m112 -9 c18 -14 18 -16 1 -29 -23 -18 -57 -9 -57 14 0 16 11 26 31 29 3 1 14
-6 25 -14z m108 9 c9 -3 16 -15 16 -25 0 -15 -7 -19 -34 -19 -41 0 -56 18 -31
37 21 15 27 16 49 7z m2530 0 c22 -9 20 -31 -4 -44 -42 -23 -83 16 -42 39 20
12 25 13 46 5z m126 -25 c0 -15 -43 -28 -62 -17 -24 12 -22 27 5 37 23 9 57
-3 57 -20z m94 25 c24 -9 19 -33 -9 -44 -29 -11 -55 -4 -55 16 0 12 11 20 47
33 1 1 8 -2 17 -5z m116 -24 c0 -5 -10 -14 -21 -21 -17 -9 -25 -8 -38 6 -15
15 -15 17 3 30 19 15 56 5 56 -15z m-3615 0 c0 -18 -52 -27 -67 -12 -17 17 2
33 35 30 20 -2 32 -8 32 -18z m852 4 c5 -14 -11 -33 -28 -34 -15 0 -41 28 -35
38 11 18 56 14 63 -4z m97 10 c22 -9 20 -31 -4 -39 -26 -8 -60 3 -60 20 0 21
34 31 64 19z m110 0 c25 -9 19 -33 -10 -40 -29 -8 -49 7 -41 30 7 17 25 20 51
10z m107 -4 c5 0 9 -8 9 -19 0 -22 -30 -32 -54 -19 -31 17 -12 53 22 42 8 -2
18 -4 23 -4z m123 -6 c20 -20 20 -21 -3 -34 -24 -13 -71 3 -71 24 0 13 16 22
47 25 6 0 19 -6 27 -15z m100 10 c21 -8 21 -40 0 -48 -8 -3 -24 -1 -35 4 -41
22 -10 61 35 44z m125 -3 c17 -11 8 -39 -15 -48 -20 -8 -49 21 -41 41 7 18 34
21 56 7z m112 -1 c17 0 9 -29 -11 -40 -24 -13 -60 2 -60 25 0 15 26 25 48 19
8 -2 18 -4 23 -4z m117 -14 c2 -10 -1 -23 -6 -28 -15 -15 -52 1 -52 22 0 33
52 39 58 6z m216 18 c36 -14 3 -61 -34 -49 -22 7 -27 40 -7 48 18 8 23 8 41 1z
m136 -20 c0 -16 -43 -29 -65 -20 -21 8 -19 34 3 38 29 6 62 -3 62 -18z m101
16 c17 0 9 -29 -12 -40 -15 -9 -24 -8 -35 1 -27 22 -10 54 24 43 8 -2 18 -4
23 -4z m223 4 c22 -8 20 -31 -3 -44 -25 -13 -51 -3 -51 20 0 25 25 35 54 24z
m115 -3 c12 -8 12 -12 2 -25 -17 -21 -60 -21 -68 0 -10 27 35 44 66 25z m116
-1 c10 -16 -15 -40 -42 -40 -27 0 -43 28 -22 41 19 12 56 11 64 -1z m95 -9 c0
-26 -38 -38 -57 -18 -21 20 -8 37 28 37 22 0 29 -5 29 -19z m108 2 c-4 -20
-54 -31 -70 -15 -17 17 1 32 38 32 28 0 35 -4 32 -17z m102 -3 c0 -15 -7 -20
-29 -20 -31 0 -47 13 -36 30 3 6 19 10 36 10 22 0 29 -5 29 -20z m115 0 c0
-10 -12 -16 -37 -18 -37 -3 -51 12 -31 32 13 13 68 2 68 -14z m105 0 c0 -15
-7 -20 -29 -20 -34 0 -51 18 -30 31 26 17 59 10 59 -11z m-1322 -7 c-2 -12
-13 -18 -33 -18 -20 0 -31 6 -33 18 -3 14 4 17 33 17 29 0 36 -3 33 -17z m460
0 c-2 -13 -13 -18 -38 -18 -25 0 -36 5 -38 18 -3 14 4 17 38 17 34 0 41 -3 38
-17z"/>
<path d="M24955 13992 c-27 -15 -52 -28 -54 -30 -3 -1 4 -8 14 -16 10 -7 20
-21 21 -30 5 -34 14 -46 33 -46 25 0 36 -17 21 -35 -9 -10 -4 -19 23 -39 19
-14 38 -26 43 -26 5 0 27 -15 49 -32 l39 -33 1726 -5 1725 -5 64 48 c35 26 67
47 72 47 4 0 15 7 24 16 12 12 13 19 4 30 -13 16 -4 34 17 34 21 0 44 25 44
48 0 10 10 23 22 29 20 9 16 12 -42 41 l-63 32 -1866 0 -1866 -1 -50 -27z m74
-51 c18 -12 7 -41 -16 -41 -28 0 -47 16 -40 34 7 17 34 21 56 7z m109 3 c28
-8 25 -34 -4 -45 -30 -11 -70 17 -53 37 13 15 23 17 57 8z m110 -6 c17 -17 15
-23 -11 -35 -28 -13 -63 7 -54 32 7 18 48 20 65 3z m106 6 c35 -13 11 -44 -34
-44 -23 0 -34 16 -26 35 6 16 33 19 60 9z m117 -10 c11 -14 10 -18 -5 -30 -30
-22 -75 14 -49 39 12 12 40 7 54 -9z m107 4 c17 -17 15 -23 -12 -36 -20 -9
-27 -7 -41 8 -9 10 -14 24 -10 29 8 15 48 14 63 -1z m119 -4 c3 -8 -1 -22 -9
-31 -12 -12 -20 -13 -37 -4 -21 12 -27 31 -14 44 12 13 54 7 60 -9z m102 2
c16 -19 -12 -40 -44 -32 -24 6 -33 25 -18 39 11 12 50 8 62 -7z m95 8 c21 -8
20 -31 -1 -42 -20 -12 -48 11 -39 33 6 16 16 18 40 9z m105 -3 c17 -11 8 -39
-15 -48 -20 -8 -49 21 -41 41 7 18 34 21 56 7z m105 3 c21 -8 21 -43 0 -51
-21 -8 -64 13 -64 31 0 12 12 20 42 25 3 0 13 -2 22 -5z m111 -8 c16 -12 17
-16 6 -30 -7 -9 -21 -16 -31 -16 -10 0 -24 7 -31 16 -11 14 -10 18 6 30 10 8
22 14 25 14 3 0 15 -6 25 -14z m240 -22 c0 -26 -62 -33 -72 -8 -9 23 22 45 50
35 12 -5 22 -17 22 -27z m1126 26 c27 -15 8 -50 -27 -50 -32 0 -43 28 -19 46
23 17 21 17 46 4z m119 -5 c10 -12 10 -18 0 -31 -18 -21 -64 -14 -68 10 -7 33
45 49 68 21z m94 9 c20 -8 20 -21 2 -40 -21 -20 -44 -17 -51 6 -11 34 10 49
49 34z m124 -16 c5 -26 -46 -44 -66 -24 -8 8 -12 22 -8 31 8 23 70 17 74 -7z
m90 0 c4 -19 -35 -35 -50 -20 -6 6 -8 18 -4 27 8 21 50 16 54 -7z m100 16 c12
-4 22 -12 22 -19 0 -15 -42 -28 -64 -19 -19 7 -21 30 -3 37 17 7 19 7 45 1z
m130 -16 c2 -12 -5 -19 -23 -24 -31 -8 -50 7 -41 31 8 22 60 16 64 -7z m101
13 c12 -8 12 -12 2 -25 -17 -21 -60 -21 -68 0 -10 27 35 44 66 25z m119 -13
c2 -9 -6 -22 -18 -28 -18 -9 -25 -8 -41 6 -20 18 -20 19 -2 32 23 17 57 12 61
-10z m108 11 c3 -6 -3 -21 -15 -32 -19 -20 -22 -20 -37 -5 -9 9 -14 24 -11 32
7 18 52 22 63 5z m109 0 c4 -5 -1 -19 -10 -29 -14 -15 -22 -17 -36 -9 -22 11
-25 35 -6 42 21 9 46 7 52 -4z m103 -11 c2 -9 -5 -21 -16 -27 -25 -14 -58 9
-49 33 9 23 61 18 65 -6z m-2435 -2 c12 -32 -50 -50 -78 -22 -10 10 -11 16 -2
25 16 16 74 14 80 -3z m227 -11 c0 -22 -4 -25 -34 -25 -22 0 -36 6 -40 16 -9
24 2 34 40 34 30 0 34 -3 34 -25z m109 16 c12 -8 13 -12 1 -26 -20 -24 -64
-16 -68 13 -3 18 1 22 25 22 15 0 34 -4 42 -9z m126 -1 c11 -17 -15 -40 -46
-40 -31 0 -44 13 -35 35 6 17 71 21 81 5z m93 -2 c15 -15 -3 -38 -29 -38 -22
0 -33 16 -25 35 7 18 37 20 54 3z m126 3 c12 -19 -7 -41 -34 -41 -32 0 -45 13
-36 35 6 16 61 21 70 6z m111 -16 c0 -26 -46 -33 -65 -10 -12 14 -11 18 1 26
25 16 64 6 64 -16z m123 3 c-2 -17 -11 -24 -32 -26 -33 -4 -51 10 -43 32 4 11
19 16 42 16 32 0 36 -3 33 -22z m101 13 c12 -8 12 -12 2 -25 -8 -9 -21 -16
-31 -16 -22 0 -44 25 -35 40 8 12 45 13 64 1z m126 -16 c0 -26 -55 -34 -75
-10 -18 22 2 36 45 33 22 -2 30 -8 30 -23z m-2275 -70 c0 -18 -29 -23 -57 -10
-29 13 -29 19 0 32 25 12 57 0 57 -22z m95 22 c24 -18 11 -37 -25 -37 -36 0
-49 19 -25 37 11 7 22 13 25 13 3 0 14 -6 25 -13z m116 3 c5 0 9 -9 9 -20 0
-21 -30 -27 -64 -14 -35 14 -5 49 32 38 8 -2 18 -4 23 -4z m104 -3 c24 -18 11
-37 -25 -37 -36 0 -49 19 -25 37 11 7 22 13 25 13 3 0 14 -6 25 -13z m109 7
c9 -3 16 -15 16 -26 0 -16 -6 -19 -37 -16 -56 5 -55 25 4 47 1 1 8 -2 17 -5z
m112 -9 c18 -14 18 -16 1 -29 -23 -18 -57 -9 -57 14 0 16 11 26 31 29 3 1 14
-6 25 -14z m108 9 c9 -3 16 -15 16 -25 0 -15 -7 -19 -34 -19 -41 0 -56 18 -31
37 21 15 27 16 49 7z m2530 0 c22 -9 20 -31 -4 -44 -42 -23 -83 16 -42 39 20
12 25 13 46 5z m126 -25 c0 -15 -43 -28 -62 -17 -24 12 -22 27 5 37 23 9 57
-3 57 -20z m94 25 c24 -9 19 -33 -9 -44 -29 -11 -55 -4 -55 16 0 12 11 20 47
33 1 1 8 -2 17 -5z m116 -24 c0 -5 -10 -14 -21 -21 -17 -9 -25 -8 -38 6 -15
15 -15 17 3 30 19 15 56 5 56 -15z m-3615 0 c0 -18 -52 -27 -67 -12 -17 17 2
33 35 30 20 -2 32 -8 32 -18z m852 4 c5 -14 -11 -33 -28 -34 -15 0 -41 28 -35
38 11 18 56 14 63 -4z m97 10 c22 -9 20 -31 -4 -39 -26 -8 -60 3 -60 20 0 21
34 31 64 19z m110 0 c25 -9 19 -33 -10 -40 -29 -8 -49 7 -41 30 7 17 25 20 51
10z m107 -4 c5 0 9 -8 9 -19 0 -22 -30 -32 -54 -19 -31 17 -12 53 22 42 8 -2
18 -4 23 -4z m123 -6 c20 -20 20 -21 -3 -34 -24 -13 -71 3 -71 24 0 13 16 22
47 25 6 0 19 -6 27 -15z m100 10 c21 -8 21 -40 0 -48 -8 -3 -24 -1 -35 4 -41
22 -10 61 35 44z m125 -3 c17 -11 8 -39 -15 -48 -20 -8 -49 21 -41 41 7 18 34
21 56 7z m112 -1 c17 0 9 -29 -11 -40 -24 -13 -60 2 -60 25 0 15 26 25 48 19
8 -2 18 -4 23 -4z m117 -14 c2 -10 -1 -23 -6 -28 -15 -15 -52 1 -52 22 0 33
52 39 58 6z m216 18 c36 -14 3 -61 -34 -49 -22 7 -27 40 -7 48 18 8 23 8 41 1z
m136 -20 c0 -16 -43 -29 -65 -20 -21 8 -19 34 3 38 29 6 62 -3 62 -18z m101
16 c17 0 9 -29 -12 -40 -15 -9 -24 -8 -35 1 -27 22 -10 54 24 43 8 -2 18 -4
23 -4z m223 4 c22 -8 20 -31 -3 -44 -25 -13 -51 -3 -51 20 0 25 25 35 54 24z
m115 -3 c12 -8 12 -12 2 -25 -17 -21 -60 -21 -68 0 -10 27 35 44 66 25z m116
-1 c10 -16 -15 -40 -42 -40 -27 0 -43 28 -22 41 19 12 56 11 64 -1z m95 -9 c0
-26 -38 -38 -57 -18 -21 20 -8 37 28 37 22 0 29 -5 29 -19z m108 2 c-4 -20
-54 -31 -70 -15 -17 17 1 32 38 32 28 0 35 -4 32 -17z m102 -3 c0 -15 -7 -20
-29 -20 -17 0 -33 5 -36 10 -11 17 5 30 36 30 22 0 29 -5 29 -20z m115 0 c0
-10 -12 -16 -37 -18 -37 -3 -51 12 -31 32 13 13 68 2 68 -14z m105 0 c0 -15
-7 -20 -29 -20 -34 0 -51 18 -30 31 26 17 59 10 59 -11z m-1322 -7 c-2 -12
-13 -18 -33 -18 -20 0 -31 6 -33 18 -3 14 4 17 33 17 29 0 36 -3 33 -17z m460
0 c-2 -13 -13 -18 -38 -18 -25 0 -36 5 -38 18 -3 14 4 17 38 17 34 0 41 -3 38
-17z"/>
<path d="M17278 13683 c7 -3 16 -2 19 1 4 3 -2 6 -13 5 -11 0 -14 -3 -6 -6z"/>
<path d="M20063 13683 c104 -2 270 -2 370 0 100 1 16 2 -188 2 -203 0 -285 -1
-182 -2z"/>
<path d="M25218 13683 c7 -3 16 -2 19 1 4 3 -2 6 -13 5 -11 0 -14 -3 -6 -6z"/>
<path d="M28003 13683 c104 -2 270 -2 370 0 100 1 16 2 -188 2 -203 0 -285 -1
-182 -2z"/>
<path d="M16355 11290 c-11 -5 2878 -8 6550 -8 3614 0 6557 4 6540 8 -42 11
-13065 11 -13090 0z"/>
<path d="M16215 11231 c-3 -11 -18 -24 -33 -30 -20 -7 6 -10 106 -10 86 -1
131 -5 127 -11 -4 -6 -71 -10 -169 -10 -188 0 -176 7 -176 -102 l0 -58 65 0
c37 0 65 -4 65 -10 0 -6 30 -10 70 -10 l70 0 0 -35 0 -35 -74 0 c-40 0 -101
-3 -135 -6 l-61 -7 0 -88 0 -88 168 -3 c92 -2 168 -2 170 -2 2 1 -2 39 -9 85
-9 69 -9 97 3 153 24 114 35 101 54 -61 4 -33 11 -53 19 -53 8 0 15 -22 20
-57 4 -32 11 -66 16 -75 11 -21 45 -24 51 -5 4 9 151 12 691 12 l686 0 -6 96
c-5 86 3 162 24 219 8 23 42 -118 42 -177 1 -29 6 -53 11 -53 6 0 10 -15 10
-32 0 -49 10 -78 27 -78 26 0 7 -25 -23 -30 -22 -4 -30 -11 -32 -30 -4 -39
-34 -101 -46 -97 -6 2 -57 19 -113 37 -57 18 -103 37 -103 42 0 4 -7 8 -15 8
-8 0 -15 4 -15 9 0 5 -14 13 -31 16 -61 14 -6 25 116 25 197 -1 187 -3 174 18
-10 16 -38 17 -402 14 -215 -1 -395 -6 -400 -11 -11 -11 1 -51 14 -51 6 0 25
-16 43 -35 19 -19 40 -35 49 -35 34 0 47 -12 47 -45 0 -18 -6 -35 -13 -38 -17
-6 -38 -66 -66 -182 -11 -49 -25 -91 -31 -93 -5 -2 -10 -10 -10 -18 0 -8 -3
-14 -8 -14 -8 0 -29 -70 -38 -125 -4 -28 -3 -27 12 8 9 20 20 37 25 37 5 0 9
7 9 15 0 8 5 15 10 15 6 0 10 9 10 20 0 11 8 39 19 62 22 51 51 134 58 166 3
13 13 22 23 22 10 0 20 5 22 11 2 7 12 7 31 0 23 -9 28 -7 38 11 6 12 22 32
35 45 13 13 24 30 24 36 0 18 57 37 108 37 47 0 50 -8 31 -70 -5 -19 -14 -62
-19 -94 -5 -33 -13 -62 -18 -65 -5 -3 -13 -28 -17 -56 -4 -27 -10 -52 -14 -55
-5 -3 -10 -24 -14 -47 -4 -32 -2 -43 8 -43 15 0 25 22 25 56 0 13 4 24 8 24 5
0 15 26 22 58 7 31 20 70 29 85 14 25 21 28 49 23 25 -4 34 -1 38 12 3 9 14
36 24 58 l19 42 43 -11 c95 -22 91 -16 85 -149 -3 -65 -3 -118 0 -118 13 0 33
32 33 53 0 13 3 39 6 56 6 27 11 31 39 31 19 0 35 5 37 11 2 7 15 9 34 5 29
-7 32 -10 68 -98 8 -22 26 -43 40 -50 15 -6 26 -15 26 -20 0 -4 6 -8 13 -8 8
0 19 -11 25 -25 6 -14 20 -25 29 -25 10 0 57 -10 106 -22 78 -20 87 -24 87
-45 0 -13 -4 -23 -8 -23 -19 0 -27 -69 -18 -158 8 -87 11 -97 42 -130 19 -21
37 -45 40 -55 11 -33 85 -87 120 -87 8 0 22 -4 32 -9 9 -6 29 -12 45 -16 15
-3 27 -12 27 -20 0 -9 10 -15 25 -15 15 0 25 6 25 14 0 10 21 16 77 22 63 5
86 13 129 40 29 19 57 34 63 34 5 0 20 20 32 45 12 25 26 45 31 45 4 0 8 7 8
15 0 19 13 19 53 1 71 -33 162 -66 179 -66 10 0 18 -6 18 -14 0 -18 22 -26 68
-26 67 0 112 -12 112 -28 0 -36 -28 -89 -67 -128 -24 -23 -43 -47 -43 -55 -1
-17 -24 -49 -36 -49 -8 0 -54 -63 -54 -75 0 -3 -9 -14 -20 -25 -11 -11 -20
-24 -20 -29 0 -4 23 -19 50 -32 28 -13 50 -28 50 -32 0 -10 41 -46 52 -47 17
0 108 -63 108 -74 0 -12 31 -33 113 -75 26 -14 47 -31 47 -38 0 -7 10 -18 23
-23 37 -16 66 -46 86 -92 10 -23 30 -56 45 -73 14 -16 26 -38 26 -47 0 -9 6
-21 13 -25 20 -12 57 -78 57 -100 0 -11 9 -30 19 -42 20 -23 24 -37 37 -121 3
-25 9 -47 13 -50 4 -3 19 -81 35 -175 15 -93 32 -171 37 -173 5 -2 9 -18 9
-36 0 -44 18 -63 65 -70 22 -3 58 -9 80 -14 22 -4 64 -5 93 -2 49 6 53 4 58
-17 8 -28 20 -30 27 -3 6 25 33 17 40 -12 4 -15 11 -19 28 -15 12 3 32 -1 45
-9 16 -11 36 -14 71 -9 84 11 93 14 93 35 0 11 5 20 10 20 6 0 10 -11 10 -25
0 -14 3 -25 6 -25 17 0 44 23 45 38 0 14 2 14 9 -3 6 -15 9 -16 9 -4 1 15 -56
61 -113 89 -16 8 -31 23 -34 33 -2 9 -21 25 -41 34 -20 9 -50 27 -67 40 -17
13 -36 23 -43 23 -6 0 -16 11 -21 25 -5 14 -14 25 -19 25 -6 0 -14 17 -19 38
-5 20 -20 81 -33 135 -13 53 -26 97 -30 97 -4 0 -12 29 -19 65 -7 36 -16 65
-21 65 -5 0 -9 14 -9 30 0 27 -8 64 -43 198 -6 23 -14 42 -18 42 -3 0 -9 17
-12 38 -14 81 -28 136 -36 142 -5 3 -12 16 -15 30 -21 100 -50 206 -56 210 -4
3 -15 39 -24 80 -15 68 -15 81 -2 124 8 27 19 52 24 55 9 7 52 123 59 164 3
15 9 27 14 27 5 0 16 26 25 58 9 31 20 59 24 62 9 7 40 99 40 120 0 18 39 40
70 40 18 0 20 -7 20 -57 0 -55 2 -60 40 -96 22 -20 40 -42 40 -49 0 -6 2 -9 5
-6 8 7 -16 58 -27 58 -4 0 -8 18 -8 40 l0 40 45 0 c25 0 45 -3 45 -7 0 -5 29
-21 65 -37 53 -24 65 -34 65 -53 0 -24 21 -50 65 -79 25 -16 26 -16 48 10 12
14 28 26 35 26 7 0 12 9 12 19 0 11 6 22 13 25 8 3 5 11 -10 24 -26 23 -30 52
-9 52 8 0 17 8 20 18 6 18 77 72 94 72 5 0 12 7 16 15 3 8 12 15 21 15 8 0 15
7 15 15 0 17 37 53 86 85 17 11 35 30 41 43 8 17 38 35 102 63 50 21 91 42 91
46 0 4 7 8 15 8 8 0 15 5 15 10 0 6 6 10 13 10 15 0 57 72 57 99 0 12 4 21 9
21 13 0 91 83 91 97 0 7 15 19 34 27 18 8 37 19 40 25 4 6 16 11 28 11 18 0
20 -4 14 -41 -4 -22 -18 -63 -31 -89 -14 -27 -25 -54 -25 -60 0 -6 -11 -22
-24 -35 -13 -13 -27 -39 -31 -57 -4 -18 -18 -54 -31 -80 -13 -26 -24 -54 -24
-63 0 -8 -4 -15 -10 -15 -5 0 -10 -6 -10 -14 0 -8 -7 -21 -15 -29 -8 -9 -24
-41 -36 -73 l-22 -59 17 -190 c21 -245 21 -244 -6 -249 -13 -3 -70 -16 -128
-30 -92 -22 -128 -25 -295 -26 -220 0 -285 -7 -285 -26 0 -8 -6 -14 -12 -14
-32 0 -90 -23 -108 -42 -14 -15 -20 -36 -20 -65 0 -36 -3 -43 -19 -43 -11 0
-22 -4 -26 -9 -3 -5 -18 -12 -34 -16 -20 -4 -34 -17 -46 -41 -9 -19 -19 -34
-23 -34 -4 0 -22 -13 -40 -29 -41 -39 -44 -92 -7 -135 14 -16 25 -37 25 -48 0
-10 5 -18 11 -18 6 0 20 -11 30 -24 57 -73 212 -77 374 -11 17 7 48 19 69 26
22 8 41 21 43 30 2 8 33 28 69 44 36 16 70 35 76 42 6 7 19 13 29 13 11 0 19
6 19 13 0 12 28 32 118 79 42 22 65 28 117 28 49 0 65 3 65 14 0 13 97 52 106
43 7 -6 44 -159 44 -179 0 -10 5 -18 10 -18 27 0 5 -27 -35 -43 -25 -11 -45
-25 -45 -33 0 -7 -12 -17 -27 -20 -16 -4 -37 -13 -48 -19 -11 -7 -72 -23 -135
-35 -143 -27 -150 -29 -150 -44 0 -11 -48 -26 -135 -43 -16 -3 -42 -17 -57
-31 -23 -21 -28 -34 -28 -73 0 -39 -4 -49 -25 -63 -14 -9 -25 -23 -25 -31 0
-8 -4 -15 -8 -15 -5 0 -23 -20 -41 -45 -28 -39 -32 -51 -26 -84 4 -22 15 -47
26 -57 10 -9 19 -25 19 -35 0 -17 13 -25 93 -58 20 -8 47 -8 100 0 83 13 133
34 140 59 2 9 24 27 49 39 46 22 81 53 91 84 4 9 13 17 22 17 8 0 15 5 15 10
0 6 6 10 13 10 15 0 71 57 79 80 3 9 18 22 34 30 16 8 38 25 50 38 12 12 32
22 45 22 38 0 69 11 69 24 0 22 64 66 97 66 10 0 31 -11 47 -25 16 -14 33 -25
38 -25 4 0 8 -9 8 -20 0 -11 6 -20 13 -20 7 0 26 -13 41 -29 22 -22 26 -34 21
-53 -9 -28 -46 -64 -77 -74 -29 -9 -68 -45 -68 -62 0 -7 -21 -22 -47 -34 -27
-11 -67 -29 -90 -39 -23 -11 -49 -19 -58 -19 -9 0 -19 -8 -22 -18 -4 -15 -68
-52 -91 -52 -18 0 -72 -58 -72 -78 0 -11 -6 -23 -12 -25 -10 -4 -10 -6 0 -6
14 -1 17 -61 2 -61 -5 0 -10 -7 -10 -15 0 -7 -6 -18 -13 -22 -23 -15 -49 -89
-42 -121 8 -37 16 -44 78 -67 26 -10 47 -24 47 -31 0 -10 13 -14 40 -14 28 0
40 4 40 14 0 8 22 21 53 31 52 17 107 64 107 90 0 8 12 22 28 32 37 23 71 64
72 86 0 9 20 37 45 61 25 25 45 50 45 57 0 24 51 78 85 90 19 7 35 17 35 22 0
5 16 31 36 58 28 39 42 49 64 49 16 0 32 -4 35 -10 3 -5 23 -17 43 -26 20 -8
44 -20 52 -25 8 -5 25 -14 38 -21 12 -6 22 -17 22 -24 0 -6 12 -17 28 -23 32
-13 86 -43 108 -62 9 -8 51 -15 105 -17 61 -3 89 -8 89 -17 0 -9 64 -14 248
-19 136 -4 252 -7 257 -7 6 -1 47 3 93 7 59 5 82 11 82 20 0 8 3 14 8 15 96 6
277 36 300 49 9 5 33 16 54 25 20 9 38 24 41 34 4 15 139 91 162 91 14 0 85
-80 85 -95 0 -7 19 -21 43 -30 38 -14 87 -67 87 -94 0 -5 18 -27 40 -50 22
-22 40 -45 40 -51 0 -23 56 -99 77 -105 13 -3 23 -12 23 -21 0 -28 65 -80 114
-93 27 -6 46 -17 46 -25 0 -19 23 -26 64 -19 20 3 36 12 39 22 2 9 24 27 50
40 60 31 74 78 37 121 -11 13 -20 29 -20 36 0 7 -7 17 -16 22 -12 7 -19 30
-23 82 -8 81 -16 92 -108 132 -28 12 -54 30 -56 40 -3 11 -14 18 -29 18 -13 0
-32 6 -43 14 -11 7 -38 19 -60 26 -48 16 -84 40 -85 58 0 6 -27 31 -60 55 -47
33 -60 48 -60 69 0 29 36 98 51 98 5 0 9 9 9 20 0 11 9 28 20 37 11 10 20 23
20 30 0 21 27 15 47 -10 10 -13 35 -29 55 -36 23 -8 38 -20 42 -34 7 -28 62
-63 121 -79 32 -9 45 -17 45 -30 0 -11 16 -25 43 -37 23 -11 55 -31 70 -45 15
-14 31 -26 35 -26 4 0 13 -13 20 -29 7 -16 27 -37 45 -46 78 -40 87 -47 87
-58 0 -17 63 -43 138 -58 66 -13 127 -2 163 28 8 7 21 13 27 13 7 0 12 7 12
15 0 9 9 25 19 37 11 11 23 38 26 59 6 34 3 45 -21 77 -15 20 -34 41 -41 45
-7 4 -13 15 -13 23 0 8 -10 18 -23 23 -33 13 -45 32 -45 72 0 43 -17 79 -37
79 -8 0 -15 4 -15 9 0 5 -12 11 -27 14 -97 20 -133 31 -133 42 0 15 -22 21
-100 30 -30 4 -71 12 -90 17 -42 13 -100 55 -100 73 0 8 -14 16 -31 20 -35 8
-49 35 -73 141 -26 118 -20 144 29 110 11 -7 32 -16 48 -20 15 -3 27 -13 27
-21 0 -12 15 -15 69 -15 49 0 72 -4 81 -15 7 -8 18 -15 24 -15 20 0 145 -65
146 -75 0 -10 26 -24 148 -84 17 -8 32 -21 32 -27 0 -15 47 -37 160 -74 107
-35 247 -43 270 -15 7 8 21 15 30 15 10 0 27 11 38 25 11 14 25 25 31 25 6 0
11 8 11 18 0 9 11 30 25 46 47 55 32 113 -42 163 -13 9 -23 21 -23 28 0 16
-51 48 -102 65 -36 11 -38 14 -38 54 0 28 -7 49 -20 64 -18 19 -76 42 -107 42
-7 0 -13 6 -13 14 0 18 -85 26 -284 26 -161 0 -215 7 -366 48 -64 17 -65 18
-68 55 -2 20 -7 37 -12 37 -4 0 -13 38 -20 85 -7 47 -16 85 -21 85 -5 0 -9 10
-9 23 1 37 -63 412 -71 417 -3 3 -10 29 -14 58 -4 28 -10 52 -14 52 -9 0 -44
210 -37 218 10 9 56 -17 56 -32 0 -8 9 -18 20 -21 11 -3 20 -9 20 -13 0 -4 14
-21 30 -39 17 -18 30 -38 30 -45 0 -7 14 -29 30 -48 16 -19 30 -38 30 -42 0
-5 7 -8 15 -8 8 0 15 -4 15 -10 0 -5 7 -10 15 -10 8 0 15 -4 15 -10 0 -10 108
-63 152 -74 16 -3 34 -19 43 -36 8 -16 25 -35 37 -41 12 -6 27 -16 32 -21 6
-4 20 -16 32 -26 11 -9 25 -25 30 -35 6 -10 35 -35 65 -56 31 -21 55 -46 57
-58 2 -12 12 -23 23 -26 20 -5 26 -32 9 -42 -22 -14 -10 -58 27 -91 20 -19 40
-34 44 -34 14 0 87 75 93 96 4 12 20 27 36 34 16 7 35 18 41 26 6 8 20 14 30
14 11 0 19 5 19 10 0 6 20 10 45 10 45 0 45 0 45 -35 0 -37 12 -44 36 -21 9 9
14 35 14 70 0 49 2 56 20 56 35 0 70 -23 76 -49 11 -47 37 -111 45 -111 5 0 9
-9 9 -19 0 -11 9 -40 20 -66 11 -26 20 -55 20 -66 0 -10 4 -19 9 -19 5 0 20
-34 32 -75 13 -41 27 -75 31 -75 4 0 14 -23 22 -51 14 -47 14 -58 -1 -118 -9
-36 -19 -68 -23 -71 -3 -3 -17 -50 -30 -105 -13 -55 -26 -102 -30 -105 -4 -3
-12 -27 -19 -55 -7 -27 -17 -69 -23 -92 -6 -24 -15 -43 -19 -43 -5 0 -9 -10
-9 -21 0 -12 -4 -38 -9 -58 -6 -20 -15 -57 -22 -83 -6 -27 -16 -48 -20 -48 -5
0 -9 -8 -9 -17 0 -27 -34 -157 -43 -164 -4 -3 -14 -37 -22 -77 -8 -39 -19 -83
-25 -97 -5 -14 -10 -37 -10 -50 0 -13 -5 -25 -10 -27 -6 -2 -14 -24 -18 -50
-7 -50 -3 -46 -154 -125 -16 -8 -28 -20 -28 -28 0 -7 -38 -35 -85 -61 -74 -43
-106 -74 -75 -74 6 0 10 7 10 15 0 8 5 15 10 15 6 0 10 -9 10 -19 0 -10 7 -21
15 -25 8 -3 15 -1 15 4 0 6 9 10 20 10 11 0 20 -4 20 -10 0 -5 16 -10 35 -10
19 0 45 -5 59 -11 20 -10 30 -9 50 5 14 9 39 16 56 16 23 0 30 4 30 20 0 13 7
20 20 20 11 0 20 -7 20 -15 0 -8 7 -15 15 -15 8 0 15 9 15 19 0 11 5 23 10 26
6 3 10 1 10 -4 0 -14 153 -5 180 9 10 6 34 10 53 10 39 0 40 3 52 103 4 31 11
57 16 57 5 0 9 18 9 41 0 59 42 309 52 309 4 0 8 14 8 30 0 34 35 110 50 110
6 0 10 7 10 16 0 18 37 83 56 99 6 6 14 21 17 35 4 14 20 40 37 58 16 18 30
41 30 51 0 23 53 79 86 91 13 5 24 16 24 25 0 9 10 20 23 25 12 5 40 21 62 35
22 14 48 28 58 31 9 4 17 12 17 18 0 16 40 44 113 80 31 16 57 34 57 40 0 6
20 22 45 36 25 14 45 27 45 30 0 4 -9 16 -20 28 -11 12 -20 25 -20 29 0 4 -20
30 -45 57 -25 26 -45 53 -45 60 0 6 -12 22 -25 35 -14 13 -25 27 -25 32 0 5
-6 9 -13 9 -18 0 -37 35 -43 84 l-6 43 68 7 c91 10 114 16 114 30 0 7 27 17
59 24 34 7 61 19 65 27 3 8 14 15 24 15 10 0 27 7 38 15 10 8 26 15 34 15 17
0 60 -47 60 -67 0 -7 5 -13 10 -13 6 0 10 -7 10 -15 0 -8 19 -24 43 -36 23
-12 53 -30 67 -39 14 -10 51 -21 83 -25 38 -5 57 -12 57 -21 0 -10 14 -14 50
-14 37 0 50 4 50 14 0 9 22 21 57 31 88 26 153 66 153 95 0 5 6 13 14 17 21
12 46 63 46 95 0 15 7 33 15 42 18 18 20 92 3 99 -10 4 -10 6 0 6 14 1 17 31
3 31 -5 0 -12 15 -16 33 -4 17 -9 39 -11 48 -4 13 4 18 33 22 58 8 172 36 193
47 11 6 22 21 26 35 3 14 17 28 32 33 27 9 34 20 67 99 14 33 23 42 47 45 16
3 31 0 35 -5 3 -5 17 -7 31 -4 33 6 52 -13 52 -53 0 -27 28 -76 31 -53 1 4 5
-3 10 -17 7 -20 7 -17 4 15 -3 22 -8 79 -11 128 l-7 87 26 0 c14 0 30 6 34 13
8 12 56 37 72 37 5 0 18 -30 30 -68 l22 -67 38 3 c41 4 43 2 72 -125 11 -45
16 -53 36 -53 19 0 23 -5 24 -32 1 -18 5 -44 9 -58 6 -16 7 -6 3 30 -3 30 -12
60 -19 66 -8 6 -14 19 -14 28 0 9 -4 16 -10 16 -5 0 -10 22 -10 49 0 26 -4 61
-9 77 -10 34 -27 112 -36 167 l-6 39 43 -7 c97 -15 115 -23 122 -55 3 -17 12
-30 19 -30 15 0 37 -40 37 -68 0 -9 5 -24 10 -32 8 -11 9 -9 5 11 -5 21 -2 27
16 32 27 7 39 1 39 -19 0 -8 6 -14 13 -14 17 0 36 -34 52 -94 8 -28 23 -69 34
-91 12 -21 21 -45 21 -52 0 -7 7 -13 15 -13 8 0 15 -4 15 -9 0 -5 8 -12 18
-16 14 -5 15 -4 5 6 -7 7 -13 23 -13 35 0 32 -10 54 -25 54 -7 0 -20 28 -29
63 -43 157 -74 237 -92 237 -21 0 -17 47 4 54 35 12 102 68 102 87 0 4 10 9
23 11 16 2 23 11 25 31 l3 27 -397 0 c-219 0 -395 3 -392 6 4 3 317 6 696 7
506 2 688 -1 685 -9 -8 -23 27 -24 41 -1 15 24 36 133 36 190 0 25 5 37 14 37
15 0 26 30 26 73 0 17 5 27 15 27 9 0 15 -9 15 -22 0 -12 5 -48 12 -79 9 -47
9 -74 -3 -141 l-14 -83 85 7 c47 4 127 5 178 1 l92 -6 0 95 0 95 -66 6 c-40 3
-70 10 -75 18 -6 10 -9 11 -9 2 0 -9 -23 -13 -80 -13 l-80 0 0 35 0 35 80 0
c47 0 80 4 80 10 0 6 30 10 70 10 l70 0 0 80 0 80 -169 0 c-103 0 -172 4 -176
10 -4 6 41 10 127 11 101 0 126 3 106 11 -17 6 -28 17 -28 29 0 19 -104 19
-6684 19 -6597 0 -6685 0 -6691 -19z m4960 -31 c4 -6 -11 -10 -39 -10 -25 0
-48 5 -51 10 -4 6 11 10 39 10 25 0 48 -4 51 -10z m655 0 c10 -6 -46 -10 -168
-10 -120 0 -181 3 -177 10 8 13 325 13 345 0z m815 0 c12 -5 -95 -9 -260 -9
-165 0 -272 4 -260 9 11 5 128 9 260 9 132 0 249 -4 260 -9z m1010 0 c4 -7
-85 -10 -260 -10 -175 0 -264 3 -260 10 4 6 102 10 260 10 158 0 256 -4 260
-10z m640 0 c12 -5 -52 -9 -163 -9 -120 -1 -181 2 -177 9 8 12 311 12 340 0z
m405 0 c-8 -5 -35 -10 -60 -10 -33 0 -41 3 -30 10 8 5 35 10 60 10 33 0 41 -3
30 -10z m-6765 -20 c-7 -12 -1283 -12 -1330 0 -16 4 277 8 653 9 453 1 681 -2
677 -9z m1515 0 c0 -13 -1306 -13 -1335 0 -11 5 270 9 658 9 445 1 677 -2 677
-9z m530 0 c0 -13 -330 -13 -350 0 -10 6 46 10 168 10 115 0 182 -4 182 -10z
m414 -1 c-3 -6 -90 -8 -200 -7 -107 2 -184 6 -171 9 37 10 377 8 371 -2z
m5367 3 c9 -4 -67 -8 -171 -10 -114 -2 -190 0 -194 6 -7 11 336 15 365 4z
m404 -2 c-4 -6 -75 -10 -181 -10 -109 0 -174 4 -174 10 0 6 67 10 181 10 117
0 178 -3 174 -10z m1510 0 c-29 -13 -1335 -13 -1335 0 0 7 232 10 678 9 387 0
668 -4 657 -9z m1510 0 c-29 -13 -1325 -13 -1325 0 0 7 230 10 673 9 384 0
663 -4 652 -9z m-4437 -5 c-7 -7 -3719 -7 -3726 0 -3 3 835 5 1863 5 1028 0
1866 -2 1863 -5z m-4201 -25 c-14 -11 -32 -20 -41 -20 -9 0 -16 -4 -16 -10 0
-5 -4 -10 -9 -10 -22 0 -62 -50 -68 -84 l-6 -36 52 0 c51 0 51 0 52 -32 1 -18
3 -25 6 -15 3 10 14 17 28 17 19 0 24 7 29 44 5 32 14 49 32 61 14 9 32 32 40
50 8 19 23 39 33 45 21 11 74 14 84 4 13 -14 -7 -34 -34 -34 -16 0 -29 -4 -29
-10 0 -5 -8 -10 -18 -10 -24 0 -62 -68 -62 -109 0 -30 1 -31 45 -31 43 0 45
-1 45 -30 0 -29 -1 -30 -48 -30 l-49 0 7 -46 c4 -25 17 -58 28 -74 12 -16 22
-36 22 -44 0 -13 95 -44 105 -34 3 3 -6 33 -20 68 -15 40 -25 84 -25 117 0 48
2 53 25 59 17 4 25 13 25 28 0 41 11 62 45 85 19 13 37 33 41 45 12 39 35 56
76 56 32 0 39 -3 36 -17 -2 -12 -14 -19 -38 -21 -30 -3 -80 -42 -80 -64 0 -4
-6 -13 -14 -20 -20 -20 -27 -51 -16 -68 8 -13 216 -15 1747 -18 956 -2 1879
-1 2052 3 l313 7 -5 45 c-2 24 -12 52 -21 62 -9 10 -16 25 -16 33 0 9 -7 18
-14 21 -10 4 -13 1 -9 -9 3 -7 0 -14 -6 -14 -6 0 -11 5 -11 10 0 6 -11 10 -24
10 -34 0 -42 28 -10 36 37 9 73 -14 91 -58 8 -20 24 -40 35 -43 21 -7 38 -43
38 -82 0 -25 2 -26 46 -19 26 3 67 6 92 6 l45 0 -7 43 c-4 23 -15 49 -26 59
-11 9 -20 21 -20 27 0 6 -7 11 -15 11 -8 0 -15 5 -15 10 0 6 -13 10 -29 10
-39 0 -49 27 -14 36 29 8 51 -3 67 -31 6 -11 26 -35 43 -55 18 -19 33 -41 33
-47 0 -7 5 -13 10 -13 6 0 10 -14 10 -31 0 -29 2 -31 30 -27 l30 5 0 -68 c0
-40 -5 -73 -12 -81 -23 -25 -38 -57 -38 -83 0 -15 -6 -25 -14 -25 -8 0 -18 -5
-21 -11 -4 -5 10 -3 30 5 21 9 46 16 56 16 10 0 23 9 29 20 6 11 22 31 35 44
14 14 25 32 25 41 0 8 5 15 10 15 6 0 10 16 10 35 l0 35 -50 0 c-46 0 -50 2
-50 24 0 13 -3 31 -6 40 -5 13 3 16 50 16 53 0 56 1 56 25 0 14 -4 25 -9 25
-5 0 -12 8 -15 18 -9 25 -56 78 -56 61 0 -10 -3 -10 -8 -3 -4 7 -18 14 -32 15
-32 5 -33 33 -1 37 36 5 67 -16 86 -58 10 -21 26 -40 36 -43 21 -6 24 -13 33
-68 6 -31 9 -36 30 -32 26 5 36 -15 36 -79 0 -39 -27 -118 -40 -118 -4 0 -10
-13 -12 -30 l-4 -29 60 -4 61 -3 -75 -3 c-53 -2 -84 -8 -105 -22 -51 -32 -55
-33 -147 -20 -67 9 -94 9 -104 0 -14 -11 -137 -9 -164 4 -10 5 -24 0 -37 -13
-18 -16 -36 -20 -87 -20 -56 0 -69 3 -93 26 l-28 27 -305 -7 c-168 -3 -357 -6
-420 -6 -89 0 -111 -3 -102 -12 7 -7 12 -18 12 -25 0 -8 18 -32 40 -54 22 -22
40 -47 40 -56 0 -18 34 -69 67 -100 13 -12 23 -29 23 -36 0 -8 6 -17 14 -20
28 -11 105 -73 105 -85 1 -7 10 -29 20 -50 10 -20 27 -77 37 -127 10 -49 22
-91 26 -93 11 -5 10 -62 -2 -62 -5 0 -12 -17 -15 -37 -4 -21 -11 -49 -17 -63
-29 -69 -51 -310 -28 -310 6 0 10 -7 10 -15 0 -9 8 -28 17 -43 l17 -27 -30 25
c-38 34 -125 70 -167 70 -9 0 -17 6 -17 14 0 7 -10 16 -22 20 -33 8 -128 -5
-128 -18 0 -7 -51 -18 -132 -29 -181 -24 -170 -25 -168 26 4 98 13 90 -97 83
-164 -10 -180 -14 -198 -49 -22 -45 -19 -66 13 -78 72 -29 72 -42 0 -43 -48
-1 -52 -3 -59 -30 -8 -29 10 -71 38 -89 7 -4 13 -16 13 -25 0 -10 17 -25 40
-35 50 -23 51 -37 2 -37 -41 0 -111 43 -112 68 0 6 -11 12 -24 12 -13 0 -29 7
-36 15 -7 8 -19 15 -26 15 -8 0 -14 -7 -14 -15 0 -8 -4 -15 -10 -15 -5 0 -10
-7 -10 -15 0 -8 -7 -15 -15 -15 -9 0 -15 -9 -15 -25 0 -28 -16 -31 -44 -10
-11 8 -35 15 -53 15 -27 0 -35 -5 -44 -27 -11 -30 -14 -226 -4 -244 6 -8 31
-9 89 -4 107 9 123 13 129 36 4 16 14 19 61 19 40 0 56 4 56 13 0 21 32 46 67
53 31 6 31 7 28 60 l-3 53 56 3 c43 2 57 7 57 18 1 38 30 103 49 110 32 11
106 -28 106 -56 0 -6 12 -20 27 -29 32 -21 90 -21 188 0 39 8 80 15 93 15 13
0 22 6 22 15 0 9 10 15 23 16 12 0 36 2 52 4 17 1 45 1 63 -2 31 -5 33 -7 26
-37 -3 -17 -15 -43 -25 -58 -11 -14 -19 -33 -19 -42 0 -9 -6 -19 -14 -22 -8
-3 -17 -21 -20 -40 -4 -19 -11 -34 -16 -34 -6 0 -10 -9 -10 -20 0 -11 5 -20
12 -20 6 0 9 -2 7 -5 -11 -10 -47 8 -52 26 -3 10 -13 22 -24 25 -10 3 -27 10
-38 16 -12 7 -100 13 -216 16 -171 3 -198 1 -212 -13 -21 -21 -12 -71 20 -105
13 -13 23 -28 23 -32 0 -5 7 -8 15 -8 8 0 15 -7 15 -16 0 -35 41 -53 125 -54
77 -1 79 -1 53 -16 -18 -9 -28 -23 -28 -38 0 -13 -11 -31 -25 -42 -14 -10 -25
-29 -25 -41 0 -13 -3 -23 -6 -23 -10 0 -49 23 -55 33 -4 6 -14 5 -26 -1 -13
-8 -31 -7 -59 0 -21 6 -64 11 -94 12 l-55 1 -3 -35 c-2 -20 4 -49 12 -65 10
-19 12 -33 6 -41 -6 -6 -57 -17 -115 -24 -73 -10 -105 -18 -105 -27 0 -7 -3
-13 -7 -13 -5 0 -39 -5 -78 -11 -38 -6 -81 -11 -95 -10 -32 1 -70 21 -70 37 0
25 -89 52 -267 80 -121 19 -183 33 -183 41 0 7 -8 17 -19 22 -22 12 -34 48
-19 57 7 4 4 10 -6 16 -9 5 -16 15 -16 23 0 19 -65 39 -98 29 -15 -4 -30 -8
-34 -9 -5 -2 -15 -3 -23 -4 -8 0 -15 -10 -15 -20 0 -30 -51 -78 -90 -86 -61
-11 -70 -16 -71 -33 -1 -16 -16 25 -22 58 -5 27 -16 37 -47 43 -18 4 -30 13
-30 22 0 9 -7 27 -16 40 l-16 25 124 0 c111 0 125 2 141 20 9 11 17 27 17 35
0 9 8 18 18 22 31 11 55 45 63 87 12 68 11 69 -216 64 -187 -3 -203 -5 -239
-26 -39 -23 -76 -22 -76 3 0 7 -6 16 -12 19 -10 5 -10 7 1 12 7 4 9 9 4 13
-16 11 -74 142 -71 159 2 10 12 17 26 16 103 -3 112 -5 112 -19 0 -8 3 -15 8
-15 13 -1 136 -20 190 -29 60 -11 121 7 129 39 5 20 74 70 97 70 7 0 17 -11
20 -25 4 -14 11 -25 16 -25 6 0 10 -4 10 -9 0 -24 47 -79 71 -84 25 -6 26 -9
22 -54 -4 -40 -1 -51 16 -67 12 -11 21 -27 21 -36 0 -13 25 -23 113 -45 61
-16 119 -33 128 -38 11 -7 26 -6 47 1 16 5 57 8 89 5 52 -5 61 -3 67 13 11 28
8 174 -5 248 -11 63 -12 66 -39 66 -16 0 -36 3 -45 6 -11 5 -18 0 -22 -15 -4
-16 -13 -21 -39 -21 -21 0 -34 5 -34 13 0 16 -66 79 -102 97 -16 7 -28 19 -28
27 0 7 -7 13 -15 13 -22 0 -18 17 10 48 14 15 23 33 20 40 -3 8 -5 17 -5 22 0
4 -27 15 -60 24 -37 11 -64 24 -70 36 -9 18 -7 20 17 20 15 0 50 -7 77 -15
134 -41 199 14 112 95 -15 13 -41 29 -58 35 -36 11 -43 23 -27 45 8 11 12 12
16 3 2 -7 16 -13 29 -13 13 0 24 -4 24 -10 0 -15 40 -12 56 5 18 18 13 40 -18
77 -13 14 -30 36 -38 47 -8 12 -20 21 -27 21 -16 0 -93 97 -93 116 0 8 -12 19
-26 24 -27 11 -24 30 4 30 25 0 61 -27 82 -62 10 -17 39 -40 68 -53 43 -20 52
-21 63 -9 6 8 19 14 28 15 12 0 11 2 -4 9 -17 7 -17 9 -2 9 11 1 17 9 17 25 0
38 23 50 59 32 16 -9 41 -16 56 -16 14 0 25 -4 25 -10 0 -5 14 -10 30 -10 17
0 30 -4 30 -10 0 -17 57 -11 64 7 12 30 -24 52 -106 64 -86 13 -109 29 -101
72 5 25 9 27 52 27 26 0 51 3 54 7 12 12 -25 43 -47 39 -12 -2 -15 -1 -8 1 6
3 12 14 12 27 0 12 5 27 11 33 6 6 9 21 7 34 -3 22 -9 24 -63 27 -89 5 -169
-6 -156 -22 16 -19 3 -26 -50 -26 -26 0 -51 -4 -54 -10 -3 -5 -17 -10 -31 -10
-13 0 -24 -4 -24 -10 0 -5 -9 -10 -20 -10 -11 0 -20 -4 -20 -9 0 -5 -10 -11
-22 -13 -33 -4 -35 -41 -4 -66 15 -11 26 -27 26 -36 0 -27 -34 -17 -55 17 -28
44 -76 49 -111 12 -29 -32 -30 -40 -3 -58 18 -13 19 -18 7 -36 -8 -13 -23 -21
-40 -21 -36 0 -58 -24 -58 -65 0 -19 -5 -37 -10 -40 -7 -4 -5 -14 5 -28 20
-28 19 -54 -2 -66 -13 -7 -14 -13 -6 -23 6 -7 13 -44 16 -81 l5 -69 -49 7 -49
7 0 -51 c0 -36 4 -51 13 -51 17 0 39 -26 54 -61 10 -23 9 -26 -5 -24 -9 2 -77
9 -149 16 -92 8 -133 16 -133 24 0 16 -81 29 -120 20 -17 -4 -30 -12 -30 -19
0 -17 -66 -36 -128 -36 -48 0 -50 1 -54 30 -4 29 -3 30 36 32 23 0 49 0 59 0
10 -1 30 5 45 13 26 14 26 14 5 15 -13 0 -23 -4 -23 -10 0 -5 -7 -10 -15 -10
-8 0 -15 5 -15 10 0 6 5 10 12 10 6 0 22 9 34 21 14 13 28 18 35 13 9 -5 8 -9
-7 -15 -26 -10 63 -10 96 1 14 4 20 8 13 9 -7 1 -2 19 13 51 13 27 24 66 24
85 0 19 5 35 10 35 6 0 10 11 10 25 0 14 4 25 8 25 8 0 27 125 38 249 5 61 42
141 65 141 5 0 9 9 9 20 0 11 4 20 8 20 5 0 24 21 42 48 31 42 35 54 36 117 1
39 2 75 3 81 0 7 25 23 54 38 31 15 58 36 65 50 6 14 21 26 34 29 13 2 -34 5
-104 6 -120 1 -178 -9 -178 -31 0 -4 -25 -8 -55 -8 -54 0 -72 13 -37 28 9 4
-165 12 -388 17 -388 10 -406 10 -437 -8 -18 -10 -33 -23 -33 -28 0 -5 -27 -9
-60 -9 -48 0 -66 5 -83 21 -15 13 -28 18 -42 13 -33 -12 -162 -16 -182 -6 -11
6 -47 6 -95 -1 -66 -8 -83 -7 -113 7 -19 9 -37 21 -40 26 -3 6 -36 11 -73 12
l-67 1 55 7 c30 4 49 7 43 8 -7 1 -13 11 -13 23 0 23 -16 56 -37 77 -10 10
-13 33 -11 75 3 59 4 61 36 69 28 8 32 13 32 43 0 21 8 43 19 54 11 11 25 29
31 41 29 55 52 70 103 70 l50 0 -26 -20z m-1027 -180 c7 -38 16 -70 20 -70 4
0 10 -42 13 -93 3 -51 9 -101 13 -110 11 -30 -44 -35 -85 -8 -21 14 -34 182
-19 259 6 34 15 62 20 62 4 0 8 9 8 21 0 42 17 8 30 -61z m8340 -18 c22 -94
-3 -249 -45 -276 -32 -21 -81 -6 -69 22 4 9 9 32 12 50 2 17 8 32 13 32 5 0 9
16 9 35 0 19 4 35 9 35 5 0 11 24 14 53 8 65 17 118 24 137 6 17 12 0 33 -88z
m-1556 71 c2 -10 8 -37 11 -60 4 -24 11 -43 16 -43 5 0 9 -22 9 -50 0 -27 -4
-50 -10 -50 -5 0 -10 -21 -10 -46 0 -57 -32 -116 -58 -107 -26 9 -42 24 -37
34 3 4 10 59 16 121 6 62 14 115 19 118 4 3 11 26 15 53 7 48 20 61 29 30z
m-8424 -68 l0 -35 -680 0 -680 0 0 35 0 35 680 0 680 0 0 -35z m1530 0 l0 -35
-675 0 -675 0 0 35 0 35 675 0 675 0 0 -35z m880 0 l0 -35 -355 0 -355 0 0 35
0 35 355 0 355 0 0 -35z m5910 0 l0 -35 -350 0 -350 0 0 35 0 35 350 0 350 0
0 -35z m1540 0 l0 -35 -685 0 -685 0 0 35 0 35 685 0 685 0 0 -35z m1532 12
c2 -12 3 -28 0 -35 -3 -9 -159 -12 -678 -12 l-674 0 0 25 c0 14 -4 25 -10 25
-5 0 -10 5 -10 10 0 7 235 10 684 10 l684 0 4 -23z m-10019 -164 c-18 -2 -48
-2 -65 0 -18 2 -4 4 32 4 36 0 50 -2 33 -4z m660 0 c-18 -2 -48 -2 -65 0 -18
2 -4 4 32 4 36 0 50 -2 33 -4z m-498 -82 c22 -5 -262 -8 -650 -8 -379 0 -663
3 -630 7 88 10 1233 10 1280 1z m660 -1 c89 -5 44 -7 -175 -7 -162 0 -272 3
-245 7 65 9 268 9 420 0z m6040 0 c42 -4 -50 -7 -225 -6 -192 0 -255 2 -180 6
164 9 324 9 405 0z m1505 0 c52 -3 -215 -7 -595 -7 -379 0 -667 3 -640 7 67 9
1115 10 1235 0z m544 -49 c3 -5 -12 -11 -34 -15 -26 -4 -41 -12 -45 -26 -4
-13 -19 -22 -43 -26 -20 -4 -49 -13 -63 -20 -15 -7 -44 -18 -65 -23 -22 -5
-46 -12 -55 -15 -12 -5 -20 3 -33 34 -19 48 -21 86 -3 93 22 9 336 7 341 -2z
m-7071 -125 c9 -7 17 -18 17 -24 0 -14 40 -84 55 -95 7 -6 6 -10 -2 -14 -7 -2
-13 -10 -13 -16 0 -20 -73 -87 -95 -87 -23 0 -95 64 -95 86 0 8 -4 14 -10 14
-10 0 -49 31 -81 64 -11 11 -19 34 -19 53 l0 33 113 0 c77 -1 117 -5 130 -14z
m3849 -18 c2 -24 -4 -38 -25 -60 -16 -15 -32 -28 -37 -28 -4 0 -10 -7 -14 -15
-3 -8 -12 -15 -21 -15 -8 0 -15 -7 -15 -15 0 -19 -44 -60 -83 -76 -26 -11 -31
-9 -61 20 -17 17 -37 31 -44 31 -7 0 -12 6 -12 13 0 6 -3 21 -6 33 -4 15 4 31
25 55 17 18 31 39 31 47 0 34 23 41 142 42 l117 0 3 -32z m-6332 12 c0 -5 -4
-10 -10 -10 -5 0 -10 -7 -10 -15 0 -8 -7 -15 -15 -15 -20 0 -19 20 3 36 21 16
32 17 32 4z m86 -6 c-3 -9 -6 -20 -6 -25 0 -5 -7 -9 -15 -9 -8 0 -15 4 -15 9
0 5 -3 16 -6 25 -5 12 0 16 21 16 21 0 26 -4 21 -16z m8448 -6 c-8 -28 -3 -24
-41 -31 -25 -5 -33 -3 -33 7 0 33 13 46 47 46 31 0 34 -2 27 -22z m74 10 c18
-18 14 -38 -8 -38 -11 0 -20 4 -20 9 0 5 -3 16 -6 25 -7 19 16 22 34 4z
m-8425 -18 c-3 -11 -13 -20 -23 -20 -10 0 -20 9 -23 20 -4 16 0 20 23 20 23 0
27 -4 23 -20z m97 0 c0 -13 -7 -20 -20 -20 -13 0 -20 7 -20 20 0 13 7 20 20
20 13 0 20 -7 20 -20z m8050 0 c0 -13 -7 -20 -20 -20 -13 0 -20 7 -20 20 0 13
7 20 20 20 13 0 20 -7 20 -20z m113 13 c-7 -2 -13 -11 -13 -19 0 -22 -37 -17
-43 6 -4 17 0 20 31 19 21 0 31 -3 25 -6z m-8073 -18 c0 -8 -4 -15 -10 -15 -5
0 -10 7 -10 15 0 8 5 15 10 15 6 0 10 -7 10 -15z m7860 0 c0 -8 -4 -15 -10
-15 -5 0 -10 7 -10 15 0 8 5 15 10 15 6 0 10 -7 10 -15z m-8181 -44 c7 -5 10
-14 7 -20 -9 -14 -46 -14 -66 -1 -13 9 -13 11 0 20 19 12 41 12 59 1z m110 -7
c8 -8 -21 -24 -46 -24 -25 0 -38 15 -27 31 6 10 61 6 73 -7z m86 -4 c0 -18
-43 -26 -59 -10 -8 8 -7 13 4 20 21 14 55 8 55 -10z m89 14 c27 -10 19 -34
-12 -34 -35 0 -45 9 -31 27 13 15 20 16 43 7z m101 -14 c0 -9 -11 -16 -27 -18
-23 -3 -28 1 -28 18 0 17 5 21 28 18 16 -2 27 -9 27 -18z m102 4 c5 -14 -11
-34 -27 -34 -3 0 -11 4 -19 9 -19 12 -6 41 19 41 11 0 23 -7 27 -16z m87 10
c21 -8 20 -32 -1 -36 -27 -6 -53 3 -53 17 0 20 27 29 54 19z m101 -19 c0 -15
-6 -19 -24 -17 -31 3 -35 7 -27 27 9 24 51 15 51 -10z m669 19 c9 -3 16 -12
16 -19 0 -20 -36 -28 -61 -14 -22 11 -22 12 -4 25 21 16 27 17 49 8z m101 -19
c0 -13 -8 -21 -24 -23 -28 -4 -45 17 -29 36 17 20 53 11 53 -13z m96 15 c18 0
9 -29 -11 -35 -29 -9 -54 13 -39 32 7 8 19 11 26 8 8 -3 19 -5 24 -5z m5444
-16 c0 -24 -37 -31 -55 -10 -10 13 -9 17 11 25 32 13 44 8 44 -15z m100 1 c0
-13 -8 -21 -24 -23 -32 -5 -48 12 -31 33 18 22 55 15 55 -10z m772 8 c3 -7 -7
-18 -20 -24 -20 -9 -28 -8 -40 2 -13 12 -12 16 7 26 25 15 48 13 53 -4z m93 7
c13 -8 12 -11 -5 -24 -25 -19 -39 -20 -54 -3 -22 27 25 48 59 27z m96 -5 c4
-8 12 -15 20 -15 8 0 14 -4 14 -10 0 -11 -75 -9 -86 2 -3 4 -4 14 -1 23 8 19
46 20 53 0z m92 -6 c4 -19 -19 -31 -38 -19 -18 11 -4 42 17 38 10 -2 19 -10
21 -19z m99 5 c8 -22 -11 -37 -36 -29 -23 7 -28 30 -8 38 23 10 38 7 44 -9z
m98 -9 c0 -22 -31 -33 -47 -17 -17 17 -1 44 24 40 15 -2 23 -10 23 -23z m109
10 c9 -25 -55 -48 -69 -25 -4 6 -4 17 -1 25 7 20 62 19 70 0z m96 5 c13 -8 12
-11 -5 -24 -36 -27 -74 -15 -61 19 6 17 43 20 66 5z m-8640 -15 c0 -8 -4 -15
-10 -15 -5 0 -10 7 -10 15 0 8 5 15 10 15 6 0 10 -7 10 -15z m880 1 c0 -14
-37 -29 -52 -20 -20 13 -7 34 22 34 19 0 30 -5 30 -14z m90 0 c0 -19 -28 -28
-51 -15 -26 14 -15 29 22 29 18 0 29 -5 29 -14z m285 -6 c0 -18 -25 -24 -45
-10 -13 9 -13 11 0 20 20 14 45 8 45 -10z m103 3 c-2 -12 -12 -18 -28 -18 -16
0 -26 6 -28 18 -3 13 3 17 28 17 25 0 31 -4 28 -17z m5916 8 c3 -5 -1 -14 -8
-21 -17 -13 -61 4 -51 21 8 11 52 12 59 0z m98 -6 c0 -5 -6 -14 -15 -19 -17
-11 -51 10 -41 26 7 12 54 6 56 -7z m101 5 c6 0 1 -7 -11 -16 -22 -15 -62 -11
-62 6 0 10 30 19 48 14 8 -2 19 -4 25 -4z m382 -2 c3 -3 0 -10 -7 -15 -14 -12
-63 2 -54 15 5 8 53 9 61 0z m839 -3 c-4 -8 -10 -12 -15 -9 -11 6 -2 24 11 24
5 0 7 -7 4 -15z m-7624 -4 c0 -19 -42 -23 -58 -7 -15 15 -13 16 21 16 20 0 37
-4 37 -9z m100 0 c0 -12 -37 -24 -50 -16 -20 12 -10 25 20 25 17 0 30 -4 30
-9z m6390 -6 c-15 -18 -51 -16 -58 3 -2 8 8 12 33 12 33 0 36 -2 25 -15z m110
10 c0 -10 -40 -24 -54 -19 -28 11 -17 24 19 24 19 0 35 -2 35 -5z m85 -5 c-3
-5 -15 -10 -26 -10 -10 0 -19 5 -19 10 0 6 12 10 26 10 14 0 23 -4 19 -10z
m-7703 -65 c6 -30 2 -35 -28 -35 -28 0 -35 10 -27 38 8 32 49 30 55 -3z m88
10 c0 -8 5 -15 10 -15 6 0 10 -7 10 -15 0 -10 -10 -15 -29 -15 -35 0 -42 8
-34 38 6 25 43 31 43 7z m104 -12 c8 -29 -6 -43 -35 -36 -13 4 -19 14 -19 34
0 24 4 29 24 29 17 0 26 -7 30 -27z m99 5 c8 -27 1 -38 -23 -38 -10 0 -21 4
-24 8 -10 16 7 52 24 52 10 0 20 -10 23 -22z m87 8 c0 -8 6 -17 13 -19 17 -8
-11 -27 -40 -27 -23 0 -32 15 -25 43 5 21 52 24 52 3z m104 -8 c7 -27 -5 -41
-30 -36 -12 2 -20 13 -22 31 -3 23 0 27 21 27 17 0 26 -7 31 -22z m106 -8 c0
-27 -3 -30 -30 -30 -27 0 -30 3 -30 30 0 27 3 30 30 30 27 0 30 -3 30 -30z
m90 10 c0 -11 6 -20 13 -20 6 0 4 -5 -6 -11 -21 -12 -67 -4 -67 11 0 6 5 10
10 10 6 0 10 7 10 15 0 8 9 15 20 15 13 0 20 -7 20 -20z m100 -10 c0 -27 -3
-30 -30 -30 -27 0 -30 3 -30 30 0 27 3 30 30 30 27 0 30 -3 30 -30z m100 0 c0
-27 -3 -30 -30 -30 -27 0 -30 3 -30 30 0 27 3 30 30 30 27 0 30 -3 30 -30z
m90 0 c0 -27 -3 -30 -30 -30 -27 0 -30 3 -30 30 0 27 3 30 30 30 27 0 30 -3
30 -30z m94 4 c8 -30 7 -31 -14 -34 -32 -5 -40 1 -40 30 0 25 4 30 24 30 17 0
26 -7 30 -26z m86 11 c0 -8 5 -15 10 -15 16 0 11 -27 -6 -34 -23 -9 -54 2 -54
20 0 8 5 14 10 14 6 0 10 7 10 15 0 8 7 15 15 15 8 0 15 -7 15 -15z m104 -10
c8 -32 1 -45 -24 -45 -25 0 -32 13 -24 45 4 15 13 25 24 25 11 0 20 -10 24
-25z m86 10 c0 -8 5 -15 10 -15 19 0 10 -29 -11 -35 -28 -9 -42 6 -33 39 7 27
34 37 34 11z m104 -11 c9 -33 -5 -48 -33 -39 -21 6 -30 35 -11 35 6 0 10 7 10
15 0 26 27 16 34 -11z m100 1 c8 -31 1 -45 -23 -45 -25 0 -39 18 -33 46 6 34
47 34 56 -1z m86 10 c0 -8 5 -15 10 -15 18 0 10 -29 -10 -35 -31 -10 -58 10
-53 40 4 18 12 25 29 25 15 0 24 -6 24 -15z m5344 -11 c9 -33 -2 -45 -32 -38
-25 7 -30 34 -7 34 8 0 15 7 15 15 0 25 17 17 24 -11z m109 5 c8 -31 -3 -50
-27 -47 -16 2 -22 11 -24 36 -3 28 0 32 21 32 17 0 26 -7 30 -21z m77 6 c0 -9
7 -18 15 -22 13 -5 13 -8 -5 -20 -17 -12 -23 -12 -40 0 -18 12 -18 15 -5 20 8
4 15 13 15 22 0 8 5 15 10 15 6 0 10 -7 10 -15z m106 -9 c8 -18 8 -28 1 -35
-27 -27 -60 -1 -43 35 6 13 16 24 21 24 6 0 15 -11 21 -24z m84 13 c0 -7 8
-17 17 -24 15 -11 15 -13 -6 -25 -20 -10 -26 -9 -40 5 -12 13 -13 19 -3 22 6
3 12 11 12 19 0 8 5 14 10 14 6 0 10 -5 10 -11z m106 -14 c14 -30 -1 -47 -34
-38 -24 6 -25 7 -16 41 8 29 36 28 50 -3z m104 18 c0 -5 3 -18 6 -30 4 -16 0
-23 -16 -28 -32 -10 -51 10 -36 40 10 22 46 36 46 18z m100 -22 c0 -19 -6 -30
-18 -33 -22 -6 -64 22 -44 29 6 3 12 11 12 19 0 8 10 14 25 14 21 0 25 -5 25
-29z m90 -1 c0 -25 -4 -30 -24 -30 -30 0 -37 9 -29 38 3 15 13 22 29 22 20 0
24 -5 24 -30z m102 5 c6 -30 2 -35 -28 -35 -28 0 -35 10 -27 38 8 32 49 30 55
-3z m88 -5 c0 -27 -3 -30 -30 -30 -20 0 -30 5 -30 15 0 8 5 15 10 15 6 0 10 7
10 15 0 8 9 15 20 15 16 0 20 -7 20 -30z m103 8 c8 -28 1 -38 -28 -38 -29 0
-36 10 -28 38 3 15 13 22 28 22 15 0 25 -7 28 -22z m100 0 c8 -28 1 -38 -26
-38 -29 0 -57 19 -39 27 6 2 12 11 12 19 0 24 47 17 53 -8z m87 7 c0 -8 5 -15
10 -15 6 0 10 -7 10 -15 0 -10 -11 -15 -35 -15 -32 0 -35 2 -35 30 0 25 4 30
25 30 16 0 25 -6 25 -15z m100 8 c0 -5 3 -18 6 -29 7 -25 -26 -39 -50 -20 -24
17 -9 56 20 56 13 0 24 -3 24 -7z m94 -20 c7 -24 -5 -42 -25 -43 -15 0 -28 28
-22 48 8 31 39 28 47 -5z m109 2 c5 -29 -20 -49 -47 -39 -17 7 -22 34 -6 34 6
0 10 7 10 15 0 26 37 17 43 -10z m95 -2 c-2 -22 -9 -29 -30 -31 -30 -4 -31 0
-22 36 4 15 14 22 31 22 21 0 24 -4 21 -27z m-8578 -63 c8 -5 12 -11 9 -14 -7
-8 -49 5 -49 15 0 12 21 11 40 -1z m284 4 c20 -8 21 -31 2 -50 -21 -21 -35
-17 -42 12 -4 17 -2 29 7 35 17 11 14 10 33 3z m312 -15 c10 -17 -7 -49 -27
-49 -41 0 -68 55 -31 62 22 5 51 -2 58 -13z m94 -9 c0 -42 -53 -57 -66 -18 -9
28 20 52 47 37 11 -5 19 -14 19 -19z m90 -11 c0 -24 -4 -29 -25 -29 -18 0 -26
7 -31 26 -8 30 8 44 37 37 13 -4 19 -14 19 -34z m101 13 c-6 -2 -11 -12 -11
-23 0 -22 -25 -25 -46 -5 -19 20 -18 44 4 48 20 5 70 -14 53 -20z m83 15 c26
-19 13 -57 -19 -57 -41 0 -45 69 -4 70 3 0 13 -6 23 -13z m7070 0 c26 -19 13
-57 -19 -57 -28 0 -43 34 -25 55 15 18 21 19 44 2z m195 4 c23 -15 5 -61 -24
-61 -32 0 -45 38 -19 57 21 15 24 16 43 4z m271 -13 c-13 -5 -25 -6 -29 -3 -9
10 21 24 37 17 12 -4 10 -7 -8 -14z m-8385 2 c11 -18 -6 -50 -26 -50 -10 0
-19 5 -19 10 0 6 -7 10 -15 10 -8 0 -15 9 -15 20 0 16 7 20 34 20 19 0 38 -5
41 -10z m85 -4 c0 -27 -12 -46 -30 -46 -18 0 -30 19 -30 46 0 9 11 14 30 14
19 0 30 -5 30 -14z m190 0 c0 -22 -11 -46 -22 -46 -15 0 -38 27 -38 44 0 11 9
16 30 16 19 0 30 -5 30 -14z m105 4 c12 -20 -6 -50 -30 -50 -15 0 -26 7 -30
20 -9 27 1 40 30 40 13 0 27 -5 30 -10z m575 -20 c0 -27 -3 -30 -30 -30 -27 0
-30 3 -30 30 0 27 3 30 30 30 27 0 30 -3 30 -30z m90 1 c0 -31 -13 -41 -42
-33 -12 3 -18 14 -18 33 0 26 4 29 30 29 26 0 30 -3 30 -29z m98 -2 c2 -17 -3
-29 -12 -32 -27 -11 -46 4 -46 35 0 26 3 29 28 26 21 -2 28 -9 30 -29z m86 25
c22 -8 21 -52 -1 -56 -35 -8 -53 3 -53 33 0 30 17 37 54 23z m104 -26 c3 -25
0 -28 -27 -28 -28 0 -31 3 -31 31 0 27 3 30 28 27 21 -2 28 -9 30 -30z m102 3
c0 -19 -6 -30 -17 -33 -30 -8 -43 2 -43 33 0 26 4 29 30 29 26 0 30 -3 30 -29z
m56 -6 c-7 -29 -21 -33 -30 -8 -5 11 -1 22 10 30 22 16 28 10 20 -22z m5294 9
c0 -21 -27 -17 -33 5 -3 14 0 17 14 14 11 -3 19 -12 19 -19z m78 -6 c3 -24 0
-28 -22 -28 -16 0 -27 7 -31 20 -9 27 2 42 28 38 16 -2 23 -11 25 -30z m107
22 c14 -22 -6 -50 -36 -50 -24 0 -29 4 -29 23 0 13 3 27 7 30 10 11 51 8 58
-3z m93 -10 c4 -24 -21 -52 -40 -45 -20 8 -33 40 -23 55 10 16 59 8 63 -10z
m96 4 c8 -20 -10 -54 -29 -54 -18 0 -38 37 -31 56 7 19 52 18 60 -2z m90 10
c9 -3 16 -10 16 -16 0 -13 -26 -38 -40 -38 -14 0 -40 25 -40 38 0 18 36 27 64
16z m96 -24 c0 -25 -4 -30 -24 -30 -26 0 -39 20 -30 45 4 8 17 15 30 15 20 0
24 -5 24 -30z m104 21 c7 -10 -27 -51 -42 -51 -13 0 -26 36 -17 50 8 12 52 13
59 1z m91 -1 c10 -16 -5 -50 -21 -50 -17 0 -44 23 -44 38 0 20 54 29 65 12z
m95 -4 c0 -27 -12 -46 -30 -46 -20 0 -36 33 -25 50 10 15 55 12 55 -4z m100
-2 c0 -22 -25 -44 -49 -44 -17 0 -21 6 -21 30 0 28 3 30 35 30 25 0 35 -4 35
-16z m90 2 c0 -27 -12 -46 -30 -46 -20 0 -36 33 -25 50 10 15 55 12 55 -4z
m195 4 c11 -17 -6 -50 -25 -50 -19 0 -36 33 -25 50 3 5 15 10 25 10 10 0 22
-5 25 -10z m200 0 c11 -18 -6 -50 -26 -50 -22 0 -49 22 -49 38 0 20 64 30 75
12z m89 4 c22 -8 20 -23 -6 -45 -27 -24 -35 -24 -48 2 -21 39 7 61 54 43z
m-8179 -85 c4 -6 5 -12 3 -14 -7 -7 -48 7 -48 16 0 13 37 11 45 -2z m89 5 c38
-14 8 -48 -33 -37 -25 7 -28 30 -3 36 9 3 18 5 19 6 1 0 8 -2 17 -5z m104 -6
c8 -8 9 -15 1 -25 -15 -17 -34 -16 -50 3 -10 13 -10 17 2 25 19 12 33 11 47
-3z m107 -13 c0 -13 -8 -21 -24 -23 -28 -4 -46 11 -37 33 9 25 61 16 61 -10z
m96 15 c5 0 9 -6 9 -14 0 -21 -35 -29 -59 -15 -18 12 -18 14 -3 26 9 7 23 10
30 8 8 -3 18 -5 23 -5z m88 1 c19 -12 6 -41 -17 -41 -27 0 -45 23 -30 38 14
14 28 15 47 3z m96 -4 c22 -17 12 -37 -20 -37 -27 0 -39 14 -31 35 7 19 27 19
51 2z m100 -12 c0 -13 -8 -21 -24 -23 -28 -4 -46 11 -37 33 9 25 61 16 61 -10z
m95 10 c16 -19 5 -35 -25 -35 -26 0 -42 29 -23 42 19 12 34 10 48 -7z m100
-16 c0 -19 -23 -25 -54 -13 -21 8 -20 32 2 36 29 7 52 -3 52 -23z m6490 6 c0
-17 -28 -27 -51 -20 -21 7 -25 31 -7 37 21 7 58 -4 58 -17z m79 16 c19 -12 6
-41 -19 -41 -25 0 -38 29 -19 41 8 5 16 9 19 9 3 0 11 -4 19 -9z m95 3 c23 -9
20 -31 -5 -39 -25 -8 -44 7 -36 29 7 17 16 19 41 10z m106 -19 c0 -19 -17 -27
-40 -20 -25 8 -26 32 -2 37 24 6 42 -2 42 -17z m99 11 c9 -10 8 -16 -3 -25
-20 -16 -50 -10 -54 11 -3 14 7 21 39 27 4 0 12 -5 18 -13z m101 -1 c6 -8 9
-19 5 -25 -13 -20 -75 -8 -75 15 0 26 51 33 70 10z m92 2 c15 -12 15 -14 -3
-25 -37 -23 -73 -6 -49 23 15 18 30 18 52 2z m86 5 c9 -6 6 -12 -12 -20 -26
-12 -43 -1 -31 18 7 12 25 13 43 2z m-7058 -23 c0 -16 -5 -20 -27 -17 -17 2
-29 10 -31 21 -3 13 3 17 27 17 25 0 31 -4 31 -21z m100 1 c0 -16 -7 -20 -30
-20 -23 0 -30 4 -30 20 0 16 7 20 30 20 23 0 30 -4 30 -20z m90 0 c0 -16 -7
-20 -30 -20 -23 0 -30 4 -30 20 0 16 7 20 30 20 23 0 30 -4 30 -20z m100 11
c0 -10 -24 -21 -46 -21 -8 0 -14 7 -14 15 0 10 10 15 30 15 17 0 30 -4 30 -9z
m5535 -2 c11 -17 -1 -21 -34 -14 -17 4 -29 11 -25 16 7 12 51 11 59 -2z m95 1
c13 -9 13 -11 0 -20 -8 -5 -22 -10 -30 -10 -8 0 -22 5 -30 10 -13 9 -13 11 0
20 8 5 22 10 30 10 8 0 22 -5 30 -10z m96 -2 c6 -10 -20 -38 -35 -38 -17 1
-33 20 -28 34 7 18 52 22 63 4z m94 -8 c0 -15 -7 -20 -24 -20 -27 0 -41 14
-31 30 3 6 17 10 31 10 17 0 24 -5 24 -20z m88 3 c-4 -20 -35 -30 -50 -15 -15
15 0 32 28 32 19 0 25 -5 22 -17z m97 -3 c0 -23 -49 -20 -53 3 -3 15 2 18 25
15 17 -2 28 -9 28 -18z m-3789 -30 c8 0 14 -4 14 -10 0 -17 -47 -11 -54 6 -5
12 -2 15 10 10 8 -3 22 -6 30 -6z m-3328 -40 c12 -19 11 -20 -8 -8 -20 13 -27
28 -12 28 4 0 13 -9 20 -20z m107 -1 c11 -34 -31 -53 -54 -25 -16 20 -3 46 24
46 15 0 26 -8 30 -21z m99 5 c3 -9 6 -20 6 -25 0 -11 -51 -12 -69 0 -12 8 -12
11 0 25 18 20 55 20 63 0z m91 -5 c8 -25 -8 -39 -36 -32 -22 6 -24 18 -6 38
18 21 35 18 42 -6z m100 0 c11 -34 -31 -53 -54 -25 -16 20 -3 46 24 46 15 0
26 -8 30 -21z m91 7 c18 -19 18 -32 -2 -40 -22 -8 -26 -7 -48 9 -15 12 -16 16
-5 29 18 19 36 20 55 2z m99 -6 c8 -25 -1 -40 -24 -40 -24 0 -43 23 -35 44 9
23 51 20 59 -4z m100 0 c8 -25 -1 -40 -25 -40 -10 0 -22 5 -25 10 -11 17 6 50
25 50 10 0 21 -9 25 -20z m83 0 c22 -36 -13 -56 -44 -26 -18 19 -18 26 1 26 8
0 15 5 15 10 0 17 14 11 28 -10z m88 6 c19 -20 18 -34 -6 -41 -36 -11 -52 12
-27 40 15 18 16 18 33 1z m6016 -9 c25 -9 11 -37 -18 -37 -14 0 -27 7 -30 14
-6 16 18 49 26 37 3 -4 13 -10 22 -14z m94 -22 c-3 -8 -17 -15 -31 -15 -18 0
-25 5 -25 20 0 11 7 20 15 20 8 0 15 5 15 11 0 6 7 3 16 -6 9 -8 13 -22 10
-30z m99 25 c8 -25 -1 -40 -25 -40 -10 0 -22 5 -25 10 -11 17 6 50 25 50 10 0
21 -9 25 -20z m91 6 c20 -20 18 -34 -6 -41 -31 -10 -52 11 -37 36 14 23 24 24
43 5z m90 0 c27 -27 11 -53 -26 -41 -23 7 -25 20 -7 40 15 18 16 18 33 1z
m109 -6 c8 -25 -1 -40 -25 -40 -10 0 -22 5 -25 10 -11 17 6 50 25 50 10 0 21
-9 25 -20z m92 5 c8 -9 14 -17 12 -18 -2 -2 -12 -8 -21 -16 -13 -9 -22 -10
-38 -1 -21 11 -21 12 -3 30 22 23 30 24 50 5z m98 -6 c6 -19 -7 -39 -25 -39
-3 0 -11 4 -19 9 -19 12 -4 51 19 51 10 0 22 -10 25 -21z m96 2 l21 -19 -20
-11 c-21 -11 -52 -5 -52 9 0 17 12 40 21 40 6 0 19 -9 30 -19z m79 10 c0 -5
-7 -14 -15 -21 -16 -14 -18 -10 -9 14 6 17 24 22 24 7z m-7565 -81 c8 -13 -15
-13 -35 0 -12 8 -11 10 7 10 12 0 25 -4 28 -10z m105 -20 c0 -27 -3 -30 -30
-30 -27 0 -30 3 -30 30 0 27 3 30 30 30 27 0 30 -3 30 -30z m88 -2 c3 -25 0
-28 -27 -28 -28 0 -31 3 -31 31 0 27 3 30 28 27 21 -2 28 -9 30 -30z m100 0
c3 -25 0 -28 -27 -28 -21 0 -32 6 -36 20 -9 28 3 42 33 38 21 -2 28 -9 30 -30z
m90 0 c3 -25 0 -28 -27 -28 -21 0 -32 6 -36 20 -9 28 3 42 33 38 21 -2 28 -9
30 -30z m102 2 c0 -27 -3 -30 -30 -30 -27 0 -30 3 -30 30 0 27 3 30 30 30 27
0 30 -3 30 -30z m95 20 c12 -20 -6 -50 -31 -50 -20 0 -24 5 -24 30 0 25 4 30
24 30 14 0 28 -5 31 -10z m6281 -4 c9 -24 -13 -55 -36 -49 -21 5 -35 36 -25
53 9 15 55 12 61 -4z m99 4 c17 -27 -20 -64 -52 -53 -14 5 -18 45 -6 56 10 11
51 8 58 -3z m89 4 c20 -8 20 -21 2 -40 -31 -30 -74 -8 -60 31 6 16 31 19 58 9z
m101 -4 c12 -20 -6 -50 -31 -50 -18 0 -24 5 -24 23 0 13 3 27 7 30 10 10 41 8
48 -3z m89 4 c20 -8 20 -21 2 -40 -29 -28 -64 -6 -50 31 6 16 22 19 48 9z
m101 -4 c12 -20 -6 -50 -30 -50 -25 0 -38 21 -29 45 7 17 49 20 59 5z m85 0
c-20 -13 -43 -13 -35 0 3 6 16 10 28 10 18 0 19 -2 7 -10z m-8050 -39 c0 -5
19 -14 43 -20 61 -14 147 -47 160 -60 6 -6 16 -11 22 -11 6 0 17 -9 25 -20 8
-11 18 -20 22 -20 4 0 30 -10 58 -22 34 -15 50 -28 50 -40 0 -10 -4 -18 -9
-18 -5 0 -11 -10 -13 -22 -5 -36 -88 -84 -159 -92 -48 -6 -72 -3 -125 15 -60
20 -68 26 -95 73 -21 37 -29 64 -29 99 0 26 -4 47 -10 47 -5 0 -10 9 -10 20 0
11 4 20 9 20 5 0 14 14 21 30 11 28 40 42 40 21z m8687 -46 c15 -31 15 -42 4
-88 -6 -28 -14 -65 -18 -82 -8 -44 -37 -70 -104 -95 -51 -18 -72 -21 -134 -15
-62 6 -81 13 -115 38 -22 17 -40 37 -40 44 0 7 -4 13 -10 13 -5 0 -10 12 -10
28 0 23 8 31 49 50 27 12 52 22 56 22 4 0 15 8 24 18 9 9 48 28 86 41 39 13
73 28 77 34 5 9 54 21 106 26 7 0 20 -15 29 -34z m-7917 -7 c0 -6 -7 -7 -16
-4 -9 3 -18 6 -20 6 -3 0 -3 4 1 10 7 11 35 2 35 -12z m84 16 c9 -3 16 -15 16
-25 0 -14 -7 -19 -25 -19 -29 0 -45 28 -24 41 17 11 14 10 33 3z m205 -7 c8
-11 5 -16 -15 -26 -28 -12 -44 -7 -44 14 0 12 12 18 41 24 4 0 12 -5 18 -12z
m-89 -17 c0 -16 -7 -20 -30 -20 -23 0 -30 4 -30 20 0 16 7 20 30 20 23 0 30
-4 30 -20z m6654 14 c14 -5 14 -8 1 -20 -11 -12 -19 -12 -35 -4 -35 19 -6 39
34 24z m99 0 c12 -12 -6 -34 -28 -34 -26 0 -40 14 -30 30 7 11 48 14 58 4z
m100 0 c12 -12 -6 -34 -29 -34 -17 0 -24 6 -24 20 0 14 7 20 23 20 13 0 26 -3
30 -6z m72 -4 c-3 -5 -15 -10 -26 -10 -11 0 -17 5 -14 10 3 6 15 10 26 10 11
0 17 -4 14 -10z m-4167 -276 c12 -4 22 -13 22 -20 0 -8 5 -14 12 -14 8 0 8 -3
3 -9 -16 -15 -85 11 -85 31 0 19 11 22 48 12z m-731 -202 c9 -6 7 -12 -7 -25
-11 -9 -25 -17 -30 -17 -6 0 -10 -7 -10 -15 0 -24 -27 -18 -34 8 -13 48 -8 57
32 57 20 0 43 -4 49 -8z m1923 -57 c0 -8 -7 -15 -15 -15 -8 0 -15 7 -15 15 0
8 7 15 15 15 8 0 15 -7 15 -15z m756 -319 c8 -8 14 -31 14 -51 0 -34 -2 -37
-22 -31 -13 3 -26 6 -30 6 -9 0 -10 52 -2 74 8 20 21 20 40 2z m-2466 -40 c0
-8 -7 -17 -16 -20 -23 -9 -24 -8 -24 14 0 13 7 20 20 20 11 0 20 -6 20 -14z
m-160 -146 c0 -5 -9 -14 -20 -20 -22 -12 -27 -1 -8 18 14 14 28 16 28 2z"/>
<path d="M25050 10935 c0 -8 5 -15 10 -15 6 0 10 7 10 15 0 8 -4 15 -10 15 -5
0 -10 -7 -10 -15z"/>
<path d="M20407 10883 c9 -61 14 -70 55 -114 29 -31 54 -48 78 -52 21 -4 30
-4 21 2 -11 7 -11 9 0 14 9 4 10 8 4 14 -15 12 -43 82 -51 126 l-6 37 -53 0
c-51 0 -52 0 -48 -27z"/>
<path d="M20830 10873 c0 -18 5 -33 10 -33 6 0 10 -8 10 -19 0 -10 6 -24 14
-30 8 -7 17 -23 20 -37 9 -33 37 -42 169 -54 144 -13 3530 -13 3682 -1 121 10
145 17 145 36 0 7 4 15 8 17 16 7 50 74 56 113 l7 40 -2061 0 -2060 0 0 -32z"/>
<path d="M25052 10873 c1 -40 -28 -129 -49 -151 -19 -20 -17 -20 35 -11 26 5
52 16 57 25 6 9 21 29 34 43 28 32 41 63 41 102 0 29 0 29 -60 29 l-60 0 2
-37z"/>
<path d="M22815 10450 c3 -5 15 -10 25 -10 10 0 22 5 25 10 4 6 -7 10 -25 10
-18 0 -29 -4 -25 -10z"/>
<path d="M23010 10218 c0 -25 48 -58 85 -58 21 0 35 -5 35 -12 0 -7 9 2 21 21
11 18 18 36 15 38 -3 3 -31 6 -63 8 -32 1 -66 5 -75 9 -13 6 -18 4 -18 -6z"/>
<path d="M23300 10170 c0 -5 9 -10 20 -10 11 0 20 5 20 10 0 6 -9 10 -20 10
-11 0 -20 -4 -20 -10z"/>
<path d="M23250 10103 c0 -7 -7 -13 -15 -13 -8 0 -15 -7 -15 -15 0 -8 -9 -15
-19 -15 -12 0 -23 -9 -27 -22 -4 -13 -12 -26 -18 -31 -14 -9 20 -37 46 -37 10
0 18 -4 18 -9 0 -5 10 -13 23 -17 12 -4 30 -16 39 -27 24 -27 100 -35 119 -13
8 9 20 22 27 29 35 32 52 51 52 58 0 11 -79 16 -96 6 -21 -12 -85 -1 -96 15
-4 7 -8 25 -8 39 0 25 -29 76 -30 52z"/>
<path d="M23504 9933 c-12 -40 -23 -48 -69 -54 -36 -4 -53 -12 -69 -32 -12
-15 -31 -27 -42 -27 -13 0 -26 -12 -38 -36 -16 -34 -16 -38 0 -55 20 -22 107
-26 208 -9 63 10 77 17 59 28 -14 9 -33 79 -27 96 3 8 15 11 32 8 l27 -5 -21
19 c-12 11 -25 34 -28 52 -8 35 -23 42 -32 15z"/>
<path d="M17038 10703 c6 -2 18 -2 25 0 6 3 1 5 -13 5 -14 0 -19 -2 -12 -5z"/>
<path d="M28888 10553 c7 -3 16 -2 19 1 4 3 -2 6 -13 5 -11 0 -14 -3 -6 -6z"/>
<path d="M28598 10538 c5 -5 16 -8 23 -6 8 3 3 7 -10 11 -17 4 -21 3 -13 -5z"/>
<path d="M28758 10533 c6 -2 18 -2 25 0 6 3 1 5 -13 5 -14 0 -19 -2 -12 -5z"/>
<path d="M28441 10330 c14 -31 19 -36 19 -24 0 6 -7 19 -16 30 -14 18 -14 18
-3 -6z"/>
<path d="M27880 9950 c0 -27 5 -50 10 -50 6 0 10 23 10 50 0 28 -4 50 -10 50
-5 0 -10 -22 -10 -50z"/>
<path d="M27918 9886 c-19 -14 -25 -66 -8 -66 6 0 10 9 10 21 0 11 5 29 10 40
12 22 11 23 -12 5z"/>
<path d="M20578 9749 c-42 -22 -48 -34 -19 -42 11 -2 21 -15 24 -28 4 -22 4
-22 6 4 0 15 5 27 10 27 5 0 11 8 15 18 3 9 9 23 12 30 8 17 -4 15 -48 -9z"/>
<path d="M25174 9738 c8 -18 19 -34 25 -36 6 -2 12 -13 12 -25 1 -21 2 -21 6
-2 3 11 10 25 15 32 5 7 7 17 4 22 -5 8 -63 41 -72 41 -2 0 3 -14 10 -32z"/>
<path d="M28311 9736 c-3 -24 22 -136 31 -136 6 0 7 8 3 18 -15 36 -18 55 -8
49 7 -5 9 0 6 13 -3 11 -9 20 -13 20 -5 0 -11 10 -13 23 -2 12 -5 18 -6 13z"/>
<path d="M28801 9513 c-1 -7 3 -22 8 -35 5 -13 12 -35 15 -50 5 -19 13 -28 26
-28 11 0 20 5 20 10 0 6 -7 10 -15 10 -9 0 -15 9 -15 24 0 14 -5 28 -11 31 -6
4 -14 17 -19 29 -5 11 -9 16 -9 9z"/>
<path d="M28848 9373 c6 -2 18 -2 25 0 6 3 1 5 -13 5 -14 0 -19 -2 -12 -5z"/>
<path d="M20820 7877 c0 -7 72 -48 76 -44 2 2 -14 14 -36 26 -22 12 -40 20
-40 18z"/>
<path d="M21038 7763 c7 -3 16 -2 19 1 4 3 -2 6 -13 5 -11 0 -14 -3 -6 -6z"/>
</g>
</svg>
