<?xml version="1.0" standalone="no"?>
<!DOCTYPE svg PUBLIC "-//W3C//DTD SVG 20010904//EN"
 "http://www.w3.org/TR/2001/REC-SVG-20010904/DTD/svg10.dtd">
<svg version="1.0" xmlns="http://www.w3.org/2000/svg"
 width="886.000000pt" height="648.000000pt" viewBox="0 0 886.000000 648.000000"
 preserveAspectRatio="xMidYMid meet">
<metadata>
Created by potrace 1.16, written by Peter Selinger 2001-2019
</metadata>
<g transform="translate(0.000000,648.000000) scale(0.100000,-0.100000)"
fill="#000000" stroke="none">
<path d="M4130 2999 c0 -17 -4 -28 -10 -24 -5 3 -10 1 -10 -4 0 -8 101 -11
320 -11 219 0 320 3 320 11 0 5 -4 7 -10 4 -6 -4 -10 7 -10 24 l0 31 -300 0
-300 0 0 -31z"/>
<path d="M3390 2640 c0 -11 0 -23 1 -26 0 -4 -5 -11 -13 -15 -7 -5 97 -9 239
-9 l252 0 -9 29 c-4 16 -6 32 -2 35 3 3 -101 6 -231 6 -230 0 -237 -1 -237
-20z"/>
<path d="M5001 2629 c-6 -18 -11 -34 -11 -35 0 -10 519 -3 525 6 3 6 1 10 -4
10 -6 0 -11 11 -11 25 l0 25 -244 0 -244 0 -11 -31z"/>
<path d="M3092 2063 c3 -43 7 -83 7 -90 1 -7 8 -10 16 -7 8 3 20 2 26 -2 14
-8 80 -17 124 -15 17 1 66 3 110 5 44 2 85 1 90 -3 15 -9 108 -9 125 -1 9 5
37 4 64 -1 28 -5 63 -5 80 0 17 4 41 4 54 0 34 -13 191 -17 231 -7 20 5 41 9
46 8 58 -6 396 -12 585 -10 69 1 168 0 220 -1 56 -1 104 2 116 9 12 6 24 8 28
4 11 -10 119 -11 139 0 12 6 23 6 32 -2 8 -7 24 -9 36 -5 13 4 24 2 29 -5 5
-8 13 -9 21 -4 7 4 34 9 59 11 25 1 65 4 90 6 25 1 50 -1 57 -6 7 -5 20 -4 31
2 13 7 39 7 77 1 39 -6 64 -6 77 1 11 6 29 9 39 6 10 -3 21 -1 24 4 3 4 12 6
20 3 15 -6 20 15 29 119 l5 57 -1347 0 -1348 0 8 -77z"/>
<path d="M3143 1850 c3 -19 14 -55 24 -80 11 -25 30 -73 42 -107 31 -87 111
-210 94 -143 -8 29 12 25 49 -10 40 -38 58 -38 84 3 28 43 58 41 115 -5 64
-51 70 -51 103 -7 20 27 33 36 41 29 7 -6 15 -6 21 0 6 6 28 -7 59 -35 28 -25
57 -45 66 -45 9 0 28 18 43 39 24 34 31 39 62 36 21 -2 49 -17 76 -39 53 -46
80 -46 107 -2 31 49 79 47 142 -6 26 -21 53 -38 60 -38 7 0 30 17 52 38 31 30
46 37 78 38 35 0 46 -6 77 -38 20 -21 42 -38 49 -38 7 0 31 17 54 37 55 50
102 52 142 6 16 -18 37 -33 47 -33 11 0 40 18 66 41 34 29 49 37 55 28 6 -10
11 -10 22 -1 12 10 20 5 47 -28 18 -22 40 -40 48 -40 9 0 38 21 64 47 26 26
48 41 48 34 0 -8 7 -10 19 -6 14 4 22 -3 35 -30 20 -41 34 -44 66 -10 12 13
28 22 34 18 6 -3 8 -3 4 2 -11 12 14 30 45 32 22 1 30 -6 43 -33 9 -19 21 -34
27 -34 6 0 26 14 44 32 43 41 61 44 55 9 -5 -23 -3 -25 11 -12 10 7 17 19 17
25 0 7 9 22 19 33 25 26 121 262 121 294 -1 22 -2 23 -14 6 -8 -10 -12 -28
-10 -40 2 -12 -2 -6 -9 13 -13 34 -14 34 -25 13 -9 -16 -9 -22 1 -26 9 -3 9
-7 0 -17 -9 -10 -13 -5 -18 24 -8 41 -15 44 -38 18 -22 -24 -21 -32 3 -32 18
0 19 -3 10 -20 -6 -11 -15 -20 -21 -20 -6 0 -13 9 -16 20 -3 11 -9 20 -13 20
-4 0 -12 12 -19 26 -11 26 -12 26 -32 8 l-21 -18 26 -9 c31 -10 32 -17 6 -40
-22 -19 -40 -15 -40 9 0 22 -31 16 -61 -12 l-26 -25 -21 25 c-25 32 -29 32
-58 1 -29 -31 -37 -31 -54 0 -17 31 -33 32 -57 2 -30 -38 -40 -39 -61 -5 l-20
31 -32 -32 -33 -32 -26 25 c-34 32 -42 32 -71 1 -13 -14 -26 -25 -29 -25 -4 0
-18 11 -33 25 -15 14 -31 25 -37 25 -5 0 -18 -11 -29 -25 -25 -32 -42 -32 -72
0 -29 31 -41 31 -70 0 -13 -14 -30 -25 -37 -25 -8 0 -25 11 -39 25 -14 14 -28
25 -33 25 -9 0 -51 -44 -51 -54 0 -4 22 -6 50 -5 56 3 64 -7 27 -35 -29 -21
-14 -29 -131 67 -18 15 -36 27 -38 27 -3 0 -19 -14 -37 -30 l-32 -31 -29 21
c-17 12 -30 26 -30 31 0 17 -26 9 -48 -14 -27 -28 -28 -39 -4 -36 9 1 34 1 54
0 43 -1 43 -19 1 -42 -22 -12 -27 -11 -37 2 -6 9 -29 27 -51 41 -22 14 -46 33
-54 42 -19 22 -34 20 -61 -9 -13 -14 -28 -25 -34 -25 -6 0 -23 11 -38 25 -15
14 -31 25 -37 25 -5 0 -18 -11 -29 -25 -11 -14 -23 -25 -27 -25 -5 0 -23 11
-41 25 -18 14 -36 25 -39 25 -4 0 -28 -22 -54 -49 -46 -49 -46 -49 -68 -31
-32 25 -29 30 19 30 l42 0 -29 30 c-36 38 -43 37 -59 -1 l-13 -31 -35 31 c-43
38 -55 39 -70 6 -6 -14 -14 -25 -17 -25 -4 0 -18 11 -33 25 -15 14 -30 25 -33
25 -10 0 -31 -23 -36 -39 -4 -10 -16 -5 -43 20 -37 32 -39 32 -52 14 -8 -10
-14 -22 -14 -27 0 -14 -15 -9 -42 17 -15 14 -31 25 -36 25 -5 0 -19 11 -32 25
-32 34 -47 31 -55 -12 l-7 -37 -18 23 c-9 13 -19 20 -22 15 -3 -5 -3 -3 -1 4
1 8 -4 23 -13 35 -15 21 -15 21 -11 -13z"/>
</g>
</svg>
