<?xml version="1.0" standalone="no"?>
<!DOCTYPE svg PUBLIC "-//W3C//DTD SVG 1.1//EN"
        "http://www.w3.org/Graphics/SVG/1.1/DTD/svg11.dtd">
<svg version="1.0" xmlns="http://www.w3.org/2000/svg"
 width="5200.000000pt" height="3830.000000pt" viewBox="0 0 5200.000000 3830.000000"
 preserveAspectRatio="xMidYMid meet">

<g transform="translate(0.000000,3830.000000) scale(0.100000,-0.100000)"
fill="#000000" stroke="none">
<path d="M0 19150 l0 -19150 26000 0 26000 0 0 19150 0 19150 -26000 0 -26000
0 0 -19150z m51500 0 l0 -18650 -25500 0 -25500 0 0 18650 0 18650 25500 0
25500 0 0 -18650z"/>
<path d="M24240 17900 c0 -20 7 -20 1760 -20 1753 0 1760 0 1760 20 0 20 -7
20 -1760 20 -1753 0 -1760 0 -1760 -20z"/>
<path d="M24254 17783 c5 -74 9 -103 21 -145 7 -26 5 -28 -22 -28 -16 0 -34 5
-41 12 -16 16 -22 7 -15 -20 l5 -22 1794 0 1795 0 8 23 c10 26 5 35 -11 19 -7
-7 -25 -12 -41 -12 -27 0 -29 2 -22 28 10 38 14 67 20 145 l6 67 -1751 0
-1750 0 4 -67z"/>
<path d="M29290 15785 l0 -25 1449 0 c1315 0 1449 1 1455 16 3 9 4 20 0 25 -3
5 -595 9 -1455 9 l-1449 0 0 -25z"/>
<path d="M19970 15770 c0 -20 7 -20 1375 -20 1368 0 1375 0 1375 20 0 20 -7
20 -1375 20 -1368 0 -1375 0 -1375 -20z"/>
<path d="M29296 15731 c-4 -5 -4 -15 -2 -23 3 -7 8 -49 11 -92 3 -44 8 -91 12
-104 5 -22 3 -24 -18 -20 -13 3 -32 9 -42 13 -16 7 -16 5 -6 -19 l12 -26 1479
0 1479 0 8 23 c10 26 5 35 -11 19 -7 -7 -23 -12 -36 -12 -21 0 -23 3 -17 28 4
15 9 50 11 77 2 28 6 71 9 98 l6 47 -1445 0 c-857 0 -1447 -4 -1450 -9z"/>
<path d="M19975 15693 c2 -16 6 -55 9 -88 3 -33 8 -75 12 -92 6 -28 4 -33 -13
-33 -10 0 -24 5 -31 12 -17 17 -25 3 -12 -21 l11 -21 1402 2 1402 3 3 25 c3
20 1 23 -9 13 -7 -7 -24 -13 -37 -13 -21 0 -23 4 -18 23 4 12 9 47 12 77 2 30
6 74 9 98 l5 42 -1375 0 -1374 0 4 -27z"/>
<path d="M18298 12673 c3 -71 8 -130 12 -133 4 -3 11 -103 15 -222 4 -120 11
-218 15 -218 4 0 10 -65 13 -145 6 -148 16 -187 44 -160 6 7 15 24 19 39 8 33
22 33 30 1 7 -28 19 -32 28 -10 8 21 26 19 26 -2 0 -10 5 -25 10 -33 9 -13 11
-13 20 0 5 8 10 27 10 43 0 15 4 27 9 27 11 0 21 -25 21 -55 0 -12 7 -25 15
-29 9 -3 15 0 15 9 0 8 9 15 19 15 16 0 21 -8 24 -42 l4 -43 1 43 c2 53 20 55
28 2 8 -47 20 -52 29 -10 4 17 10 30 15 30 4 0 11 11 14 25 4 14 11 25 16 25
6 0 10 -11 10 -25 0 -16 6 -25 15 -25 8 0 15 5 15 10 0 23 29 8 32 -17 4 -37
25 -40 33 -4 8 37 21 40 29 6 4 -14 11 -25 16 -25 6 0 10 -7 10 -15 0 -11 11
-15 41 -15 23 0 47 7 55 15 10 10 35 15 75 15 55 0 59 -2 59 -23 0 -29 33 -57
66 -57 40 0 72 41 42 53 -10 4 -9 8 2 16 22 16 66 13 84 -4 8 -8 17 -15 21
-15 3 0 16 -11 29 -25 27 -29 41 -31 62 -10 9 8 29 15 45 15 16 0 29 4 29 9 0
20 33 41 66 41 24 0 34 5 34 15 0 8 9 15 19 15 10 0 21 7 25 15 3 8 12 15 20
15 8 0 21 -7 30 -15 8 -8 18 -15 23 -15 5 0 16 -9 26 -20 25 -29 125 -29 150
0 15 18 27 20 75 18 52 -3 57 -5 60 -27 5 -34 26 -51 68 -58 30 -5 39 -2 59
21 15 18 32 26 54 26 20 0 31 5 31 14 0 8 11 17 25 20 14 4 25 11 25 16 0 15
19 12 36 -5 9 -8 24 -15 35 -15 10 0 19 -7 19 -15 0 -8 7 -15 15 -15 8 0 15
-4 15 -10 0 -5 5 -10 11 -10 6 0 17 -7 25 -15 9 -9 34 -15 60 -15 32 0 44 4
44 15 0 12 14 15 69 15 66 0 69 -1 75 -26 10 -40 30 -54 75 -54 43 0 45 3 41
53 -1 25 1 27 34 27 20 0 36 -4 36 -9 0 -5 10 -13 22 -16 11 -4 31 -18 43 -31
25 -27 60 -32 69 -9 3 9 19 15 41 15 25 0 43 7 59 25 15 16 34 25 55 25 21 0
31 5 31 15 0 8 5 15 11 15 6 0 17 7 25 15 19 19 48 19 66 1 8 -7 24 -16 35
-20 12 -4 25 -16 28 -27 6 -16 16 -19 76 -19 38 0 69 4 69 9 0 24 34 41 80 41
54 0 80 -18 80 -55 0 -21 6 -24 56 -31 70 -8 129 -1 149 20 12 12 36 16 89 16
60 0 74 3 86 20 8 10 27 22 42 25 15 4 28 10 28 15 0 16 54 22 65 7 6 -8 29
-18 53 -22 23 -4 42 -11 42 -16 0 -5 7 -9 15 -9 8 0 15 -4 15 -9 0 -5 18 -11
39 -15 22 -3 41 -12 43 -18 6 -17 195 -18 206 -2 14 21 48 25 149 18 101 -7
103 -7 103 -31 0 -16 7 -27 20 -30 11 -3 20 -9 20 -14 0 -5 32 -9 70 -9 40 0
70 4 70 10 0 6 7 10 15 10 10 0 15 10 15 30 l0 30 71 0 c49 0 75 -4 85 -15 9
-8 29 -15 45 -15 16 0 29 -4 29 -9 0 -5 14 -12 30 -16 17 -4 30 -11 30 -16 0
-5 14 -9 30 -9 17 0 30 4 30 10 0 5 11 12 25 16 14 3 25 10 25 15 0 5 29 9 64
9 44 0 69 5 80 15 10 10 36 15 85 15 48 0 74 5 85 15 8 8 19 15 25 15 6 0 11
5 11 10 0 6 9 10 19 10 11 0 26 7 35 15 8 8 26 15 39 15 14 0 27 -7 31 -15 3
-8 17 -15 31 -15 14 0 25 -4 25 -10 0 -5 7 -10 16 -10 8 0 22 -7 30 -15 12
-12 44 -15 149 -15 105 0 137 3 149 15 11 12 41 15 130 15 96 0 116 -3 116
-15 0 -8 5 -15 10 -15 6 0 10 -7 10 -15 0 -8 7 -15 15 -15 8 0 15 -4 15 -10 0
-6 35 -10 84 -10 65 0 85 3 90 15 3 8 12 15 21 15 8 0 15 5 15 10 0 15 77 12
83 -2 4 -10 6 -10 6 0 1 6 12 12 26 12 14 0 28 7 31 15 4 8 17 15 31 15 13 0
32 7 41 16 12 12 28 15 66 11 28 -2 52 -10 54 -16 2 -6 12 -11 23 -11 10 0 19
-4 19 -10 0 -5 18 -13 40 -16 22 -4 40 -10 40 -15 0 -5 9 -9 19 -9 11 0 26 -7
35 -15 11 -11 38 -15 109 -15 75 0 96 3 101 15 8 22 266 22 266 0 0 -8 8 -24
17 -35 15 -17 30 -20 99 -20 102 0 114 4 114 41 l0 29 70 0 c54 0 72 -4 76
-15 4 -8 23 -18 44 -21 22 -4 41 -13 44 -20 8 -20 61 -17 82 3 11 12 38 19 83
21 36 3 69 9 73 15 4 6 39 13 77 15 39 2 71 8 71 12 0 4 11 11 25 14 14 4 25
11 25 16 0 6 9 10 19 10 11 0 21 5 23 10 6 19 73 23 91 6 8 -9 23 -16 31 -16
9 0 16 -4 16 -10 0 -5 11 -12 25 -16 14 -3 25 -10 25 -15 0 -5 36 -9 80 -9 47
0 80 4 80 10 0 6 11 10 24 10 14 0 31 7 40 15 11 11 38 15 106 15 l92 0 -6
-24 c-12 -47 0 -56 75 -56 38 0 69 4 69 9 0 5 14 12 30 16 17 4 30 11 30 16 0
5 27 9 59 9 40 0 65 5 75 15 8 8 22 15 30 15 9 0 16 4 16 9 0 5 11 12 25 15
14 4 25 11 25 16 0 16 27 12 34 -5 3 -8 15 -15 26 -15 11 0 20 -4 20 -10 0 -5
6 -10 14 -10 8 0 16 -7 20 -15 3 -8 15 -15 26 -15 12 0 31 -11 44 -25 20 -21
32 -25 80 -25 31 0 56 5 56 10 0 6 7 10 15 10 9 0 18 7 21 15 5 12 26 15 100
15 93 0 94 0 94 -24 0 -51 8 -56 81 -56 39 0 69 4 69 10 0 6 7 10 15 10 8 0
15 7 15 16 0 28 27 44 74 44 25 0 46 -4 46 -10 0 -5 11 -12 25 -16 14 -3 25
-10 25 -15 0 -5 7 -9 15 -9 9 0 18 -7 21 -15 4 -8 17 -15 31 -15 13 0 31 7 39
15 9 8 24 15 35 15 10 0 19 5 19 10 0 6 24 10 54 10 33 0 60 5 68 14 8 8 43
15 83 18 41 2 70 9 73 16 2 7 10 12 18 12 8 0 14 5 14 10 0 6 9 10 19 10 11 0
26 7 35 15 8 8 23 15 34 15 11 0 22 -7 26 -15 3 -8 16 -15 30 -15 15 0 27 -7
31 -19 7 -24 33 -31 121 -31 95 0 132 8 139 31 6 17 17 19 96 19 l89 0 0 -34
c0 -41 10 -46 95 -46 47 0 66 4 73 15 5 10 31 17 78 22 46 4 74 12 84 23 8 9
28 20 45 24 16 4 32 11 35 15 13 21 50 22 67 2 10 -12 22 -21 28 -21 6 0 17
-9 25 -20 8 -11 19 -20 25 -20 6 0 19 -10 29 -21 15 -18 26 -21 73 -17 38 3
58 10 65 21 7 14 25 17 93 17 l85 0 0 -29 c0 -32 18 -41 85 -41 68 0 85 9 85
42 l0 30 67 -4 c39 -2 68 -9 71 -16 2 -7 10 -12 18 -12 8 0 17 -7 20 -15 4
-10 20 -15 44 -15 24 0 40 5 44 15 4 11 21 15 61 15 30 0 55 5 55 10 0 6 7 10
15 10 9 0 18 7 21 15 5 11 21 15 60 15 30 0 54 4 54 10 0 5 11 12 25 16 14 3
25 10 25 15 0 5 7 9 15 9 9 0 18 7 21 15 7 17 34 21 34 5 0 -5 11 -12 25 -16
14 -3 25 -10 25 -15 0 -5 7 -9 15 -9 9 0 18 -7 21 -15 5 -12 25 -15 90 -15 46
0 84 4 84 9 0 5 11 12 25 15 14 4 25 11 25 16 0 6 31 10 71 10 76 0 95 -10
101 -51 3 -22 8 -24 61 -27 44 -2 59 0 63 12 3 9 12 16 20 16 8 0 14 4 14 9 0
5 24 11 54 13 32 3 61 11 71 21 9 9 23 17 31 17 8 0 14 4 14 9 0 18 43 24 54
9 6 -8 22 -19 36 -23 13 -4 30 -14 38 -21 7 -8 21 -14 31 -14 9 0 23 -9 31
-20 12 -16 26 -20 72 -20 48 0 58 3 63 20 5 17 16 20 71 22 35 1 72 2 82 2 11
1 18 -8 20 -23 6 -39 26 -51 85 -51 57 0 67 8 67 51 0 21 31 32 76 27 21 -2
30 -9 32 -25 4 -28 32 -31 32 -3 0 11 4 20 9 20 5 0 12 14 16 30 8 35 13 37
31 13 13 -17 15 -17 28 0 19 24 26 21 26 -13 0 -39 28 -30 37 11 8 42 33 37
33 -6 0 -38 14 -47 23 -15 8 31 27 24 27 -10 0 -37 18 -40 22 -3 5 40 28 41
29 1 2 -30 2 -30 6 -5 2 15 8 27 13 27 5 0 11 14 15 30 4 17 10 30 15 30 5 0
11 8 13 18 3 9 5 2 6 -15 1 -36 20 -45 28 -13 8 30 23 24 23 -10 0 -46 26 -38
34 10 7 47 26 54 26 9 0 -26 3 -31 20 -26 15 4 20 0 20 -14 0 -10 4 -19 8 -19
9 0 22 218 22 363 0 42 4 77 9 77 5 0 12 99 16 220 4 121 11 220 16 220 5 0 9
34 9 75 l0 75 -7713 0 -7714 0 5 -127z"/>
<path d="M18595 11495 c0 -91 9 -110 50 -100 11 2 30 5 43 5 29 0 30 39 2 63
-11 9 -20 26 -20 37 0 11 -4 20 -10 20 -5 0 -10 6 -10 14 0 8 -7 22 -16 30
-32 32 -39 19 -39 -69z"/>
<path d="M33390 11555 c0 -8 -4 -15 -10 -15 -5 0 -10 -7 -10 -15 0 -8 -7 -15
-15 -15 -8 0 -15 -7 -15 -15 0 -8 -4 -15 -9 -15 -5 0 -13 -10 -17 -22 -4 -13
-10 -25 -15 -28 -4 -3 -11 -18 -14 -33 -6 -23 -4 -27 14 -27 12 0 21 4 21 9 0
5 18 11 40 15 26 4 40 11 40 21 0 8 5 15 10 15 15 0 12 47 -2 53 -10 4 -10 6
0 6 19 1 16 81 -3 81 -8 0 -15 -7 -15 -15z"/>
<path d="M33580 11560 c0 -5 5 -10 10 -10 6 0 10 5 10 10 0 6 -4 10 -10 10 -5
0 -10 -4 -10 -10z"/>
<path d="M18446 11515 c3 -16 9 -32 14 -35 5 -3 12 -18 15 -33 8 -31 25 -36
25 -7 0 11 -4 20 -10 20 -5 0 -10 6 -10 14 0 8 -6 21 -13 28 -8 7 -17 20 -20
28 -4 8 -4 2 -1 -15z"/>
<path d="M18851 11518 c0 -16 -5 -28 -11 -28 -15 0 -12 -67 3 -74 10 -5 10 -7
0 -12 -25 -11 -14 -34 17 -34 17 0 30 5 30 10 0 6 5 10 10 10 6 0 10 -7 10
-15 0 -8 9 -15 20 -15 13 0 20 -7 20 -19 0 -10 7 -22 16 -25 23 -9 24 -8 24
18 0 16 -7 27 -19 31 -11 3 -22 19 -26 35 -4 17 -10 30 -15 30 -4 0 -11 11
-14 25 -4 14 -13 25 -21 25 -8 0 -15 7 -15 15 0 8 -4 15 -9 15 -5 0 -12 8 -14
18 -3 10 -5 6 -6 -10z"/>
<path d="M33164 11518 c-4 -12 -20 -33 -35 -47 -16 -14 -29 -35 -29 -47 0 -12
-7 -24 -15 -28 -8 -3 -15 -12 -15 -21 0 -8 -4 -15 -10 -15 -5 0 -10 -4 -10
-10 0 -5 11 -10 25 -10 14 0 25 5 25 10 0 6 9 10 20 10 13 0 20 -7 20 -20 0
-11 7 -20 15 -20 9 0 15 9 15 25 0 14 5 25 10 25 6 0 10 25 10 55 0 30 -4 55
-10 55 -5 0 -10 9 -10 20 0 11 5 20 10 20 6 0 10 5 10 10 0 19 -19 10 -26 -12z"/>
<path d="M33563 11525 c-7 -7 -15 -25 -19 -39 -3 -14 -10 -26 -14 -26 -4 0
-10 -8 -13 -19 -3 -14 0 -17 14 -14 12 3 19 14 19 29 0 13 4 24 9 24 8 0 25
49 19 55 -2 2 -8 -3 -15 -10z"/>
<path d="M19290 11501 c0 -11 5 -21 10 -21 6 0 10 -4 10 -10 0 -5 -10 -10 -22
-10 -30 0 -44 -10 -52 -37 -4 -13 -12 -23 -17 -23 -5 0 -9 -9 -9 -20 0 -11 4
-20 9 -20 5 0 12 -9 16 -19 7 -22 44 -34 80 -25 13 3 27 15 30 25 7 20 35 27
35 9 0 -6 27 -10 60 -10 56 0 60 2 60 23 0 25 -31 57 -55 57 -9 0 -15 10 -15
25 0 39 -36 68 -92 73 -44 4 -48 3 -48 -17z"/>
<path d="M19948 11491 c-10 -10 -18 -23 -18 -29 0 -7 -7 -12 -15 -12 -11 0
-15 -12 -15 -49 0 -65 7 -81 36 -81 17 0 25 7 30 25 4 16 13 25 25 25 10 0 19
6 19 13 0 8 2 9 8 1 4 -6 17 -14 30 -18 12 -4 22 -12 22 -17 0 -5 5 -9 11 -9
5 0 23 -14 38 -31 22 -23 34 -29 50 -24 25 7 27 21 7 41 -8 8 -19 14 -25 14
-5 0 -13 10 -16 22 -4 11 -19 32 -34 46 -21 20 -33 23 -68 19 -37 -4 -43 -2
-43 14 0 11 5 19 10 19 15 0 12 19 -4 36 -18 18 -27 17 -48 -5z"/>
<path d="M32077 11469 c-20 -22 -41 -39 -45 -39 -20 0 -51 -38 -57 -72 -6 -31
-4 -36 17 -41 16 -5 28 0 43 16 11 13 28 26 38 30 9 3 17 13 17 22 0 8 5 15
10 15 6 0 10 -7 10 -15 0 -9 7 -18 15 -21 8 -3 17 -14 20 -25 4 -10 13 -19 21
-19 8 0 14 -9 14 -20 0 -14 7 -20 24 -20 29 0 41 34 20 54 -8 8 -14 23 -14 33
0 10 -3 29 -7 41 -5 21 -11 23 -49 20 -31 -2 -44 1 -44 10 0 7 7 15 15 18 18
7 19 21 2 38 -10 11 -20 6 -50 -25z"/>
<path d="M32674 11480 c-5 -22 -12 -30 -28 -30 -11 -1 -32 -14 -46 -30 -13
-17 -28 -30 -33 -30 -5 0 -15 -6 -23 -14 -18 -19 -18 -66 0 -66 8 0 17 -6 19
-12 4 -9 8 -10 14 -2 4 6 21 14 37 18 17 4 37 16 46 26 16 18 17 18 30 -1 21
-28 116 -28 125 1 3 11 11 20 16 20 5 0 9 7 9 15 0 9 -12 18 -30 22 -26 5 -29
9 -24 27 4 11 12 24 18 28 8 6 8 8 0 8 -7 0 -15 11 -18 25 -6 23 -11 25 -56
25 -48 0 -51 -1 -56 -30z"/>
<path d="M20550 11460 c0 -23 -4 -30 -20 -30 -11 0 -20 -5 -20 -10 0 -6 -11
-21 -25 -34 -25 -23 -34 -66 -15 -66 6 0 10 -6 10 -14 0 -27 84 -35 98 -9 8
14 24 16 101 14 86 -2 91 -1 91 18 0 28 -34 61 -63 61 -18 0 -22 5 -22 32 0
25 -5 33 -20 36 -11 2 -24 10 -28 18 -5 8 -24 14 -47 14 -38 0 -40 -2 -40 -30z"/>
<path d="M31428 11483 c-11 -2 -18 -14 -18 -29 0 -17 -7 -25 -27 -30 -28 -8
-43 -17 -71 -46 -9 -10 -20 -18 -25 -18 -14 0 -37 -27 -37 -44 0 -9 9 -25 20
-36 21 -21 40 -26 40 -11 0 5 18 11 40 15 22 3 40 11 40 16 0 6 11 10 25 10
14 0 25 -4 25 -10 0 -5 7 -10 15 -10 8 0 15 4 15 9 0 6 21 11 47 13 37 2 49 7
51 21 4 19 -21 49 -48 60 -10 3 -11 6 -2 6 17 1 15 49 -2 67 -17 16 -62 25
-88 17z"/>
<path d="M21228 11461 c-10 -10 -18 -23 -18 -29 0 -7 -7 -12 -15 -12 -8 0 -15
-6 -15 -14 0 -8 -6 -17 -12 -19 -9 -4 -10 -8 -2 -14 6 -4 14 -25 18 -45 6 -32
11 -38 31 -38 18 0 26 7 31 25 3 14 12 25 19 25 10 0 13 16 10 63 -1 34 -3 65
-4 70 -2 13 -25 6 -43 -12z"/>
<path d="M30795 11455 c-11 -14 -26 -25 -33 -25 -7 0 -15 -7 -18 -15 -4 -8
-12 -15 -20 -15 -8 0 -14 -6 -14 -14 0 -8 -4 -16 -9 -18 -5 -1 -11 -21 -13
-43 -4 -47 20 -59 49 -26 9 12 22 21 27 21 5 0 17 10 27 22 11 11 19 16 19 10
0 -7 7 -12 15 -12 8 0 15 -5 15 -11 0 -14 25 -39 39 -39 6 0 11 -6 11 -14 0
-20 16 -29 40 -21 24 8 27 50 5 59 -9 3 -15 18 -15 40 0 37 -12 46 -61 46 -19
0 -29 -5 -29 -15 0 -8 -4 -15 -10 -15 -16 0 -12 47 5 54 18 7 20 56 3 56 -7
-1 -22 -12 -33 -25z"/>
<path d="M21860 11432 c0 -25 -5 -30 -30 -35 -16 -4 -30 -13 -30 -20 0 -8 -9
-24 -19 -36 -21 -24 -18 -42 8 -73 20 -23 89 -25 97 -3 4 8 12 15 20 15 8 0
14 7 14 15 0 8 5 15 10 15 6 0 10 -7 10 -15 0 -12 15 -15 73 -15 96 0 108 9
69 48 -16 17 -42 32 -58 34 -26 3 -27 4 -11 20 22 21 21 24 -5 50 -17 17 -37
23 -85 26 l-63 4 0 -30z"/>
<path d="M22697 11425 c-19 -19 -37 -35 -41 -35 -19 0 -36 -33 -36 -69 0 -29
4 -41 14 -41 8 0 17 -6 20 -12 5 -10 7 -10 12 0 3 6 11 12 18 12 6 0 19 8 28
18 9 9 24 23 33 30 11 10 14 22 10 42 -4 18 -1 33 9 43 20 20 20 33 0 41 -26
10 -32 7 -67 -29z"/>
<path d="M23508 11453 c-12 -3 -18 -14 -18 -34 0 -25 -4 -29 -26 -29 -17 0
-38 -12 -60 -35 -18 -19 -37 -35 -43 -35 -16 0 -22 -17 -15 -45 3 -14 12 -25
20 -25 8 0 14 -4 14 -10 0 -5 18 -10 40 -10 22 0 40 4 40 9 0 5 12 12 26 15
15 4 34 14 43 23 15 15 16 15 19 0 3 -14 17 -17 87 -17 75 0 84 2 90 20 8 24
-1 40 -21 40 -8 0 -14 5 -14 10 0 6 -11 10 -25 10 -14 0 -25 5 -25 10 0 6 5
10 10 10 19 0 10 32 -18 59 -27 27 -87 44 -124 34z"/>
<path d="M29340 11453 c-8 -4 -26 -19 -40 -35 -13 -15 -32 -28 -41 -28 -20 0
-29 -20 -29 -65 0 -18 3 -40 6 -49 7 -17 44 -22 44 -6 0 6 7 10 15 10 8 0 15
6 15 14 0 7 9 16 20 19 16 4 20 14 20 46 0 31 4 41 16 41 11 0 14 8 12 27 -3
28 -14 35 -38 26z"/>
<path d="M30094 11452 c-7 -4 -14 -18 -15 -32 -3 -19 -11 -26 -34 -28 -17 -2
-42 -17 -61 -38 -18 -19 -37 -34 -43 -34 -6 0 -11 -16 -11 -35 l0 -35 55 0
c40 0 57 4 61 15 4 8 12 15 20 15 8 0 14 7 14 15 0 8 5 15 10 15 6 0 10 -7 10
-15 0 -8 9 -15 20 -15 11 0 20 -4 20 -10 0 -5 11 -10 25 -10 14 0 25 4 25 9 0
6 15 11 32 13 20 2 34 9 36 19 3 19 -27 55 -53 62 -16 4 -17 5 -2 6 26 2 21
38 -9 66 -27 25 -76 33 -100 17z"/>
<path d="M24370 11435 c0 -8 -5 -15 -10 -15 -6 0 -21 -10 -33 -23 -12 -13 -30
-26 -39 -30 -14 -5 -18 -18 -18 -57 0 -49 0 -50 31 -50 30 0 59 19 59 39 0 6
9 11 20 11 17 0 20 7 20 45 0 33 4 45 15 45 16 0 19 9 9 34 -8 21 -54 21 -54
1z"/>
<path d="M25180 11440 c0 -5 -7 -10 -15 -10 -10 0 -15 -10 -15 -30 0 -27 -3
-30 -29 -30 -29 0 -61 -22 -61 -41 0 -5 -11 -11 -24 -15 -51 -13 -44 -80 10
-90 38 -7 104 3 104 15 0 5 11 12 25 15 14 4 25 11 25 17 0 6 7 3 16 -5 17
-18 158 -23 183 -7 21 14 -34 61 -70 61 -16 0 -29 5 -29 10 0 6 4 10 9 10 5 0
13 9 16 21 9 26 -22 57 -65 65 -16 4 -30 10 -30 15 0 5 -11 9 -25 9 -14 0 -25
-4 -25 -10z"/>
<path d="M26860 11440 c0 -5 -9 -10 -20 -10 -16 0 -20 -7 -20 -30 0 -26 -3
-30 -29 -30 -19 0 -35 -9 -51 -30 -13 -16 -27 -30 -32 -30 -13 0 -38 -26 -38
-40 0 -6 9 -20 19 -32 17 -17 28 -20 72 -16 28 3 55 11 60 19 6 11 32 13 109
11 139 -4 160 4 123 48 -12 13 -30 20 -55 20 -21 0 -38 5 -38 10 0 6 7 10 15
10 10 0 15 10 15 30 0 19 -5 30 -14 30 -8 0 -16 7 -20 15 -3 8 -17 15 -31 15
-14 0 -25 5 -25 10 0 6 -9 10 -20 10 -11 0 -20 -4 -20 -10z"/>
<path d="M27710 11435 c0 -8 -5 -15 -11 -15 -7 0 -22 -11 -34 -24 -12 -13 -32
-27 -43 -31 -19 -5 -22 -14 -22 -56 0 -39 3 -49 18 -51 38 -3 52 3 86 37 36
36 47 65 24 65 -10 0 -10 2 0 8 7 5 15 25 19 45 5 33 3 37 -16 37 -12 0 -21
-6 -21 -15z"/>
<path d="M28470 11424 c0 -32 -21 -54 -51 -54 -13 0 -33 -10 -44 -23 -11 -13
-28 -26 -37 -30 -23 -8 -25 -67 -3 -67 8 0 15 -4 15 -10 0 -17 87 -12 94 5 3
8 17 15 31 15 20 0 25 5 26 28 0 16 3 21 6 12 14 -33 32 -40 111 -40 64 0 81
3 86 16 10 25 7 34 -9 34 -9 0 -18 7 -21 15 -4 9 -19 15 -35 15 -31 0 -39 17
-14 26 8 4 15 10 15 15 0 14 -33 49 -47 49 -7 0 -13 5 -13 10 0 6 -25 10 -55
10 -52 0 -55 -1 -55 -26z"/>
<path d="M26050 11415 c0 -8 -7 -15 -15 -15 -8 0 -23 -9 -32 -20 -10 -11 -21
-20 -26 -20 -34 0 -53 -92 -21 -104 30 -11 60 -6 77 14 9 11 24 20 32 20 11 0
15 11 15 39 0 22 7 46 15 55 25 25 19 46 -15 46 -20 0 -30 -5 -30 -15z"/>
<path d="M21306 11404 c-13 -34 -7 -64 14 -64 11 0 20 -7 20 -15 0 -8 9 -15
20 -15 11 0 20 -4 20 -9 0 -5 9 -11 20 -14 11 -3 20 -12 20 -21 0 -10 9 -16
25 -16 34 0 32 24 -5 62 -16 16 -30 34 -30 39 0 19 -35 49 -57 49 -13 0 -23 5
-23 10 0 16 -17 12 -24 -6z"/>
<path d="M22786 11374 c-10 -26 -7 -54 7 -54 7 0 20 -9 30 -20 9 -11 24 -20
33 -20 9 0 27 -11 40 -25 13 -14 32 -25 42 -25 35 0 33 28 -3 63 -19 19 -35
39 -35 46 0 40 -100 72 -114 35z"/>
<path d="M29393 11375 c-22 -24 -16 -54 12 -61 14 -3 25 -12 25 -20 0 -8 7
-14 16 -14 8 0 29 -13 46 -30 35 -35 32 -34 52 -14 21 20 20 43 -1 51 -27 10
-43 29 -43 50 0 43 -79 71 -107 38z"/>
<path d="M24424 11355 c-9 -23 3 -45 25 -45 14 0 23 -9 27 -25 5 -19 13 -25
35 -25 19 0 29 -5 29 -14 0 -18 33 -30 60 -21 32 10 20 42 -22 58 -10 3 -18
15 -18 27 0 38 -30 60 -83 60 -33 0 -49 -5 -53 -15z"/>
<path d="M27763 11363 c-16 -6 -17 -53 -2 -53 7 0 22 -11 35 -25 13 -14 32
-25 44 -25 11 0 23 -7 26 -15 7 -18 36 -28 58 -19 24 9 20 23 -19 60 -19 18
-35 37 -35 43 0 31 -65 52 -107 34z"/>
<path d="M26110 11325 c0 -22 5 -35 13 -35 7 0 20 -9 30 -20 9 -11 28 -20 42
-20 18 0 26 -7 31 -25 8 -32 49 -35 59 -4 5 16 -1 28 -24 50 -17 15 -31 32
-31 37 0 26 -39 52 -79 52 -40 0 -41 -1 -41 -35z"/>
<path d="M18570 11270 c0 -27 4 -50 9 -50 5 0 12 -25 16 -55 3 -30 11 -55 16
-55 5 0 9 -9 9 -20 0 -15 7 -20 25 -20 14 0 25 -4 25 -10 0 -5 15 -10 33 -10
17 0 37 -4 44 -8 7 -5 15 -47 19 -105 6 -88 5 -97 -10 -91 -9 3 -19 17 -22 30
-3 13 -10 24 -14 24 -5 0 -11 14 -15 30 -4 17 -10 30 -15 30 -5 0 -11 8 -13
18 -2 9 -2 -8 1 -38 3 -30 8 -57 12 -60 4 -3 11 -20 15 -37 3 -18 10 -33 15
-33 4 0 10 -18 14 -40 3 -22 10 -40 15 -40 5 0 12 -16 15 -35 4 -19 11 -35 16
-35 6 0 13 -18 16 -40 4 -22 10 -40 15 -40 5 0 12 -18 15 -40 4 -22 10 -40 15
-40 4 0 11 -16 15 -35 3 -19 10 -35 15 -35 5 0 12 -18 15 -40 4 -22 10 -40 15
-40 4 0 11 -16 15 -35 3 -19 10 -35 14 -35 4 0 11 -16 14 -35 4 -19 11 -35 16
-35 6 0 10 -9 10 -20 0 -11 4 -20 10 -20 5 0 13 -18 16 -40 4 -22 10 -40 15
-40 4 0 11 -16 15 -35 3 -19 10 -35 15 -35 4 0 11 -17 15 -37 4 -21 11 -41 17
-44 5 -4 12 -30 15 -58 2 -28 8 -51 13 -51 4 0 11 -16 15 -35 3 -19 10 -35 15
-35 5 0 12 -18 15 -40 4 -22 10 -40 14 -40 5 0 11 -13 15 -30 5 -23 12 -30 31
-30 14 0 27 -7 31 -17 4 -10 13 -24 20 -31 7 -7 13 -20 13 -28 0 -8 5 -14 10
-14 6 0 10 -7 10 -15 0 -8 4 -15 10 -15 5 0 12 -11 16 -25 3 -14 10 -25 15
-25 5 0 9 -7 9 -15 0 -9 6 -18 14 -21 8 -3 18 -19 21 -35 4 -16 11 -29 16 -29
5 0 11 -11 15 -25 3 -14 10 -25 15 -25 5 0 9 -7 9 -15 0 -9 6 -18 14 -21 8 -3
17 -17 21 -31 3 -14 13 -32 22 -41 14 -14 15 -8 8 69 -4 46 -11 86 -16 87 -5
2 -9 17 -9 33 0 37 31 40 64 4 13 -14 28 -25 34 -25 7 0 14 11 18 25 6 24 24
35 24 15 0 -5 7 -10 15 -10 8 0 15 -5 15 -10 0 -6 11 -21 25 -34 14 -13 25
-28 25 -35 0 -6 7 -11 15 -11 8 0 15 -7 15 -15 0 -9 8 -19 18 -22 9 -4 33 -23
54 -44 20 -20 46 -40 57 -44 12 -3 21 -15 21 -26 0 -10 7 -19 15 -19 9 0 18
-7 21 -15 3 -8 15 -17 26 -21 12 -3 31 -17 43 -30 18 -20 32 -24 79 -24 43 0
56 3 56 15 0 8 7 15 15 15 9 0 15 9 15 25 0 16 6 25 15 25 8 0 15 7 15 15 0 8
7 15 15 15 9 0 15 9 15 25 0 16 6 25 15 25 8 0 15 6 15 14 0 8 7 16 15 20 8 3
15 12 15 21 0 8 5 15 10 15 6 0 10 7 10 15 0 8 6 15 14 15 8 0 17 11 20 25 4
14 11 25 16 25 6 0 10 6 10 14 0 8 7 16 15 20 8 3 15 10 15 16 0 5 8 19 17 30
20 23 73 28 73 6 0 -8 10 -18 22 -21 11 -4 31 -18 43 -31 13 -14 34 -24 49
-24 21 0 26 5 26 25 0 16 6 25 15 25 8 0 15 7 15 15 0 11 11 15 39 15 33 0 40
-4 45 -25 4 -14 13 -25 21 -25 8 0 15 -7 15 -15 0 -8 6 -15 14 -15 8 0 28 -13
44 -30 17 -16 35 -30 41 -30 6 0 11 -7 11 -15 0 -8 6 -15 13 -15 7 0 20 -9 30
-20 9 -11 24 -20 32 -20 8 0 17 -11 21 -25 3 -14 12 -25 20 -25 7 0 24 -11 38
-25 14 -14 30 -25 36 -25 5 0 10 -7 10 -15 0 -8 7 -15 15 -15 9 0 18 -7 21
-15 3 -8 15 -17 26 -21 12 -3 31 -17 43 -30 12 -13 27 -24 32 -24 6 0 13 -9
16 -20 4 -17 14 -20 65 -20 39 0 62 -4 64 -12 5 -15 38 13 38 31 0 6 7 11 15
11 8 0 15 7 15 15 0 9 7 18 15 21 8 4 15 12 15 20 0 8 7 14 15 14 8 0 15 6 15
14 0 8 6 21 14 28 7 8 17 24 20 36 4 12 11 22 16 22 5 0 11 14 15 30 4 17 13
30 21 30 8 0 14 6 14 14 0 8 7 16 15 20 8 3 15 12 15 21 0 8 7 15 15 15 9 0
15 9 15 25 0 16 6 25 15 25 8 0 15 7 15 15 0 11 11 15 40 15 29 0 40 -4 40
-15 0 -8 5 -15 11 -15 7 0 22 -11 34 -24 36 -39 95 -45 95 -10 0 8 7 14 15 14
8 0 15 7 15 15 0 10 11 15 35 15 26 0 42 -8 68 -35 19 -19 39 -35 46 -35 7 0
22 -11 35 -25 13 -14 28 -25 35 -25 6 0 11 -7 11 -15 0 -9 8 -19 18 -22 9 -4
27 -17 39 -30 12 -13 27 -23 33 -23 5 0 10 -5 10 -11 0 -16 26 -39 44 -39 9 0
16 -6 16 -14 0 -8 10 -18 22 -21 11 -4 31 -18 43 -31 12 -13 27 -24 34 -24 6
0 11 -7 11 -15 0 -8 7 -15 15 -15 8 0 23 -9 32 -20 10 -11 22 -20 27 -20 5 0
19 -11 32 -25 21 -23 31 -25 102 -25 77 0 80 1 86 25 4 14 11 25 16 25 6 0 10
7 10 15 0 8 7 15 15 15 8 0 15 6 15 14 0 8 7 16 15 20 8 3 15 12 15 21 0 8 7
15 15 15 9 0 15 9 15 24 0 17 7 26 25 30 14 4 25 13 25 21 0 8 13 28 29 44 16
17 32 39 36 50 3 12 11 21 16 21 5 0 9 7 9 15 0 8 7 15 15 15 8 0 15 7 15 15
0 9 7 18 15 21 8 4 15 12 15 20 0 20 79 19 86 -1 3 -8 15 -17 26 -21 12 -3 31
-17 43 -30 13 -14 34 -24 49 -24 21 0 26 5 26 25 0 15 6 25 14 25 7 0 16 9 19
20 4 15 14 20 36 20 19 0 38 -8 48 -20 10 -11 21 -20 26 -20 12 0 37 -27 37
-39 0 -6 11 -11 25 -11 16 0 25 -6 25 -15 0 -9 8 -19 18 -22 9 -4 27 -17 39
-30 12 -13 25 -23 29 -23 4 0 17 -11 29 -24 12 -13 32 -27 43 -31 12 -3 22
-11 22 -16 0 -5 7 -9 16 -9 9 0 18 -9 21 -20 3 -13 14 -20 29 -20 13 0 24 -5
24 -11 0 -16 26 -39 44 -39 9 0 16 -7 16 -15 0 -9 12 -18 30 -21 17 -4 30 -11
30 -16 0 -12 26 -38 37 -38 5 0 16 -9 26 -20 14 -17 29 -20 92 -20 46 0 75 4
75 10 0 6 11 21 25 34 14 13 25 27 25 33 0 5 13 20 30 33 16 14 29 31 30 38 0
6 6 12 14 12 8 0 17 11 20 25 4 14 11 25 16 25 6 0 10 7 10 15 0 9 7 18 15 21
8 4 15 12 15 20 0 8 7 14 15 14 8 0 15 7 15 16 0 10 16 32 35 51 19 19 35 40
35 47 0 8 7 16 15 20 8 3 15 12 15 21 0 24 76 20 97 -5 10 -11 22 -20 27 -20
5 0 19 -11 32 -25 23 -25 74 -35 74 -15 0 6 15 27 34 45 34 36 73 46 82 20 3
-8 16 -17 27 -21 12 -4 31 -17 43 -29 11 -13 30 -26 42 -29 11 -4 23 -13 26
-21 3 -8 11 -15 18 -15 7 0 22 -11 32 -25 10 -14 25 -25 32 -25 8 0 14 -7 14
-15 0 -8 7 -15 15 -15 8 0 15 -4 15 -10 0 -5 7 -10 15 -10 8 0 15 -7 15 -15 0
-8 11 -17 24 -21 14 -3 27 -12 30 -20 3 -8 12 -14 21 -14 9 0 26 -11 39 -25
13 -14 27 -25 32 -25 5 0 17 -9 27 -20 9 -11 24 -20 32 -20 8 0 17 -11 21 -25
4 -18 13 -25 29 -25 14 0 25 -7 28 -20 5 -18 14 -20 91 -20 51 0 86 4 86 10 0
6 18 27 40 49 22 21 40 44 40 50 0 6 7 11 15 11 8 0 15 5 15 11 0 13 41 59 53
59 5 0 29 20 54 45 24 25 50 45 56 45 7 0 28 18 47 40 19 22 39 40 43 40 5 0
29 20 54 45 51 52 100 61 130 25 10 -11 22 -20 27 -20 5 0 19 -11 32 -25 23
-25 64 -34 64 -15 0 6 7 10 15 10 8 0 29 16 48 35 28 29 41 35 76 35 30 0 41
-4 41 -15 0 -8 7 -15 15 -15 8 0 23 -9 32 -20 10 -11 22 -20 27 -20 5 0 19
-11 32 -25 13 -14 28 -25 34 -25 13 0 60 -49 60 -61 0 -5 27 -35 60 -67 33
-33 60 -64 60 -70 0 -7 7 -12 15 -12 8 0 15 -5 15 -11 0 -6 18 -29 40 -50 22
-22 40 -43 40 -49 0 -6 32 -10 75 -10 63 0 78 3 92 20 10 11 21 20 26 20 12 0
37 27 37 39 0 6 9 11 20 11 11 0 20 7 20 15 0 8 11 17 25 21 15 4 28 16 31 30
4 17 13 24 30 24 14 0 24 6 24 14 0 8 10 18 22 21 11 4 31 18 43 31 12 13 27
24 34 24 6 0 11 7 11 15 0 8 6 15 14 15 7 0 22 11 32 25 10 14 24 25 31 25 7
0 13 7 13 15 0 9 8 19 18 22 22 9 42 29 42 42 0 6 9 11 20 11 11 0 20 7 20 15
0 11 12 15 50 15 38 0 50 -4 50 -15 0 -8 6 -15 14 -15 8 0 17 -11 20 -25 5
-18 13 -25 32 -25 26 0 54 20 54 39 0 6 9 11 20 11 11 0 20 6 20 14 0 17 22
26 61 26 22 0 29 -5 29 -20 0 -11 7 -20 15 -20 8 0 15 -7 15 -15 0 -8 9 -15
20 -15 13 0 22 -9 26 -25 3 -14 12 -25 20 -25 8 0 14 -5 14 -11 0 -7 11 -22
25 -35 14 -13 25 -28 25 -34 0 -5 7 -10 15 -10 8 0 15 -7 15 -15 0 -8 6 -15
14 -15 8 0 17 -11 20 -25 4 -14 13 -25 21 -25 8 0 15 -9 15 -20 0 -11 7 -20
15 -20 8 0 15 -7 15 -15 0 -8 5 -15 11 -15 14 0 39 -25 39 -39 0 -6 7 -11 15
-11 8 0 15 -9 15 -20 0 -18 7 -20 86 -20 77 0 86 2 91 20 3 13 14 20 28 20 16
0 25 7 29 25 4 14 13 25 21 25 8 0 15 6 15 14 0 8 14 17 30 21 17 4 30 13 30
21 0 8 9 14 20 14 13 0 22 9 26 25 4 18 13 25 30 25 15 0 24 6 24 15 0 9 8 19
18 22 22 9 42 29 42 42 0 6 9 11 20 11 11 0 20 5 20 11 0 12 25 39 37 39 5 0
16 9 26 20 9 11 24 20 32 20 8 0 15 7 15 15 0 8 5 15 10 15 6 0 21 11 34 25
23 25 76 35 76 14 0 -14 25 -39 39 -39 6 0 11 -7 11 -15 0 -10 10 -15 31 -15
30 0 59 19 59 39 0 6 9 11 20 11 11 0 20 7 20 15 0 11 12 15 45 15 33 0 45 -4
45 -15 0 -8 9 -15 20 -15 11 0 20 -7 20 -15 0 -8 16 -29 35 -48 19 -19 35 -39
35 -46 0 -6 7 -11 15 -11 8 0 15 -7 15 -15 0 -8 18 -32 40 -54 22 -21 40 -44
40 -50 0 -6 7 -11 15 -11 8 0 15 -9 15 -20 0 -11 6 -20 14 -20 8 0 17 -11 20
-25 4 -14 13 -25 21 -25 8 0 15 -7 15 -15 0 -8 7 -15 15 -15 8 0 15 -9 15 -20
0 -18 7 -20 58 -20 71 0 102 8 102 26 0 8 6 14 13 14 6 1 23 14 37 30 13 17
30 30 37 30 7 0 13 7 13 15 0 8 5 15 11 15 6 0 25 14 42 30 18 17 39 37 48 45
9 8 19 15 23 15 11 0 36 27 36 39 0 6 5 11 10 11 6 0 30 20 53 45 24 25 47 45
51 45 4 0 28 20 53 45 24 25 51 45 59 45 8 0 14 7 14 15 0 11 11 15 39 15 36
0 39 -2 45 -35 6 -28 11 -35 31 -35 34 0 55 10 55 26 0 8 5 14 10 14 6 0 21
11 34 25 26 28 56 33 56 10 0 -8 4 -15 10 -15 5 0 12 -11 16 -25 3 -14 10 -25
14 -25 4 0 11 -16 14 -35 4 -21 13 -35 21 -35 9 0 15 -10 15 -25 0 -14 5 -25
10 -25 6 0 10 -11 10 -25 0 -16 6 -25 15 -25 8 0 15 -7 15 -15 0 -8 4 -15 9
-15 5 0 12 -16 15 -35 4 -21 13 -35 21 -35 9 0 15 -10 15 -25 0 -14 5 -25 10
-25 6 0 10 -7 10 -15 0 -12 13 -15 55 -15 47 0 60 4 79 25 13 14 28 25 35 25
6 0 11 7 11 15 0 9 8 19 18 22 19 8 30 16 70 54 15 14 35 28 45 32 9 3 17 16
17 27 0 11 6 20 14 20 8 0 34 19 58 43 24 24 51 46 61 50 9 3 17 13 17 22 0 8
5 15 11 15 6 0 29 18 50 40 22 22 46 40 55 40 9 0 18 9 21 20 4 14 14 20 32
20 35 0 48 -10 56 -43 11 -40 41 -34 92 18 50 53 93 62 93 20 0 -14 5 -25 10
-25 6 0 10 -7 10 -15 0 -8 7 -15 15 -15 8 0 15 -9 15 -20 0 -11 4 -20 10 -20
5 0 13 -18 16 -40 4 -24 12 -40 20 -40 8 0 14 -9 14 -20 0 -11 4 -20 10 -20 5
0 12 -16 16 -35 3 -19 10 -35 15 -35 5 0 9 -9 9 -20 0 -11 6 -20 14 -20 8 0
16 -16 20 -40 l6 -40 50 0 c45 0 53 4 94 45 26 25 53 45 61 45 8 0 17 11 21
25 3 14 11 25 16 25 6 0 28 18 49 40 22 22 43 40 48 40 5 0 30 20 54 45 25 25
50 45 56 45 6 0 11 7 11 16 0 9 9 18 20 21 11 3 20 10 20 15 0 17 28 38 49 38
15 0 21 -6 21 -23 0 -32 32 -58 48 -40 7 7 22 13 33 13 20 0 20 -4 13 -102 -3
-57 -12 -106 -18 -110 -6 -4 -7 -11 -2 -15 5 -4 11 -2 14 6 2 7 13 21 23 29
11 9 19 22 19 29 0 7 4 13 10 13 5 0 13 12 16 27 4 15 13 34 21 41 7 7 13 19
13 27 0 7 7 15 15 19 8 3 15 12 15 21 0 8 4 15 9 15 5 0 12 14 16 30 4 17 11
30 16 30 5 0 11 11 15 25 3 14 10 25 15 25 5 0 9 6 9 14 0 8 7 16 15 20 8 3
15 12 15 21 0 21 34 53 65 61 18 4 25 13 25 30 0 13 4 24 10 24 5 0 12 16 16
35 3 19 10 35 14 35 5 0 11 14 15 30 4 17 10 30 15 30 5 0 12 25 15 55 4 30
11 55 16 55 5 0 12 18 15 40 4 22 10 40 14 40 4 0 11 16 14 35 4 19 11 35 15
35 5 0 11 18 15 40 3 22 11 40 16 40 6 0 10 9 10 20 0 11 4 20 10 20 5 0 13
18 16 40 4 22 10 40 14 40 5 0 11 14 15 30 4 16 10 30 15 30 4 0 10 18 14 40
3 22 10 40 15 40 5 0 12 16 15 35 4 19 11 35 16 35 6 0 13 18 16 40 4 22 10
40 15 40 4 0 11 16 15 35 3 19 10 35 14 35 5 0 11 18 15 40 4 22 11 40 15 40
5 0 11 14 15 30 4 17 10 30 15 30 4 0 10 18 14 40 3 22 10 40 15 40 5 0 12 16
15 35 4 19 11 35 15 35 5 0 11 18 15 40 3 22 11 40 16 40 6 0 10 6 10 14 0 8
4 16 10 18 5 2 13 32 16 68 4 36 11 68 15 71 5 3 12 40 15 82 4 42 11 77 15
77 5 0 9 5 9 10 0 6 -5 10 -11 10 -13 0 -69 -55 -69 -68 0 -5 -7 -12 -15 -16
-8 -3 -15 -12 -15 -21 0 -8 -4 -15 -10 -15 -5 0 -12 -11 -16 -25 -3 -14 -10
-25 -14 -25 -5 0 -11 -13 -15 -30 -4 -16 -11 -30 -16 -30 -5 0 -9 -9 -9 -20 0
-15 7 -20 25 -20 17 0 25 -6 26 -17 0 -14 2 -15 6 -3 8 21 24 30 52 30 l24 0
-26 -23 c-15 -12 -27 -30 -27 -40 0 -9 -4 -17 -9 -17 -5 0 -12 -13 -16 -30 -4
-16 -11 -30 -16 -30 -5 0 -9 -7 -9 -15 0 -9 -6 -18 -14 -21 -8 -3 -17 -16 -20
-29 -3 -12 -12 -25 -19 -28 -11 -4 -13 18 -10 112 1 64 0 110 -3 104 -12 -26
-24 -12 -24 27 0 22 5 40 10 40 6 0 10 7 10 15 0 8 -4 15 -10 15 -5 0 -10 30
-12 66 l-3 66 -26 -24 c-15 -14 -30 -35 -34 -46 -3 -12 -11 -22 -16 -22 -5 0
-9 -7 -9 -15 0 -9 -6 -18 -14 -21 -8 -3 -18 -19 -21 -35 -4 -16 -10 -29 -15
-29 -4 0 -11 -11 -14 -24 -3 -14 -15 -28 -26 -31 -11 -3 -20 -10 -20 -15 0 -5
-19 -28 -43 -52 -24 -24 -46 -51 -50 -60 -3 -10 -11 -18 -16 -18 -5 0 -12 -11
-15 -25 -4 -14 -11 -25 -16 -25 -6 0 -10 -9 -10 -19 0 -11 -7 -26 -15 -35 -8
-8 -15 -18 -15 -23 -1 -19 -50 -53 -76 -53 -53 0 -74 11 -74 36 0 13 -4 24
-10 24 -5 0 -10 7 -10 15 0 7 -8 18 -17 24 -14 7 -18 23 -19 71 0 40 -5 64
-14 70 -13 8 -41 2 -50 -11 -3 -4 -18 -11 -33 -14 -21 -6 -27 -4 -27 9 0 9 7
19 15 22 23 9 18 23 -10 30 -18 4 -25 13 -25 30 0 13 5 24 10 24 6 0 10 7 10
15 0 8 -4 15 -10 15 -5 0 -10 7 -10 15 0 8 -6 15 -14 15 -16 0 -26 21 -26 56
0 19 -6 26 -30 31 -16 3 -30 9 -30 14 0 5 -11 9 -25 9 -14 0 -25 -4 -25 -9 0
-5 -11 -12 -24 -15 -14 -3 -26 -16 -30 -30 -3 -14 -15 -28 -27 -31 -26 -9 -99
-83 -99 -101 0 -8 -4 -14 -10 -14 -5 0 -10 -11 -10 -25 0 -20 5 -25 25 -25 14
0 25 4 25 9 0 4 21 11 47 14 26 3 49 10 51 16 2 6 15 11 28 11 13 0 24 5 24
11 0 6 8 3 17 -7 13 -13 14 -19 5 -22 -6 -2 -12 -10 -12 -18 0 -13 12 -16 105
-18 24 -1 31 -6 33 -25 2 -14 -3 -30 -10 -35 -8 -6 -18 -28 -22 -49 -6 -31
-12 -39 -37 -44 -16 -3 -29 -9 -29 -14 0 -4 -10 -11 -22 -15 -33 -10 -88 -68
-88 -93 0 -11 -4 -21 -10 -21 -5 0 -10 -7 -10 -15 0 -8 -7 -15 -15 -15 -8 0
-15 7 -15 15 0 8 -7 15 -16 15 -20 0 -44 24 -44 44 0 8 -6 21 -13 28 -8 7 -17
26 -21 42 -4 16 -14 35 -21 43 -8 8 -15 28 -15 44 0 26 -4 29 -40 35 -22 4
-40 10 -40 15 0 5 -11 9 -25 9 -14 0 -25 -4 -25 -9 0 -5 -14 -12 -30 -16 -21
-5 -32 -14 -36 -31 -4 -14 -16 -27 -29 -30 -13 -3 -26 -12 -29 -20 -3 -8 -13
-14 -22 -14 -12 0 -15 -6 -10 -23 5 -23 -21 -57 -44 -57 -6 0 -10 -6 -10 -12
0 -20 -46 -58 -69 -58 -12 0 -21 -4 -21 -10 0 -5 -5 -10 -11 -10 -6 0 -17 -7
-25 -15 -25 -25 -44 -18 -44 15 0 20 -5 30 -15 30 -17 0 -55 30 -55 44 0 5
-11 19 -24 31 -13 12 -27 32 -31 43 -3 12 -11 22 -16 22 -5 0 -9 13 -9 29 0
53 -8 61 -61 61 -27 0 -49 -4 -49 -9 0 -5 -16 -12 -35 -15 -29 -6 -35 -11 -35
-31 0 -14 -4 -25 -10 -25 -5 0 -10 -9 -10 -20 0 -11 -7 -20 -15 -20 -8 0 -15
-4 -15 -9 0 -5 -12 -12 -26 -15 -14 -4 -36 -18 -48 -31 -13 -14 -28 -25 -33
-25 -11 0 -23 -32 -23 -63 0 -42 -56 -62 -86 -32 -9 8 -29 15 -45 15 -26 0
-29 3 -29 34 0 25 -5 35 -20 39 -11 3 -20 12 -20 21 0 9 -4 16 -9 16 -5 0 -13
10 -16 22 -4 11 -18 31 -31 43 -13 12 -24 34 -24 48 0 20 -6 26 -35 31 -19 4
-35 11 -35 16 0 6 -7 10 -15 10 -8 0 -15 -4 -15 -10 0 -5 -16 -12 -35 -16 -19
-3 -35 -10 -35 -15 0 -5 -7 -9 -15 -9 -8 0 -15 -7 -15 -15 0 -9 -8 -19 -17
-22 -23 -9 -43 -29 -43 -42 0 -6 -7 -11 -15 -11 -10 0 -15 -10 -15 -30 0 -18
-5 -30 -13 -30 -14 0 -47 -35 -47 -50 0 -6 -6 -10 -14 -10 -8 0 -16 -7 -20
-15 -3 -8 -17 -15 -31 -15 -14 0 -25 -4 -25 -10 0 -5 -7 -10 -15 -10 -8 0 -15
-7 -15 -15 0 -8 -5 -15 -11 -15 -16 0 -39 26 -39 44 0 9 -7 16 -15 16 -8 0
-15 5 -15 10 0 6 -7 10 -15 10 -8 0 -17 11 -21 25 -3 14 -10 25 -15 25 -5 0
-9 5 -9 11 0 7 -16 27 -35 46 -30 29 -35 41 -35 78 l0 45 -45 0 c-25 0 -45 -4
-45 -10 0 -5 -17 -12 -37 -16 -44 -8 -57 -19 -67 -58 -9 -36 -26 -53 -62 -62
-16 -4 -42 -20 -57 -36 -16 -15 -35 -28 -43 -28 -9 0 -14 -11 -14 -32 0 -66
-9 -78 -51 -78 -25 0 -42 5 -45 14 -3 7 -23 16 -45 20 -36 6 -39 8 -39 40 0
27 -5 35 -24 40 -14 3 -26 16 -30 31 -4 14 -11 25 -16 25 -6 0 -10 6 -10 13 0
7 -9 20 -20 30 -11 9 -20 24 -20 33 0 22 -21 41 -58 49 -18 3 -32 11 -32 16 0
14 -20 11 -36 -6 -9 -8 -24 -15 -35 -15 -22 0 -54 -29 -63 -58 -4 -11 -18 -23
-31 -26 -16 -4 -27 -16 -32 -34 -7 -28 -25 -52 -40 -52 -4 0 -26 -20 -48 -45
-25 -29 -48 -45 -62 -45 -13 0 -23 -4 -23 -10 0 -5 -7 -10 -15 -10 -9 0 -18
-7 -21 -15 -4 -8 -17 -15 -30 -15 -19 0 -24 5 -24 26 0 31 -16 48 -53 58 -15
3 -27 10 -27 15 0 12 -59 71 -70 71 -17 0 -80 71 -80 90 0 44 -10 50 -76 50
-35 0 -64 -4 -64 -9 0 -6 -15 -11 -32 -13 -32 -3 -33 -5 -36 -50 -3 -43 -5
-48 -28 -48 -13 0 -24 -4 -24 -9 0 -5 -12 -12 -26 -15 -14 -4 -36 -18 -48 -31
-13 -14 -28 -25 -34 -25 -6 0 -12 -25 -14 -57 l-3 -58 -51 0 c-35 1 -57 6 -68
18 -10 9 -31 17 -47 17 -16 0 -29 5 -29 10 0 6 -6 10 -14 10 -7 0 -16 14 -20
30 -3 17 -10 30 -16 30 -15 0 -40 25 -40 39 0 6 -5 11 -11 11 -7 0 -27 16 -46
35 -19 19 -40 35 -48 35 -9 0 -15 10 -15 24 0 24 -21 36 -67 36 -12 0 -23 4
-25 9 -6 17 -54 23 -69 8 -8 -7 -26 -17 -41 -20 -20 -5 -28 -14 -30 -35 -2
-21 -9 -28 -30 -30 -24 -3 -29 -9 -34 -42 -5 -28 -13 -41 -27 -46 -24 -8 -47
-28 -47 -42 0 -24 -53 -64 -90 -69 -25 -4 -40 -11 -40 -19 0 -14 -36 -19 -64
-8 -9 3 -16 16 -16 29 0 23 -22 35 -64 35 -10 0 -40 23 -66 50 -26 28 -51 50
-55 50 -18 0 -74 70 -77 96 l-3 29 -93 -1 c-102 -1 -112 -6 -112 -57 0 -33
-17 -53 -54 -63 -14 -3 -26 -10 -26 -15 0 -5 -6 -9 -14 -9 -7 0 -22 -11 -32
-25 -10 -14 -24 -25 -31 -25 -9 0 -13 -15 -13 -44 0 -67 -6 -76 -52 -76 -22 0
-46 6 -53 13 -37 32 -46 37 -74 37 -34 0 -61 23 -61 51 0 14 -7 19 -25 19 -18
0 -26 7 -31 25 -3 14 -11 25 -16 25 -6 0 -28 18 -49 40 -22 22 -43 40 -49 40
-5 0 -10 9 -10 20 0 11 -7 20 -15 20 -8 0 -15 4 -15 9 0 4 -21 11 -47 14 -26
3 -49 10 -51 16 -5 16 -29 13 -36 -4 -3 -8 -17 -15 -30 -15 -20 0 -27 -7 -32
-27 -8 -29 -26 -53 -41 -53 -14 0 -40 -35 -47 -63 -3 -15 -11 -27 -16 -27 -15
0 -50 -33 -50 -47 0 -7 -7 -13 -15 -13 -9 0 -26 -11 -39 -25 -25 -26 -46 -33
-46 -14 0 7 -11 0 -25 -15 -27 -29 -75 -36 -75 -11 0 8 -4 15 -10 15 -5 0 -10
11 -10 25 0 22 -4 25 -34 25 -33 0 -39 4 -103 72 -19 21 -37 34 -55 41 -10 3
-18 11 -18 16 0 5 -11 12 -24 15 -19 5 -25 15 -30 51 l-7 45 -53 0 c-85 0
-146 -11 -146 -26 0 -8 -4 -14 -10 -14 -5 0 -10 -18 -10 -39 0 -38 -1 -39 -42
-46 -26 -5 -49 -17 -62 -32 -12 -14 -29 -32 -38 -41 -12 -11 -18 -31 -18 -59
l0 -43 -55 0 c-40 0 -57 4 -61 15 -4 8 -18 15 -33 15 -44 0 -70 11 -77 32 -7
23 -40 58 -54 58 -5 0 -10 4 -10 10 0 13 -32 50 -43 50 -5 0 -22 14 -39 30
-16 17 -36 30 -43 30 -8 0 -15 12 -17 28 -2 22 -9 28 -33 30 -16 2 -32 7 -35
11 -10 16 -78 22 -92 8 -7 -8 -26 -17 -41 -21 -20 -5 -27 -13 -27 -30 0 -19
-7 -26 -30 -31 -26 -6 -31 -12 -36 -46 -5 -30 -12 -41 -30 -45 -13 -3 -24 -10
-24 -14 0 -4 -18 -26 -40 -49 -28 -29 -48 -41 -68 -41 -15 0 -35 -9 -45 -20
-9 -11 -23 -20 -30 -20 -16 0 -47 36 -47 55 0 8 -9 15 -20 15 -11 0 -20 5 -20
10 0 6 -10 10 -22 10 -15 0 -38 17 -63 45 -22 25 -43 45 -48 45 -4 0 -13 5
-20 10 -52 44 -65 61 -71 93 l-7 37 -74 0 c-43 0 -75 -4 -75 -10 0 -5 -11 -10
-24 -10 -18 0 -25 -7 -29 -30 -4 -16 -4 -36 -1 -44 4 -10 -4 -16 -25 -21 -17
-4 -31 -11 -31 -16 0 -5 -10 -9 -23 -9 -12 0 -30 -9 -40 -20 -9 -11 -24 -20
-32 -20 -11 0 -15 -12 -15 -49 0 -70 -6 -81 -47 -81 -23 0 -41 8 -57 25 -13
14 -32 25 -42 25 -45 0 -64 12 -70 45 -5 26 -12 34 -34 39 -16 3 -52 28 -82
59 -29 29 -61 56 -70 60 -10 3 -18 11 -18 17 0 21 -28 39 -69 46 -23 4 -41 10
-41 15 0 5 -9 9 -20 9 -11 0 -20 -4 -20 -10 0 -5 -11 -12 -25 -16 -19 -5 -25
-13 -25 -35 0 -24 -4 -29 -25 -29 -26 0 -30 -10 -26 -62 2 -19 -3 -28 -12 -28
-15 0 -27 -20 -27 -46 0 -20 -37 -54 -58 -54 -10 0 -25 -9 -34 -19 -22 -26
-58 -17 -58 14 0 24 -17 35 -54 35 -12 0 -28 9 -36 20 -8 11 -20 20 -27 20 -7
0 -13 7 -13 15 0 8 -7 15 -15 15 -9 0 -18 7 -21 15 -3 8 -15 17 -25 20 -27 9
-86 69 -94 97 -4 12 -13 28 -21 35 -15 15 -114 18 -114 3 0 -5 -13 -10 -30
-10 -28 0 -30 -3 -30 -35 0 -19 5 -35 10 -35 6 0 10 -7 10 -15 0 -8 -7 -15
-15 -15 -8 0 -15 -4 -15 -10 0 -5 -6 -10 -14 -10 -8 0 -29 -14 -46 -31 -29
-30 -31 -34 -24 -85 6 -50 5 -54 -15 -54 -11 0 -21 4 -21 10 0 5 -11 12 -25
16 -14 3 -25 10 -25 14 0 5 -15 10 -32 12 -25 2 -34 8 -36 25 -2 12 -12 25
-23 28 -10 4 -19 11 -19 16 0 5 -5 9 -12 9 -6 0 -37 27 -70 60 -32 33 -63 60
-68 60 -6 0 -10 5 -10 10 0 20 -38 47 -74 54 -20 4 -36 11 -36 16 0 6 -9 10
-20 10 -11 0 -20 -4 -20 -10 0 -5 -8 -10 -18 -10 -18 0 -52 -32 -52 -50 0 -5
-8 -13 -17 -19 -13 -7 -17 -21 -16 -50 1 -30 -2 -41 -13 -41 -8 0 -14 -10 -14
-25 0 -14 -7 -28 -15 -31 -8 -3 -17 -14 -20 -25 -4 -12 -16 -19 -31 -19 -15 0
-24 -6 -24 -15 0 -23 -28 -18 -35 6 -11 33 -37 59 -61 59 -12 0 -24 7 -28 15
-3 8 -14 15 -25 15 -12 0 -21 9 -25 24 -3 14 -16 28 -28 32 -11 3 -31 17 -43
30 -12 13 -27 24 -33 24 -6 0 -13 14 -17 30 -4 17 -10 30 -15 30 -4 0 -10 10
-13 21 -5 20 -11 21 -63 17 -32 -3 -60 -10 -62 -16 -2 -7 -10 -12 -18 -12 -10
0 -13 -12 -11 -47 2 -44 0 -48 -22 -51 -27 -4 -44 -18 -54 -44 -3 -10 -11 -18
-17 -18 -5 0 -10 -11 -10 -25 0 -14 5 -25 10 -25 6 0 10 -14 10 -31 0 -29 -2
-31 -27 -24 -15 3 -34 15 -44 26 -9 10 -25 19 -35 19 -43 0 -63 13 -69 41 -5
22 -12 29 -31 29 -17 0 -25 7 -30 25 -3 13 -16 27 -27 31 -25 8 -100 81 -110
107 -4 10 -17 17 -32 17 -15 0 -33 7 -41 15 -19 18 -48 19 -66 2 -7 -7 -21
-16 -32 -20 -11 -4 -16 -13 -12 -22 3 -9 0 -15 -9 -15 -8 0 -15 -6 -15 -14 0
-8 -7 -22 -16 -30 -8 -9 -11 -16 -5 -16 20 0 12 -48 -8 -55 -10 -3 -22 -17
-25 -30 -4 -16 -16 -27 -34 -32 -15 -3 -33 -12 -40 -19 -17 -18 -39 -8 -46 20
-4 17 -15 25 -40 29 -24 4 -49 20 -79 51 -24 25 -49 46 -55 46 -7 0 -12 7 -12
15 0 8 -9 15 -20 15 -13 0 -22 9 -26 25 -3 14 -10 25 -15 25 -5 0 -9 6 -9 13
0 24 -43 50 -79 49 -20 -1 -37 -6 -39 -12 -2 -5 -12 -10 -23 -10 -14 0 -19 7
-19 30 0 17 -4 30 -9 30 -5 0 -13 9 -16 20 -3 11 -13 20 -21 20 -8 0 -14 7
-14 16 0 17 -23 44 -37 44 -5 0 -16 9 -26 20 -9 11 -24 20 -32 20 -8 0 -15 5
-15 10 0 6 -7 10 -15 10 -8 0 -15 7 -15 15 0 8 -4 15 -10 15 -5 0 -10 6 -10
14 0 8 -13 17 -30 21 -16 4 -30 11 -30 16 0 16 -59 10 -80 -8 -17 -15 -20 -30
-20 -105 0 -72 -3 -88 -15 -88 -9 0 -15 -9 -15 -25 0 -14 -4 -25 -10 -25 -6 0
-10 -36 -10 -87 0 -113 -8 -126 -49 -86 -16 17 -33 42 -36 56 -4 14 -13 28
-21 31 -8 3 -14 12 -14 21 0 8 -4 15 -10 15 -5 0 -12 11 -16 25 -3 14 -10 25
-15 25 -5 0 -9 11 -9 25 0 14 -7 28 -15 31 -8 4 -15 12 -15 19 0 8 -8 11 -20
8 -15 -4 -20 0 -20 16 0 11 -4 21 -10 21 -5 0 -12 11 -16 25 -3 14 -10 25 -15
25 -5 0 -9 7 -9 15 0 9 -7 18 -15 21 -8 4 -15 12 -15 20 0 8 -9 22 -20 31 -11
10 -20 27 -20 40 0 13 -8 24 -19 28 -11 3 -22 12 -25 20 -12 32 -26 13 -26
-35z m14594 -282 c-3 -13 -11 -24 -15 -26 -5 -2 -9 -16 -9 -32 0 -16 -7 -35
-15 -44 -8 -8 -15 -18 -15 -23 0 -5 -13 -20 -29 -34 -15 -14 -31 -34 -35 -46
-7 -20 -34 -38 -44 -29 -2 3 -5 51 -5 108 0 98 1 103 21 106 12 2 22 8 22 13
0 14 37 11 44 -3 5 -10 7 -10 12 0 3 6 12 12 20 12 8 0 14 5 14 10 0 6 9 10
21 10 17 0 19 -4 13 -22z m-14009 -42 c21 -20 45 -21 45 -1 0 21 165 22 185 1
20 -20 32 -136 14 -136 -8 -1 -25 -14 -39 -30 -13 -17 -30 -30 -37 -30 -7 0
-13 -5 -13 -11 0 -16 -26 -39 -45 -39 -9 0 -26 10 -38 23 -12 13 -30 26 -39
30 -10 3 -18 13 -18 22 0 8 -4 15 -9 15 -5 0 -12 14 -16 30 -4 17 -11 30 -16
30 -5 0 -11 11 -15 25 -3 14 -10 25 -15 25 -5 0 -9 7 -9 15 0 9 -6 18 -14 21
-8 3 -17 13 -20 21 -5 13 1 15 38 11 25 -3 52 -13 61 -22z m339 -381 c3 -8 17
-15 31 -15 36 0 51 -18 57 -70 4 -25 4 -37 1 -27 -2 9 -9 17 -14 17 -5 0 -9 7
-9 15 0 8 -9 15 -20 15 -11 0 -20 5 -20 10 0 6 -11 10 -24 10 -14 0 -25 7 -28
18 -9 34 13 59 26 27z m178 3 c3 -8 23 -12 56 -10 41 2 52 -1 52 -13 0 -8 -7
-15 -15 -15 -8 0 -15 -7 -15 -15 0 -9 7 -18 15 -21 27 -11 17 -34 -15 -34 -20
0 -30 -5 -30 -15 0 -9 -9 -15 -25 -15 -14 0 -25 -4 -25 -10 0 -5 -7 -10 -15
-10 -8 0 -15 5 -15 10 0 6 -8 11 -17 11 -17 1 -17 2 0 6 10 3 17 14 17 28 0
18 6 24 28 27 41 5 35 32 -8 36 -35 4 -50 15 -50 40 0 16 57 16 62 0z m1134
-23 c7 -17 54 -21 54 -5 0 6 9 10 20 10 11 0 20 -4 20 -10 0 -5 7 -10 15 -10
8 0 15 5 15 10 0 6 11 10 25 10 14 0 25 -4 25 -10 0 -5 11 -10 25 -10 14 0 25
5 25 10 0 6 14 10 30 10 27 0 30 -3 30 -30 0 -20 -5 -30 -15 -30 -11 0 -15
-11 -15 -41 0 -39 -17 -69 -39 -69 -6 0 -11 -7 -11 -15 0 -8 -7 -15 -15 -15
-8 0 -23 -9 -32 -20 -25 -28 -103 -24 -103 6 0 8 -5 14 -11 14 -6 0 -29 18
-50 40 -22 22 -47 40 -57 40 -18 0 -52 33 -52 50 0 6 -7 13 -15 16 -19 8 -20
24 -1 24 8 0 21 6 28 13 29 29 95 37 104 12z m10699 -12 c-7 -29 -21 -43 -42
-43 -7 0 -16 -18 -19 -40 -5 -31 -12 -42 -30 -46 -13 -3 -24 -10 -24 -15 0 -5
-6 -9 -13 -9 -7 0 -20 -9 -30 -20 -9 -11 -28 -20 -41 -20 -13 0 -26 -7 -30
-15 -3 -10 -19 -15 -42 -15 -43 0 -84 33 -84 68 0 17 -7 24 -30 29 -16 3 -30
12 -30 19 0 8 -4 14 -9 14 -5 0 -11 14 -13 30 -4 24 -1 30 14 30 10 0 18 5 18
10 0 6 11 10 25 10 14 0 28 7 31 15 9 22 84 21 84 -1 0 -13 6 -15 27 -9 15 3
31 12 35 18 6 9 8 9 8 0 0 -8 14 -13 35 -13 19 0 35 5 35 10 0 6 7 10 15 10 8
0 15 -4 15 -10 0 -5 7 -10 15 -10 8 0 15 4 15 9 0 10 22 18 54 20 15 1 17 -4
11 -26z m993 -18 c2 -22 9 -43 15 -47 7 -4 -2 -8 -20 -8 -18 0 -33 -4 -33 -9
0 -5 -10 -13 -22 -17 -13 -4 -25 -10 -28 -14 -6 -9 -25 -13 -57 -11 -19 1 -23
7 -23 31 0 21 -5 30 -16 30 -18 0 -44 23 -44 39 0 6 5 11 10 11 6 0 10 7 10
15 0 8 9 15 20 15 11 0 20 -4 20 -9 0 -5 10 -11 23 -13 20 -3 22 -8 19 -50 -3
-40 -1 -48 13 -48 9 0 19 9 22 20 4 13 14 20 30 20 25 0 53 21 53 39 0 6 -11
11 -24 11 -14 0 -28 5 -31 10 -11 17 6 31 33 28 24 -3 27 -8 30 -43z m52 25
c0 -5 -4 -10 -10 -10 -5 0 -10 5 -10 10 0 6 5 10 10 10 6 0 10 -4 10 -10z
m-10436 -35 c8 -21 53 -19 65 3 7 11 13 13 18 6 14 -19 42 -23 57 -9 16 17 36
20 36 6 0 -16 40 -20 54 -5 19 18 53 18 72 0 19 -20 18 -66 -1 -66 -11 0 -15
-12 -15 -44 0 -45 -10 -56 -51 -56 -14 0 -19 -7 -19 -25 0 -18 -5 -25 -19 -25
-11 0 -26 -7 -35 -15 -23 -24 -83 -19 -109 8 -12 13 -30 26 -39 30 -10 3 -18
11 -18 17 0 19 -27 40 -61 47 -32 6 -69 34 -69 52 0 5 -7 17 -16 25 -14 15
-14 16 0 16 9 0 16 4 16 9 0 5 14 12 30 16 17 4 30 11 30 16 0 16 67 10 74 -6z
m1426 5 c0 -5 7 -10 15 -10 9 0 18 -7 21 -15 4 -8 12 -15 20 -15 8 0 14 7 14
15 0 10 10 15 29 15 16 0 36 -7 45 -15 8 -8 19 -15 25 -15 6 0 11 7 11 15 0
10 10 15 30 15 20 0 30 -5 30 -15 0 -9 9 -15 25 -15 16 0 25 6 25 16 0 24 94
16 98 -9 7 -35 -7 -65 -33 -71 -17 -4 -25 -13 -25 -27 0 -21 -37 -68 -53 -69
-12 0 -37 -27 -37 -39 0 -6 -18 -11 -39 -11 -43 0 -59 -21 -46 -60 5 -14 2
-20 -9 -20 -9 0 -16 7 -16 15 0 11 -12 15 -45 15 -31 0 -45 4 -45 13 0 18 -34
57 -49 57 -6 0 -11 6 -11 13 0 20 -39 48 -76 54 -22 4 -36 12 -40 26 -4 12
-20 32 -35 46 -44 39 -38 51 25 51 39 0 55 4 60 15 3 8 17 15 31 15 14 0 25 5
25 10 0 6 7 10 15 10 8 0 15 -4 15 -10z m6376 -17 c20 -22 27 -24 34 -13 6 10
34 14 106 14 68 1 99 5 102 14 2 6 12 12 23 12 29 0 24 -41 -10 -71 -15 -14
-32 -35 -36 -48 -11 -35 -37 -61 -62 -61 -15 0 -25 -8 -29 -24 -4 -18 -14 -25
-44 -30 -27 -4 -41 -12 -45 -26 -7 -21 -55 -29 -55 -10 0 6 -7 10 -15 10 -8 0
-15 7 -15 15 0 8 -7 15 -15 15 -8 0 -15 7 -15 15 0 8 -4 15 -9 15 -5 0 -12 11
-15 24 -4 18 -14 26 -34 28 -22 2 -28 8 -30 36 -2 20 -9 32 -18 32 -8 0 -14 5
-14 10 0 6 14 10 30 10 17 0 33 6 36 14 3 7 23 16 45 20 21 3 39 11 39 16 0
18 21 10 46 -17z m-1406 -8 c0 -9 9 -15 21 -15 11 0 27 7 35 15 9 8 22 15 30
15 8 0 17 -7 20 -15 4 -8 10 -15 16 -15 5 0 16 7 24 15 9 8 22 15 30 15 8 0
17 -7 20 -15 4 -8 10 -15 16 -15 5 0 16 7 24 15 9 8 31 15 50 15 31 0 34 -2
34 -30 0 -20 -6 -33 -17 -37 -29 -11 -53 -36 -53 -55 0 -19 -33 -58 -49 -58
-5 0 -23 -13 -39 -30 -17 -16 -40 -30 -51 -30 -11 0 -33 -12 -49 -28 -24 -24
-34 -27 -75 -24 -41 4 -47 7 -47 27 0 13 -6 30 -13 37 -8 7 -17 26 -21 41 -5
20 -13 27 -30 27 -34 0 -56 10 -56 25 0 8 -13 27 -30 43 -16 17 -30 35 -30 40
0 5 31 12 69 16 46 5 71 12 75 22 8 20 96 20 96 -1z m-3294 -10 c9 -8 24 -15
34 -15 10 0 25 7 34 15 8 8 19 15 24 15 6 0 12 -7 16 -15 3 -8 17 -15 31 -15
14 0 28 7 31 15 4 8 10 15 16 15 5 0 16 -7 24 -15 9 -8 26 -15 40 -15 14 0 27
7 30 15 8 21 80 20 88 -1 13 -33 5 -61 -24 -84 -16 -14 -29 -34 -30 -45 0 -24
-30 -52 -65 -61 -15 -4 -25 -13 -25 -24 0 -20 -19 -30 -56 -30 -13 0 -24 -4
-24 -10 0 -5 -7 -10 -15 -10 -10 0 -15 -10 -15 -31 l0 -32 -25 27 c-24 25 -65
36 -65 16 0 -5 -7 -10 -15 -10 -8 0 -15 6 -15 14 0 8 -17 32 -38 53 -21 21
-41 46 -45 56 -4 10 -17 17 -32 17 -24 0 -65 26 -65 42 0 14 -34 48 -48 48 -8
0 -12 6 -10 13 3 6 23 13 46 15 23 2 42 7 42 11 0 5 16 12 35 15 19 4 35 11
35 16 0 16 70 11 86 -5z m1670 -11 l24 -25 24 25 c27 30 41 33 50 11 3 -8 17
-15 31 -15 16 0 25 6 25 15 0 8 7 15 16 15 8 0 22 -7 30 -15 9 -8 22 -15 30
-15 8 0 17 7 20 15 9 22 100 21 108 -1 11 -28 6 -42 -24 -72 -16 -17 -30 -36
-30 -42 0 -15 -49 -64 -72 -73 -10 -3 -18 -15 -18 -25 0 -15 -9 -21 -40 -25
-48 -6 -70 -26 -70 -63 l0 -27 -25 27 c-24 25 -65 36 -65 16 0 -21 -30 -9 -36
15 -4 15 -16 28 -30 31 -15 4 -24 13 -24 25 0 10 -4 19 -10 19 -5 0 -10 6 -10
14 0 8 -14 17 -31 21 -32 7 -69 33 -69 48 0 12 -27 37 -39 37 -6 0 -11 9 -11
20 0 17 7 20 45 20 25 0 45 5 45 10 0 6 11 10 25 10 14 0 28 7 31 15 10 26 73
19 100 -11z"/>
<path d="M18820 11266 c0 -8 -5 -16 -11 -18 -13 -4 -14 -169 -1 -177 5 -3 12
-16 16 -28 5 -14 17 -23 34 -25 19 -2 28 -10 30 -25 4 -24 32 -40 32 -18 0 10
11 15 35 15 31 0 35 3 35 25 0 14 -4 25 -10 25 -5 0 -10 9 -10 20 0 11 -4 20
-10 20 -5 0 -12 11 -16 24 -3 14 -12 27 -20 30 -8 3 -14 12 -14 21 0 8 -4 15
-10 15 -5 0 -12 11 -16 25 -3 14 -10 25 -15 25 -5 0 -9 6 -9 13 0 7 -9 20 -20
30 -16 13 -20 14 -20 3z"/>
<path d="M32922 11205 c-7 -8 -22 -15 -32 -15 -11 0 -20 -4 -20 -10 0 -5 -6
-10 -14 -10 -8 0 -28 -13 -44 -30 -17 -16 -34 -30 -37 -30 -11 0 -55 -44 -55
-55 0 -6 -11 -19 -25 -29 -18 -14 -25 -28 -25 -52 l0 -34 60 0 c53 0 60 -2 60
-20 0 -15 7 -20 25 -20 14 0 28 7 31 15 4 8 24 18 45 21 21 4 39 10 39 15 0 5
6 9 14 9 17 0 26 63 26 176 0 73 -2 84 -17 84 -10 -1 -24 -7 -31 -15z"/>
<path d="M19724 11185 c-4 -8 -12 -15 -18 -15 -22 0 -96 -76 -96 -98 0 -12 -4
-22 -10 -22 -5 0 -10 -13 -10 -30 0 -16 4 -30 9 -30 5 0 12 -11 15 -25 6 -24
26 -36 26 -15 0 6 20 10 44 10 46 0 76 18 76 46 0 19 19 18 26 -1 4 -8 12 -15
20 -15 8 0 14 -7 14 -15 0 -8 6 -15 14 -15 8 0 17 -6 20 -12 5 -10 7 -10 12 0
7 14 64 17 64 2 0 -5 20 -10 45 -10 44 0 60 15 30 26 -8 4 -15 12 -15 19 0 15
-156 175 -171 175 -5 0 -9 6 -9 14 0 27 -76 37 -86 11z"/>
<path d="M20340 11181 c0 -5 -11 -12 -25 -15 -17 -4 -25 -13 -25 -29 0 -12 -9
-30 -20 -40 -11 -9 -20 -26 -20 -37 0 -11 -4 -20 -10 -20 -5 0 -10 -22 -10
-50 0 -47 2 -50 25 -50 14 0 25 5 25 10 0 6 20 10 44 10 26 0 51 6 60 15 23
23 63 19 72 -7 9 -31 22 -38 71 -38 24 0 43 -5 46 -12 4 -10 6 -10 6 0 1 14
51 17 51 2 0 -5 7 -10 15 -10 8 0 15 7 15 15 0 9 -9 15 -25 15 -14 0 -25 5
-25 10 0 6 -7 10 -15 10 -10 0 -15 10 -15 29 0 34 -40 81 -70 81 -11 0 -24 8
-27 18 -12 30 -58 69 -91 77 -18 3 -32 11 -32 16 0 5 -4 9 -10 9 -5 0 -10 -4
-10 -9z"/>
<path d="M31740 11180 c0 -5 -7 -10 -15 -10 -9 0 -18 -7 -21 -15 -3 -8 -22
-18 -42 -21 -26 -5 -54 -24 -99 -69 -35 -35 -63 -70 -63 -79 0 -9 -4 -16 -10
-16 -5 0 -10 -13 -10 -30 0 -25 4 -30 25 -30 14 0 25 5 25 10 0 14 37 12 44
-2 5 -10 7 -10 12 0 3 6 11 12 18 12 6 0 19 9 29 20 22 26 63 26 70 1 4 -17
15 -19 96 -20 l91 0 0 37 c0 25 -7 43 -20 55 -11 9 -20 24 -20 32 0 8 -4 15
-10 15 -5 0 -10 6 -10 13 0 7 -9 20 -20 30 -12 10 -20 29 -20 47 0 25 -4 30
-25 30 -14 0 -25 -4 -25 -10z"/>
<path d="M20993 11150 c-10 -11 -25 -20 -35 -20 -22 0 -54 -30 -63 -59 -3 -12
-10 -21 -15 -21 -14 0 -23 -65 -16 -105 6 -29 11 -35 31 -35 14 0 25 5 25 10
0 6 7 10 15 10 8 0 15 -4 15 -10 0 -5 9 -10 20 -10 11 0 20 4 20 9 0 5 9 13
20 16 11 3 20 13 20 21 0 23 24 16 50 -16 26 -31 73 -41 84 -17 5 10 7 10 12
0 6 -13 124 -19 124 -8 0 3 -11 16 -24 28 -13 12 -26 32 -30 45 -4 12 -13 22
-21 22 -15 0 -155 136 -155 150 0 18 -60 10 -77 -10z"/>
<path d="M30415 11135 c-10 -13 -32 -26 -48 -29 -15 -3 -42 -19 -58 -36 -17
-16 -35 -30 -41 -30 -15 0 -64 -53 -72 -78 -4 -12 -12 -22 -17 -22 -5 0 -9
-16 -9 -35 0 -39 17 -46 44 -19 9 8 16 11 16 5 0 -6 16 -11 35 -11 19 0 35 5
35 10 0 6 6 10 13 10 7 0 20 9 30 20 21 25 45 26 54 3 13 -34 53 -59 53 -33 0
6 14 10 30 10 17 0 30 -4 30 -10 0 -5 14 -10 30 -10 17 0 30 5 30 10 0 6 7 10
15 10 10 0 15 10 15 30 0 17 -4 30 -10 30 -5 0 -10 7 -10 15 0 8 -9 23 -20 32
-11 10 -20 23 -20 30 0 7 -4 13 -10 13 -5 0 -12 11 -16 25 -3 14 -10 25 -14
25 -4 0 -10 14 -13 30 -8 38 -43 40 -72 5z"/>
<path d="M31040 11150 c0 -5 -7 -10 -15 -10 -9 0 -19 -8 -22 -17 -8 -21 -60
-73 -73 -73 -14 0 -70 -60 -70 -76 0 -8 -4 -14 -9 -14 -5 0 -11 -13 -13 -30
l-5 -30 56 7 c31 3 58 9 61 13 3 4 15 10 28 14 12 4 22 12 22 17 0 5 16 9 35
9 31 0 35 -3 35 -25 0 -14 3 -26 8 -26 4 -1 49 -2 100 -3 68 -2 92 1 92 10 0
7 -12 14 -27 16 -32 4 -41 28 -18 51 19 20 19 27 0 27 -8 0 -15 9 -15 20 0 15
-7 20 -25 20 -21 0 -26 6 -31 41 -6 34 -11 41 -35 46 -16 3 -29 9 -29 14 0 5
-11 9 -25 9 -14 0 -25 -4 -25 -10z"/>
<path d="M21607 11125 c-9 -9 -17 -23 -17 -31 0 -18 -18 -37 -42 -47 -11 -4
-18 -17 -18 -32 0 -14 -4 -25 -10 -25 -15 0 -12 -77 3 -83 24 -9 122 6 130 19
8 15 74 19 93 6 6 -4 14 -17 18 -29 7 -21 13 -23 91 -23 46 0 90 -3 99 -6 10
-4 16 -1 16 9 0 17 -21 27 -56 27 -13 0 -25 6 -25 13 -1 6 -3 22 -4 34 -3 29
-53 78 -88 86 -15 4 -27 13 -27 21 0 7 -11 25 -24 39 -32 34 -114 48 -139 22z"/>
<path d="M22354 11125 c-3 -8 -22 -17 -41 -21 -39 -7 -67 -30 -78 -63 -3 -12
-10 -21 -16 -21 -5 0 -12 -18 -15 -40 -4 -22 -10 -40 -15 -40 -5 0 -9 -7 -9
-15 0 -8 5 -15 10 -15 6 0 10 -7 10 -15 0 -10 10 -15 30 -15 17 0 30 5 30 10
0 6 7 10 15 10 8 0 15 -4 15 -10 0 -5 7 -10 15 -10 8 0 15 5 15 10 0 6 7 10
16 10 9 0 18 9 21 20 3 13 14 20 29 20 13 0 32 -9 41 -20 10 -11 23 -20 30
-20 7 0 13 -4 13 -10 0 -5 7 -10 15 -10 8 0 15 5 15 10 0 6 11 10 25 10 14 0
25 -4 25 -10 0 -5 23 -10 50 -10 47 0 67 14 36 26 -8 3 -17 16 -20 30 -4 14
-16 26 -31 30 -13 3 -27 15 -30 25 -4 10 -11 19 -16 19 -5 0 -9 7 -9 15 0 9
-8 19 -17 22 -24 9 -83 67 -83 82 0 17 -70 14 -76 -4z"/>
<path d="M23130 11121 c0 -5 -11 -12 -25 -15 -14 -4 -25 -11 -25 -17 0 -16
-57 -69 -74 -69 -9 0 -16 -5 -16 -11 0 -7 -11 -22 -25 -35 -18 -16 -25 -34
-25 -59 0 -31 3 -35 25 -35 14 0 25 4 25 9 0 5 26 11 57 13 31 3 59 10 61 16
2 7 27 12 63 12 56 0 59 -1 59 -24 0 -13 7 -27 16 -30 9 -3 66 -5 127 -4 62 1
94 3 73 5 -41 5 -66 22 -66 46 0 9 6 18 13 21 8 3 7 8 -5 16 -10 6 -18 19 -18
29 0 14 -10 20 -40 25 -33 5 -41 11 -47 33 -9 38 -22 49 -68 56 -22 4 -41 11
-43 17 -4 12 -42 14 -42 1z"/>
<path d="M23976 11106 c-12 -15 -35 -26 -58 -29 -26 -4 -47 -15 -65 -36 -15
-17 -33 -31 -40 -31 -7 0 -13 -9 -13 -20 0 -11 -4 -20 -10 -20 -5 0 -10 -7
-10 -15 0 -9 -7 -18 -15 -21 -8 -4 -15 -17 -15 -31 0 -28 26 -61 32 -41 3 8
29 13 71 13 58 1 69 5 91 28 32 34 50 34 82 0 23 -25 30 -27 139 -30 100 -3
114 -2 109 12 -3 8 -10 15 -15 15 -5 0 -9 6 -9 13 0 15 -44 57 -59 57 -6 0
-11 7 -11 15 0 19 -64 82 -87 87 -11 2 -19 14 -21 31 -3 24 -7 27 -40 27 -26
-1 -43 -8 -56 -24z"/>
<path d="M27370 11121 c0 -5 -14 -11 -31 -15 -16 -3 -37 -13 -45 -21 -9 -8
-28 -15 -44 -15 -16 0 -30 -7 -34 -15 -3 -8 -15 -15 -26 -15 -11 0 -20 -7 -20
-15 0 -8 -6 -15 -14 -15 -8 0 -18 -10 -22 -22 -4 -13 -17 -33 -30 -45 -23 -21
-29 -39 -26 -74 3 -23 29 -31 46 -14 16 17 66 20 66 5 0 -5 7 -10 15 -10 8 0
15 5 15 10 0 6 7 10 15 10 8 0 23 9 32 20 25 29 66 25 101 -10 31 -30 52 -38
52 -20 0 6 16 10 35 10 19 0 35 -4 35 -10 0 -15 100 -13 101 3 4 37 -35 88
-79 101 -12 4 -22 14 -22 23 0 17 -62 83 -78 83 -5 0 -12 14 -15 30 -6 27 -27
44 -27 21z"/>
<path d="M28960 11120 c0 -5 -6 -10 -14 -10 -8 0 -21 -6 -28 -13 -7 -8 -28
-16 -46 -20 -18 -4 -43 -17 -55 -30 -12 -13 -30 -26 -39 -30 -10 -3 -18 -13
-18 -22 0 -9 -12 -27 -26 -40 -15 -14 -26 -35 -26 -49 0 -29 28 -64 34 -44 3
8 26 13 65 13 52 0 63 4 85 28 32 34 64 34 95 1 23 -25 31 -27 136 -30 62 -2
107 -1 101 3 -6 5 -15 19 -19 33 -8 26 -28 50 -42 50 -10 0 -43 37 -43 49 0
14 -46 58 -67 65 -12 4 -24 18 -27 31 -5 20 -13 25 -36 25 -17 0 -30 -4 -30
-10z"/>
<path d="M29669 11102 c-14 -15 -28 -35 -32 -44 -3 -10 -16 -18 -27 -18 -11 0
-20 -4 -20 -10 0 -5 -5 -10 -11 -10 -24 0 -81 -74 -86 -111 -5 -35 -4 -37 16
-32 11 3 21 9 21 14 0 5 22 9 50 9 31 0 52 5 57 14 4 7 27 15 51 18 40 3 42 2
42 -23 0 -35 13 -39 127 -39 84 0 93 2 79 15 -8 8 -24 15 -35 15 -17 0 -21 6
-21 30 0 17 5 30 11 30 6 0 3 7 -5 16 -9 8 -16 22 -16 30 0 8 -10 14 -24 14
-20 0 -24 6 -30 40 -5 34 -10 40 -31 40 -14 0 -28 7 -31 15 -10 24 -56 17 -85
-13z"/>
<path d="M24757 11095 c-9 -9 -17 -21 -17 -26 0 -15 -51 -59 -67 -59 -18 0
-39 -20 -47 -47 -4 -12 -13 -24 -21 -27 -9 -3 -15 -18 -15 -36 l0 -31 73 7
c39 4 75 12 79 17 4 6 36 13 72 15 57 4 67 2 73 -14 4 -11 12 -24 18 -30 18
-19 185 -23 185 -5 0 5 -11 12 -25 15 -21 5 -25 12 -25 44 0 36 -25 72 -50 72
-12 0 -50 32 -50 42 0 19 -37 48 -61 48 -15 0 -29 5 -31 10 -6 20 -73 23 -91
5z"/>
<path d="M25653 11090 c-10 -11 -30 -20 -45 -20 -16 0 -28 -4 -28 -10 0 -5 -6
-10 -14 -10 -8 0 -28 -13 -44 -30 -17 -16 -33 -30 -37 -30 -11 0 -35 -28 -35
-40 0 -6 -6 -13 -14 -16 -18 -7 -27 -41 -20 -71 7 -26 26 -30 48 -8 16 17 56
20 56 5 0 -5 14 -10 30 -10 17 0 30 5 30 10 0 6 7 10 16 10 9 0 18 9 21 21 8
31 65 20 101 -20 20 -23 33 -29 50 -25 12 4 22 10 22 15 0 5 7 9 15 9 8 0 15
-4 15 -10 0 -13 56 -22 110 -18 l45 3 -22 20 c-13 11 -23 23 -23 27 0 11 -33
48 -43 48 -13 0 -34 24 -41 47 -4 12 -17 25 -29 29 -28 9 -77 58 -77 78 0 24
-66 21 -87 -4z"/>
<path d="M28078 11104 c-10 -3 -18 -12 -18 -20 0 -8 -4 -14 -9 -14 -5 0 -12
-11 -15 -25 -5 -20 -15 -26 -46 -31 -34 -6 -40 -10 -40 -30 0 -13 -9 -32 -20
-41 -11 -10 -20 -30 -20 -45 l0 -28 63 7 c34 3 65 10 68 16 4 5 30 12 58 15
28 2 51 8 51 13 0 19 29 8 36 -13 9 -31 22 -38 67 -38 20 0 37 -4 37 -10 0
-14 58 -12 74 2 11 10 10 15 -1 27 -10 9 -13 25 -9 43 4 20 2 28 -8 28 -8 0
-17 11 -20 25 -4 17 -13 25 -29 25 -22 0 -57 31 -57 50 0 5 -12 13 -27 16 -16
4 -31 11 -34 16 -7 11 -76 19 -101 12z"/>
<path d="M26440 11090 c0 -5 -6 -10 -14 -10 -8 0 -17 -14 -21 -30 -5 -21 -14
-32 -31 -36 -13 -3 -24 -10 -24 -15 0 -5 -9 -9 -20 -9 -13 0 -20 -7 -20 -20 0
-12 -11 -31 -25 -44 -14 -14 -25 -34 -25 -50 0 -21 5 -26 25 -26 14 0 25 5 25
10 0 6 22 10 49 10 28 0 55 6 63 13 7 8 36 17 63 20 43 6 53 4 68 -13 9 -11
17 -24 17 -29 0 -10 128 -23 158 -15 25 7 30 24 7 24 -10 0 -15 11 -15 35 0
19 -4 35 -10 35 -5 0 -12 11 -16 25 -4 18 -13 25 -31 25 -29 0 -50 18 -58 53
-7 26 -29 37 -77 37 -16 0 -28 5 -28 10 0 6 -13 10 -30 10 -16 0 -30 -4 -30
-10z"/>
</g>
</svg>
