<?xml version="1.0" standalone="no"?>
<!DOCTYPE svg PUBLIC "-//W3C//DTD SVG 1.1//EN"
        "http://www.w3.org/Graphics/SVG/1.1/DTD/svg11.dtd">
<svg version="1.0" xmlns="http://www.w3.org/2000/svg"
 width="4970.000000pt" height="3330.000000pt" viewBox="0 0 4970.000000 3330.000000"
 preserveAspectRatio="xMidYMid meet">

<g transform="translate(0.000000,3330.000000) scale(0.100000,-0.100000)"
fill="#000000" stroke="none">
<path d="M0 16650 l0 -16650 24850 0 24850 0 0 16650 0 16650 -24850 0 -24850
0 0 -16650z m49200 0 l0 -16150 -12150 0 -12150 0 -2 438 -3 437 -2 -438 -3
-437 -12195 0 -12195 0 0 16150 0 16150 24350 0 24350 0 0 -16150z"/>
<path d="M16292 13803 l3 -198 753 -3 c490 -1 752 -6 752 -12 0 -6 121 -10
340 -10 284 0 340 -2 340 -14 0 -14 67 -18 420 -26 73 -1 118 -6 123 -13 6 -9
10 -9 14 1 6 14 60 16 65 2 2 -5 36 -12 76 -16 39 -4 72 -11 72 -15 0 -5 23
-11 50 -15 28 -4 50 -10 50 -14 0 -5 46 -10 102 -12 70 -2 103 -7 106 -15 4
-15 122 -18 122 -4 0 4 -33 12 -72 16 -40 3 -76 11 -79 17 -4 6 -39 13 -78 16
-39 2 -71 9 -71 13 0 5 -12 9 -27 9 -38 0 -73 10 -73 21 0 5 50 9 110 9 67 0
110 -4 110 -10 0 -5 20 -10 45 -10 25 0 45 5 45 10 0 6 9 10 20 10 11 0 20 -4
20 -10 0 -14 27 -12 34 3 5 10 7 10 12 0 7 -15 104 -18 104 -3 0 6 37 10 90
10 96 0 130 -19 38 -21 -29 -1 -45 -3 -35 -6 9 -2 17 -8 17 -13 0 -4 33 -11
73 -15 39 -4 75 -12 78 -17 4 -6 40 -12 80 -13 41 -2 59 -1 42 1 -18 3 -33 9
-33 15 0 5 -11 9 -25 9 -13 0 -28 6 -32 14 -4 7 -15 16 -23 19 -8 3 14 5 50 4
36 -1 57 -3 47 -5 -10 -2 -16 -9 -14 -15 2 -8 30 -12 77 -12 50 0 75 -4 77
-12 5 -15 53 -18 53 -3 0 6 -7 10 -15 10 -8 0 -15 6 -15 14 0 8 -6 16 -12 19
-7 2 40 5 104 5 65 1 120 -2 122 -7 3 -4 2 -17 -1 -29 -6 -24 -28 -29 -37 -9
-5 10 -7 10 -12 0 -3 -8 -29 -14 -67 -14 -34 -1 -50 -4 -34 -6 15 -2 27 -9 27
-14 0 -5 6 -9 14 -9 20 0 26 -12 19 -38 -5 -20 -12 -22 -74 -22 -38 0 -69 4
-69 9 0 5 -40 12 -90 16 -49 4 -90 10 -90 15 0 4 -32 10 -72 14 -40 4 -75 10
-78 15 -3 5 -31 12 -62 16 -32 4 -58 11 -58 16 0 5 -16 9 -35 9 -50 0 -43 -18
10 -26 25 -3 45 -10 45 -14 0 -4 23 -10 50 -14 28 -4 50 -10 50 -15 0 -4 32
-11 72 -15 40 -4 75 -11 78 -15 3 -5 42 -12 88 -16 45 -4 82 -11 82 -16 0 -5
23 -11 50 -15 28 -4 50 -10 50 -15 0 -5 7 -9 15 -9 8 0 15 5 15 10 0 6 7 10
15 10 8 0 15 -7 15 -15 0 -8 5 -15 10 -15 6 0 10 -4 10 -10 0 -13 -107 -13
-112 0 -2 6 -65 13 -151 17 -96 4 -147 10 -147 17 0 7 -47 11 -147 11 -108 0
-147 3 -150 13 -3 8 -29 12 -83 12 -53 0 -80 -4 -83 -12 -4 -9 -8 -10 -14 -2
-5 7 -66 13 -157 17 -122 4 -151 8 -158 21 -7 12 -24 16 -68 16 -33 0 -60 4
-60 9 0 4 -79 10 -175 13 -142 5 -177 9 -190 22 -15 15 -2 15 162 10 98 -3
180 -10 183 -14 3 -4 54 -10 115 -13 66 -3 111 -9 113 -16 2 -6 24 -11 48 -11
32 0 44 4 44 15 0 10 -10 15 -30 15 -16 0 -30 4 -30 9 0 4 -46 11 -102 15 -57
4 -104 11 -106 17 -2 5 -56 9 -120 9 -80 0 -112 3 -102 10 12 8 13 12 2 19
-15 9 -154 2 -162 -9 -3 -4 -32 -10 -65 -13 -33 -3 -61 -11 -63 -17 -5 -13
-272 -14 -272 0 0 6 -9 10 -19 10 -11 0 -26 7 -35 15 -11 11 -37 15 -100 15
-47 0 -86 -4 -86 -9 0 -5 -46 -11 -103 -13 -116 -3 -137 -14 -137 -67 0 -16
-8 -37 -17 -47 -10 -10 -18 -33 -19 -52 -1 -19 -7 -38 -15 -43 -11 -6 -15 -45
-17 -169 -2 -88 -7 -160 -12 -160 -5 0 -11 12 -13 28 -2 15 -4 0 -4 -33 0 -33
2 -48 4 -32 9 61 21 20 25 -89 3 -69 9 -118 15 -122 6 -4 15 -20 18 -35 5 -17
16 -29 31 -33 13 -3 24 -10 24 -14 0 -5 14 -11 30 -15 17 -4 30 -11 30 -15 0
-5 16 -12 35 -16 19 -3 35 -10 35 -14 0 -5 14 -11 30 -15 17 -4 30 -11 30 -15
0 -5 17 -12 38 -16 20 -4 40 -11 43 -16 3 -5 23 -11 45 -15 21 -3 43 -12 47
-20 4 -7 19 -13 32 -13 14 0 25 -4 25 -10 0 -5 9 -10 19 -10 11 0 26 -6 34
-14 8 -8 31 -18 51 -21 20 -4 36 -11 36 -15 0 -5 14 -11 30 -15 17 -4 30 -10
30 -15 0 -4 18 -10 40 -14 22 -3 40 -10 40 -16 0 -5 16 -12 35 -16 19 -3 35
-10 35 -14 0 -5 14 -11 30 -15 17 -4 30 -10 30 -15 0 -4 18 -10 40 -14 22 -3
40 -10 40 -16 0 -5 20 -12 44 -15 25 -4 47 -13 50 -21 3 -8 17 -14 31 -14 14
0 25 -4 25 -9 0 -5 16 -12 35 -15 19 -4 35 -11 35 -16 0 -6 18 -13 40 -16 22
-4 40 -10 40 -15 0 -4 16 -11 35 -15 19 -3 35 -10 35 -14 0 -5 14 -11 30 -15
17 -4 30 -11 30 -16 0 -5 13 -9 29 -9 16 0 36 -7 45 -15 8 -8 29 -18 45 -21
17 -4 31 -10 31 -15 0 -5 18 -12 40 -15 22 -4 40 -10 40 -14 0 -4 16 -11 35
-14 19 -4 35 -11 35 -15 0 -5 16 -12 35 -15 19 -4 35 -11 35 -15 0 -5 18 -11
40 -15 22 -3 40 -11 40 -16 0 -6 9 -10 19 -10 11 0 27 -7 35 -16 9 -8 33 -18
53 -21 21 -3 42 -12 46 -20 4 -7 21 -13 37 -13 17 0 30 -4 30 -9 0 -5 14 -12
30 -16 17 -4 30 -10 30 -15 0 -4 18 -10 40 -14 22 -3 40 -10 40 -16 0 -5 16
-12 35 -16 19 -3 35 -10 35 -14 0 -5 14 -11 30 -15 17 -4 30 -10 30 -15 0 -4
11 -11 25 -14 14 -4 25 -13 25 -22 0 -8 7 -17 15 -20 8 -4 18 -23 21 -44 4
-22 13 -41 20 -44 8 -3 14 -12 14 -21 0 -8 4 -15 9 -15 5 0 11 -18 15 -39 3
-21 13 -41 21 -45 8 -3 15 -12 15 -21 0 -8 4 -15 9 -15 5 0 12 -13 16 -30 4
-16 10 -30 15 -30 5 0 11 -13 15 -30 4 -16 10 -30 15 -30 4 0 11 -11 14 -25 4
-14 10 -25 15 -25 5 0 12 -13 16 -29 3 -16 13 -32 21 -35 8 -3 14 -12 14 -21
0 -8 4 -15 9 -15 5 0 15 -25 21 -55 6 -30 15 -55 20 -55 5 0 11 -13 15 -30 4
-16 10 -30 14 -30 5 0 11 -19 14 -41 3 -23 10 -45 15 -48 6 -3 14 -19 17 -34
4 -15 11 -27 15 -27 5 0 11 -13 15 -29 3 -16 13 -32 22 -35 10 -4 14 -15 11
-35 -3 -20 0 -27 8 -24 7 2 15 -8 19 -25 3 -17 13 -33 21 -36 8 -3 14 -12 14
-21 0 -8 4 -15 9 -15 5 0 12 -13 16 -30 4 -16 10 -30 15 -30 5 0 11 -13 15
-30 4 -16 10 -30 15 -30 5 0 11 -13 15 -30 4 -16 10 -30 15 -30 5 0 11 -13 15
-30 4 -16 10 -30 15 -30 5 0 11 -13 15 -30 4 -16 10 -30 15 -30 5 0 11 -13 15
-30 4 -16 10 -30 15 -30 5 0 11 -13 15 -30 4 -16 10 -30 15 -30 4 0 11 -11 14
-25 7 -29 66 -90 95 -100 10 -3 22 -12 25 -20 3 -8 16 -15 30 -15 13 0 26 -7
30 -15 3 -8 12 -15 21 -15 8 0 15 -4 15 -9 0 -5 14 -12 30 -16 17 -4 30 -11
30 -16 0 -5 11 -11 25 -15 15 -4 28 -16 31 -30 6 -25 20 -32 26 -14 2 5 4 -17
6 -49 2 -61 -12 -91 -44 -91 -8 0 -14 -4 -14 -10 0 -5 -16 -10 -35 -10 -19 0
-35 4 -35 9 0 4 -15 11 -34 14 -26 4 -56 29 -135 107 -55 56 -101 108 -101
116 0 8 -4 14 -10 14 -5 0 -12 16 -16 35 -3 19 -10 35 -14 35 -5 0 -12 9 -15
21 -4 11 -24 38 -45 58 -21 21 -42 49 -45 64 -4 15 -11 27 -15 27 -4 0 -11 16
-14 35 -4 19 -11 35 -16 35 -4 0 -11 14 -15 30 -4 17 -10 30 -15 30 -4 0 -11
11 -14 25 -4 14 -10 25 -15 25 -5 0 -12 14 -16 30 -4 17 -11 30 -16 30 -5 0
-11 11 -15 25 -3 14 -10 25 -14 25 -4 0 -11 11 -14 25 -4 14 -11 25 -16 25 -6
0 -10 6 -10 13 0 15 -44 57 -59 57 -6 0 -11 4 -11 9 0 5 -16 12 -35 15 -19 4
-35 11 -35 15 0 5 -18 11 -40 15 -22 3 -40 10 -40 15 0 5 -13 12 -30 16 -16 4
-30 11 -30 16 0 5 -7 9 -15 9 -9 0 -18 7 -21 15 -4 8 -17 15 -30 15 -14 0 -27
6 -30 14 -3 8 -25 17 -50 21 -24 3 -44 10 -44 15 0 4 -12 11 -26 14 -15 4 -33
14 -41 21 -16 17 -69 19 -200 8 -77 -6 -83 -8 -83 -28 0 -15 -8 -25 -22 -29
-39 -10 -68 -7 -74 9 -4 8 -12 15 -19 15 -18 0 -177 160 -192 193 -7 15 -17
27 -23 27 -5 0 -10 6 -10 14 0 8 -6 21 -13 28 -7 7 -16 21 -20 31 -3 9 -13 17
-22 17 -8 0 -15 4 -15 9 0 5 -13 12 -30 16 -16 4 -30 10 -30 15 0 5 -13 11
-30 15 -16 4 -30 10 -30 15 0 4 -11 11 -25 14 -14 4 -25 10 -25 15 0 5 -13 12
-30 16 -16 4 -30 10 -30 15 0 5 -13 11 -30 15 -16 4 -30 11 -30 16 0 5 -7 9
-15 9 -8 0 -15 -4 -15 -9 0 -5 -22 -11 -50 -15 -27 -4 -50 -11 -50 -16 0 -5
-12 -10 -27 -12 -23 -2 -29 -9 -31 -33 -2 -23 0 -27 8 -15 9 13 11 13 20 0 5
-8 10 -23 10 -32 0 -10 4 -18 9 -18 5 0 13 -25 16 -55 4 -30 11 -55 15 -55 4
0 11 -27 15 -60 4 -33 10 -60 15 -60 4 0 10 -22 14 -50 4 -27 11 -50 15 -50 5
0 12 -27 16 -60 4 -33 11 -60 15 -60 4 0 10 -13 12 -30 3 -19 0 -30 -7 -30 -7
0 -15 22 -19 50 -4 28 -11 50 -16 50 -5 0 -11 12 -13 28 -2 15 -2 -4 1 -43 2
-38 8 -72 13 -75 4 -3 11 -26 15 -50 4 -25 11 -48 16 -51 5 -3 12 -25 15 -48
3 -22 9 -41 13 -41 4 0 10 -19 13 -41 3 -23 10 -45 15 -48 5 -3 12 -27 16 -53
7 -47 26 -67 26 -28 0 11 -4 20 -9 20 -5 0 -12 27 -16 60 -4 33 -10 60 -15 60
-4 0 -10 22 -14 49 -4 27 -10 51 -15 53 -4 2 -10 23 -14 48 -3 25 -3 37 0 28
2 -10 8 -18 13 -18 5 0 12 -22 16 -50 4 -27 10 -50 14 -50 5 0 11 -27 15 -60
4 -33 11 -60 16 -60 4 0 11 -22 15 -50 4 -27 10 -50 15 -50 4 0 11 -25 14 -55
4 -30 11 -55 16 -55 4 0 11 -22 15 -50 4 -27 10 -50 15 -50 14 0 11 -48 -3
-53 -8 -3 -6 -6 5 -6 14 -1 17 -11 17 -60 0 -38 5 -61 13 -65 10 -5 10 -7 0
-12 -34 -16 -11 -55 98 -163 61 -61 113 -111 116 -111 10 0 73 -68 73 -79 0
-6 8 -14 17 -19 9 -6 18 -23 19 -40 1 -21 15 -43 45 -72 41 -40 44 -41 47 -20
3 20 8 22 39 17 20 -4 38 -9 42 -12 3 -4 8 -51 9 -106 4 -95 5 -99 28 -105 13
-3 24 -10 24 -15 0 -5 7 -9 15 -9 8 0 15 -7 15 -15 0 -11 12 -15 50 -15 28 0
50 5 50 10 0 15 19 12 36 -5 9 -8 24 -15 35 -15 10 0 19 -4 19 -9 0 -5 20 -12
45 -15 25 -4 45 -11 45 -16 0 -5 14 -11 30 -15 17 -4 30 -11 30 -16 0 -5 11
-9 25 -9 14 0 28 -6 31 -14 3 -8 19 -18 35 -21 16 -4 29 -11 29 -16 0 -5 5 -9
10 -9 14 0 12 28 -2 33 -7 2 -10 8 -6 11 3 4 24 -11 46 -33 22 -23 43 -41 48
-41 4 0 26 -19 49 -43 23 -24 49 -46 58 -50 9 -3 17 -11 17 -16 0 -5 7 -11 15
-15 21 -7 19 -3 -10 28 -14 15 -25 33 -25 40 0 8 -11 17 -25 20 -14 4 -25 13
-25 21 0 8 -4 15 -10 15 -5 0 -49 41 -98 90 -49 50 -92 90 -96 90 -12 0 -76
66 -76 78 0 20 30 0 36 -24 3 -13 12 -24 19 -24 7 0 40 -27 73 -60 33 -33 65
-60 71 -60 6 0 11 -7 11 -15 0 -8 5 -15 12 -15 6 0 37 -27 70 -60 32 -33 63
-60 68 -60 6 0 10 -7 10 -15 0 -8 5 -15 11 -15 7 0 27 -16 46 -35 19 -19 40
-35 48 -35 8 0 15 -7 15 -15 0 -8 5 -15 10 -15 6 0 21 -11 33 -24 13 -14 35
-28 50 -31 15 -4 27 -11 27 -15 0 -5 19 -11 43 -15 23 -4 45 -12 48 -17 3 -5
23 -11 45 -15 21 -3 42 -10 45 -15 3 -5 25 -12 48 -15 22 -3 41 -9 41 -13 0
-5 19 -11 43 -15 23 -4 45 -13 49 -19 5 -7 8 -5 8 7 0 9 -6 17 -14 17 -8 0
-18 9 -21 21 -4 11 -26 39 -48 62 -23 22 -34 37 -24 34 10 -4 22 -7 27 -7 4 0
11 -11 14 -25 4 -14 13 -25 21 -25 8 0 15 -7 15 -15 0 -8 6 -15 14 -15 8 0 29
-14 46 -31 l31 -32 135 -5 c148 -5 182 -21 52 -24 -53 -1 -67 -3 -38 -6 25 -2
86 -1 136 3 86 6 92 8 105 33 8 15 38 51 68 81 53 54 54 54 54 117 0 57 -3 66
-31 94 -17 16 -35 30 -41 30 -17 0 -13 27 6 50 17 19 29 20 240 20 123 0 223
3 223 8 0 4 -9 15 -20 25 -22 18 -80 24 -80 7 0 -5 -18 -10 -40 -10 -22 0 -40
5 -40 10 0 6 -31 10 -74 10 -64 0 -74 3 -79 19 -6 26 3 38 36 46 15 4 27 11
27 15 0 4 12 11 26 14 15 4 33 14 41 21 8 8 23 15 34 15 10 0 19 4 19 9 0 5
14 12 30 16 17 4 30 11 30 16 0 5 6 9 14 9 8 0 28 14 44 30 17 17 35 30 40 30
5 0 13 11 16 25 4 14 11 25 16 25 6 0 10 7 10 15 0 8 6 15 14 15 8 0 17 6 19
13 3 7 6 5 6 -5 1 -10 -6 -18 -14 -18 -8 0 -15 -4 -15 -10 0 -5 11 -10 24 -10
14 0 28 -4 31 -10 3 -5 24 -10 45 -10 30 0 40 -4 45 -21 4 -12 16 -30 26 -40
20 -20 59 -26 59 -9 0 13 27 13 32 -1 2 -5 22 -13 46 -16 23 -3 42 -10 42 -14
0 -5 6 -9 13 -9 7 0 24 -13 38 -29 14 -15 36 -32 49 -36 14 -4 28 -13 32 -19
5 -7 72 -12 198 -14 178 -3 190 -2 191 15 1 10 2 23 3 29 1 14 32 44 45 44 6
0 11 8 11 18 0 10 3 13 8 6 4 -6 17 -14 30 -18 12 -4 22 -11 22 -16 0 -4 9
-10 20 -13 16 -4 20 0 20 20 0 24 -35 72 -53 73 -4 0 -17 8 -28 19 -17 15 -19
26 -13 57 8 47 17 54 72 54 36 0 42 -3 42 -21 0 -16 5 -20 19 -16 31 8 43 -8
49 -64 3 -30 10 -57 16 -61 5 -4 11 -23 12 -44 0 -22 7 -40 17 -46 10 -5 17
-16 17 -23 0 -8 4 -15 10 -15 5 0 12 -11 16 -25 4 -15 16 -28 30 -31 13 -3 24
-10 24 -15 0 -4 16 -11 35 -15 19 -3 35 -10 35 -15 0 -5 6 -9 14 -9 8 0 22 -7
31 -16 9 -9 36 -19 61 -22 24 -2 44 -9 44 -13 0 -5 12 -9 28 -9 60 0 98 -25
50 -32 -31 -4 -32 -22 -4 -49 14 -13 26 -30 26 -36 0 -7 11 -13 25 -13 18 0
26 -7 31 -25 5 -19 13 -25 34 -25 30 0 60 -22 60 -45 0 -7 11 -16 25 -19 14
-4 25 -11 25 -16 0 -6 7 -10 15 -10 9 0 18 -6 21 -14 3 -7 23 -16 45 -20 21
-3 39 -10 39 -15 0 -5 13 -12 29 -16 16 -3 32 -13 35 -21 7 -18 36 -18 36 0 0
21 27 27 45 10 8 -9 15 -24 15 -35 0 -10 5 -19 11 -19 13 0 33 -20 42 -42 3
-10 11 -18 17 -18 5 0 10 -6 10 -14 0 -13 74 -96 85 -96 3 0 5 14 5 30 0 17
-4 30 -10 30 -15 0 -12 87 3 93 9 4 8 8 -3 16 -8 6 -10 11 -5 11 24 0 42 -40
48 -106 4 -38 11 -70 17 -72 13 -5 13 -32 0 -32 -5 0 -10 -7 -10 -15 0 -8 4
-15 9 -15 5 0 11 7 15 15 5 13 51 15 335 15 l329 0 7 120 c6 92 10 120 21 120
8 0 14 5 14 10 0 6 5 10 10 10 6 0 10 -18 10 -40 0 -22 -4 -40 -10 -40 -5 0
-10 -20 -10 -45 0 -25 5 -45 10 -45 6 0 10 -8 11 -17 0 -14 2 -15 6 -3 4 8 26
34 50 58 23 24 43 48 43 53 0 6 11 20 25 33 14 13 25 28 25 34 0 6 15 14 33
17 17 4 35 12 38 18 4 5 30 12 58 15 28 2 51 8 51 12 0 5 15 12 33 15 17 4 36
13 40 19 6 8 10 8 14 -1 3 -10 8 -9 20 2 8 8 27 15 43 15 16 0 30 7 34 15 3 8
16 15 30 15 13 0 26 7 30 15 3 8 12 15 21 15 8 0 15 4 15 10 0 5 16 12 35 16
19 3 35 10 35 15 0 5 6 9 14 9 8 0 28 13 44 30 17 17 38 30 46 30 9 0 16 6 16
14 0 8 11 17 25 20 14 4 25 13 25 20 0 8 13 27 28 43 16 15 31 36 35 46 3 9
11 17 16 17 5 0 12 11 15 25 4 14 11 25 16 25 6 0 10 7 10 15 0 8 7 15 15 15
9 0 19 8 22 17 10 26 36 53 50 53 7 0 13 4 13 9 0 5 12 12 27 16 15 3 30 11
34 16 3 5 23 12 45 16 21 3 42 11 46 16 3 6 31 12 62 15 l56 4 0 44 c0 24 2
44 5 44 3 0 14 -9 25 -20 11 -11 27 -20 35 -20 9 0 15 -9 15 -25 0 -16 6 -26
18 -27 9 -1 24 -2 32 -4 8 -1 23 -2 33 -3 9 -1 17 -8 17 -17 0 -19 40 -9 53
12 4 8 19 14 31 14 13 0 26 7 30 15 3 8 10 15 16 15 6 0 18 7 26 15 9 8 24 15
35 15 11 0 22 7 25 15 6 16 24 21 24 7 0 -5 -12 -15 -27 -23 -16 -8 -37 -23
-48 -35 -11 -11 -32 -24 -46 -27 -15 -4 -30 -14 -33 -23 -5 -13 -1 -14 26 -9
18 4 38 14 46 21 7 8 20 14 28 14 8 0 14 4 14 9 0 5 34 11 76 13 51 2 78 8 85
18 8 11 9 8 5 -12 -6 -26 -4 -28 24 -28 16 0 30 5 30 10 0 6 20 10 45 10 26 0
47 5 52 14 4 7 21 17 37 22 27 9 27 11 12 26 -9 9 -16 19 -16 22 0 16 46 48
75 53 37 6 57 33 25 33 -11 0 -20 3 -20 8 0 12 35 39 60 47 13 4 33 18 45 30
11 13 33 27 47 30 15 4 29 13 32 21 3 8 12 14 21 14 8 0 15 4 15 9 0 5 12 12
26 15 15 4 33 14 41 21 8 8 22 15 31 14 14 0 14 -2 2 -6 -8 -4 -21 -12 -28
-20 -7 -7 -20 -13 -28 -13 -7 0 -16 -11 -20 -25 -6 -26 -19 -32 -27 -15 -3 6
-4 5 -3 -2 4 -17 75 -15 88 3 7 10 8 5 3 -16 -4 -16 -11 -32 -16 -36 -6 -3
-12 -30 -14 -59 -1 -29 -7 -55 -13 -59 -5 -3 -13 -16 -16 -29 -5 -15 -18 -25
-37 -29 -16 -3 -29 -9 -29 -13 0 -4 -11 -11 -24 -14 -13 -3 -32 -9 -43 -12
-15 -5 -16 -4 -3 6 13 10 12 11 -3 6 -11 -3 -31 -9 -45 -13 -28 -7 -62 -33
-43 -33 6 0 11 -6 11 -14 0 -8 13 -28 29 -44 17 -16 33 -41 37 -56 3 -14 10
-26 14 -26 4 0 10 -19 13 -41 3 -23 11 -46 19 -50 7 -5 55 -9 106 -9 50 0 92
-4 92 -9 0 -4 26 -11 57 -14 32 -3 59 -11 61 -17 2 -5 14 -10 26 -10 32 0 56
-34 56 -80 0 -22 -4 -40 -10 -40 -14 0 -12 -37 3 -43 9 -4 9 -8 0 -14 -6 -4
-15 -21 -18 -36 -4 -15 -11 -27 -16 -27 -5 0 -13 -8 -16 -17 -4 -10 -13 -24
-20 -31 -15 -15 -6 -42 14 -42 22 0 8 -46 -22 -74 -14 -13 -25 -27 -25 -32 0
-5 -9 -17 -20 -27 -23 -19 -17 -47 11 -47 22 0 54 30 64 59 6 20 13 21 173 21
107 0 162 4 152 10 -8 5 -12 11 -10 14 3 2 95 8 205 11 110 4 202 11 203 16 2
5 17 9 33 9 17 0 32 6 35 14 3 8 19 18 35 21 16 4 29 10 29 15 0 5 14 11 30
15 17 4 30 11 30 16 0 5 11 9 25 9 14 0 28 6 31 14 3 8 16 17 30 20 13 4 24
11 24 16 0 6 7 10 15 10 8 0 15 7 15 15 0 8 6 15 13 15 7 0 24 13 37 30 14 16
31 29 38 30 6 0 12 7 12 15 0 8 6 15 14 15 15 0 52 34 96 88 26 32 50 41 50
20 0 -20 -13 -35 -37 -42 -13 -4 -23 -14 -23 -22 0 -23 10 -17 62 36 27 28 53
50 59 50 11 0 49 37 49 49 0 25 50 59 98 66 29 4 52 10 52 15 0 4 21 10 46 13
26 2 49 9 53 15 3 5 17 13 31 17 14 4 36 19 49 34 16 16 26 21 29 13 2 -7 15
-1 34 18 16 17 34 30 39 30 15 0 79 68 79 84 0 9 4 16 10 16 5 0 36 27 68 60
33 33 64 60 70 60 7 0 12 5 12 10 0 6 11 10 25 10 16 0 25 6 25 15 0 8 5 15
11 15 7 0 27 16 46 35 19 19 39 35 46 35 7 1 23 15 37 32 47 57 112 118 126
118 8 0 14 10 14 25 0 13 6 28 14 32 10 5 16 38 21 103 4 52 11 97 15 100 4 3
11 31 15 63 4 31 11 57 16 57 4 0 11 23 15 50 4 28 10 50 14 50 4 0 11 20 14
45 4 25 11 45 15 45 5 0 12 24 15 54 4 30 13 57 20 59 8 3 14 18 14 32 0 15 5
31 12 35 9 6 9 9 -1 13 -11 5 -10 8 4 17 9 6 17 22 17 35 0 14 4 25 9 25 4 0
11 19 14 41 3 23 10 45 15 48 6 3 13 32 17 64 4 31 11 57 15 57 4 0 11 27 15
60 4 33 11 60 15 60 4 0 11 27 15 60 4 33 11 60 16 60 5 0 9 36 9 80 0 44 -4
80 -9 80 -5 0 -12 11 -15 25 -6 24 -10 25 -76 25 -39 0 -70 -4 -70 -9 0 -4
-27 -11 -60 -15 -33 -4 -60 -11 -60 -15 0 -5 -20 -11 -45 -14 -45 -7 -85 -32
-85 -54 0 -7 -4 -13 -10 -13 -5 0 -12 -11 -16 -25 -3 -14 -10 -25 -16 -25 -5
0 -14 -13 -19 -30 -6 -16 -15 -30 -20 -30 -5 0 -9 -7 -9 -15 0 -9 -6 -18 -14
-21 -8 -3 -17 -16 -20 -30 -4 -13 -10 -24 -15 -24 -5 0 -12 -13 -16 -29 -4
-19 -14 -31 -30 -35 -16 -4 -26 -16 -30 -36 -4 -16 -10 -30 -15 -30 -5 0 -12
-9 -15 -20 -4 -12 -22 -37 -41 -55 -30 -30 -41 -35 -84 -35 -43 0 -49 -3 -52
-22 -2 -13 -5 10 -6 51 -1 41 -4 77 -8 80 -9 9 -157 3 -163 -8 -3 -5 -34 -12
-68 -16 -35 -4 -63 -11 -63 -16 0 -5 -11 -9 -25 -9 -14 0 -28 -7 -31 -15 -4
-8 -12 -15 -20 -15 -9 0 -14 -11 -14 -30 0 -16 -4 -30 -9 -30 -5 0 -12 -27
-16 -60 -7 -62 -25 -83 -25 -30 0 17 5 30 10 30 6 0 10 7 10 15 0 8 -4 15 -10
15 -5 0 -10 7 -10 15 0 8 5 15 10 15 6 0 10 11 10 24 0 22 -4 23 -81 29 -52 3
-85 10 -90 19 -7 11 -9 11 -9 0 0 -7 -7 -20 -15 -28 -13 -14 -15 -14 -15 0 0
12 -11 16 -44 16 -47 0 -56 -11 -56 -72 0 -16 -4 -28 -10 -28 -5 0 -13 -18
-16 -39 -4 -22 -13 -42 -20 -45 -8 -3 -14 -15 -14 -26 0 -11 -4 -20 -10 -20
-5 0 -12 -11 -16 -25 -3 -14 -10 -25 -15 -25 -5 0 -9 -5 -9 -11 0 -7 -16 -27
-35 -46 -19 -19 -35 -40 -35 -48 0 -8 -4 -15 -10 -15 -5 0 -10 -6 -10 -13 0
-7 -9 -20 -20 -30 -11 -9 -20 -26 -20 -37 0 -11 -7 -20 -15 -20 -8 0 -15 -7
-15 -15 0 -8 -7 -15 -15 -15 -8 0 -15 -4 -15 -10 0 -5 -11 -10 -25 -10 -22 0
-25 4 -25 39 0 22 -2 45 -3 53 -2 7 -2 10 0 6 8 -14 23 -9 23 7 0 8 -4 15 -10
15 -5 0 -10 7 -10 15 0 8 4 15 10 15 5 0 12 11 16 25 7 27 19 33 27 13 3 -8 6
-6 6 5 1 9 6 17 11 17 17 0 11 18 -7 23 -17 4 -17 5 0 6 9 0 18 7 18 14 5 56
10 82 18 86 4 3 11 16 15 29 4 12 11 22 16 22 5 0 11 14 15 30 6 28 25 43 25
19 0 -6 14 3 30 19 17 17 30 35 30 41 0 5 8 15 18 20 14 9 14 12 3 20 -7 5
-22 6 -32 4 -15 -4 -18 -1 -13 11 3 9 10 16 14 16 5 0 11 14 15 30 4 17 11 30
16 30 5 0 9 9 9 19 0 11 7 26 15 34 7 8 17 26 21 41 3 14 10 26 14 26 5 0 11
14 15 30 4 17 10 30 15 30 5 0 11 14 15 30 4 17 10 30 14 30 5 0 14 20 21 45
12 42 19 49 46 46 13 -2 28 45 19 59 -3 6 1 7 9 4 16 -6 24 20 9 29 -5 2 -2 2
5 1 6 -2 12 3 12 11 0 8 5 15 10 15 12 0 14 26 3 33 -5 2 -2 2 6 0 9 -2 12 3
8 16 -3 14 -1 18 9 14 8 -3 14 1 14 10 0 8 -6 18 -12 20 -8 3 -5 6 6 6 12 1
16 6 12 16 -3 9 0 15 9 15 18 0 20 16 3 23 -9 4 -8 6 2 6 11 1 16 13 16 42 1
23 6 44 11 48 6 3 13 16 17 29 4 12 11 22 16 22 5 0 12 16 16 35 3 19 10 35
15 35 5 0 9 6 9 13 0 8 9 24 20 37 11 13 20 27 20 31 0 5 12 12 27 15 15 4 34
13 41 21 7 7 20 13 28 13 8 0 14 4 14 9 0 4 19 11 42 14 23 3 45 13 50 21 5 9
20 16 33 16 14 0 25 5 25 10 0 6 9 10 20 10 11 0 20 7 20 15 0 8 5 15 10 15 6
0 10 -6 10 -12 0 -10 2 -10 8 -1 4 6 20 15 35 18 15 4 27 11 27 15 0 4 18 10
40 14 24 4 40 12 40 20 0 9 7 12 20 9 14 -4 19 -1 17 8 -2 8 -2 11 0 7 7 -12
33 -10 33 2 0 6 7 10 15 10 8 0 15 7 15 15 0 8 5 15 10 15 6 0 10 -4 10 -10 0
-5 7 -10 15 -10 18 0 20 17 3 23 -7 2 0 4 17 4 16 0 31 6 33 12 2 6 15 11 28
11 14 0 27 7 30 15 3 8 21 17 40 21 19 3 34 10 34 14 0 5 14 11 30 15 17 4 30
10 30 15 0 4 18 10 40 14 22 3 40 10 40 15 0 5 14 12 30 16 17 4 30 10 30 15
0 4 16 11 35 14 19 4 35 11 35 16 0 4 14 11 30 15 17 4 30 10 30 15 0 4 20 11
45 14 25 4 45 11 45 16 0 6 18 13 40 16 22 4 40 10 40 15 0 4 16 11 35 15 19
3 35 10 35 14 0 4 20 11 45 14 25 4 45 11 45 16 0 5 14 11 30 15 17 4 30 11
30 16 0 5 18 12 40 15 22 4 40 10 40 14 0 5 14 11 30 15 17 4 30 11 30 15 0 5
16 12 35 16 19 3 35 10 35 15 0 5 11 9 25 9 14 0 28 7 31 15 3 8 21 17 40 21
19 3 34 11 34 16 0 5 7 16 15 24 8 9 15 11 15 5 0 -17 47 -13 54 4 3 8 16 15
30 15 13 0 26 7 30 15 3 8 16 15 30 15 25 0 36 16 36 56 0 13 5 24 10 24 6 0
10 -7 10 -16 0 -13 7 -15 32 -10 18 3 35 10 38 15 3 5 18 13 33 16 15 4 27 11
27 15 0 5 14 11 30 15 17 4 30 10 30 15 0 4 11 11 25 14 14 4 25 12 25 19 0 8
4 7 10 -3 7 -11 12 -12 18 -3 4 6 20 15 35 18 20 5 27 13 27 30 0 48 24 74 33
38 3 -10 5 116 6 279 l1 297 -66 65 c-36 36 -63 70 -59 76 3 6 -3 10 -14 10
-12 0 -21 5 -21 10 0 13 -27 13 -32 0 -5 -14 -411 -16 -416 -1 -2 6 -12 11
-23 11 -14 0 -19 -7 -19 -25 0 -20 -5 -25 -25 -25 -16 0 -25 6 -25 15 0 8 5
15 10 15 6 0 10 5 10 10 0 14 -27 13 -32 -2 -6 -16 -140 -17 -145 0 -3 8 -34
12 -105 12 -95 0 -99 1 -82 17 16 16 50 18 378 20 246 1 362 5 364 12 5 14 92
15 92 1 0 -5 14 -10 30 -10 17 0 30 4 30 9 0 4 84 10 186 13 114 3 188 9 192
15 5 7 214 13 640 18 l632 8 0 193 0 194 -8550 0 -8550 0 2 -197z m14018 88
c0 -14 -35 -23 -64 -15 -41 10 -30 24 19 24 25 0 45 -4 45 -9z m-7590 -150 c0
-5 25 -12 57 -16 106 -13 101 -48 -10 -58 -93 -9 -127 -1 -127 28 0 43 11 55
46 55 19 0 34 -4 34 -9z m-1675 -46 c0 -27 -3 -30 -30 -30 -21 0 -31 5 -33 18
-6 33 6 49 35 45 24 -3 28 -8 28 -33z m185 10 c0 -10 -10 -15 -30 -15 -20 0
-30 5 -30 15 0 10 10 15 30 15 20 0 30 -5 30 -15z m2766 0 c14 -13 13 -15 -10
-15 -14 0 -26 -4 -26 -10 0 -14 -88 -12 -104 2 -23 22 5 37 67 38 39 0 63 -5
73 -15z m4764 6 c0 -13 -27 -21 -71 -21 -21 0 -39 -4 -39 -10 0 -5 -16 -10
-35 -10 -19 0 -35 5 -35 10 0 6 -28 11 -62 12 l-63 2 63 3 c34 2 62 8 62 13 0
6 40 10 90 10 50 0 90 -4 90 -9z m1536 -6 c14 -13 11 -15 -25 -15 -30 0 -41 4
-41 15 0 9 10 15 26 15 14 0 32 -7 40 -15z m-3626 -20 c0 -11 -12 -15 -45 -15
-33 0 -45 4 -45 15 0 11 12 15 45 15 33 0 45 -4 45 -15z m2748 8 c-10 -2 -18
-9 -18 -14 0 -5 -20 -9 -45 -9 -42 0 -54 7 -38 23 3 4 31 6 62 6 31 -1 48 -3
39 -6z m902 -133 c5 -8 70 -12 208 -13 154 -2 202 -5 202 -14 0 -7 -4 -13 -10
-13 -5 0 -10 -6 -10 -13 0 -16 -124 -27 -292 -27 l-96 0 -7 -59 -7 -59 -41 3
c-23 1 -48 3 -54 4 -7 0 -13 12 -13 26 0 23 -4 25 -40 25 -29 0 -40 -4 -40
-15 0 -9 -9 -15 -25 -15 -14 0 -25 -4 -25 -8 0 -5 -53 -12 -117 -16 -64 -3
-120 -10 -123 -15 -3 -5 -25 -10 -50 -11 -80 -3 -100 -1 -100 14 0 10 -15 12
-72 8 -40 -2 -74 -9 -76 -13 -5 -13 -92 -11 -92 1 0 16 -27 11 -34 -6 -5 -13
-16 -16 -56 -12 -51 5 -76 17 -52 25 6 3 12 18 12 34 0 25 -4 29 -29 29 -16 0
-36 7 -45 15 -8 8 -18 15 -23 15 -9 0 -43 36 -43 45 0 3 10 15 23 28 l22 22
360 -4 c198 -2 362 -7 363 -12 5 -12 62 -11 62 1 0 6 37 10 90 10 65 0 91 4
97 14 4 8 17 16 28 19 30 8 97 0 105 -13z m-7600 0 c0 -5 27 -12 60 -16 33 -4
60 -10 60 -14 0 -4 38 -11 85 -15 47 -4 85 -10 85 -15 0 -4 16 -11 35 -14 19
-4 35 -11 35 -15 0 -5 18 -11 40 -15 22 -3 40 -10 40 -16 0 -5 16 -12 35 -16
19 -3 35 -10 35 -14 0 -5 14 -11 30 -15 17 -4 30 -10 30 -15 0 -5 14 -11 30
-15 17 -4 30 -11 30 -16 0 -5 11 -9 25 -9 16 0 25 6 25 15 0 8 -7 15 -15 15
-8 0 -15 4 -15 9 0 5 -13 12 -30 16 -16 4 -30 10 -30 15 0 5 -13 11 -30 15
-16 4 -30 10 -30 15 0 4 -11 11 -25 14 -37 9 -65 37 -65 63 0 21 5 23 45 23
25 0 45 -4 45 -10 0 -5 16 -12 35 -16 19 -3 35 -10 35 -14 0 -4 20 -11 45 -14
25 -4 45 -11 45 -17 0 -5 11 -9 25 -9 14 0 28 -7 31 -15 4 -8 24 -18 45 -21
21 -4 39 -10 39 -15 0 -4 16 -11 35 -15 19 -3 35 -10 35 -14 0 -4 18 -10 40
-14 22 -3 40 -11 40 -16 0 -6 7 -10 15 -10 9 0 18 -7 21 -15 4 -9 26 -17 55
-21 27 -4 49 -10 49 -14 0 -4 20 -11 45 -14 25 -4 45 -11 45 -17 0 -5 11 -9
25 -9 32 0 33 18 1 26 -14 3 -27 12 -30 20 -3 8 -12 14 -21 14 -8 0 -15 4 -15
9 0 5 -18 11 -40 15 -22 3 -40 10 -40 16 0 5 -16 12 -35 16 -19 3 -35 10 -35
15 0 4 -16 11 -35 15 -19 3 -35 10 -35 14 0 4 -18 10 -40 14 -22 3 -40 10 -40
15 0 5 -16 12 -35 15 -19 4 -35 11 -35 15 0 5 -11 12 -24 15 -22 5 -45 41 -34
52 10 9 300 6 307 -3 3 -6 17 -14 31 -18 14 -4 30 -15 36 -23 6 -8 17 -13 24
-10 9 3 8 9 -6 23 -17 17 -17 18 -1 12 11 -4 17 -2 17 8 0 12 15 15 70 15 39
0 70 -4 70 -9 0 -4 32 -11 70 -14 63 -5 74 -9 98 -36 14 -17 30 -31 35 -31 5
0 27 -18 48 -40 22 -22 43 -40 48 -40 5 0 22 -13 38 -28 15 -16 36 -31 46 -35
9 -3 17 -11 17 -17 0 -5 6 -10 14 -10 23 0 45 -28 39 -50 -3 -11 -12 -20 -19
-20 -8 0 -14 -4 -14 -9 0 -5 -11 -12 -25 -15 -14 -4 -25 -11 -25 -16 0 -6 -22
-10 -50 -10 -27 0 -50 4 -50 9 0 5 -11 12 -25 15 -14 4 -25 11 -25 16 0 6 -6
10 -12 10 -13 0 -58 42 -58 54 0 12 -35 46 -47 46 -7 0 -13 4 -13 9 0 12 -43
22 -52 13 -14 -14 4 -52 28 -58 13 -3 24 -10 24 -14 0 -4 14 -10 30 -13 24 -5
30 -12 30 -32 0 -20 -5 -25 -25 -25 -14 0 -25 4 -25 9 0 5 -9 11 -20 14 -12 3
-20 0 -20 -7 0 -16 35 -44 65 -52 14 -3 25 -10 25 -14 0 -4 9 -10 20 -13 13
-3 20 -14 20 -30 0 -20 -6 -27 -30 -32 -16 -4 -30 -11 -30 -16 0 -12 -87 -12
-92 0 -1 5 -42 11 -89 12 -73 3 -88 1 -104 -15 -17 -16 -29 -17 -124 -11 -58
4 -107 11 -109 16 -2 5 -9 9 -16 9 -13 0 -46 35 -46 49 0 8 -33 21 -57 21 -7
0 -10 -7 -7 -15 4 -8 12 -15 20 -15 8 0 14 -9 14 -20 0 -19 -7 -20 -124 -20
l-124 0 -30 30 c-21 20 -40 30 -61 30 -20 0 -31 5 -31 14 0 16 -30 26 -77 26
-23 0 -33 -5 -33 -15 0 -17 -26 -21 -32 -5 -1 5 -42 13 -90 16 -49 4 -88 10
-88 14 0 5 -27 11 -60 15 -33 4 -60 11 -60 15 0 5 -38 11 -85 15 -47 4 -85 12
-85 17 0 5 -14 23 -31 40 l-30 31 -142 4 c-77 2 -144 7 -147 12 -3 4 -39 11
-80 15 -41 3 -77 11 -80 16 -4 6 -43 13 -88 17 -45 3 -82 9 -82 13 0 4 -19 10
-41 13 -23 3 -45 10 -49 17 -3 6 -31 13 -61 17 -30 3 -57 10 -60 15 -3 5 -40
12 -82 15 -43 3 -77 10 -77 14 0 5 -9 9 -20 9 -26 0 -26 21 0 43 22 18 80 24
80 7 0 -6 27 -10 60 -10 33 0 60 4 60 10 0 6 58 10 155 10 85 0 155 -4 155 -9
0 -4 32 -11 71 -13 39 -3 74 -10 78 -15 3 -6 36 -14 74 -17 37 -4 67 -11 67
-16 0 -4 19 -11 43 -15 23 -4 44 -11 47 -15 3 -4 25 -10 48 -14 39 -6 42 -5
29 8 -8 8 -26 18 -41 22 -14 3 -26 10 -26 14 0 4 -9 10 -20 13 -23 6 -27 37
-5 37 8 0 15 6 16 13 0 9 2 9 5 0 3 -7 32 -15 65 -19 32 -4 59 -11 59 -15 0
-5 25 -9 55 -9 54 0 56 1 62 30 4 23 11 30 29 30 13 0 24 5 24 10 0 6 11 10
25 10 14 0 25 -4 25 -10z m3388 -29 c5 -14 82 -15 82 -1 0 6 14 10 30 10 20 0
30 -5 30 -15 0 -8 -7 -15 -15 -15 -8 0 -15 -4 -15 -9 0 -5 -13 -12 -30 -16
-16 -4 -30 -10 -30 -15 0 -5 -13 -11 -30 -15 -16 -4 -30 -10 -30 -15 0 -5 -13
-11 -30 -15 -16 -4 -30 -10 -30 -15 0 -5 -13 -11 -30 -15 -16 -4 -30 -11 -30
-15 0 -5 -16 -12 -35 -16 -19 -3 -35 -10 -35 -14 0 -4 -24 -11 -52 -14 -29 -4
-56 -13 -60 -19 -10 -16 -10 -46 0 -31 4 6 38 14 76 17 38 2 71 10 75 15 3 6
19 14 34 17 15 4 27 11 27 15 0 4 16 11 35 14 19 4 35 11 35 16 0 6 11 10 25
10 14 0 28 6 31 14 3 8 19 18 35 21 16 4 29 11 29 16 0 5 18 12 40 15 22 4 40
10 40 14 0 5 19 11 43 15 23 4 45 12 48 17 3 5 51 11 107 15 56 3 102 10 102
15 0 4 16 8 35 8 38 0 48 -19 15 -27 -11 -3 -20 -9 -20 -13 0 -4 -18 -10 -40
-14 -22 -3 -40 -12 -41 -19 0 -9 -2 -9 -6 1 -6 14 -33 16 -33 2 0 -5 -6 -10
-14 -10 -8 0 -21 -6 -28 -14 -8 -7 -29 -17 -46 -21 -18 -3 -32 -10 -32 -15 0
-4 -18 -10 -40 -14 -22 -3 -40 -10 -40 -15 0 -5 -13 -12 -30 -16 -16 -4 -30
-10 -30 -15 0 -5 -13 -11 -30 -15 -16 -4 -30 -11 -30 -16 0 -5 -12 -9 -27 -9
-44 0 -73 -11 -73 -27 0 -11 7 -13 33 -8 17 4 34 11 35 16 2 5 21 9 43 9 26 0
42 5 45 15 4 8 24 18 45 21 21 4 39 10 39 14 0 5 14 11 30 15 17 4 30 10 30
15 0 5 14 11 30 15 17 4 30 11 30 16 0 5 9 9 19 9 11 0 26 7 35 15 17 17 36
20 36 5 0 -5 7 -10 15 -10 8 0 15 5 15 10 0 6 7 10 15 10 9 0 18 7 21 15 4 8
12 15 19 15 8 0 20 7 28 15 20 19 241 33 252 16 11 -19 -29 -50 -74 -57 -23
-4 -41 -10 -41 -14 0 -5 -19 -11 -42 -15 -24 -4 -46 -12 -49 -17 -3 -5 -25
-12 -48 -15 -22 -3 -41 -10 -41 -14 0 -5 -7 -9 -15 -9 -8 0 -15 5 -15 10 0 6
-7 10 -15 10 -8 0 -15 -4 -15 -9 0 -5 -13 -12 -30 -16 -16 -4 -30 -10 -30 -15
0 -5 -13 -11 -30 -15 -16 -4 -30 -11 -30 -16 0 -5 -7 -9 -15 -9 -8 0 -15 5
-15 10 0 6 -7 10 -15 10 -8 0 -15 -4 -15 -9 0 -5 -16 -12 -35 -15 -19 -4 -35
-11 -35 -16 0 -6 -18 -13 -40 -16 -22 -4 -40 -10 -40 -15 0 -4 -16 -11 -35
-15 -44 -8 -48 -32 -5 -26 17 2 30 8 30 13 0 5 7 9 15 9 8 0 15 -6 15 -12 0
-9 3 -9 9 1 5 7 32 16 60 19 28 2 51 8 51 13 0 5 23 11 50 15 28 4 50 10 50
15 0 5 14 9 31 9 27 0 30 -3 23 -22 -8 -26 -22 -38 -46 -38 -10 0 -18 -4 -18
-9 0 -5 -25 -11 -56 -13 -31 -3 -59 -9 -62 -15 -4 -6 -25 -13 -47 -17 -22 -5
-43 -12 -46 -18 -3 -5 -25 -12 -48 -15 -31 -4 -41 -10 -41 -24 0 -25 -35 -59
-59 -59 -21 0 -31 19 -31 56 0 13 -5 24 -11 24 -7 0 1 12 16 26 23 21 25 28
14 35 -8 5 -20 9 -26 9 -8 0 -13 13 -13 30 0 19 -5 30 -14 30 -8 0 -17 8 -19
18 -3 9 -5 2 -6 -16 -1 -37 -15 -56 -49 -66 -12 -4 -22 -11 -22 -16 0 -5 -13
-11 -30 -15 -16 -4 -30 -10 -30 -15 0 -4 -12 -11 -26 -14 -35 -9 -54 -29 -54
-59 0 -18 -6 -26 -25 -30 -40 -7 -255 5 -255 14 0 5 -7 9 -15 9 -21 0 -19 29
3 37 45 17 40 30 -11 25 -36 -4 -57 -12 -72 -28 -23 -25 -55 -32 -55 -14 0 20
-67 80 -89 80 -11 0 -21 5 -21 10 0 6 -6 10 -13 10 -19 0 -47 37 -54 71 -3 16
-9 29 -13 29 -4 0 -10 32 -12 72 -2 44 -9 73 -16 76 -18 6 -15 62 3 62 8 0 15
4 15 10 0 14 134 18 570 15 280 -2 395 -6 398 -14z m1236 5 c-3 -8 -19 -18
-35 -21 -16 -4 -29 -10 -29 -15 0 -4 -12 -11 -27 -15 -15 -3 -31 -11 -34 -17
-3 -5 -30 -12 -60 -15 -30 -3 -56 -9 -59 -13 -3 -4 -24 -11 -47 -15 -24 -4
-43 -11 -43 -15 0 -5 -20 -12 -45 -16 -25 -3 -45 -10 -45 -14 0 -4 -27 -10
-60 -14 -33 -4 -60 -11 -60 -15 0 -5 -16 -12 -35 -15 -19 -4 -35 -11 -35 -16
0 -4 -13 -11 -30 -15 -16 -4 -30 -10 -30 -14 0 -12 -65 -21 -105 -14 -19 3
-35 9 -35 14 0 14 34 49 47 49 7 0 13 4 13 9 0 5 12 12 27 16 15 3 31 12 35
18 5 8 11 7 20 -6 10 -14 21 -17 41 -12 15 4 27 11 27 15 0 4 18 10 40 14 22
3 40 10 40 15 0 4 35 11 77 15 42 3 79 10 83 15 3 5 19 13 35 17 17 4 32 11
35 15 3 4 37 11 75 15 54 5 75 12 91 30 22 23 45 30 101 33 24 1 31 -3 27 -13z
m350 -1 c16 -17 96 -21 96 -5 0 6 14 10 30 10 35 0 40 -16 8 -26 -13 -4 -25
-10 -28 -14 -3 -5 -36 -11 -75 -15 -38 -3 -71 -10 -73 -15 -2 -5 -19 -12 -38
-16 -19 -3 -34 -10 -34 -14 0 -4 -20 -11 -45 -14 -25 -4 -45 -11 -45 -17 0
-20 -18 -8 -24 16 -6 23 -36 36 -36 16 0 -5 -27 -12 -60 -16 -33 -4 -60 -11
-60 -15 0 -4 -20 -11 -45 -14 -25 -4 -45 -11 -45 -15 0 -5 -20 -12 -45 -15
-25 -4 -45 -11 -45 -16 0 -4 -27 -11 -60 -15 -33 -4 -60 -11 -60 -16 0 -5 -9
-9 -20 -9 -11 0 -20 7 -20 15 0 8 9 15 20 15 11 0 20 4 20 9 0 5 16 12 35 15
19 4 35 11 35 16 0 5 32 12 70 16 39 3 70 10 70 14 0 5 15 12 33 15 17 4 35
12 38 17 3 5 25 12 48 15 22 3 41 9 41 13 0 4 32 11 70 14 39 4 70 11 70 15 0
5 19 11 41 14 23 3 45 10 48 15 6 9 31 18 58 21 6 0 18 -6 27 -14z m-6444 -11
c0 -17 -22 -14 -28 4 -2 7 3 12 12 12 9 0 16 -7 16 -16z m3070 7 c0 -5 20 -12
45 -15 25 -4 45 -11 45 -17 0 -5 18 -9 40 -9 22 0 40 5 40 10 0 6 23 10 50 10
60 0 64 -14 20 -58 -16 -17 -30 -41 -30 -54 0 -54 -75 -77 -115 -34 -12 13
-31 27 -43 30 -12 4 -24 16 -27 27 -4 12 -24 37 -45 57 -28 28 -34 40 -26 49
13 14 46 17 46 4z m-2906 -17 c9 -3 16 -12 16 -20 0 -21 -113 -19 -134 2 -9 8
-16 17 -16 20 0 6 116 5 134 -2z m9383 0 c-3 -3 -12 -4 -19 -1 -8 3 -5 6 6 6
11 1 17 -2 13 -5z m-10577 -14 c0 -5 -4 -10 -10 -10 -5 0 -10 5 -10 10 0 6 5
10 10 10 6 0 10 -4 10 -10z m7660 -29 c0 -5 -10 -13 -22 -16 -11 -4 -31 -18
-43 -31 -13 -14 -39 -26 -66 -30 -24 -4 -46 -10 -49 -14 -3 -4 -30 -10 -60
-14 -30 -3 -49 -3 -42 0 17 8 15 24 -3 24 -8 0 -15 -4 -15 -9 0 -5 -18 -11
-41 -15 -23 -4 -48 -13 -56 -21 -20 -20 -113 -21 -113 -1 0 10 16 17 45 22 25
3 45 10 45 14 0 4 27 11 60 15 33 4 60 10 60 15 0 4 27 10 60 14 33 4 60 11
60 16 0 6 9 10 20 10 11 0 20 -4 20 -10 0 -5 7 -10 15 -10 8 0 15 4 15 9 0 5
11 12 25 15 14 4 25 11 25 16 0 6 14 10 30 10 17 0 30 -4 30 -9z m-9903 -17
c-3 -3 -12 -4 -19 -1 -8 3 -5 6 6 6 11 1 17 -2 13 -5z m9363 -109 c0 -8 -7
-15 -15 -15 -8 0 -15 -4 -15 -9 0 -5 -30 -13 -67 -17 -38 -3 -71 -11 -74 -16
-3 -5 -30 -11 -60 -15 -30 -3 -57 -11 -61 -17 -5 -8 -8 -7 -8 2 0 6 -7 12 -15
12 -8 0 -15 -4 -15 -9 0 -5 -19 -12 -42 -16 -24 -4 -46 -11 -49 -16 -3 -5 -47
-12 -97 -15 -51 -4 -92 -10 -92 -14 0 -4 -20 -11 -45 -14 -25 -4 -45 -11 -45
-17 0 -15 -47 -10 -54 6 -4 10 1 15 14 15 11 0 20 4 20 9 0 5 25 13 55 16 30
4 55 11 55 15 0 4 32 10 72 13 39 3 74 10 77 15 3 5 33 12 65 15 33 3 62 10
65 15 3 6 45 13 94 17 48 4 87 11 87 15 0 4 28 10 62 13 34 3 64 10 66 16 5
16 22 13 22 -4z m-5323 -11 c-3 -3 -12 -4 -19 -1 -8 3 -5 6 6 6 11 1 17 -2 13
-5z m4903 -14 c0 -5 -9 -10 -20 -10 -11 0 -20 5 -20 10 0 6 9 10 20 10 11 0
20 -4 20 -10z m-390 -149 c0 -5 -10 -11 -22 -15 -35 -9 -40 -7 -26 9 14 16 48
20 48 6z m-545 -41 c3 -11 3 -29 0 -40 -5 -16 -15 -20 -56 -20 -27 0 -49 4
-49 9 0 6 -13 11 -30 13 -45 5 -22 29 34 35 25 3 46 10 46 14 0 19 49 9 55
-11z m455 -19 l0 -38 -101 -5 c-111 -6 -152 -1 -146 16 2 6 18 12 35 14 18 2
32 7 32 11 0 5 18 11 40 15 22 3 40 11 40 16 0 6 23 10 50 10 l50 0 0 -39z
m4500 -697 c0 -18 -23 -44 -39 -44 -6 0 -11 5 -11 10 0 6 7 10 15 10 8 0 15 9
15 20 0 11 5 20 10 20 6 0 10 -7 10 -16z m-146 -89 c-7 -16 -24 -21 -24 -6 0
8 7 13 27 20 1 1 0 -6 -3 -14z m-54 -22 c-14 -3 -28 -10 -32 -17 -5 -7 -8 -7
-8 0 0 17 12 24 39 23 l26 -2 -25 -4z m-90 -42 c0 -5 -13 -12 -30 -16 -16 -4
-30 -11 -30 -16 0 -5 -9 -9 -19 -9 -11 0 -26 -7 -35 -15 -16 -17 -46 -20 -46
-6 0 5 14 12 30 16 17 4 30 10 30 15 0 4 16 11 35 14 19 4 35 11 35 16 0 6 7
10 15 10 8 0 15 -4 15 -9z m-186 -86 c-3 -8 -22 -17 -42 -21 -21 -4 -39 -10
-42 -15 -3 -4 -16 -9 -30 -12 -14 -2 -19 -2 -12 0 6 3 12 8 12 13 0 5 14 11
30 15 17 4 30 10 30 15 0 5 12 11 28 13 15 2 28 5 29 6 1 0 0 -6 -3 -14z
m-154 -64 c0 -5 -11 -12 -25 -15 -14 -4 -25 -11 -25 -16 0 -6 -14 -10 -30 -10
-18 0 -33 -6 -36 -15 -4 -8 -14 -15 -24 -15 -10 0 -25 -7 -34 -15 -16 -17 -46
-20 -46 -6 0 5 14 12 30 16 17 4 30 11 30 16 0 5 9 9 20 9 11 0 23 7 26 15 4
8 19 15 35 15 15 0 34 7 41 15 14 16 38 20 38 6z m-246 -116 c-3 -8 -22 -17
-42 -21 -21 -4 -39 -10 -42 -15 -3 -4 -16 -9 -30 -12 -14 -2 -19 -2 -12 0 6 3
12 8 12 13 0 5 14 11 30 15 17 4 30 10 30 15 0 8 21 16 47 19 7 0 10 -6 7 -14z
m-154 -64 c0 -5 -11 -12 -25 -15 -14 -4 -25 -11 -25 -16 0 -6 -14 -10 -30 -10
-18 0 -33 -6 -36 -15 -4 -8 -24 -18 -45 -21 -21 -4 -39 -10 -39 -15 0 -4 -16
-11 -35 -15 -19 -3 -35 -10 -35 -14 0 -5 -13 -11 -30 -15 -16 -4 -30 -10 -30
-15 0 -4 -11 -11 -25 -14 -14 -4 -25 -11 -25 -16 0 -6 -14 -10 -30 -10 -17 0
-33 -6 -36 -14 -3 -7 -23 -16 -44 -20 -21 -3 -41 -12 -43 -18 -4 -10 -6 -10
-6 0 -1 8 8 16 19 19 11 3 20 9 20 13 0 5 14 11 30 15 17 4 30 10 30 15 0 5
14 11 30 15 17 4 30 10 30 15 0 4 18 10 39 14 21 3 41 13 45 21 3 8 17 15 31
15 15 0 33 7 41 15 9 8 28 15 44 15 16 0 30 7 34 15 3 8 12 15 21 15 8 0 15 4
15 9 0 5 18 11 40 15 22 3 40 11 40 16 0 6 7 10 15 10 8 0 15 -4 15 -9z
m-10050 -31 c0 -5 -4 -10 -10 -10 -5 0 -10 5 -10 10 0 6 5 10 10 10 6 0 10 -4
10 -10z m50 -20 c8 -5 11 -12 7 -17 -5 -4 -11 -3 -15 3 -4 6 -14 14 -22 17
-13 5 -13 5 0 6 8 0 22 -3 30 -9z m3363 4 c55 -5 77 -11 77 -20 0 -9 -11 -14
-30 -14 -16 0 -30 -4 -30 -10 0 -5 19 -10 43 -10 54 0 63 -7 71 -52 4 -21 11
-38 16 -38 4 0 11 -13 15 -30 4 -16 11 -30 16 -30 8 0 14 41 9 65 -1 5 1 24 5
42 4 24 13 35 30 39 14 3 25 13 25 20 0 12 13 13 63 9 34 -4 64 -10 65 -16 2
-5 20 -9 40 -9 75 0 77 -3 81 -88 1 -42 3 -88 3 -102 2 -51 -15 -190 -23 -190
-13 0 -11 -238 1 -242 6 -2 11 -53 13 -126 2 -108 0 -124 -15 -133 -10 -6 -18
-19 -18 -29 0 -11 -9 -29 -20 -40 -21 -21 -70 -28 -70 -10 0 6 -7 10 -14 10
-8 0 -37 23 -64 50 -27 28 -53 50 -56 50 -19 0 -39 35 -43 74 -4 35 -1 47 17
64 19 17 21 27 15 61 -4 23 -11 41 -16 41 -5 0 -9 61 -9 138 0 178 -8 206 -46
168 -17 -17 -19 -63 -3 -68 20 -7 14 -73 -9 -96 -22 -22 -62 -30 -62 -12 0 6
-9 10 -19 10 -11 0 -33 13 -49 29 -16 17 -42 33 -58 37 -30 8 -105 76 -117
107 -3 9 -13 17 -22 17 -8 0 -15 7 -15 15 0 8 -4 15 -10 15 -14 0 -13 87 2 92
7 3 12 30 13 72 1 53 5 70 18 77 21 12 22 39 2 39 -21 0 -19 18 3 23 27 7 93
8 175 1z m717 -14 c0 -5 18 -10 40 -10 27 0 40 -4 40 -14 0 -7 14 -16 31 -20
53 -10 57 -21 65 -182 4 -82 11 -152 17 -155 5 -4 10 -67 11 -146 l1 -139 -27
-26 c-16 -14 -28 -30 -28 -37 0 -6 -7 -11 -15 -11 -8 0 -15 -6 -15 -14 0 -8
-17 -16 -46 -20 -66 -9 -104 -49 -104 -110 0 -49 15 -60 44 -31 8 8 18 15 23
15 5 0 16 9 26 20 9 11 23 20 31 20 8 0 16 7 20 15 3 8 12 15 20 15 8 0 16 6
19 13 3 8 9 6 19 -7 18 -23 38 -13 38 20 0 41 17 26 24 -21 9 -57 26 -59 26
-2 0 52 9 87 23 87 5 0 20 11 33 25 27 29 88 35 98 9 3 -9 6 -128 6 -266 0
-241 -1 -250 -20 -255 -11 -3 -20 -9 -20 -13 0 -4 -11 -11 -25 -14 -14 -4 -25
-11 -25 -16 0 -6 -7 -10 -15 -10 -9 0 -18 -7 -21 -15 -4 -8 -12 -15 -19 -15
-18 0 -75 -58 -75 -76 0 -8 -5 -14 -10 -14 -6 0 -14 -8 -17 -17 -4 -10 -16
-27 -28 -38 -12 -11 -24 -28 -28 -37 -3 -10 -11 -18 -17 -18 -5 0 -10 -10 -10
-23 0 -12 -9 -30 -20 -40 -11 -9 -20 -23 -20 -31 0 -8 -5 -16 -10 -18 -6 -2
-14 -29 -17 -61 -3 -31 -9 -57 -13 -57 -5 0 -11 -33 -15 -72 -4 -40 -12 -76
-17 -79 -5 -4 -10 -39 -10 -79 0 -40 5 -75 10 -79 5 -3 13 -39 17 -78 4 -40
10 -73 15 -73 4 0 10 -31 14 -69 5 -46 12 -71 22 -75 7 -3 14 -12 14 -21 0 -8
4 -15 9 -15 5 0 13 -10 17 -22 4 -13 12 -26 17 -30 14 -8 10 -181 -4 -186 -5
-2 -9 -39 -9 -83 l0 -79 31 0 c27 0 30 -3 23 -22 -3 -13 -13 -27 -20 -31 -10
-6 -14 -34 -14 -111 l0 -103 -52 5 c-30 3 -57 11 -61 18 -11 19 -27 18 -27 -1
0 -36 -56 6 -62 47 -3 23 -4 23 -155 26 -152 3 -153 3 -159 27 -3 13 -12 26
-20 29 -8 3 -14 12 -14 21 0 8 -4 15 -10 15 -5 0 -10 11 -10 25 0 14 -7 28
-15 31 -8 4 -15 12 -15 20 0 11 33 14 180 14 113 0 180 4 180 10 0 6 -17 10
-37 10 -58 0 -83 10 -89 35 -3 13 -12 26 -20 29 -8 3 -14 20 -14 41 0 19 -4
35 -10 35 -5 0 -12 11 -16 24 -3 14 -12 27 -20 30 -8 3 -14 10 -14 16 0 30
-30 39 -131 42 -71 2 -104 7 -107 16 -3 9 13 12 57 12 l61 0 0 30 0 30 -72 2
-73 2 73 3 c39 2 72 8 72 13 0 5 -33 11 -72 13 -63 3 -59 3 30 5 l102 2 0 40
c0 22 -4 40 -10 40 -5 0 -10 16 -10 35 0 35 0 35 -46 35 -50 0 -69 13 -80 54
-3 14 -10 26 -15 26 -5 0 -9 6 -9 14 0 14 29 26 69 26 17 0 22 4 17 16 -3 9
-6 27 -6 40 0 23 -2 24 -75 24 -41 0 -75 -4 -75 -9 0 -4 -19 -11 -42 -14 -24
-3 -44 -11 -46 -16 -4 -13 -32 -15 -32 -2 0 5 12 12 27 16 15 3 31 11 34 17 3
5 25 12 48 15 22 3 41 10 41 14 0 5 6 9 13 9 20 0 47 38 47 65 0 14 7 28 15
31 23 9 18 54 -9 79 -14 13 -27 39 -31 63 -4 23 -11 42 -16 42 -5 0 -12 18
-15 40 -4 22 -10 40 -15 40 -5 0 -9 9 -9 20 0 31 18 24 25 -10 4 -16 10 -30
15 -30 5 0 11 -13 15 -29 7 -33 28 -41 85 -34 34 5 40 9 40 29 0 13 5 24 10
24 6 0 10 20 10 45 0 31 5 47 15 51 10 4 15 20 15 45 l0 39 -55 0 c-48 0 -55
2 -55 20 0 18 7 20 70 20 50 0 70 4 70 13 0 25 39 47 85 47 33 0 45 4 45 15 0
11 -11 15 -36 15 -36 0 -36 1 -30 31 3 18 17 42 30 54 13 12 27 32 31 43 3 12
10 22 14 22 4 0 13 23 20 50 7 28 17 50 22 50 5 0 9 7 9 15 0 8 7 15 15 15 8
0 16 8 16 18 1 16 2 16 6 0 4 -18 22 -25 24 -10 0 4 2 19 3 34 1 15 10 34 20
41 16 12 18 25 15 107 -3 62 -8 95 -16 97 -7 3 -15 20 -19 39 -3 19 -12 34
-20 34 -10 0 -14 13 -14 40 0 22 -4 40 -10 40 -5 0 -10 9 -10 20 0 11 4 20 9
20 4 0 11 30 14 67 4 38 11 69 17 71 13 5 13 192 0 192 -13 0 -13 57 0 62 7 2
11 38 11 88 1 122 0 120 70 120 33 0 59 -4 59 -10z m2147 -24 c4 -7 30 -16 57
-18 83 -10 90 -58 20 -126 -26 -24 -48 -54 -49 -66 -1 -11 -3 -25 -4 -30 0 -4
-7 -6 -14 -3 -19 7 -33 -4 -42 -33 -7 -23 -7 -23 9 -7 22 22 25 21 19 -3 -3
-11 -9 -20 -13 -20 -4 0 -11 -11 -14 -25 -4 -14 -11 -25 -16 -25 -6 0 -10 -9
-10 -19 0 -11 -6 -26 -13 -33 -7 -7 -16 -20 -19 -29 -4 -11 -21 -16 -62 -17
l-56 -1 0 88 c0 48 -3 90 -6 93 -3 3 -14 4 -25 1 -16 -5 -19 -14 -19 -64 0
-33 -4 -59 -10 -59 -5 0 -10 -18 -10 -40 0 -26 -5 -42 -17 -48 -14 -8 -16 -24
-15 -88 1 -44 6 -80 12 -82 13 -5 13 -42 0 -42 -5 0 -10 -7 -10 -15 0 -8 -7
-15 -15 -15 -8 0 -15 -4 -15 -10 0 -5 -16 -10 -35 -10 -19 0 -35 4 -35 9 0 4
-15 11 -34 14 -21 3 -48 20 -72 43 -30 31 -38 47 -42 86 -2 26 -8 48 -13 48
-5 0 -9 7 -9 15 0 8 4 15 9 15 5 0 11 14 15 31 3 18 18 42 32 56 14 13 28 39
31 61 3 20 10 40 15 43 5 3 11 23 15 45 3 21 11 42 17 46 7 5 5 8 -6 8 -9 0
-19 6 -22 13 -5 9 -7 9 -12 -1 -3 -7 -12 -19 -20 -26 -8 -8 -14 -24 -14 -34 0
-31 -11 -52 -26 -52 -8 0 -22 -9 -31 -20 -10 -11 -28 -20 -40 -20 -20 0 -23
-5 -23 -44 0 -36 -6 -50 -31 -75 -17 -17 -39 -31 -50 -31 -10 0 -19 -4 -19
-10 0 -5 -7 -10 -15 -10 -8 0 -15 4 -15 9 0 5 -12 11 -27 13 -22 2 -29 9 -31
31 -2 15 -8 27 -13 27 -5 0 -9 66 -9 155 0 97 4 155 10 155 14 0 12 37 -2 44
-10 5 -10 7 0 12 6 3 12 11 12 18 0 20 39 46 70 46 17 0 30 -4 30 -9 0 -6 19
-11 43 -13 40 -3 42 -5 45 -36 4 -38 25 -39 31 -1 4 34 16 39 103 39 51 0 78
4 82 13 5 10 7 10 12 0 7 -15 44 -17 44 -3 0 6 5 10 10 10 6 0 10 -7 10 -15 0
-12 12 -14 55 -12 41 1 58 -2 65 -13 8 -13 10 -13 10 2 0 27 29 48 66 48 19 0
34 4 34 9 0 22 105 28 117 7z m-6104 -20 c20 -4 37 -11 37 -16 0 -5 6 -10 13
-13 6 -2 1 -2 -13 0 -14 3 -27 8 -30 13 -3 4 -16 10 -29 11 -14 2 -26 11 -28
19 -3 10 -2 11 4 4 4 -6 25 -14 46 -18z m6552 -104 c0 -68 -4 -105 -12 -110
-6 -4 -15 -20 -18 -35 -4 -15 -11 -27 -16 -27 -5 0 -9 -7 -9 -15 0 -8 -5 -15
-12 -15 -6 0 -31 -21 -56 -46 -33 -35 -53 -47 -80 -50 -38 -5 -79 13 -54 23
15 6 17 153 2 153 -6 0 -10 33 -10 80 0 47 4 80 10 80 15 0 12 30 -2 31 -10 0
-10 2 0 6 6 2 12 11 12 19 0 12 21 14 123 12 l122 -3 0 -103z m-2236 79 c10
-10 22 -30 26 -43 4 -12 13 -26 19 -30 7 -5 11 -67 10 -196 -1 -169 -3 -190
-20 -210 -10 -12 -24 -22 -30 -22 -7 0 -15 -6 -18 -12 -5 -10 -7 -10 -12 0 -3
6 -12 12 -19 12 -13 0 -25 30 -25 68 0 12 -4 22 -10 22 -5 0 -10 9 -10 20 0
11 -7 20 -15 20 -12 0 -15 20 -15 119 0 76 4 121 11 123 5 2 13 23 16 47 6 46
28 81 50 81 7 0 13 5 13 10 0 15 8 12 29 -9z m-4209 -21 c0 -5 18 -13 40 -16
22 -4 40 -10 40 -14 0 -4 9 -10 20 -13 23 -6 27 -27 5 -27 -8 0 -15 4 -15 9 0
5 -13 12 -30 16 -16 4 -30 10 -30 15 0 5 -13 11 -30 15 -31 7 -42 25 -15 25 8
0 15 -4 15 -10z m6084 -232 c3 -13 6 -65 6 -115 0 -55 4 -93 10 -93 6 0 10 -9
10 -20 0 -11 -4 -20 -10 -20 -6 0 -10 -27 -10 -60 0 -33 4 -60 10 -60 6 0 10
-18 10 -40 0 -22 -4 -40 -10 -40 -5 0 -10 -7 -10 -15 0 -8 5 -15 10 -15 6 0
10 -9 10 -20 0 -11 -7 -20 -15 -20 -9 0 -15 -9 -15 -25 0 -16 -6 -25 -15 -25
-8 0 -15 -4 -15 -10 0 -5 -16 -25 -35 -45 -29 -28 -43 -35 -75 -35 -22 0 -40
5 -40 10 0 6 -7 10 -15 10 -8 0 -15 6 -15 14 0 8 -7 16 -15 20 -8 3 -15 12
-15 21 0 8 -4 15 -10 15 -5 0 -10 25 -10 55 0 30 5 55 10 55 6 0 10 33 10 79
0 53 4 84 13 93 8 7 17 26 21 41 3 15 11 27 16 27 6 0 10 7 10 15 0 9 7 18 15
21 8 4 15 12 15 20 0 8 9 22 20 31 11 10 20 23 20 30 0 7 4 13 9 13 5 0 12 11
15 25 4 14 10 25 15 25 5 0 12 14 16 30 8 38 49 43 59 8z m-3027 -124 c12 -3
24 -17 27 -30 4 -13 11 -24 16 -24 6 0 10 -6 10 -13 0 -14 27 -40 53 -50 9 -3
17 -13 17 -22 0 -8 4 -15 10 -15 5 0 12 -11 16 -25 3 -14 10 -25 15 -25 4 0
11 -16 15 -35 3 -19 10 -35 15 -35 4 0 11 -17 15 -37 4 -21 11 -41 17 -44 5
-4 12 -31 15 -60 3 -30 10 -57 16 -61 8 -5 7 -8 -1 -8 -7 0 -13 -7 -13 -15 0
-8 5 -15 10 -15 6 0 10 -11 10 -25 0 -14 -4 -25 -9 -25 -4 0 -11 -33 -13 -74
-6 -85 -16 -101 -73 -112 -21 -4 -48 -17 -60 -30 -29 -31 -75 -37 -75 -9 0 8
-9 23 -20 32 -11 10 -20 23 -20 30 0 7 -4 13 -10 13 -5 0 -10 18 -10 40 0 30
-5 42 -17 47 -29 11 -41 28 -49 68 -4 21 -18 48 -30 60 -13 12 -24 27 -24 34
0 6 -7 11 -15 11 -12 0 -15 13 -15 60 0 47 3 60 15 60 12 0 15 15 15 74 0 48
4 76 12 78 7 3 12 36 14 94 1 49 2 90 3 92 2 4 96 2 118 -4z m3367 -30 c17 -7
22 -34 6 -34 -13 0 -13 -77 0 -82 5 -2 10 -78 12 -179 3 -156 1 -177 -14 -193
-10 -10 -18 -31 -18 -47 0 -16 -4 -29 -9 -29 -6 0 -13 -20 -17 -45 -3 -25 -10
-45 -14 -45 -4 0 -10 -18 -13 -40 -3 -23 -15 -48 -29 -62 -14 -13 -28 -35 -32
-50 -6 -25 -36 -41 -36 -19 0 5 -11 12 -25 15 -15 4 -27 16 -31 31 -3 14 -10
25 -14 25 -4 0 -10 22 -14 49 -4 27 -12 51 -19 54 -20 6 -16 130 6 151 9 10
17 31 17 47 0 16 5 29 10 29 6 0 10 50 10 131 l0 131 54 54 c30 30 57 54 61
54 3 0 20 14 37 30 30 30 44 35 72 24z m-1169 -249 c33 -34 47 -75 25 -75 -15
0 -12 -58 3 -63 26 -9 37 6 37 49 0 34 3 42 15 38 8 -4 15 -12 15 -20 0 -8 9
-14 20 -14 11 0 20 -4 20 -9 0 -5 11 -12 25 -15 14 -4 25 -11 25 -16 0 -6 7
-10 15 -10 9 0 18 -6 21 -14 3 -8 19 -18 35 -21 16 -4 29 -10 29 -15 0 -5 10
-12 22 -16 12 -4 33 -20 47 -35 14 -16 36 -29 48 -29 16 0 25 -8 29 -25 3 -14
10 -25 14 -25 5 0 12 -29 15 -65 4 -36 11 -65 16 -65 5 0 9 -11 9 -25 0 -14
-6 -25 -12 -25 -9 0 -10 -3 -2 -8 6 -4 14 -14 17 -22 3 -8 6 2 6 23 1 20 6 37
11 37 6 0 10 12 11 28 l1 27 10 -30 c6 -16 17 -36 25 -43 7 -7 13 -18 13 -23
0 -6 11 -20 24 -32 14 -13 28 -35 31 -50 4 -15 11 -27 15 -27 5 0 11 -13 15
-29 3 -16 13 -32 21 -35 12 -5 14 -14 9 -38 -4 -18 -11 -35 -15 -38 -5 -3 -12
-18 -15 -33 -6 -21 -4 -27 9 -27 9 0 16 7 16 15 0 8 7 15 15 15 11 0 15 -12
15 -44 0 -39 2 -44 20 -39 17 5 20 0 20 -31 0 -20 5 -36 10 -36 6 0 10 -11 10
-25 0 -21 5 -25 33 -26 56 -2 87 12 87 41 0 6 6 13 14 16 8 3 18 19 21 35 4
16 10 29 15 29 5 0 11 14 15 30 4 17 10 30 15 30 5 0 11 14 15 30 4 17 10 30
15 30 5 0 11 14 15 30 4 17 10 30 15 30 5 0 11 14 15 30 4 17 10 30 15 30 5 0
11 8 14 18 2 9 2 -1 -1 -23 -3 -22 -9 -42 -13 -45 -4 -3 -10 -15 -14 -27 -4
-13 -11 -23 -16 -23 -5 0 -11 -13 -15 -30 -4 -16 -10 -30 -15 -30 -5 0 -11
-13 -15 -30 -4 -16 -10 -30 -15 -30 -5 0 -11 -13 -15 -30 -4 -16 -10 -30 -15
-30 -4 0 -11 -11 -14 -25 -4 -14 -11 -25 -16 -25 -6 0 -10 -7 -10 -15 0 -8 6
-15 13 -15 8 0 9 -2 1 -8 -6 -4 -14 -17 -18 -29 -6 -18 -3 -23 11 -24 10 0 13
-3 6 -6 -7 -2 -13 -11 -13 -19 0 -8 -7 -14 -15 -14 -8 0 -15 -4 -15 -10 0 -5
-8 -10 -17 -11 -11 0 -13 -3 -5 -6 6 -2 12 -17 12 -33 0 -16 7 -35 15 -44 8
-8 15 -26 15 -39 0 -20 6 -27 30 -32 17 -4 30 -10 30 -15 0 -4 16 -11 35 -14
19 -4 35 -11 35 -15 0 -5 11 -12 25 -15 14 -4 25 -11 25 -16 0 -13 -17 -13
-22 1 -2 5 -22 13 -46 16 -23 3 -42 10 -42 14 0 5 -34 9 -75 9 -43 0 -75 -4
-75 -10 0 -5 -8 -11 -17 -11 -16 -1 -16 -2 0 -6 14 -4 17 -11 13 -29 -5 -20
-3 -24 16 -24 39 0 68 -12 68 -26 0 -8 -4 -14 -9 -14 -5 0 -11 -18 -15 -40
l-6 -40 -60 0 -60 0 0 -35 c0 -19 -4 -35 -9 -35 -5 0 -12 -34 -16 -75 -4 -41
-11 -75 -16 -75 -5 0 -9 -13 -9 -29 0 -16 -7 -36 -15 -45 -8 -8 -15 -18 -15
-23 0 -5 -9 -16 -20 -26 -11 -9 -20 -24 -20 -32 0 -8 -4 -15 -9 -15 -5 0 -11
-18 -15 -40 -3 -22 -10 -40 -15 -40 -5 0 -12 -13 -16 -30 -4 -16 -10 -30 -14
-30 -4 0 -13 -18 -20 -40 -6 -22 -16 -40 -21 -40 -6 0 -10 -7 -10 -15 0 -9 -6
-18 -14 -21 -8 -3 -17 -16 -20 -30 -4 -13 -11 -24 -16 -24 -6 0 -10 -6 -10
-14 0 -8 -14 -18 -32 -22 -18 -3 -50 -24 -70 -45 -21 -22 -42 -39 -47 -39 -5
0 -16 -7 -24 -15 -8 -7 -26 -17 -41 -21 l-26 -6 -2 238 c-2 342 0 408 12 412
5 2 10 10 10 18 0 8 9 22 20 31 11 10 20 23 20 30 0 7 4 13 9 13 5 0 12 34 16
75 4 41 10 75 15 75 4 0 11 33 15 72 3 40 11 76 16 79 15 9 15 109 1 118 -8 5
-15 50 -19 119 -3 62 -10 112 -15 112 -4 0 -8 14 -8 30 0 17 -6 33 -14 36 -8
3 -17 16 -20 30 -4 13 -10 24 -15 24 -5 0 -12 13 -16 29 -3 16 -13 32 -21 35
-8 3 -14 10 -14 16 0 12 -9 24 -52 71 -16 16 -28 34 -28 39 0 13 -60 70 -75
70 -7 0 -15 7 -19 15 -3 8 -15 15 -26 15 -12 0 -31 10 -43 23 -12 13 -30 26
-39 30 -16 6 -18 23 -18 165 0 87 3 207 7 265 l6 107 33 0 c25 0 42 -9 69 -35z
m-2325 -305 c0 -5 -4 -10 -10 -10 -5 0 -10 5 -10 10 0 6 5 10 10 10 6 0 10 -4
10 -10z m33 -64 c4 -10 1 -13 -9 -9 -15 6 -19 23 -5 23 5 0 11 -7 14 -14z
m-2847 -71 c8 -33 1 -40 -20 -20 -10 10 -40 19 -76 22 -85 8 -75 23 15 23 72
0 75 -1 81 -25z m6252 -99 c-7 -8 -15 -12 -17 -11 -5 6 10 25 20 25 5 0 4 -6
-3 -14z m2420 -30 c-7 -8 -15 -12 -17 -11 -5 6 10 25 20 25 5 0 4 -6 -3 -14z
m-2438 -6 c0 -5 -4 -10 -10 -10 -5 0 -10 5 -10 10 0 6 5 10 10 10 6 0 10 -4
10 -10z m-283 -145 c8 -9 14 -17 12 -19 -10 -9 -139 -11 -139 -3 0 34 98 50
127 22z m-2891 -59 c3 -14 4 -33 1 -43 -3 -12 -5 -9 -6 10 0 15 -5 27 -11 27
-5 0 -10 7 -10 15 0 24 19 17 26 -9z m-126 -381 c0 -8 -4 -15 -10 -15 -5 0
-10 7 -10 15 0 8 5 15 10 15 6 0 10 -7 10 -15z m3338 -58 c2 -26 7 -47 13 -47
5 0 9 -7 9 -15 0 -8 -7 -15 -15 -15 -10 0 -15 11 -15 35 0 19 -4 35 -10 35 -5
0 -10 14 -10 31 0 50 25 29 28 -24z m-3362 -63 c-3 -8 -11 -14 -18 -13 -10 0
-10 2 0 6 6 2 13 23 14 46 1 39 2 39 5 9 3 -19 2 -40 -1 -48z m-1736 -54 c0
-5 -4 -10 -10 -10 -5 0 -10 5 -10 10 0 6 5 10 10 10 6 0 10 -4 10 -10z m578
-271 c2 -5 9 -9 16 -9 6 0 19 -9 29 -20 9 -11 12 -20 7 -20 -6 0 -13 6 -16 14
-3 8 -17 17 -31 21 -14 3 -33 13 -41 22 -15 14 -14 15 8 8 14 -4 27 -12 28
-16z m-2065 -40 c23 0 36 -3 30 -6 -18 -7 -16 -23 2 -23 8 0 15 5 15 10 0 6
11 10 25 10 14 0 25 -4 25 -10 0 -5 13 -10 29 -10 24 0 29 -5 35 -31 3 -17 6
-44 6 -60 0 -16 5 -29 10 -29 6 0 10 -7 10 -15 0 -10 -10 -15 -30 -15 -16 0
-30 4 -30 9 0 5 -25 13 -56 17 -63 7 -94 27 -94 60 0 12 -7 24 -15 28 -8 3
-15 12 -15 21 0 8 -4 15 -10 15 -5 0 -10 5 -10 10 0 15 24 40 28 29 2 -5 22
-9 45 -10z m3404 -5 c-3 -3 -12 -4 -19 -1 -8 3 -5 6 6 6 11 1 17 -2 13 -5z
m-1363 -19 c3 -9 0 -15 -9 -15 -8 0 -15 7 -15 15 0 8 4 15 9 15 5 0 11 -7 15
-15z m132 0 c16 -16 7 -19 -20 -9 -18 7 -22 24 -5 24 6 0 17 -7 25 -15z m-16
-25 c0 -5 -4 -10 -10 -10 -5 0 -10 5 -10 10 0 6 5 10 10 10 6 0 10 -4 10 -10z
m-2390 -30 c0 -5 -4 -10 -10 -10 -5 0 -10 5 -10 10 0 6 5 10 10 10 6 0 10 -4
10 -10z m9660 -24 c0 -8 -7 -16 -15 -20 -8 -3 -15 -12 -15 -21 0 -8 -4 -15 -9
-15 -5 0 -12 -13 -16 -30 -4 -16 -11 -30 -16 -30 -5 0 -9 -7 -9 -15 0 -8 -7
-15 -15 -15 -8 0 -15 -4 -15 -9 0 -4 -26 -11 -57 -14 -32 -3 -75 -9 -95 -13
-34 -6 -38 -4 -38 15 0 11 5 21 10 21 6 0 10 12 10 28 0 42 11 72 26 72 8 0
14 4 14 9 0 5 27 12 60 16 33 4 60 11 60 15 0 5 24 11 53 13 28 2 55 4 60 5 4
1 7 -4 7 -12z m-8940 -5 c0 -5 25 -12 57 -16 31 -4 62 -13 69 -20 8 -7 18 -15
23 -17 5 -1 13 -32 17 -67 l7 -64 -34 7 c-19 4 -61 10 -93 13 -46 5 -65 12
-83 31 -13 14 -23 31 -23 38 0 8 -4 14 -9 14 -5 0 -12 14 -16 30 -4 17 -11 30
-16 30 -5 0 -9 7 -9 15 0 12 13 15 55 15 30 0 55 -4 55 -9z m8330 -96 c0 -8
-4 -15 -10 -15 -5 0 -10 -6 -10 -13 0 -8 -9 -24 -20 -37 -11 -13 -20 -29 -20
-37 0 -7 -4 -13 -10 -13 -5 0 -12 -11 -16 -24 -5 -22 -11 -23 -117 -29 -62 -4
-113 -11 -115 -17 -2 -5 -23 -10 -47 -10 l-43 0 -7 55 c-3 30 -11 55 -16 55
-16 0 -10 38 7 44 9 3 46 6 84 6 39 0 70 5 72 10 2 6 50 14 111 17 59 3 107
10 107 15 0 4 11 8 25 8 16 0 25 -6 25 -15z m-1540 -55 c0 -5 -4 -10 -10 -10
-5 0 -10 5 -10 10 0 6 5 10 10 10 6 0 10 -4 10 -10z m2270 -69 c0 -12 -21 -19
-37 -13 -22 8 -14 22 12 22 14 0 25 -4 25 -9z m-30 -26 c0 -11 -144 -145 -156
-145 -8 0 -14 -6 -14 -14 0 -19 -57 -76 -76 -76 -22 0 -17 28 7 35 11 4 44 31
74 61 29 30 57 54 61 54 5 0 27 20 49 44 36 40 55 54 55 41z m-6570 -36 c0
-14 -17 -10 -23 5 -4 10 -1 13 9 9 7 -3 14 -9 14 -14z m-2730 1 c0 -5 -11 -10
-25 -10 -14 0 -25 5 -25 10 0 6 11 10 25 10 14 0 25 -4 25 -10z m9400 0 c0 -5
-9 -10 -20 -10 -11 0 -20 5 -20 10 0 6 9 10 20 10 11 0 20 -4 20 -10z m-63
-16 c-3 -3 -12 -4 -19 -1 -8 3 -5 6 6 6 11 1 17 -2 13 -5z m-4333 -31 c-4 -16
-10 -30 -14 -33 -4 -3 -10 -15 -14 -27 -4 -13 -11 -23 -16 -23 -5 0 -11 -13
-15 -29 -4 -18 -14 -31 -28 -35 -32 -8 -460 -7 -474 2 -6 4 -15 20 -18 35 -4
15 -11 27 -16 27 -5 0 -9 6 -9 14 0 8 -7 21 -15 29 -7 8 -17 26 -21 41 l-6 26
326 0 326 0 -6 -27z m-4849 -64 c11 -16 1 -19 -13 -3 -7 8 -8 14 -3 14 5 0 13
-5 16 -11z m8239 -393 c-3 -8 -12 -17 -20 -20 -8 -3 -14 -12 -14 -21 0 -8 -7
-15 -15 -15 -21 0 -19 4 16 39 34 34 41 38 33 17z"/>
<path d="M23870 13500 c0 -5 5 -10 10 -10 6 0 10 5 10 10 0 6 -4 10 -10 10 -5
0 -10 -4 -10 -10z"/>
<path d="M23870 13470 c0 -5 5 -10 10 -10 6 0 10 5 10 10 0 6 -4 10 -10 10 -5
0 -10 -4 -10 -10z"/>
<path d="M23930 13415 c0 -8 5 -15 10 -15 6 0 10 7 10 15 0 8 -4 15 -10 15 -5
0 -10 -7 -10 -15z"/>
<path d="M23960 13410 c0 -12 32 -50 42 -50 14 0 8 20 -12 40 -22 22 -30 25
-30 10z"/>
<path d="M24020 13356 c0 -9 7 -16 16 -16 9 0 14 5 12 12 -6 18 -28 21 -28 4z"/>
<path d="M23807 13143 c3 -7 16 -16 28 -19 13 -3 26 -12 29 -20 7 -19 26 -18
26 1 0 8 -4 15 -10 15 -5 0 -10 6 -10 14 0 8 -14 15 -34 18 -25 3 -32 0 -29
-9z"/>
<path d="M26140 11630 c0 -5 5 -10 10 -10 6 0 10 5 10 10 0 6 -4 10 -10 10 -5
0 -10 -4 -10 -10z"/>
<path d="M26028 10303 c7 -3 16 -2 19 1 4 3 -2 6 -13 5 -11 0 -14 -3 -6 -6z"/>
<path d="M26020 10260 c0 -5 5 -10 10 -10 6 0 10 5 10 10 0 6 -4 10 -10 10 -5
0 -10 -4 -10 -10z"/>
<path d="M26170 10020 c0 -5 4 -10 9 -10 5 0 12 -10 14 -22 3 -17 5 -14 6 10
1 22 -3 32 -14 32 -8 0 -15 -4 -15 -10z"/>
<path d="M19800 13415 c0 -8 7 -15 15 -15 8 0 15 7 15 15 0 8 -7 15 -15 15 -8
0 -15 -7 -15 -15z"/>
<path d="M20350 13411 c0 -5 10 -11 23 -15 33 -9 37 -8 37 9 0 10 -10 15 -30
15 -16 0 -30 -4 -30 -9z"/>
<path d="M19498 13393 c6 -2 18 -2 25 0 6 3 1 5 -13 5 -14 0 -19 -2 -12 -5z"/>
<path d="M29560 11660 c0 -5 5 -10 10 -10 6 0 10 5 10 10 0 6 -4 10 -10 10 -5
0 -10 -4 -10 -10z"/>
<path d="M29520 11637 c0 -20 -16 -23 -23 -4 -3 7 -6 5 -6 -5 -1 -10 6 -18 14
-18 17 0 32 27 21 37 -3 4 -6 -1 -6 -10z"/>
<path d="M18930 11140 c0 -5 5 -10 10 -10 6 0 10 5 10 10 0 6 -4 10 -10 10 -5
0 -10 -4 -10 -10z"/>
<path d="M18990 10930 c0 -5 5 -10 10 -10 6 0 10 5 10 10 0 6 -4 10 -10 10 -5
0 -10 -4 -10 -10z"/>
<path d="M19011 10864 c0 -11 3 -14 6 -6 3 7 2 16 -1 19 -3 4 -6 -2 -5 -13z"/>
<path d="M19020 10810 c0 -11 5 -20 10 -20 6 0 10 9 10 20 0 11 -4 20 -10 20
-5 0 -10 -9 -10 -20z"/>
<path d="M29740 10780 c0 -5 14 -10 30 -10 17 0 30 5 30 10 0 6 -13 10 -30 10
-16 0 -30 -4 -30 -10z"/>
<path d="M29030 10756 c0 -8 -7 -16 -15 -20 -8 -3 -15 -12 -15 -21 0 -8 -4
-15 -10 -15 -5 0 -10 -7 -10 -15 0 -16 18 -20 36 -7 11 7 29 92 19 92 -3 0 -5
-6 -5 -14z"/>
<path d="M20680 10691 c0 -10 19 -25 25 -20 1 2 -3 10 -11 17 -8 7 -14 8 -14
3z"/>
<path d="M19191 10204 c0 -11 3 -14 6 -6 3 7 2 16 -1 19 -3 4 -6 -2 -5 -13z"/>
<path d="M19200 10165 c0 -8 5 -15 10 -15 6 0 10 7 10 15 0 8 -4 15 -10 15 -5
0 -10 -7 -10 -15z"/>
<path d="M22410 8901 c0 -12 4 -21 9 -21 5 0 12 -13 16 -29 l6 -28 137 2 c202
4 202 4 202 14 0 5 -13 11 -30 15 -16 3 -30 12 -30 19 0 10 -18 13 -66 14 -37
0 -69 5 -73 11 -3 5 -43 13 -88 17 -80 7 -83 6 -83 -14z"/>
<path d="M29112 8804 c-7 -8 -8 -14 -3 -14 10 0 25 19 20 25 -2 1 -10 -3 -17
-11z"/>
<path d="M27830 8570 c0 -5 5 -10 10 -10 6 0 10 5 10 10 0 6 -4 10 -10 10 -5
0 -10 -4 -10 -10z"/>
<path d="M27173 8485 c-17 -19 -34 -43 -38 -54 -3 -12 -11 -21 -16 -21 -5 0
-9 -6 -9 -13 0 -7 -9 -20 -20 -30 -21 -18 -27 -47 -10 -47 15 0 47 35 55 59 3
12 11 21 16 21 5 0 9 6 9 13 0 7 9 20 20 30 11 9 20 23 20 31 0 8 7 16 15 20
8 3 15 10 15 16 0 19 -25 8 -57 -25z"/>
<path d="M26979 8450 c-7 -22 -16 -40 -20 -40 -4 0 -10 -13 -14 -29 -3 -16
-13 -32 -21 -35 -20 -8 -18 -36 4 -36 27 0 38 12 51 53 7 20 16 37 21 37 5 0
11 14 15 30 4 17 11 30 16 30 5 0 9 7 9 15 0 9 -9 15 -25 15 -20 0 -26 -7 -36
-40z"/>
<path d="M27701 8439 c-33 -33 -40 -59 -16 -59 8 0 17 11 21 25 3 14 10 25 14
25 4 0 10 9 13 20 7 26 4 25 -32 -11z"/>
</g>
</svg>
