<?xml version="1.0" standalone="no"?>
<!DOCTYPE svg PUBLIC "-//W3C//DTD SVG 20010904//EN"
 "http://www.w3.org/TR/2001/REC-SVG-20010904/DTD/svg10.dtd">
<svg version="1.0" xmlns="http://www.w3.org/2000/svg"
 width="977.000000pt" height="648.000000pt" viewBox="0 0 977.000000 648.000000"
 preserveAspectRatio="xMidYMid meet">
<metadata>
Created by potrace 1.16, written by Peter Selinger 2001-2019
</metadata>
<g transform="translate(0.000000,648.000000) scale(0.100000,-0.100000)"
fill="#000000" stroke="none">
<path d="M3160 2665 l0 -45 183 -1 c100 -1 171 -4 158 -6 -33 -6 -71 -32 -71
-48 0 -7 7 -18 15 -25 8 -7 15 -21 15 -31 0 -11 -7 -19 -15 -19 -17 0 -19 -27
-5 -64 5 -15 17 -26 28 -26 10 0 37 -9 60 -20 22 -11 47 -20 54 -20 7 0 35
-11 63 -24 80 -38 167 -70 210 -76 26 -3 40 -10 40 -20 0 -10 12 -16 33 -18
26 -3 32 -8 32 -27 0 -13 3 -30 6 -38 3 -10 -2 -18 -16 -22 -17 -5 -21 -13
-17 -31 4 -21 1 -24 -29 -24 -19 0 -34 -5 -34 -10 0 -15 -49 22 -50 37 0 6
-20 23 -44 37 -37 22 -49 24 -72 16 -25 -10 -26 -14 -21 -53 3 -24 19 -81 34
-128 15 -46 28 -89 28 -94 0 -6 18 -28 40 -49 22 -21 35 -35 29 -32 -7 3 -17
0 -23 -8 -8 -10 -5 -15 15 -24 14 -7 31 -12 39 -12 8 0 15 -8 16 -17 0 -10 27
-40 61 -68 33 -27 66 -55 73 -62 8 -8 62 -14 145 -18 73 -3 140 -10 150 -15
32 -17 39 -12 33 25 l-5 34 32 -12 c18 -7 44 -29 59 -49 26 -38 44 -45 70 -29
12 8 13 16 3 49 -16 53 -17 52 26 52 34 -1 39 -4 61 -50 22 -46 41 -64 41 -40
0 10 -2 14 -39 86 -11 23 -21 50 -21 60 0 36 26 -8 50 -83 24 -79 44 -98 34
-33 l-7 41 76 -45 c75 -45 77 -45 164 -44 65 0 107 7 163 25 64 22 84 34 143
91 l67 66 0 -45 0 -46 41 -7 40 -6 -22 -31 c-11 -16 -19 -32 -16 -35 14 -14
61 13 89 52 17 24 33 44 35 44 2 0 17 -7 34 -15 27 -14 28 -17 14 -31 -8 -9
-15 -20 -15 -25 0 -11 43 -12 54 -2 4 5 56 13 114 20 106 12 107 12 144 52 36
39 38 39 38 15 0 -22 2 -24 23 -13 37 19 78 62 66 70 -16 10 5 37 67 87 59 47
108 133 120 213 4 24 13 49 19 54 7 6 10 28 7 58 -3 37 -7 47 -19 43 -8 -3
-29 -6 -48 -6 -28 0 -37 -7 -65 -47 l-33 -48 -93 3 c-86 3 -117 14 -79 28 8 4
15 12 15 19 0 7 10 31 22 54 17 33 26 39 43 35 16 -4 28 2 43 20 13 17 30 26
48 26 16 0 77 19 137 42 82 32 107 46 107 60 0 15 8 18 59 18 72 0 73 2 70
128 -1 71 2 96 12 103 8 5 78 9 157 9 l142 0 0 45 0 45 -1725 0 -1725 0 0 -45z
m1634 -547 c11 -44 6 -77 -14 -88 -11 -6 -31 -30 -45 -55 -28 -47 -34 -102
-16 -148 11 -30 18 -144 8 -153 -3 -3 -14 -1 -25 5 -12 6 -32 11 -46 11 -14 0
-26 2 -26 4 0 2 -3 11 -6 20 -4 12 0 16 15 16 12 0 21 3 21 6 0 16 -23 44 -36
44 -12 0 -13 4 -3 22 9 17 9 24 -5 33 -10 8 -14 19 -9 30 4 11 2 16 -4 12 -5
-3 -9 8 -9 28 1 19 6 35 12 35 14 0 26 28 18 41 -3 5 2 12 10 15 9 3 16 11 16
18 0 6 9 22 20 36 11 14 20 33 20 44 0 12 5 16 15 12 17 -6 65 13 65 26 0 18
18 7 24 -14z m226 -6 c25 -5 61 -32 68 -50 3 -9 14 -25 23 -36 10 -10 21 -32
24 -48 4 -16 14 -32 23 -36 11 -4 18 -20 18 -39 1 -20 -2 -30 -8 -27 -6 4 -8
-1 -4 -14 4 -13 1 -22 -9 -26 -8 -3 -15 -12 -15 -21 0 -23 -45 -107 -68 -128
-12 -11 -26 -16 -31 -12 -16 9 -13 97 4 138 8 20 15 53 15 74 0 46 -33 116
-65 137 -26 17 -31 47 -18 95 5 20 8 21 17 10 6 -8 18 -15 26 -17z"/>
</g>
</svg>
