<?xml version="1.0" standalone="no"?>
<!DOCTYPE svg PUBLIC "-//W3C//DTD SVG 20010904//EN"
 "http://www.w3.org/TR/2001/REC-SVG-20010904/DTD/svg10.dtd">
<svg version="1.0" xmlns="http://www.w3.org/2000/svg"
 width="738.000000pt" height="648.000000pt" viewBox="0 0 738.000000 648.000000"
 preserveAspectRatio="xMidYMid meet">
<metadata>
Created by potrace 1.16, written by Peter Selinger 2001-2019
</metadata>
<g transform="translate(0.000000,648.000000) scale(0.100000,-0.100000)"
fill="#000000" stroke="none">
<path d="M3420 3516 c0 -3 4 -16 10 -30 l10 -26 255 0 c213 0 255 2 255 14 0
8 3 21 6 30 6 14 -22 16 -265 16 -149 0 -271 -2 -271 -4z"/>
<path d="M2510 2664 c0 -32 7 -69 16 -87 9 -18 21 -40 25 -49 5 -10 9 -35 9
-57 0 -34 4 -40 28 -49 l29 -10 6 -158 c4 -88 7 -252 7 -366 0 -132 4 -208 10
-208 6 0 10 82 10 227 l0 226 35 -36 c20 -21 50 -44 68 -53 68 -35 67 -31 67
-210 0 -156 -1 -165 -25 -208 -14 -25 -25 -54 -25 -66 0 -12 -4 -29 -9 -38 -5
-10 -5 -27 0 -41 9 -24 10 -24 28 -5 10 11 22 42 27 70 8 41 9 27 12 -89 2
-121 5 -138 18 -133 9 3 17 6 20 6 2 0 1 74 -3 164 l-6 165 55 53 c31 30 77
63 105 75 l50 21 7 -97 c3 -53 6 -164 6 -248 l0 -151 -31 -26 c-17 -14 -34
-26 -39 -26 -5 0 -28 -13 -52 -29 -24 -15 -84 -50 -135 -77 -86 -46 -94 -53
-120 -104 -22 -44 -35 -57 -62 -66 -32 -10 -38 -18 -63 -89 -37 -104 -37 -153
1 -192 27 -28 34 -30 127 -35 88 -5 102 -4 123 13 29 23 113 26 155 4 15 -8
52 -15 82 -15 29 0 56 -4 59 -10 3 -5 27 -10 53 -10 37 0 62 9 117 41 39 23
95 54 126 70 l57 28 7 -197 c9 -223 4 -272 -49 -507 -9 -38 -16 -73 -16 -77 0
-5 57 -8 128 -8 l127 1 -37 34 -38 35 58 -1 c79 -2 131 10 156 35 l21 21 5
-38 5 -38 33 29 33 30 -11 78 c-12 87 -14 674 -2 685 4 3 79 30 166 59 155 51
160 52 190 36 17 -9 39 -21 48 -28 13 -10 32 -8 95 8 l78 20 5 63 c4 51 10 67
30 83 23 19 24 19 31 1 3 -10 9 -40 13 -66 8 -54 10 -54 74 -13 34 21 43 35
57 82 l16 57 37 -36 37 -36 47 32 47 32 0 159 c0 148 -2 159 -20 163 -15 4
-19 14 -19 45 0 30 -5 41 -17 44 -20 6 -20 0 -5 650 l8 312 27 41 c23 34 27
51 25 89 l-3 47 -120 2 c-66 1 -114 -1 -107 -3 14 -6 17 -34 3 -34 -5 0 -10
-57 -11 -127 -1 -71 -5 -146 -10 -168 l-8 -40 -1 38 c-1 24 -6 37 -15 37 -26
0 -40 31 -38 85 1 29 -2 65 -8 80 -13 34 -8 41 14 20 12 -12 16 -36 16 -90 0
-49 4 -74 13 -78 11 -4 15 94 9 238 l-2 40 -52 0 -53 0 -6 -55 c-21 -180 -37
-337 -38 -384 -1 -14 -6 -17 -22 -13 -15 4 -19 2 -15 -8 3 -8 -3 -17 -15 -20
-15 -5 -19 -14 -17 -33 2 -15 9 -26 16 -24 6 1 12 -3 12 -9 0 -6 -7 -9 -15 -5
-12 4 -14 -2 -12 -28 1 -26 6 -32 20 -28 19 5 22 -5 7 -28 -9 -13 -10 -13 -10
0 -1 8 -5 5 -11 -8 -5 -13 -13 -21 -18 -17 -6 3 -8 12 -4 20 7 19 -2 19 -21
-1 -9 -8 -20 -13 -24 -10 -5 3 -12 117 -16 253 -3 136 -9 268 -14 293 -6 42
-9 45 -39 48 l-33 3 0 -109 c0 -102 2 -111 23 -126 21 -15 20 -16 -10 -1 -33
15 -33 16 -33 87 0 53 -4 76 -17 90 -16 18 -16 18 0 12 13 -5 17 0 17 21 0 20
-4 26 -17 23 -15 -3 -18 -16 -21 -78 -2 -67 -5 -77 -25 -85 -13 -6 -23 -21
-25 -37 -3 -24 0 -28 22 -28 19 0 26 -5 26 -19 0 -20 -18 -31 -51 -31 -18 0
-19 8 -19 109 0 60 -3 123 -6 140 l-7 32 -191 -2 c-105 -1 -210 -4 -233 -6
l-42 -5 -4 -147 -3 -146 -2 148 -2 147 -50 0 -50 0 0 -91 c0 -57 -4 -88 -10
-84 -5 3 -10 1 -10 -4 0 -6 5 -11 10 -11 6 0 10 -40 10 -101 0 -86 -2 -100
-15 -95 -10 3 -15 -1 -15 -11 0 -9 -3 -13 -7 -9 -5 4 -10 96 -13 204 l-5 197
-72 3 -73 3 -1 -58 c0 -32 -4 -80 -9 -108 -6 -42 -8 -33 -9 58 l-1 108 -32 -3
c-29 -3 -33 -8 -46 -53 -7 -28 -16 -126 -19 -227 l-5 -178 25 -9 c14 -6 37
-27 51 -47 l25 -37 5 34 c3 19 7 52 9 74 2 22 5 7 6 -35 2 -63 18 -144 20
-101 1 10 11 12 39 7 86 -15 87 -15 90 29 4 67 11 85 32 85 18 0 20 -7 20 -73
0 -41 3 -77 7 -80 3 -4 16 -1 29 8 20 13 21 13 17 -5 -3 -11 -14 -22 -24 -25
-33 -11 -21 -23 15 -15 18 4 38 10 42 13 5 3 11 45 12 94 2 48 6 90 8 92 2 2
5 -45 5 -105 1 -60 2 -119 2 -131 1 -16 7 -23 21 -24 20 0 20 -1 -1 -11 -13
-6 -23 -18 -23 -27 -1 -15 -1 -15 -10 0 -7 12 -18 15 -47 10 -35 -6 -39 -9
-47 -48 -6 -24 -16 -44 -25 -46 -10 -3 -7 -5 7 -6 21 -1 22 -4 22 -98 l0 -96
-31 42 c-27 38 -30 49 -28 109 1 72 -8 122 -22 122 -5 0 -9 -4 -9 -9 0 -4 -27
-7 -60 -7 -54 2 -60 0 -61 -19 0 -15 -4 -12 -12 12 -15 38 -27 52 -27 30 0
-19 -22 -22 -50 -7 -15 8 -19 5 -24 -16 -4 -14 -4 -29 -1 -34 4 -6 -5 -10 -18
-10 -14 0 -39 -3 -56 -6 -42 -9 -41 13 2 24 l32 9 -32 7 c-28 6 -33 12 -33 37
0 20 -5 29 -16 29 -28 0 -86 32 -76 42 6 6 17 6 30 -1 26 -14 32 -14 32 1 0 6
-3 8 -6 5 -10 -10 -45 13 -38 24 3 6 12 8 20 5 28 -11 13 5 -18 20 -27 12 -29
14 -8 11 14 -3 34 -8 45 -12 16 -5 15 -3 -5 13 -13 11 -28 18 -32 16 -4 -3 -5
2 -2 11 6 14 9 14 23 2 36 -31 47 -33 29 -5 -16 25 -16 26 4 31 20 6 21 9 15
179 -3 95 -10 198 -15 228 -6 30 -13 76 -17 103 l-6 47 -93 0 -93 0 -7 -31
c-3 -17 -6 -53 -6 -80 0 -63 -18 -64 -23 -1 -3 37 -4 32 -5 -23 -2 -74 -12
-95 -46 -95 -20 0 -20 1 2 16 19 13 22 24 22 83 0 44 5 74 15 87 30 39 21 44
-90 44 -63 0 -105 4 -105 10 0 6 42 10 105 10 79 0 105 3 105 13 0 32 -24 37
-167 37 l-143 0 0 -56z m1643 -509 c-2 -64 -7 -124 -13 -135 -7 -13 -6 -20 3
-23 6 -3 -3 -6 -20 -6 l-33 -1 0 115 c0 74 4 115 11 115 5 0 7 5 4 10 -9 14
13 40 34 40 14 0 16 -14 14 -115z m591 -233 c-8 -271 -6 -264 -61 -254 -14 3
-23 12 -23 23 0 11 -3 19 -7 19 -5 0 -6 23 -5 50 2 28 0 58 -4 68 -6 11 -10
-8 -14 -58 l-6 -75 -2 92 c-1 50 -5 98 -8 107 -3 9 -1 16 5 16 6 0 10 -3 10
-7 -4 -25 2 -53 11 -48 6 3 10 50 10 103 l1 97 39 43 c31 35 39 40 43 25 3
-10 5 0 6 21 0 22 3 37 6 34 3 -3 2 -118 -1 -256z m-154 -65 l0 -163 -26 -2
c-20 -1 -37 9 -71 45 l-43 48 4 70 c3 69 4 70 41 90 21 11 50 32 64 48 14 15
27 27 28 27 2 0 3 -73 3 -163z m-1621 43 c24 -11 51 -20 60 -20 9 0 22 -4 30
-9 10 -7 2 -14 -31 -28 -52 -24 -144 -88 -158 -111 -6 -12 -9 22 -10 105 l0
123 33 -20 c17 -10 52 -28 76 -40z m278 -91 c27 -9 31 -16 37 -62 11 -94 7
-377 -5 -377 -7 0 -17 -7 -24 -16 -8 -12 -20 -15 -38 -10 l-27 6 0 235 c0 255
-3 245 57 224z m1022 5 l31 -6 0 -94 c0 -93 0 -94 -24 -94 -53 0 -56 5 -56
106 0 52 4 94 9 94 5 0 23 -3 40 -6z m-871 -82 l42 -33 0 -90 c0 -72 -3 -89
-15 -89 -8 0 -15 -7 -15 -15 0 -8 8 -15 19 -15 14 0 17 -6 14 -24 -4 -18 -20
-32 -59 -50 -30 -14 -59 -26 -64 -26 -6 0 -10 77 -10 200 l0 200 23 -12 c12
-7 41 -28 65 -46z m672 -26 c0 -96 5 -91 -106 -101 -32 -3 -67 -8 -76 -11 -12
-4 -18 0 -18 10 0 9 5 16 10 16 6 0 10 6 10 14 0 26 139 151 173 155 4 1 7
-37 7 -83z m405 -126 c41 0 82 -17 89 -37 4 -8 -9 -33 -29 -56 -34 -40 -45
-67 -25 -67 5 0 29 6 52 13 24 8 58 13 76 12 17 -2 41 -3 52 -4 33 -2 23 -24
-29 -61 -27 -19 -47 -38 -44 -42 2 -5 -6 -8 -19 -8 -33 0 -159 -55 -170 -73
-4 -9 -23 -20 -42 -27 -19 -6 -39 -22 -47 -38 l-13 -27 -4 33 c-2 17 -8 32
-13 32 -12 0 -109 -49 -109 -55 0 -2 23 -1 50 2 155 18 -79 -132 -317 -203
-65 -20 -93 -33 -96 -46 -3 -10 -10 -18 -17 -18 -6 0 -8 5 -4 11 7 12 -99 5
-166 -11 -19 -4 -68 -11 -109 -15 -93 -8 -184 -37 -240 -75 -51 -35 -157 -70
-210 -70 -57 0 -108 18 -131 47 -19 25 -24 26 -117 25 -54 -1 -113 -4 -132 -8
-31 -6 -32 -5 -22 14 6 12 33 34 59 48 48 28 227 167 239 187 4 7 -2 8 -18 2
-13 -4 -45 -8 -71 -9 -37 -1 -44 1 -36 11 13 16 165 93 184 93 7 0 26 12 41
26 34 32 84 55 98 45 6 -5 25 -4 43 1 25 7 32 14 32 33 0 21 15 32 123 84 113
55 177 77 177 62 0 -3 -13 -12 -30 -19 -33 -15 -42 -58 -15 -68 8 -4 15 -17
15 -29 0 -20 -16 -31 -102 -73 -64 -30 -128 -71 -170 -107 -59 -50 -68 -62
-68 -91 0 -36 19 -47 27 -15 7 27 28 33 60 16 36 -19 112 -19 160 0 21 8 56
16 78 19 52 6 152 34 189 53 22 12 26 17 15 24 -8 5 -9 9 -4 9 6 1 30 5 55 11
25 5 55 11 67 13 67 12 243 112 243 139 0 10 -4 15 -10 12 -13 -8 -13 8 -1 21
5 5 11 20 13 34 l3 25 -110 0 c-60 0 -123 4 -138 9 -24 7 -28 13 -25 39 3 26
9 33 43 45 22 8 67 26 100 42 124 57 236 79 306 60 29 -8 44 -8 53 0 8 6 20 8
28 5 7 -3 32 -2 53 3 22 4 42 5 43 0 2 -4 19 -8 37 -8z m-635 -1379 c0 -79 -7
-84 -117 -75 l-88 8 60 8 c81 11 90 16 29 17 -61 1 -141 27 -153 50 -8 14 2
16 105 16 95 0 116 3 131 18 28 27 33 21 33 -42z"/>
<path d="M3544 2713 c-21 -3 -34 -11 -37 -24 -5 -17 0 -19 43 -19 43 0 48 2
43 20 -3 11 0 20 6 20 6 0 11 -9 11 -20 0 -19 7 -20 235 -20 233 0 236 0 225
20 -8 16 -21 20 -58 20 -26 1 -135 2 -242 4 -107 2 -209 2 -226 -1z"/>
</g>
</svg>
