<?xml version="1.0" standalone="no"?>
<!DOCTYPE svg PUBLIC "-//W3C//DTD SVG 20010904//EN"
 "http://www.w3.org/TR/2001/REC-SVG-20010904/DTD/svg10.dtd">
<svg version="1.0" xmlns="http://www.w3.org/2000/svg"
 width="1024.000000pt" height="648.000000pt" viewBox="0 0 1024.000000 648.000000"
 preserveAspectRatio="xMidYMid meet">
<metadata>
Created by potrace 1.16, written by Peter Selinger 2001-2019
</metadata>
<g transform="translate(0.000000,648.000000) scale(0.100000,-0.100000)"
fill="#000000" stroke="none">
<path d="M3852 3028 c-7 -7 -12 -21 -12 -32 0 -41 15 -50 90 -53 43 -1 68 2
65 7 -4 6 85 10 239 10 152 0 247 -4 251 -10 9 -14 75 -12 105 3 28 14 38 51
20 73 -14 16 -160 21 -160 5 0 -11 -429 -11 -436 1 -8 13 -148 10 -162 -4z"/>
<path d="M5632 3028 c-14 -14 -15 -47 -3 -66 11 -18 126 -29 135 -13 9 14 492
16 501 1 9 -14 75 -12 105 3 28 14 38 51 20 73 -14 15 -160 21 -160 6 0 -5
-97 -9 -215 -9 -119 0 -218 4 -221 9 -8 13 -148 10 -162 -4z"/>
<path d="M3775 2470 c3 -5 30 -11 58 -12 l52 -1 -65 -7 c-36 -4 -269 -8 -517
-9 -295 -1 -453 -4 -453 -11 0 -10 28 -11 608 -12 298 0 308 -1 303 -30 0 -5
131 -7 292 -6 l292 3 -285 5 -285 5 289 3 288 2 -4 25 c-5 25 -5 25 69 25 73
0 73 0 67 -25 l-6 -25 291 0 291 0 0 25 c0 24 2 25 65 25 63 0 65 -1 65 -25
l0 -25 290 0 c169 0 290 4 290 9 0 38 -11 41 -126 41 -95 0 -114 3 -114 15 0
13 -49 15 -380 15 -209 0 -380 -4 -380 -8 0 -5 -34 -9 -75 -10 -44 -1 -75 2
-75 8 0 6 -57 10 -145 10 -90 0 -145 -4 -145 -10 0 -5 -20 -10 -45 -10 -25 0
-45 5 -45 10 0 6 -85 10 -236 10 -154 0 -233 -3 -229 -10z"/>
<path d="M5900 2426 l0 -26 288 -2 287 -3 -285 -5 -285 -5 287 -3 c273 -2 287
-1 293 17 5 18 24 19 452 19 401 1 466 3 452 16 -2 2 -338 6 -746 10 l-743 7
0 -25z"/>
<path d="M3012 2355 c-14 -21 -9 -35 11 -36 20 -1 20 -2 -3 -9 l-25 -8 25 -1
c20 -1 22 -3 10 -11 -10 -6 106 -10 338 -10 228 0 352 -4 352 -10 0 -7 -142
-10 -406 -10 -320 0 -405 -3 -402 -12 4 -10 97 -14 404 -18 367 -5 399 -6 402
-22 3 -16 -12 -18 -180 -20 l-183 -3 1 -30 c0 -16 -4 -33 -10 -37 -6 -4 27 -8
74 -9 47 -1 99 -3 115 -4 17 -1 70 -2 118 -3 56 -1 86 -6 82 -12 -4 -6 -137
-10 -363 -11 -196 -1 -370 -5 -387 -9 -43 -11 -36 -11 350 -14 193 -2 367 -6
387 -11 36 -7 38 -6 37 16 0 13 8 54 18 91 l18 67 100 1 c225 2 225 2 225 -55
l0 -30 119 3 119 3 -3 -33 -2 -33 -117 -3 c-87 -2 -116 -6 -113 -15 3 -9 36
-12 115 -11 62 1 112 -3 112 -7 0 -5 -49 -9 -108 -9 l-108 0 -10 -37 -9 -38
-172 -3 -173 -2 -6 40 c-7 40 -7 40 -51 40 -27 0 -42 -4 -38 -10 4 -7 -50 -10
-155 -10 -123 0 -160 -3 -158 -12 1 -7 -6 -28 -15 -46 l-18 -33 103 6 c57 4
109 8 116 10 9 3 12 -19 12 -90 l0 -95 152 0 153 0 -73 -47 c-57 -37 -69 -49
-55 -54 10 -4 22 -4 27 -1 5 3 6 0 2 -7 -4 -6 -16 -9 -27 -6 -11 4 -19 2 -19
-4 0 -6 6 -11 13 -11 6 0 73 -8 147 -17 83 -10 258 -18 455 -22 l320 -6 -190
-5 -190 -6 213 -2 c168 -2 219 -5 242 -17 17 -9 30 -17 30 -18 0 -1 -27 0 -59
1 -56 4 -59 3 -54 -17 3 -12 13 -21 24 -21 10 0 17 6 15 13 -1 6 -1 9 1 5 3
-5 9 -8 14 -8 23 0 88 -57 91 -80 3 -21 9 -26 48 -31 25 -3 70 -19 101 -37 70
-40 102 -40 239 -2 117 33 154 36 220 16 45 -13 45 -13 53 -71 10 -67 5 -85
-23 -85 -12 0 -25 -10 -32 -25 -13 -30 -39 -32 -55 -6 -14 23 -49 18 -63 -9
-16 -29 -49 -31 -66 -4 -20 30 -64 32 -89 4 -24 -27 -81 -27 -95 0 -6 12 -21
20 -35 20 -14 0 -29 -8 -35 -20 -14 -26 -26 -25 -54 5 -26 28 -48 32 -65 11
-7 -8 -21 -12 -31 -9 -15 4 -20 0 -20 -16 0 -16 6 -21 24 -21 14 0 28 4 31 10
11 17 44 11 55 -10 13 -24 58 -27 66 -5 9 21 48 19 69 -5 23 -26 67 -26 90 0
24 26 71 26 87 0 18 -28 52 -25 72 5 19 28 38 32 56 10 19 -22 48 -18 66 10 9
14 25 25 37 25 20 0 20 -3 13 -202 -4 -111 -8 -204 -10 -206 -2 -1 -13 -4 -25
-5 -15 -1 -32 -18 -53 -57 -17 -30 -44 -71 -59 -91 -15 -19 -33 -47 -40 -62
-11 -24 -18 -27 -63 -27 -48 0 -53 3 -93 48 -23 26 -43 52 -43 57 0 6 -18 28
-40 49 -22 22 -40 43 -40 48 0 4 -13 8 -29 8 -20 0 -36 -9 -51 -28 -12 -15
-38 -45 -59 -67 -21 -22 -43 -50 -49 -62 -8 -15 -12 -109 -12 -302 l0 -281
340 0 340 0 0 729 0 728 70 35 c38 19 67 38 63 41 -3 4 137 7 312 7 175 0 316
3 312 6 -3 3 -83 6 -179 7 -143 0 -157 1 -83 7 88 6 87 6 -60 10 l-150 4 230
6 c127 3 294 14 373 23 79 10 147 15 153 12 5 -4 9 7 9 23 0 22 -7 32 -32 45
-32 15 -31 16 80 16 l112 1 0 121 0 121 63 -6 c34 -3 86 -8 115 -12 28 -3 52
-3 52 0 0 3 -9 24 -21 46 l-21 40 -148 0 c-146 0 -147 0 -146 23 l1 22 320 2
c176 1 332 -1 347 -4 20 -4 28 -12 31 -32 2 -14 5 -1 5 29 1 32 -2 50 -7 42
-6 -10 -87 -13 -387 -12 -208 0 -385 -4 -393 -9 -24 -16 -2 -32 35 -25 21 4
34 2 34 -4 0 -6 -17 -12 -37 -14 -36 -3 -38 -5 -41 -40 l-3 -38 -169 0 c-157
0 -170 1 -180 19 -5 11 -10 29 -10 40 0 20 -5 21 -117 21 -64 0 -113 3 -109 8
4 4 58 7 119 8 75 0 112 4 115 12 3 9 -30 12 -120 13 -78 0 -116 4 -103 9 17
7 17 9 3 9 -12 1 -18 9 -18 26 l0 25 114 0 c122 0 126 2 126 56 0 23 4 24 58
25 31 0 103 1 159 2 l102 2 15 -64 c8 -35 20 -69 27 -75 9 -8 10 -8 6 0 -5 9
30 12 126 14 148 2 201 5 217 15 5 3 10 22 10 41 l0 34 -165 0 c-161 0 -164 0
-157 20 8 21 14 21 405 20 349 0 397 1 397 15 0 13 -49 15 -399 15 -256 0
-402 4 -406 10 -4 7 112 10 339 10 206 0 346 4 346 9 0 5 8 12 18 14 9 3 -58
3 -149 0 -165 -6 -166 -6 -190 18 l-24 24 155 3 c163 3 215 -2 189 -19 -10 -6
-6 -9 16 -9 20 0 26 3 17 9 -8 4 -13 11 -13 15 1 3 1 9 1 14 0 4 -299 9 -665
11 -562 3 -665 2 -665 -10 0 -8 -3 -38 -6 -66 l-6 -53 117 0 c115 0 116 0 113
-22 -3 -22 -8 -23 -113 -26 -74 -2 -112 -7 -117 -15 -8 -16 -82 -14 -102 3
-14 11 -16 5 -16 -51 l0 -64 -292 4 c-161 2 -279 7 -263 11 l30 8 -27 1 c-23
1 -28 6 -28 26 0 25 0 25 95 25 l95 0 0 60 0 60 119 0 c69 0 122 -4 126 -10 3
-6 37 -10 76 -10 l69 0 0 65 0 65 -290 0 -290 0 -1 -67 c0 -38 -3 -84 -7 -103
-7 -35 -8 -35 -59 -36 l-53 -1 0 57 c0 32 -3 78 -6 104 l-7 46 -288 0 -289 0
0 -65 0 -65 70 0 c41 0 70 4 70 10 0 7 43 10 123 8 l122 -3 3 -35 c6 -83 2
-80 102 -80 89 0 90 0 90 -25 0 -25 -1 -25 -92 -27 l-93 -2 95 -6 c54 -4 -30
-6 -195 -6 l-289 1 -11 45 -11 45 -52 0 c-36 -1 -52 3 -52 12 0 8 -14 13 -37
14 -182 2 -188 3 -188 24 0 19 8 20 107 23 l106 3 4 42 c1 23 1 53 0 66 l-4
24 -665 -4 c-428 -3 -667 -8 -671 -14z"/>
</g>
</svg>
