<?xml version="1.0" standalone="no"?>
<!DOCTYPE svg PUBLIC "-//W3C//DTD SVG 1.1//EN"
        "http://www.w3.org/Graphics/SVG/1.1/DTD/svg11.dtd">
<svg version="1.0" xmlns="http://www.w3.org/2000/svg"
 width="4700.000000pt" height="3010.000000pt" viewBox="0 0 4700.000000 3010.000000"
 preserveAspectRatio="xMidYMid meet">

<g transform="translate(0.000000,3010.000000) scale(0.100000,-0.100000)"
fill="#000000" stroke="none">
<path d="M0 15050 l0 -15050 23500 0 23500 0 0 15050 0 15050 -23500 0 -23500
0 0 -15050z m46500 0 l0 -14550 -10750 0 -10750 0 0 1740 c0 1733 0 1740 -20
1740 -11 0 -20 -4 -20 -10 0 -5 -16 -10 -35 -10 -19 0 -35 -4 -35 -10 0 -5
-16 -10 -35 -10 -19 0 -35 5 -35 10 0 6 -11 10 -25 10 -18 0 -25 -5 -25 -20 0
-11 -5 -20 -11 -20 -19 0 -39 -28 -39 -54 0 -19 -5 -26 -20 -26 -16 0 -20 -7
-20 -30 0 -16 -4 -30 -10 -30 -5 0 -10 -7 -10 -15 0 -8 -4 -15 -10 -15 -5 0
-10 -7 -10 -15 0 -8 -9 -15 -20 -15 -15 0 -20 -7 -20 -25 0 -14 -4 -25 -10
-25 -5 0 -10 -15 -10 -33 0 -21 -7 -38 -20 -47 -11 -8 -20 -22 -20 -32 0 -13
-8 -18 -25 -18 -21 0 -25 -5 -25 -30 0 -16 -4 -30 -10 -30 -5 0 -10 -9 -10
-20 0 -11 -4 -20 -10 -20 -5 0 -10 -11 -10 -25 0 -16 -6 -25 -15 -25 -9 0 -15
-9 -15 -25 0 -16 -6 -25 -15 -25 -8 0 -15 -7 -15 -15 0 -8 -7 -15 -15 -15 -8
0 -15 -9 -15 -20 0 -11 -5 -20 -11 -20 -14 0 -39 -25 -39 -39 0 -6 -4 -11 -10
-11 -5 0 -10 -5 -10 -11 0 -14 -25 -39 -39 -39 -6 0 -11 -11 -11 -25 0 -16 -6
-25 -15 -25 -9 0 -15 -9 -15 -23 0 -12 -9 -29 -20 -37 -11 -8 -20 -22 -20 -32
0 -10 -4 -18 -10 -18 -5 0 -10 -13 -10 -30 0 -20 -5 -30 -15 -30 -8 0 -15 -7
-15 -16 0 -22 -32 -53 -38 -36 -5 16 -79 16 -86 0 -5 -10 -7 -10 -12 0 -7 16
-61 16 -68 0 -5 -11 -7 -11 -12 0 -7 16 -41 16 -48 0 -5 -10 -7 -10 -12 0 -7
14 -54 16 -54 2 0 -5 -18 -10 -40 -10 -22 0 -40 5 -40 10 0 6 -11 10 -25 10
-14 0 -25 -4 -25 -10 0 -5 -4 -10 -10 -10 -5 0 -10 9 -10 20 0 11 -7 20 -15
20 -9 0 -15 9 -15 25 0 14 -4 25 -10 25 -5 0 -10 -7 -10 -15 0 -8 -4 -15 -10
-15 -5 0 -10 7 -10 15 0 8 -4 15 -10 15 -5 0 -10 14 -10 31 0 36 -20 59 -50
59 -29 0 -50 23 -50 54 0 14 -4 26 -10 26 -5 0 -10 9 -10 20 0 13 -7 20 -20
20 -16 0 -20 7 -20 30 0 25 -4 30 -25 30 -18 0 -25 5 -25 20 0 11 -5 20 -11
20 -19 0 -39 28 -39 54 0 14 -4 26 -10 26 -5 0 -10 11 -10 25 0 16 -6 25 -15
25 -8 0 -15 5 -15 10 0 6 -7 10 -15 10 -8 0 -15 5 -15 10 0 6 -7 10 -15 10 -9
0 -15 9 -15 25 0 14 -4 25 -10 25 -5 0 -10 7 -10 15 0 10 -10 15 -30 15 -23 0
-30 4 -30 20 0 11 -4 20 -10 20 -5 0 -10 9 -10 21 0 11 -18 38 -40 59 -22 21
-40 43 -40 49 0 6 -7 11 -15 11 -11 0 -15 11 -15 40 0 22 -4 40 -10 40 -5 0
-10 -11 -10 -25 0 -16 -6 -25 -15 -25 -9 0 -15 9 -15 25 0 21 -5 25 -31 25
-33 0 -59 19 -59 44 0 9 -8 16 -20 16 -13 0 -20 -7 -20 -20 0 -11 -7 -20 -15
-20 -8 0 -15 9 -15 20 0 17 -7 20 -45 20 -25 0 -45 -4 -45 -10 0 -5 -7 -10
-15 -10 -8 0 -15 -9 -15 -20 0 -11 -7 -20 -15 -20 -8 0 -15 -4 -15 -10 0 -5
-7 -10 -15 -10 -10 0 -15 -10 -15 -30 0 -25 -4 -30 -25 -30 -20 0 -25 -5 -25
-25 0 -14 -4 -25 -10 -25 -5 0 -10 -9 -10 -20 0 -11 -7 -20 -15 -20 -8 0 -15
-7 -15 -15 0 -8 -9 -15 -20 -15 -13 0 -20 -7 -20 -18 0 -10 -9 -24 -20 -32
-11 -8 -20 -20 -20 -27 0 -7 -9 -13 -20 -13 -15 0 -20 -7 -20 -25 0 -14 -4
-25 -10 -25 -5 0 -10 -9 -10 -20 0 -16 -7 -20 -30 -20 -20 0 -30 -5 -30 -15 0
-8 -4 -15 -10 -15 -5 0 -10 -11 -10 -25 0 -16 -6 -25 -15 -25 -8 0 -15 -5 -15
-11 0 -11 -25 -39 -35 -39 -14 0 -35 -30 -35 -49 0 -16 -6 -21 -25 -21 -20 0
-25 -5 -25 -25 0 -14 -5 -25 -11 -25 -19 0 -39 -28 -39 -54 0 -14 -4 -26 -10
-26 -7 0 -10 -438 -10 -1295 l0 -1295 -10770 0 -10770 0 0 14550 0 14550
23000 0 23000 0 0 -14550z"/>
<path d="M17875 14093 c-11 -3 -32 -17 -47 -31 -26 -24 -28 -31 -28 -111 0
-78 3 -89 32 -138 25 -42 38 -53 58 -53 14 0 124 -5 244 -11 l219 -10 41 33
41 33 1085 0 1085 0 37 -29 c37 -28 40 -28 165 -27 71 1 173 4 228 7 l100 6
33 53 c29 49 32 60 32 137 0 79 -2 86 -27 110 l-28 26 -311 7 -311 8 -22 -32
-22 -31 -342 0 c-278 1 -347 3 -367 15 -20 11 -73 14 -250 14 -177 0 -230 -3
-250 -14 -20 -12 -91 -14 -380 -15 l-355 0 -17 30 -17 30 -303 -1 c-167 -1
-312 -3 -323 -6z"/>
<path d="M25875 14093 c-11 -3 -32 -17 -47 -31 -26 -24 -28 -31 -28 -111 0
-78 3 -89 32 -138 25 -42 38 -53 58 -53 14 0 124 -5 244 -11 l219 -10 41 33
41 33 1085 0 1085 0 37 -29 c37 -28 40 -28 165 -27 71 1 173 4 228 7 l100 6
33 53 c29 49 32 60 32 137 0 79 -2 86 -27 110 l-28 26 -311 7 -311 8 -22 -32
-22 -31 -342 0 c-278 1 -347 3 -367 15 -20 11 -73 14 -250 14 -177 0 -230 -3
-250 -14 -20 -12 -91 -14 -380 -15 l-355 0 -17 30 -17 30 -303 -1 c-167 -1
-312 -3 -323 -6z"/>
<path d="M13360 11570 c0 -16 5 -30 10 -30 6 0 10 9 10 20 0 19 7 20 165 20
158 0 165 -1 165 -20 0 -19 7 -20 100 -20 93 0 100 1 100 20 0 11 7 20 15 20
8 0 15 -9 15 -20 0 -19 7 -20 195 -20 188 0 195 1 195 20 0 11 5 20 10 20 6 0
10 -9 10 -20 0 -19 7 -20 120 -20 113 0 120 1 120 20 0 18 7 20 55 20 30 0 55
5 55 10 0 7 -230 10 -670 10 l-670 0 0 -30z"/>
<path d="M15990 11590 c0 -6 28 -10 65 -10 37 0 65 4 65 10 0 6 -28 10 -65 10
-37 0 -65 -4 -65 -10z"/>
<path d="M16330 11590 c0 -7 275 -10 805 -10 798 0 805 0 805 -20 0 -19 -7
-20 -265 -20 l-265 0 0 -40 0 -40 -2025 0 -2025 0 0 -35 c0 -19 5 -35 10 -35
6 0 10 -11 10 -25 0 -14 5 -25 10 -25 6 0 10 5 10 10 0 6 62 10 165 10 103 0
165 -4 165 -10 0 -5 20 -10 45 -10 25 0 45 5 45 10 0 6 20 10 45 10 25 0 45
-4 45 -10 0 -6 72 -10 195 -10 123 0 195 4 195 10 0 6 7 10 15 10 8 0 15 -4
15 -10 0 -5 9 -10 20 -10 11 0 20 5 20 10 0 15 77 12 84 -2 5 -10 7 -10 12 0
7 14 44 16 44 2 0 -6 85 -10 235 -10 150 0 235 4 235 10 0 14 37 12 44 -2 5
-10 7 -10 12 0 7 14 54 16 54 2 0 -16 367 -13 374 3 5 10 7 10 12 0 7 -15 74
-18 74 -3 0 6 7 10 15 10 8 0 15 -4 15 -10 0 -15 57 -12 64 3 5 10 7 10 12 0
7 -16 484 -19 484 -3 0 6 9 10 20 10 11 0 20 -4 20 -10 0 -5 7 -10 15 -10 8 0
15 5 15 10 0 6 11 10 25 10 14 0 25 -4 25 -10 0 -6 83 -10 230 -10 147 0 230
4 230 10 0 14 37 12 44 -2 5 -10 7 -10 12 0 7 14 34 16 34 2 0 -6 83 -10 230
-10 147 0 230 4 230 10 0 6 16 10 35 10 19 0 35 -4 35 -10 0 -5 11 -10 25 -10
16 0 25 -6 25 -15 0 -8 5 -15 10 -15 6 0 10 -18 10 -40 l0 -40 -1735 0 -1735
0 0 -30 0 -30 1735 0 c1728 0 1735 0 1735 20 0 16 7 20 35 20 28 0 35 -4 35
-20 0 -20 7 -20 1265 -20 l1265 0 0 30 0 30 -1265 0 c-1143 0 -1265 2 -1265
16 0 8 6 22 14 30 17 16 56 19 56 4 0 -6 27 -10 60 -10 33 0 60 4 60 10 0 6
23 10 50 10 28 0 50 -4 50 -10 0 -6 27 -10 60 -10 33 0 60 4 60 10 0 6 23 10
50 10 28 0 50 -4 50 -10 0 -6 27 -10 60 -10 33 0 60 4 60 10 0 6 27 10 60 10
33 0 60 -4 60 -10 0 -6 27 -10 60 -10 33 0 60 4 60 10 0 6 20 10 45 10 25 0
45 -4 45 -10 0 -6 27 -10 60 -10 33 0 60 4 60 10 0 6 20 10 45 10 25 0 45 -4
45 -10 0 -6 28 -10 65 -10 37 0 65 4 65 10 0 6 27 10 60 10 33 0 60 -4 60 -10
0 -5 20 -10 45 -10 25 0 45 5 45 10 0 6 28 10 65 10 37 0 65 -4 65 -10 0 -6
27 -10 60 -10 33 0 60 4 60 10 0 6 20 10 45 10 25 0 45 -4 45 -10 0 -6 27 -10
60 -10 33 0 60 4 60 10 0 6 20 10 45 10 25 0 45 -4 45 -10 0 -6 28 -10 65 -10
37 0 65 4 65 10 0 6 27 10 60 10 33 0 60 -4 60 -10 0 -6 27 -10 60 -10 33 0
60 4 60 10 0 6 27 10 60 10 l60 0 0 50 c0 28 -4 50 -10 50 -5 0 -10 16 -10 35
l0 35 -1251 0 c-1070 0 -1252 2 -1265 14 -8 8 -14 17 -14 20 0 3 2714 6 6030
6 6023 0 6030 0 6030 -20 0 -20 -7 -20 -1265 -20 l-1265 0 0 -95 c0 -88 1 -95
20 -95 11 0 20 5 20 10 0 6 27 10 60 10 33 0 60 -4 60 -10 0 -6 27 -10 60 -10
33 0 60 4 60 10 0 6 18 10 40 10 22 0 40 -4 40 -10 0 -6 28 -10 65 -10 37 0
65 4 65 10 0 6 23 10 50 10 28 0 50 -4 50 -10 0 -5 25 -10 55 -10 30 0 55 5
55 10 0 6 28 10 65 10 37 0 65 -4 65 -10 0 -5 20 -10 45 -10 25 0 45 5 45 10
0 6 28 10 65 10 37 0 65 -4 65 -10 0 -6 27 -10 60 -10 33 0 60 4 60 10 0 6 18
10 40 10 22 0 40 -4 40 -10 0 -6 28 -10 65 -10 37 0 65 4 65 10 0 6 20 10 45
10 25 0 45 -4 45 -10 0 -6 28 -10 65 -10 37 0 65 4 65 10 0 6 27 10 60 10 33
0 60 -4 60 -10 0 -5 20 -10 45 -10 25 0 45 5 45 10 0 6 28 10 65 10 37 0 65
-4 65 -10 0 -5 25 -10 55 -10 30 0 55 5 55 10 0 6 20 10 45 10 25 0 45 -4 45
-10 0 -6 28 -10 65 -10 37 0 65 4 65 10 0 6 20 10 45 10 25 0 45 -4 45 -10 0
-6 28 -10 65 -10 37 0 65 4 65 10 0 6 9 10 20 10 16 0 20 -7 20 -30 l0 -30
-1265 0 -1265 0 0 -30 0 -30 1265 0 c1258 0 1265 0 1265 20 0 16 7 20 35 20
28 0 35 -4 35 -20 0 -20 7 -20 1750 -20 l1750 0 0 30 0 30 -1750 0 c-1160 0
-1750 3 -1750 10 0 6 7 10 15 10 12 0 15 13 15 55 0 30 5 55 10 55 6 0 10 -4
10 -10 0 -5 11 -10 25 -10 14 0 25 5 25 10 0 6 9 10 20 10 11 0 20 -4 20 -10
0 -16 467 -13 473 3 4 9 8 8 17 -3 9 -11 13 -12 17 -2 6 14 73 17 73 2 0 -5
18 -10 40 -10 22 0 40 5 40 10 0 6 7 10 15 10 8 0 15 -4 15 -10 0 -6 65 -10
175 -10 110 0 175 4 175 10 0 14 27 12 34 -2 5 -10 7 -10 12 0 7 14 64 17 64
2 0 -16 477 -13 483 3 4 9 8 8 17 -3 9 -11 13 -12 17 -2 6 14 53 17 53 2 0
-15 107 -13 114 3 5 10 7 10 12 0 7 -16 334 -19 334 -3 0 14 47 12 54 -2 5
-10 7 -10 12 0 7 14 44 16 44 2 0 -16 467 -13 474 3 5 10 7 10 12 0 7 -15 54
-17 54 -3 0 6 16 10 35 10 19 0 35 -4 35 -10 0 -14 47 -12 54 3 5 10 7 10 12
0 4 -10 52 -13 189 -13 137 0 185 3 189 13 5 10 7 10 12 0 7 -16 244 -19 244
-3 0 15 77 12 84 -2 5 -10 7 -10 12 0 7 14 34 16 34 2 0 -16 129 -12 146 4 8
9 14 34 14 60 l0 46 -2000 0 c-1327 0 -2000 3 -2000 10 0 6 -7 10 -15 10 -10
0 -15 10 -15 30 l0 30 -2135 0 -2135 0 0 30 0 30 -64 0 c-42 0 -66 -4 -70 -12
-5 -10 -7 -10 -12 0 -7 16 -3244 18 -3244 2 0 -6 -130 -10 -370 -10 -240 0
-370 4 -370 10 0 6 -45 10 -115 10 -70 0 -115 -4 -115 -10 0 -5 -9 -10 -20
-10 -11 0 -20 5 -20 10 0 6 -27 10 -60 10 -33 0 -60 -4 -60 -10 0 -5 -7 -10
-15 -10 -8 0 -15 5 -15 10 0 6 -42 10 -105 10 -63 0 -105 -4 -105 -10 0 -5 -9
-10 -20 -10 -11 0 -20 5 -20 10 0 15 -147 13 -154 -2 -5 -10 -7 -10 -12 0 -7
14 -34 16 -34 2 0 -5 -7 -10 -15 -10 -8 0 -15 5 -15 10 0 6 -18 10 -40 10 -22
0 -40 -4 -40 -10 0 -14 -37 -12 -43 3 -4 9 -8 8 -17 -3 -9 -11 -13 -12 -17 -2
-6 15 -163 17 -163 2 0 -5 -9 -10 -20 -10 -13 0 -20 -7 -20 -20 0 -19 -7 -20
-215 -20 l-215 0 0 30 0 30 -275 0 c-177 0 -275 -4 -275 -10 0 -5 -7 -10 -15
-10 -8 0 -15 5 -15 10 0 15 -117 13 -124 -2 -5 -10 -7 -10 -12 0 -7 15 -124
17 -124 2 0 -5 -7 -10 -15 -10 -8 0 -15 5 -15 10 0 6 -9 10 -20 10 -11 0 -20
-4 -20 -10 0 -5 -20 -10 -45 -10 -25 0 -45 5 -45 10 0 6 -13 10 -30 10 -16 0
-30 -4 -30 -10 0 -15 -47 -12 -53 3 -4 9 -8 8 -17 -3 -9 -11 -13 -12 -17 -2
-6 16 -2043 18 -2043 2z"/>
<path d="M25790 11590 c0 -5 18 -10 40 -10 22 0 40 5 40 10 0 6 -18 10 -40 10
-22 0 -40 -4 -40 -10z"/>
<path d="M27550 11590 c0 -6 33 -10 80 -10 47 0 80 4 80 10 0 6 -33 10 -80 10
-47 0 -80 -4 -80 -10z"/>
<path d="M28750 11590 c0 -7 295 -10 865 -10 570 0 865 3 865 10 0 7 -295 10
-865 10 -570 0 -865 -3 -865 -10z"/>
<path d="M30880 11590 c0 -6 28 -10 65 -10 37 0 65 4 65 10 0 6 -28 10 -65 10
-37 0 -65 -4 -65 -10z"/>
<path d="M32320 11590 c0 -5 7 -10 15 -10 8 0 15 -9 15 -20 0 -13 7 -20 20
-20 13 0 20 7 20 20 0 15 7 20 25 20 18 0 25 -5 25 -20 0 -19 7 -20 115 -20
108 0 115 1 115 20 0 15 7 20 25 20 18 0 25 -5 25 -20 0 -19 7 -20 185 -20
178 0 185 1 185 20 0 20 7 20 275 20 177 0 275 4 275 10 0 7 -227 10 -660 10
-433 0 -660 -3 -660 -10z"/>
<path d="M20670 11437 c0 -12 -9 -29 -20 -37 -15 -11 -20 -26 -20 -62 0 -41 3
-48 20 -48 11 0 20 -4 20 -10 0 -6 27 -10 60 -10 33 0 60 4 60 10 0 6 25 10
55 10 30 0 55 -4 55 -10 0 -6 28 -10 65 -10 37 0 65 4 65 10 0 6 23 10 50 10
28 0 50 -4 50 -10 0 -5 23 -10 50 -10 28 0 50 5 50 10 0 6 27 10 60 10 33 0
60 -4 60 -10 0 -6 28 -10 65 -10 37 0 65 4 65 10 0 6 23 10 50 10 28 0 50 -4
50 -10 0 -6 27 -10 60 -10 33 0 60 4 60 10 0 6 20 10 45 10 25 0 45 -4 45 -10
0 -6 27 -10 60 -10 33 0 60 4 60 10 0 6 28 10 65 10 37 0 65 -4 65 -10 0 -5
23 -10 50 -10 28 0 50 5 50 10 0 6 27 10 60 10 33 0 60 -4 60 -10 0 -5 23 -10
50 -10 28 0 50 5 50 10 0 6 23 10 50 10 28 0 50 -4 50 -10 0 -6 27 -10 60 -10
33 0 60 4 60 10 0 6 25 10 55 10 30 0 55 -4 55 -10 0 -6 27 -10 60 -10 33 0
60 4 60 10 0 6 25 10 55 10 30 0 55 -4 55 -10 0 -5 23 -10 50 -10 28 0 50 5
50 10 0 6 27 10 60 10 33 0 60 -4 60 -10 0 -5 16 -10 35 -10 19 0 35 5 35 10
0 6 7 10 15 10 12 0 15 16 15 85 l0 85 -1285 0 -1285 0 0 -23z"/>
<path d="M23820 11365 l0 -95 60 0 c33 0 60 4 60 10 0 6 20 10 45 10 25 0 45
-4 45 -10 0 -6 27 -10 60 -10 33 0 60 4 60 10 0 6 20 10 45 10 25 0 45 -4 45
-10 0 -6 27 -10 60 -10 33 0 60 4 60 10 0 6 28 10 65 10 37 0 65 -4 65 -10 0
-5 20 -10 45 -10 25 0 45 5 45 10 0 6 27 10 60 10 33 0 60 -4 60 -10 0 -6 27
-10 60 -10 33 0 60 4 60 10 0 6 23 10 50 10 28 0 50 -4 50 -10 0 -6 28 -10 65
-10 37 0 65 4 65 10 0 6 18 10 40 10 22 0 40 -4 40 -10 0 -6 27 -10 60 -10 33
0 60 4 60 10 0 6 27 10 60 10 33 0 60 -4 60 -10 0 -5 20 -10 45 -10 25 0 45 5
45 10 0 6 30 10 70 10 40 0 70 -4 70 -10 0 -5 25 -10 55 -10 30 0 55 5 55 10
0 6 23 10 50 10 28 0 50 -4 50 -10 0 -6 27 -10 60 -10 33 0 60 4 60 10 0 6 28
10 65 10 37 0 65 -4 65 -10 0 -5 23 -10 50 -10 28 0 50 5 50 10 0 6 25 10 55
10 30 0 55 -4 55 -10 0 -6 27 -10 60 -10 53 0 60 2 60 20 0 11 7 20 15 20 9 0
15 9 15 25 0 14 5 25 10 25 6 0 10 7 10 15 0 10 -11 15 -35 15 -33 0 -35 2
-35 35 l0 35 -1275 0 -1275 0 0 -95z"/>
<path d="M20630 11200 l0 -30 1290 0 1290 0 0 30 0 30 -1290 0 -1290 0 0 -30z"/>
<path d="M23820 11200 l0 -30 1285 0 1285 0 0 30 0 30 -1285 0 -1285 0 0 -30z"/>
<path d="M17500 11130 c0 -7 -605 -10 -1795 -10 -1190 0 -1795 -3 -1795 -10 0
-6 27 -10 60 -10 l60 0 0 -30 0 -30 -90 0 c-83 0 -90 -1 -90 -20 0 -16 7 -20
30 -20 17 0 30 5 30 10 0 6 7 10 15 10 8 0 15 -4 15 -10 0 -5 20 -10 45 -10
41 0 45 -2 45 -25 0 -25 -1 -25 -90 -25 -73 0 -90 -3 -90 -15 0 -12 17 -15 90
-15 53 0 90 -4 90 -10 0 -15 68 -12 72 2 3 9 9 8 22 -5 17 -16 17 -18 0 -34
-13 -13 -19 -14 -22 -5 -4 14 -72 17 -72 2 0 -5 -11 -10 -25 -10 -14 0 -25 -4
-25 -10 0 -5 18 -10 40 -10 33 0 40 -3 40 -20 0 -11 5 -20 10 -20 6 0 10 9 10
20 0 16 7 20 30 20 27 0 30 -3 30 -30 l0 -30 -145 0 c-90 0 -145 4 -145 10 0
6 -7 10 -15 10 -8 0 -15 -4 -15 -10 0 -5 -11 -10 -25 -10 -14 0 -25 5 -25 10
0 6 -37 10 -90 10 -83 0 -90 -1 -90 -20 0 -20 7 -20 934 -20 738 0 936 3 940
13 5 10 7 10 12 0 4 -10 186 -13 860 -13 l854 0 0 -60 0 -60 -1800 0 -1800 0
0 -55 0 -55 150 0 c93 0 150 -4 150 -10 0 -5 16 -10 35 -10 19 0 35 5 35 10 0
6 30 10 70 10 40 0 70 -4 70 -10 0 -5 14 -10 30 -10 17 0 30 5 30 10 0 6 73
10 200 10 127 0 200 -4 200 -10 0 -5 7 -10 15 -10 8 0 15 5 15 10 0 6 9 10 20
10 11 0 20 -4 20 -10 0 -6 35 -10 85 -10 50 0 85 4 85 10 0 16 287 13 294 -2
5 -10 7 -10 12 0 7 14 54 16 54 2 0 -6 40 -10 100 -10 60 0 100 4 100 10 0 6
14 10 30 10 17 0 30 -4 30 -10 0 -5 9 -10 20 -10 11 0 20 5 20 10 0 6 47 10
120 10 73 0 120 -4 120 -10 0 -15 127 -13 134 3 5 10 7 10 12 0 7 -15 34 -17
34 -3 0 15 87 12 94 -2 5 -10 7 -10 12 0 7 15 194 17 194 2 0 -14 27 -12 34 3
5 10 7 10 12 0 7 -16 144 -18 144 -3 0 6 75 10 205 10 130 0 205 -4 205 -10 0
-15 77 -12 84 3 5 10 7 10 12 0 3 -7 14 -13 24 -13 10 0 21 6 24 13 5 10 7 10
12 0 7 -15 34 -17 34 -3 0 15 77 12 84 -2 5 -10 7 -10 12 0 7 14 94 17 94 2 0
-5 7 -10 15 -10 12 0 15 -14 15 -65 l0 -65 -1605 0 c-1063 0 -1605 -3 -1605
-10 0 -7 542 -10 1605 -10 1598 0 1605 0 1605 -20 0 -16 7 -20 30 -20 20 0 30
-5 30 -15 0 -10 -10 -15 -30 -15 -20 0 -30 5 -30 15 0 13 -117 15 -990 15
-873 0 -990 -2 -990 -15 0 -13 24 -15 160 -15 l160 0 0 -35 c0 -19 5 -35 10
-35 6 0 10 -16 10 -35 0 -19 -4 -35 -10 -35 -5 0 -10 -4 -10 -10 0 -5 16 -10
35 -10 l35 0 0 -75 0 -75 -70 0 c-40 0 -70 -4 -70 -10 0 -6 57 -10 150 -10 93
0 150 4 150 10 0 6 16 10 35 10 19 0 35 -4 35 -10 0 -5 20 -10 45 -10 25 0 45
5 45 10 0 6 50 10 130 10 80 0 130 -4 130 -10 0 -7 143 -10 410 -10 l410 0 0
-65 0 -65 -1500 0 c-993 0 -1500 -3 -1500 -10 0 -5 -20 -10 -45 -10 -25 0 -45
5 -45 10 0 6 -13 10 -30 10 -29 0 -30 -2 -30 -45 l0 -45 55 0 c30 0 55 -4 55
-10 0 -5 16 -10 35 -10 19 0 35 5 35 10 0 6 7 10 15 10 8 0 15 -4 15 -10 0 -6
52 -10 135 -10 83 0 135 4 135 10 0 6 9 10 20 10 11 0 20 -4 20 -10 0 -5 11
-10 25 -10 14 0 25 5 25 10 0 6 25 10 55 10 30 0 55 -4 55 -10 0 -6 57 -10
150 -10 93 0 150 4 150 10 0 6 11 10 25 10 14 0 25 -4 25 -10 0 -5 9 -10 20
-10 11 0 20 5 20 10 0 6 23 10 50 10 28 0 50 -4 50 -10 0 -16 317 -13 324 3 5
10 7 10 12 0 7 -15 44 -17 44 -3 0 6 28 10 65 10 37 0 65 -4 65 -10 0 -6 52
-10 135 -10 83 0 135 4 135 10 0 6 7 10 15 10 8 0 15 -4 15 -10 0 -5 20 -10
45 -10 25 0 45 5 45 10 0 15 47 12 53 -2 4 -10 8 -9 17 2 9 11 13 12 17 3 3
-10 46 -13 163 -13 117 0 160 3 164 13 5 10 7 10 12 0 7 -15 44 -17 44 -3 0 6
28 10 65 10 37 0 65 -4 65 -10 0 -6 55 -10 145 -10 90 0 145 4 145 10 0 6 7
10 15 10 8 0 15 -4 15 -10 0 -5 14 -10 30 -10 17 0 30 5 30 10 0 6 23 10 50
10 l50 0 0 -70 0 -70 -1485 0 c-1478 0 -1485 0 -1485 -20 0 -20 7 -20 1485
-20 l1485 0 0 -25 0 -25 -710 0 c-624 0 -710 -2 -710 -15 0 -8 9 -15 20 -15
11 0 20 -4 20 -10 0 -5 -16 -10 -35 -10 -24 0 -35 -5 -35 -15 0 -12 13 -15 55
-15 42 0 55 -3 55 -15 0 -8 -7 -15 -16 -15 -9 0 -29 -13 -44 -30 -15 -16 -33
-30 -39 -30 -6 0 -11 -14 -11 -30 0 -30 -37 -80 -60 -80 -5 0 -10 -9 -10 -20
0 -19 7 -20 160 -20 100 0 160 4 160 10 0 6 30 10 70 10 40 0 70 4 70 10 0 6
100 10 280 10 l280 0 0 -400 0 -400 575 0 c504 0 575 -2 575 -15 0 -13 27 -15
180 -15 121 0 180 -3 180 -11 0 -17 -27 -39 -49 -39 -12 0 -21 -4 -21 -10 0
-5 -11 -10 -25 -10 -16 0 -25 -6 -25 -15 0 -8 -4 -15 -10 -15 -5 0 -10 -7 -10
-15 0 -10 -10 -15 -30 -15 -16 0 -30 -4 -30 -10 0 -5 -8 -10 -18 -10 -10 0
-24 -9 -32 -20 -8 -12 -26 -20 -42 -20 -18 0 -28 -5 -28 -15 0 -8 -9 -15 -20
-15 -11 0 -20 -5 -20 -11 0 -19 -28 -39 -54 -39 -16 0 -26 -6 -26 -15 0 -9 -9
-15 -23 -15 -12 0 -29 -9 -37 -20 -8 -11 -22 -20 -32 -20 -10 0 -18 -4 -18
-10 0 -5 -11 -10 -25 -10 -16 0 -25 -6 -25 -15 0 -8 -4 -15 -10 -15 -5 0 -10
-7 -10 -15 0 -9 -9 -15 -25 -15 -14 0 -25 -4 -25 -10 0 -5 -7 -10 -15 -10 -8
0 -15 -4 -15 -10 0 -5 -9 -10 -20 -10 -11 0 -20 -4 -20 -10 0 -5 9 -10 20 -10
11 0 20 -7 20 -15 0 -11 11 -15 40 -15 22 0 40 -4 40 -10 0 -6 33 -10 80 -10
47 0 80 -4 80 -10 0 -6 35 -10 85 -10 50 0 85 4 85 10 0 6 32 10 75 10 43 0
75 -4 75 -10 0 -5 -13 -10 -30 -10 -16 0 -30 -4 -30 -10 0 -5 18 -10 40 -10
22 0 40 5 40 10 0 6 23 10 50 10 28 0 50 -4 50 -10 0 -5 18 -10 40 -10 29 0
40 -4 40 -15 0 -12 17 -15 90 -15 73 0 90 3 90 15 0 12 14 15 70 15 56 0 70
-3 70 -15 0 -12 -13 -15 -60 -15 -47 0 -60 -3 -60 -15 0 -12 14 -15 70 -15 56
0 70 3 70 15 0 12 14 15 65 15 51 0 65 -3 65 -15 0 -8 9 -15 20 -15 11 0 20
-7 20 -15 0 -13 191 -15 1655 -15 1097 0 1655 -3 1655 -10 0 -7 -597 -10
-1770 -10 -1173 0 -1770 3 -1770 10 0 6 -38 10 -95 10 -78 0 -95 3 -95 15 0
12 -17 15 -95 15 -78 0 -95 3 -95 15 0 10 -10 15 -30 15 -20 0 -30 -5 -30 -15
0 -10 -10 -15 -30 -15 -20 0 -30 5 -30 15 0 12 -18 15 -100 15 -82 0 -100 3
-100 15 0 12 -17 15 -95 15 -57 0 -95 4 -95 10 0 6 -42 10 -105 10 l-105 0 0
-40 0 -40 70 0 c56 0 70 -3 70 -15 0 -8 9 -15 20 -15 11 0 20 7 20 15 0 9 9
15 25 15 16 0 25 -6 25 -15 0 -12 17 -15 95 -15 57 0 95 -4 95 -10 0 -6 40
-10 100 -10 60 0 100 -4 100 -10 0 -6 37 -10 90 -10 53 0 90 -4 90 -10 0 -6
57 -10 150 -10 93 0 150 -4 150 -10 0 -6 38 -10 95 -10 88 0 95 -1 95 -20 0
-18 7 -20 80 -20 47 0 80 -4 80 -10 0 -5 14 -10 30 -10 17 0 30 5 30 10 0 6
14 10 30 10 17 0 30 -4 30 -10 0 -5 14 -10 30 -10 17 0 30 5 30 10 0 7 145 10
415 10 270 0 415 -3 415 -10 0 -7 187 -10 540 -10 353 0 540 -3 540 -10 0 -7
190 -10 550 -10 360 0 550 -3 550 -10 0 -7 -270 -10 -790 -10 -520 0 -790 -3
-790 -10 0 -7 -295 -10 -865 -10 -858 0 -865 0 -865 -20 0 -20 7 -20 1655 -20
1097 0 1655 -3 1655 -10 0 -5 -22 -10 -50 -10 -27 0 -50 -4 -50 -10 0 -6 -28
-10 -65 -10 -51 0 -65 -3 -65 -15 0 -12 13 -15 55 -15 30 0 55 -4 55 -10 0 -6
27 -10 60 -10 47 0 60 -3 60 -15 0 -12 -19 -15 -115 -15 -70 0 -115 -4 -115
-10 0 -6 28 -10 65 -10 37 0 65 -4 65 -10 0 -6 -33 -10 -80 -10 -47 0 -80 4
-80 10 0 6 -40 10 -100 10 -60 0 -100 -4 -100 -10 0 -6 28 -10 63 -10 51 0 65
-4 77 -20 8 -11 25 -20 37 -20 14 0 23 -6 23 -15 0 -9 9 -15 25 -15 14 0 25
-5 25 -11 0 -17 27 -39 49 -39 12 0 21 -4 21 -10 0 -5 9 -10 20 -10 11 0 20
-7 20 -15 0 -8 5 -15 10 -15 6 0 10 -7 10 -15 0 -10 10 -15 30 -15 17 0 30 -4
30 -10 0 -5 8 -10 18 -10 10 0 24 -9 32 -20 8 -11 22 -20 32 -20 10 0 18 -7
18 -15 0 -10 11 -15 35 -15 l35 0 0 -145 0 -145 70 0 c40 0 70 -4 70 -10 0 -6
26 -10 59 -10 38 0 61 -5 65 -12 5 -10 7 -10 12 0 7 14 44 16 44 2 0 -5 18
-10 40 -10 29 0 40 -4 40 -15 0 -10 10 -15 31 -15 30 0 59 -19 59 -39 0 -6 11
-11 25 -11 14 0 25 -4 25 -10 0 -5 14 -10 30 -10 20 0 30 -5 30 -15 0 -8 7
-15 15 -15 8 0 15 -4 15 -10 0 -5 9 -10 20 -10 11 0 20 -4 20 -10 0 -5 11 -10
25 -10 14 0 25 -4 25 -10 0 -5 7 -10 15 -10 8 0 15 -9 15 -20 0 -13 7 -20 20
-20 11 0 20 -4 20 -10 0 -5 11 -10 25 -10 14 0 25 -4 25 -10 0 -5 9 -10 20
-10 11 0 20 -4 20 -10 0 -6 80 -10 220 -10 140 0 220 4 220 10 0 6 11 10 25
10 14 0 25 5 25 10 0 6 14 10 30 10 17 0 30 5 30 10 0 6 18 10 40 10 33 0 40
3 40 20 0 18 7 20 55 20 30 0 55 5 55 10 0 6 23 10 50 10 28 0 50 5 50 10 0 6
18 10 40 10 22 0 40 5 40 10 0 6 18 10 40 10 29 0 40 4 40 15 0 10 10 15 30
15 17 0 30 5 30 10 0 6 23 10 50 10 38 0 50 4 50 15 0 11 13 15 54 15 34 0 57
5 60 13 5 10 7 10 12 0 7 -15 84 -18 84 -3 0 6 37 10 90 10 73 0 90 3 90 15 0
10 11 15 35 15 24 0 35 -5 35 -15 0 -10 10 -15 30 -15 17 0 30 -4 30 -10 0 -5
23 -10 50 -10 38 0 50 -4 50 -15 0 -8 9 -15 20 -15 11 0 20 -4 20 -10 0 -5 23
-10 50 -10 38 0 50 -4 50 -15 0 -11 11 -15 40 -15 22 0 40 -4 40 -10 0 -5 9
-10 20 -10 11 0 20 -4 20 -10 0 -5 9 -10 20 -10 19 0 20 7 20 250 0 216 2 250
15 250 8 0 15 7 15 15 0 8 9 15 20 15 11 0 20 5 20 10 0 6 9 10 20 10 11 0 20
5 20 10 0 6 11 10 25 10 14 0 25 5 25 10 0 6 11 10 25 10 16 0 25 6 25 15 0 8
9 15 20 15 11 0 20 7 20 15 0 9 9 15 25 15 14 0 25 5 25 10 0 6 9 10 20 10 11
0 20 5 20 10 0 6 14 10 30 10 20 0 30 5 30 15 0 8 9 15 20 15 11 0 20 7 20 15
0 9 9 15 25 15 14 0 25 5 25 10 0 6 14 10 30 10 17 0 30 5 30 10 0 6 11 10 25
10 14 0 25 5 25 10 0 6 11 10 25 10 23 0 25 3 25 50 l0 50 1395 0 c923 0 1395
3 1395 10 0 7 -558 10 -1655 10 -1097 0 -1655 3 -1655 10 0 7 550 10 1630 10
1623 0 1630 0 1630 20 0 20 -7 20 -850 20 -560 0 -850 3 -850 10 0 7 -267 10
-780 10 -513 0 -780 3 -780 10 0 7 398 10 1175 10 777 0 1175 3 1175 10 0 7
155 10 445 10 290 0 445 3 445 10 0 6 35 10 85 10 78 0 85 2 85 20 0 18 7 20
55 20 30 0 55 5 55 10 0 6 53 10 140 10 87 0 140 4 140 10 0 6 37 10 90 10 53
0 90 4 90 10 0 6 40 10 100 10 60 0 100 4 100 10 0 6 38 10 95 10 78 0 95 3
95 15 0 12 18 15 105 15 87 0 105 3 105 15 0 8 9 15 20 15 18 0 20 -7 20 -60
l0 -60 -55 0 c-30 0 -55 -4 -55 -10 0 -6 30 -10 70 -10 l70 0 0 130 c0 99 -3
130 -13 130 -7 0 -19 9 -27 20 -8 11 -22 20 -32 20 -10 0 -18 5 -18 10 0 6 -7
10 -15 10 -8 0 -15 7 -15 15 0 9 -9 15 -25 15 -14 0 -25 5 -25 11 0 17 -27 39
-49 39 -12 0 -21 5 -21 10 0 6 -7 10 -16 10 -18 0 -44 23 -44 39 0 6 -11 11
-25 11 -14 0 -25 5 -25 10 0 6 -9 10 -20 10 -11 0 -20 7 -20 15 0 13 67 15
545 15 l545 0 0 535 0 535 275 0 c177 0 275 -4 275 -10 0 -5 11 -10 25 -10 14
0 25 -4 25 -10 0 -5 16 -10 35 -10 19 0 35 -4 35 -10 0 -6 72 -10 195 -10 123
0 195 4 195 10 0 6 -4 10 -10 10 -5 0 -10 9 -10 20 0 11 -5 20 -11 20 -19 0
-39 28 -39 55 0 24 -20 55 -35 55 -19 0 -35 34 -35 74 0 25 -4 46 -10 46 -5 0
-10 7 -10 15 0 13 43 15 330 15 287 0 330 -2 330 -15 0 -13 63 -15 510 -15
447 0 510 2 510 15 0 10 -10 15 -30 15 -16 0 -30 5 -30 10 0 7 -502 10 -1485
10 -1313 0 -1485 2 -1485 15 0 13 170 15 1470 15 973 0 1470 3 1470 10 0 6 7
10 15 10 8 0 15 5 15 10 0 7 -502 10 -1485 10 l-1485 0 0 60 c0 47 3 60 15 60
8 0 15 5 15 10 0 15 77 12 84 -2 5 -10 7 -10 12 0 7 14 84 17 84 2 0 -6 35
-10 85 -10 50 0 85 4 85 10 0 14 47 12 54 -2 5 -10 7 -10 12 0 7 15 154 17
154 2 0 -5 9 -10 20 -10 11 0 20 5 20 10 0 6 16 10 35 10 19 0 35 -4 35 -10 0
-6 33 -10 80 -10 47 0 80 4 80 10 0 6 9 10 20 10 11 0 20 -4 20 -10 0 -5 11
-10 25 -10 14 0 25 5 25 10 0 15 157 13 164 -2 5 -10 7 -10 12 0 7 14 74 17
74 2 0 -6 37 -10 90 -10 53 0 90 4 90 10 0 14 27 12 34 -2 5 -10 7 -10 12 0 7
15 154 17 154 2 0 -5 9 -10 20 -10 11 0 20 5 20 10 0 6 16 10 35 10 19 0 35
-4 35 -10 0 -15 177 -13 184 3 5 9 7 9 12 0 7 -15 34 -17 34 -3 0 15 157 13
164 -2 5 -10 7 -10 12 0 7 14 84 17 84 2 0 -6 38 -10 95 -10 57 0 95 4 95 10
0 6 38 10 95 10 57 0 95 -4 95 -10 0 -5 7 -10 15 -10 8 0 15 5 15 10 0 15 67
12 74 -2 5 -10 7 -10 12 0 7 14 34 16 34 2 0 -15 147 -13 153 3 4 9 8 8 17 -3
9 -11 13 -12 17 -2 6 14 63 17 63 2 0 -6 28 -10 65 -10 37 0 65 4 65 10 0 6 5
10 10 10 6 0 10 -45 10 -115 0 -96 3 -115 15 -115 13 0 15 31 15 215 0 184 -2
215 -15 215 -12 0 -15 -13 -15 -55 l0 -55 -64 0 c-42 0 -66 -4 -70 -12 -5 -10
-7 -10 -12 0 -4 9 -312 12 -1490 12 l-1484 0 0 25 c0 16 -6 25 -15 25 -9 0
-15 -9 -15 -25 l0 -25 -110 0 c-67 0 -110 -4 -110 -10 0 -6 -35 -10 -85 -10
l-85 0 0 -75 c0 -60 3 -75 15 -75 8 0 15 9 15 20 0 11 5 20 10 20 6 0 10 -9
10 -20 0 -15 7 -20 25 -20 18 0 25 5 25 20 0 13 7 20 20 20 13 0 20 -7 20 -20
0 -11 7 -20 15 -20 8 0 15 9 15 20 0 16 7 20 30 20 23 0 30 -4 30 -20 0 -11 5
-20 10 -20 6 0 10 9 10 20 0 18 7 20 70 20 l70 0 0 -40 0 -40 -155 0 c-97 0
-155 -4 -155 -10 0 -6 58 -10 155 -10 97 0 155 -4 155 -10 0 -6 -72 -10 -195
-10 l-195 0 0 -155 0 -155 -775 0 -775 0 0 25 c0 14 -5 25 -11 25 -31 0 -39
29 -39 144 l0 116 -520 0 -520 0 0 60 0 60 516 0 c574 0 544 -4 544 69 l0 41
-530 0 c-523 0 -530 0 -530 20 0 20 7 20 520 20 456 0 520 2 520 15 0 13 -64
15 -520 15 l-520 0 0 125 0 125 510 0 510 0 0 45 c0 25 5 45 10 45 6 0 10 27
10 60 0 33 4 60 10 60 6 0 10 32 10 75 l0 75 265 0 c170 0 265 4 265 10 0 6 7
10 15 10 8 0 15 -4 15 -10 0 -6 113 -10 320 -10 278 0 320 -2 320 -15 0 -8 5
-15 10 -15 6 0 10 7 10 15 0 13 21 15 125 15 l125 0 0 -45 c0 -25 5 -45 10
-45 6 0 10 -18 10 -40 0 -22 5 -40 10 -40 6 0 10 -27 10 -60 0 -47 3 -60 15
-60 12 0 15 -13 15 -55 0 -30 5 -55 10 -55 6 0 10 -28 10 -65 0 -37 4 -65 10
-65 6 0 10 -11 10 -25 0 -23 3 -25 50 -25 38 0 50 4 50 15 0 12 19 15 110 15
91 0 110 -3 110 -15 0 -11 12 -15 50 -15 47 0 50 2 50 25 l0 25 435 0 c283 0
435 3 435 10 0 6 20 10 45 10 25 0 45 -4 45 -10 0 -6 40 -10 100 -10 94 0 103
2 125 25 24 23 25 29 25 165 l0 140 125 0 c118 0 125 -1 125 -20 0 -11 7 -20
15 -20 8 0 15 9 15 20 0 20 7 20 515 20 l515 0 0 -100 0 -100 -150 0 -150 0 0
-45 0 -45 -160 0 c-100 0 -160 -4 -160 -10 0 -6 -72 -10 -195 -10 -123 0 -195
-4 -195 -10 0 -7 280 -10 820 -10 540 0 820 3 820 10 0 6 -33 10 -80 10 -47 0
-80 4 -80 10 0 6 -27 10 -60 10 -33 0 -60 -4 -60 -10 0 -6 -60 -10 -160 -10
l-160 0 0 25 c0 25 1 25 85 25 78 0 85 2 85 20 0 11 -7 20 -15 20 -8 0 -15 5
-15 10 0 6 -30 10 -70 10 -63 0 -70 2 -70 20 0 16 7 20 35 20 19 0 35 -4 35
-10 0 -5 11 -10 25 -10 14 0 25 5 25 10 0 6 16 10 35 10 19 0 35 5 35 10 0 6
-22 10 -50 10 -47 0 -50 2 -50 25 0 23 4 25 40 25 22 0 40 5 40 10 0 6 20 10
45 10 25 0 45 -4 45 -10 0 -5 14 -10 30 -10 28 0 30 3 30 35 0 19 -4 35 -10
35 -5 0 -10 -4 -10 -10 0 -6 -42 -10 -105 -10 -63 0 -105 4 -105 10 0 6 11 10
25 10 14 0 25 5 25 10 0 6 57 10 150 10 127 0 150 2 150 15 0 13 -183 15
-1590 15 -1407 0 -1590 -2 -1590 -15 0 -10 -10 -15 -30 -15 -20 0 -30 5 -30
15 0 10 10 15 28 15 16 0 34 8 42 20 14 20 26 20 1602 20 1052 0 1588 3 1588
10 0 7 -540 10 -1600 10 l-1600 0 0 55 c0 30 5 55 10 55 6 0 10 9 10 20 0 19
7 20 150 20 93 0 150 -4 150 -10 0 -5 23 -10 50 -10 28 0 50 5 50 10 0 16 457
13 464 -2 5 -10 7 -10 12 0 4 9 67 12 264 12 197 0 260 -3 264 -12 5 -10 7
-10 12 0 4 9 66 12 259 12 193 0 255 -3 259 -12 5 -10 7 -10 12 0 7 15 514 18
514 2 0 -5 7 -10 15 -10 8 0 15 5 15 10 0 6 80 10 220 10 140 0 220 -4 220
-10 0 -15 47 -12 53 3 4 9 8 8 16 -3 10 -13 12 -13 21 0 9 13 11 13 21 0 8
-11 12 -12 16 -2 6 15 193 17 193 2 0 -5 16 -10 35 -10 19 0 35 5 35 10 0 6
45 10 115 10 l115 0 0 55 0 55 -1785 0 -1785 0 0 39 c0 22 6 42 13 45 10 5 10
7 0 12 -7 3 -13 10 -13 15 0 5 710 9 1785 9 1183 0 1785 3 1785 10 0 6 -45 10
-115 10 -70 0 -115 4 -115 10 0 6 -7 10 -15 10 -8 0 -15 -4 -15 -10 0 -6 -50
-10 -131 -10 -135 0 -159 7 -159 44 0 12 10 16 40 16 33 0 40 -3 40 -20 0 -11
7 -20 15 -20 8 0 15 9 15 20 0 15 7 20 25 20 18 0 25 5 25 20 0 18 -7 20 -80
20 -73 0 -80 -2 -80 -20 0 -19 -7 -20 -195 -20 -188 0 -195 -1 -195 -20 0 -19
-7 -20 -245 -20 -157 0 -245 -4 -245 -10 0 -6 -83 -10 -230 -10 -147 0 -230 4
-230 10 0 6 -11 10 -25 10 -16 0 -25 6 -25 16 0 18 -23 44 -39 44 -6 0 -11 8
-11 18 0 10 -9 24 -20 32 -11 8 -20 20 -20 27 0 7 -4 13 -10 13 -5 0 -10 9
-10 21 0 22 -22 49 -40 49 -20 0 -40 28 -40 54 l0 26 790 0 790 0 0 -50 0 -50
40 0 c29 0 40 -4 40 -15 0 -11 -11 -15 -40 -15 -39 0 -40 -1 -40 -35 0 -19 5
-35 10 -35 6 0 10 5 10 10 0 6 14 10 30 10 17 0 30 -4 30 -10 0 -5 14 -10 30
-10 17 0 30 5 30 10 0 6 32 10 75 10 43 0 75 -4 75 -10 0 -5 7 -10 15 -10 10
0 15 11 15 35 0 24 -5 35 -15 35 -8 0 -15 -4 -15 -10 0 -6 -32 -10 -75 -10
-73 0 -75 1 -75 25 0 21 5 25 30 25 17 0 30 5 30 10 0 6 7 10 15 10 8 0 15 -4
15 -10 0 -5 20 -10 45 -10 l45 0 0 50 c0 38 -4 50 -15 50 -10 0 -15 -10 -15
-30 l0 -30 -75 0 -75 0 0 30 c0 30 1 30 55 30 30 0 55 5 55 10 0 7 -602 10
-1785 10 -1183 0 -1785 3 -1785 10 0 7 -428 10 -1265 10 l-1265 0 0 -95 c0
-57 -4 -95 -10 -95 -6 0 -10 -72 -10 -195 l0 -195 500 0 500 0 0 -110 0 -110
-500 0 -500 0 0 -60 0 -60 -30 0 c-28 0 -30 3 -30 35 0 24 -5 35 -15 35 -11 0
-15 -12 -15 -45 0 -25 -4 -45 -10 -45 -5 0 -10 5 -10 10 0 6 -7 10 -15 10 -9
0 -15 9 -15 25 0 23 -4 25 -40 25 -39 0 -40 -1 -40 -35 0 -19 -4 -35 -10 -35
-5 0 -10 9 -10 21 0 19 -21 49 -34 49 -3 0 -6 -11 -6 -25 0 -14 -4 -25 -10
-25 -5 0 -10 7 -10 15 0 8 -7 15 -15 15 -8 0 -15 -7 -15 -15 0 -8 -7 -15 -15
-15 -9 0 -15 9 -15 25 0 14 -4 25 -10 25 -5 0 -10 -11 -10 -25 0 -23 -3 -25
-50 -25 -38 0 -50 4 -50 15 0 8 -4 15 -10 15 -5 0 -10 9 -10 20 0 11 -7 20
-15 20 -10 0 -15 11 -15 35 0 19 -4 35 -10 35 -5 0 -10 -20 -10 -45 0 -25 -4
-45 -10 -45 -6 0 -10 -92 -10 -255 0 -175 -3 -255 -11 -255 -14 0 -39 25 -39
39 0 8 -375 11 -1275 11 -1268 0 -1275 0 -1275 20 0 20 7 20 695 20 611 0 695
2 695 15 0 8 5 15 10 15 6 0 10 -7 10 -15 0 -13 70 -15 570 -15 500 0 570 2
570 15 0 13 -40 15 -300 15 l-300 0 0 29 c0 16 6 32 13 35 10 5 10 7 0 12 -15
7 -17 44 -3 44 6 0 10 16 10 35 0 19 5 35 10 35 6 0 10 5 10 10 0 6 -22 10
-50 10 -27 0 -50 -4 -50 -10 0 -5 -9 -10 -20 -10 -11 0 -20 5 -20 10 0 6 -52
10 -135 10 -83 0 -135 -4 -135 -10 0 -5 -7 -10 -15 -10 -8 0 -15 5 -15 10 0 6
-16 10 -35 10 -19 0 -35 -4 -35 -10 0 -5 -11 -10 -25 -10 -14 0 -25 5 -25 10
0 6 -105 10 -295 10 -190 0 -295 4 -295 10 0 6 -4 10 -10 10 -6 0 -10 -40 -10
-100 0 -60 4 -100 10 -100 6 0 10 -7 10 -15 0 -13 -53 -15 -420 -15 l-420 0 0
125 0 125 420 0 420 0 0 255 0 255 264 0 c202 0 266 3 270 13 5 10 7 10 12 0
4 -10 71 -13 285 -13 l279 0 0 -40 0 -40 325 0 325 0 0 280 c0 242 -2 280 -15
280 -8 0 -15 5 -15 10 0 7 -435 10 -1285 10 l-1285 0 0 -70 c0 -56 -3 -70 -15
-70 -11 0 -15 -12 -15 -50 0 -38 4 -50 15 -50 8 0 15 -4 15 -10 0 -5 -7 -10
-15 -10 -13 0 -15 -43 -15 -330 l0 -330 -30 0 c-25 0 -30 4 -30 25 0 14 -4 25
-10 25 -5 0 -10 -11 -10 -25 0 -14 -4 -25 -10 -25 -5 0 -10 7 -10 15 0 8 -7
15 -15 15 -8 0 -15 5 -15 10 0 6 -4 10 -10 10 -5 0 -10 -11 -10 -25 0 -22 -4
-25 -35 -25 -24 0 -35 5 -35 15 0 8 -4 15 -10 15 -5 0 -10 -11 -10 -25 0 -14
-4 -25 -10 -25 -5 0 -10 5 -10 10 0 6 -13 10 -30 10 -16 0 -30 5 -30 11 0 11
-24 39 -34 39 -3 0 -6 -16 -6 -35 0 -19 -3 -35 -6 -35 -13 0 -34 30 -34 49 0
18 -6 21 -40 21 -39 0 -40 -1 -40 -35 0 -19 -4 -35 -10 -35 -5 0 -10 11 -10
25 0 20 -5 25 -25 25 l-25 0 0 435 c0 380 -2 435 -15 435 -8 0 -15 5 -15 10 0
7 -435 10 -1286 10 -1101 0 -1287 -2 -1300 -14 -17 -17 -21 -226 -4 -226 6 0
10 -37 10 -90 0 -53 -4 -90 -10 -90 -6 0 -10 -28 -10 -65 0 -37 4 -65 10 -65
6 0 10 -7 10 -15 0 -13 42 -15 315 -15 l315 0 0 40 0 40 219 0 c166 0 221 3
225 13 5 10 7 10 12 0 3 -7 21 -13 39 -13 18 0 36 6 39 13 5 10 7 10 12 0 4
-10 70 -13 280 -13 l274 0 0 -65 c0 -58 2 -65 20 -65 11 0 20 -4 20 -10 0 -5
-9 -10 -20 -10 -11 0 -20 -7 -20 -15 0 -8 9 -15 20 -15 19 0 20 -7 20 -165 l0
-165 275 0 275 0 0 -110 c0 -67 4 -110 10 -110 6 0 10 43 10 110 l0 110 135 0
135 0 0 -125 0 -125 -440 0 -440 0 0 30 c0 23 4 30 20 30 18 0 20 7 20 75 l0
75 -570 0 -570 0 0 -120 0 -120 975 0 c643 0 975 -3 975 -10 0 -5 7 -10 15
-10 8 0 15 -4 15 -10 0 -7 -438 -10 -1295 -10 -1288 0 -1295 0 -1295 20 0 11
-4 20 -10 20 -5 0 -10 7 -10 15 0 8 5 15 10 15 6 0 10 23 10 50 0 43 -3 50
-20 50 -19 0 -20 7 -20 110 0 88 -3 110 -14 110 -8 0 -17 6 -20 13 -5 10 -7
10 -12 0 -11 -25 -24 -13 -24 22 0 24 -5 35 -15 35 -8 0 -15 -4 -15 -10 0 -5
-11 -10 -25 -10 -14 0 -25 5 -25 10 0 6 -4 10 -10 10 -5 0 -10 -20 -10 -45 0
-25 -4 -45 -10 -45 -5 0 -10 5 -10 10 0 6 -6 10 -14 10 -8 0 -17 6 -20 13 -5
10 -7 10 -12 0 -12 -27 -34 -13 -34 22 0 24 -5 35 -15 35 -9 0 -15 -9 -15 -25
0 -18 -5 -25 -20 -25 -15 0 -20 7 -20 25 0 14 -4 25 -10 25 -5 0 -10 -11 -10
-25 0 -21 -5 -25 -30 -25 -28 0 -30 3 -30 35 0 19 -4 35 -10 35 -5 0 -10 -16
-10 -35 l0 -35 -50 0 c-47 0 -50 2 -50 25 0 14 -4 25 -10 25 -5 0 -10 16 -10
35 l0 35 -490 0 -490 0 0 110 0 110 490 0 490 0 0 90 c0 53 -4 90 -10 90 -6 0
-10 33 -10 80 0 47 4 80 10 80 6 0 10 43 10 110 0 103 -1 110 -20 110 -11 0
-20 5 -20 10 0 7 -425 10 -1255 10 -830 0 -1255 -3 -1255 -10z m-1740 -40 c0
-5 -4 -10 -10 -10 -5 0 -10 -8 -10 -18 0 -10 -9 -24 -20 -32 -11 -8 -20 -25
-20 -37 0 -14 -6 -23 -16 -23 -18 0 -44 -23 -44 -39 0 -6 -4 -11 -10 -11 -5 0
-10 -7 -10 -15 0 -18 -43 -65 -60 -65 -5 0 -10 -9 -10 -20 0 -20 -7 -20 -470
-20 -463 0 -470 0 -470 20 0 19 -7 20 -225 20 l-225 0 0 130 0 130 800 0 c527
0 800 -3 800 -10z m-1640 -30 c0 -13 -7 -20 -20 -20 -13 0 -20 7 -20 20 0 13
7 20 20 20 13 0 20 -7 20 -20z m18820 0 c0 -16 -7 -20 -30 -20 -23 0 -30 4
-30 20 0 16 7 20 30 20 23 0 30 -4 30 -20z m-18800 -71 c0 -16 -26 -39 -44
-39 -10 0 -16 9 -16 25 0 21 5 25 30 25 17 0 30 -5 30 -11z m10220 -344 c0
-96 -3 -115 -15 -115 -12 0 -15 19 -15 115 0 96 3 115 15 115 12 0 15 -19 15
-115z m-5860 -145 c0 -6 80 -10 220 -10 189 0 220 -2 220 -15 0 -9 9 -15 25
-15 23 0 25 -4 25 -40 0 -22 5 -40 10 -40 6 0 10 -20 10 -45 0 -25 -4 -45 -10
-45 -5 0 -10 -25 -10 -55 0 -30 5 -55 10 -55 14 0 12 -47 -2 -54 -10 -5 -10
-7 0 -12 6 -3 12 -23 12 -45 0 -32 3 -39 20 -39 13 0 20 7 20 20 0 11 5 20 10
20 6 0 10 14 10 30 l0 30 320 0 c207 0 320 -4 320 -10 0 -5 11 -10 25 -10 14
0 25 5 25 10 0 6 58 10 155 10 l155 0 0 -65 c0 -37 -4 -65 -10 -65 -6 0 -10
-27 -10 -60 0 -33 4 -60 10 -60 6 0 10 -7 10 -15 0 -8 -4 -15 -10 -15 -5 0
-10 -9 -10 -20 0 -20 -7 -20 -520 -20 l-520 0 0 -55 0 -55 520 0 520 0 0 -60
0 -60 -490 0 c-320 0 -490 3 -490 10 0 6 -4 10 -10 10 -6 0 -10 -35 -10 -85 0
-78 -2 -85 -20 -85 -18 0 -20 -7 -20 -55 0 -30 -4 -55 -10 -55 -5 0 -10 -11
-10 -25 l0 -25 -780 0 -780 0 0 24 c0 13 -6 27 -12 30 -10 5 -10 7 0 12 18 9
14 38 -8 54 -21 15 -27 40 -10 40 6 0 10 18 10 40 0 22 -4 40 -10 40 -5 0 -10
16 -10 35 0 34 -1 35 -38 35 -26 0 -42 6 -52 20 -13 18 -26 20 -142 20 l-128
0 0 40 0 40 45 0 c38 0 45 -3 45 -20 0 -11 5 -20 10 -20 6 0 10 9 10 20 0 15
7 20 25 20 18 0 25 -5 25 -20 0 -11 7 -20 15 -20 8 0 15 9 15 20 0 15 7 20 25
20 18 0 25 -5 25 -20 0 -11 5 -20 10 -20 6 0 10 9 10 20 0 15 7 20 25 20 18 0
25 -5 25 -20 0 -15 7 -20 25 -20 24 0 25 2 25 75 l0 75 -85 0 c-50 0 -85 4
-85 10 0 6 -38 10 -95 10 l-95 0 0 40 c0 22 5 40 10 40 6 0 10 7 10 15 0 13
20 15 120 15 100 0 120 -2 120 -15 0 -12 14 -15 70 -15 l70 0 0 35 c0 19 -4
35 -10 35 -5 0 -10 5 -10 10 0 6 11 10 25 10 24 0 25 2 25 65 0 37 4 65 10 65
6 0 10 27 10 60 0 33 4 60 10 60 6 0 10 25 10 55 0 30 5 55 10 55 6 0 10 23
10 50 0 38 4 50 15 50 8 0 15 7 15 15 0 13 30 15 210 15 175 0 210 -2 210 -14
0 -8 6 -17 13 -20 10 -5 10 -7 0 -12 -7 -3 -13 -14 -13 -25 0 -14 7 -19 30
-19 23 0 30 4 30 20 0 11 -4 20 -10 20 -5 0 -10 11 -10 25 l0 25 215 0 215 0
0 -25 c0 -16 -6 -25 -15 -25 -8 0 -15 -9 -15 -20 0 -15 7 -20 25 -20 24 0 25
3 25 55 0 48 2 55 20 55 11 0 20 -4 20 -10z m14150 -240 c0 -5 -11 -10 -25
-10 -14 0 -25 5 -25 10 0 6 11 10 25 10 14 0 25 -4 25 -10z m0 -85 c0 -20 -5
-25 -25 -25 -16 0 -25 6 -25 15 0 8 -4 15 -10 15 -5 0 -10 5 -10 10 0 6 16 10
35 10 31 0 35 -3 35 -25z m-7250 -185 c0 -5 -7 -10 -15 -10 -8 0 -15 5 -15 10
0 6 7 10 15 10 8 0 15 -4 15 -10z m5800 0 c0 -5 -7 -10 -15 -10 -8 0 -15 5
-15 10 0 6 7 10 15 10 8 0 15 -4 15 -10z m-9500 -20 c0 -5 -4 -10 -10 -10 -5
0 -10 5 -10 10 0 6 5 10 10 10 6 0 10 -4 10 -10z m300 0 c0 -5 -7 -10 -15 -10
-8 0 -15 5 -15 10 0 6 7 10 15 10 8 0 15 -4 15 -10z m3210 0 c0 -5 -4 -10 -10
-10 -5 0 -10 5 -10 10 0 6 5 10 10 10 6 0 10 -4 10 -10z m340 0 c0 -5 -7 -10
-15 -10 -8 0 -15 5 -15 10 0 6 7 10 15 10 8 0 15 -4 15 -10z m-3710 -45 c0 -8
-7 -15 -15 -15 -8 0 -15 7 -15 15 0 8 7 15 15 15 8 0 15 -7 15 -15z m3250 0
c0 -8 -4 -15 -10 -15 -5 0 -10 7 -10 15 0 8 5 15 10 15 6 0 10 -7 10 -15z
m580 0 c0 -8 -4 -15 -10 -15 -5 0 -10 7 -10 15 0 8 5 15 10 15 6 0 10 -7 10
-15z m-2460 -275 l0 -50 -1280 0 -1280 0 0 50 0 50 1280 0 1280 0 0 -50z
m3180 21 c0 -16 -6 -32 -12 -35 -10 -5 -10 -7 0 -12 6 -3 12 -10 12 -15 0 -5
-513 -9 -1285 -9 l-1285 0 0 50 0 50 1285 0 1285 0 0 -29z m-5720 -291 c0 -93
4 -150 10 -150 6 0 10 5 10 10 0 6 9 10 20 10 11 0 20 5 20 10 0 6 5 10 10 10
6 0 10 -18 10 -40 0 -22 -4 -40 -10 -40 -5 0 -10 -11 -10 -25 0 -21 -5 -25
-30 -25 -25 0 -30 -4 -30 -25 0 -18 -5 -25 -20 -25 -11 0 -20 5 -20 10 0 6 5
10 10 10 6 0 10 14 10 30 0 17 -4 30 -10 30 -5 0 -10 23 -10 50 0 28 5 50 10
50 6 0 10 16 10 35 0 19 -4 35 -10 35 -6 0 -10 38 -10 95 0 88 1 95 20 95 19
0 20 -7 20 -150z m5720 -145 c0 -118 -1 -125 -20 -125 -11 0 -20 7 -20 15 0 8
-4 15 -10 15 -5 0 -10 7 -10 15 0 8 -4 15 -10 15 -5 0 -10 9 -10 20 0 13 -7
20 -20 20 -16 0 -20 7 -20 30 0 27 3 30 30 30 17 0 30 -4 30 -10 0 -5 9 -10
20 -10 18 0 20 7 20 55 0 30 5 55 10 55 6 0 10 -48 10 -125z m-4250 -15 c0 -5
-18 -10 -40 -10 -22 0 -40 5 -40 10 0 6 18 10 40 10 22 0 40 -4 40 -10z m1070
-20 c0 -6 -135 -10 -385 -10 -250 0 -385 4 -385 10 0 6 135 10 385 10 250 0
385 -4 385 -10z m1390 0 c0 -6 -137 -10 -390 -10 -253 0 -390 4 -390 10 0 6
137 10 390 10 253 0 390 -4 390 -10z m-3404 -194 c8 -8 14 -22 14 -30 0 -9 5
-16 10 -16 6 0 10 -7 10 -15 0 -8 7 -15 15 -15 10 0 15 -10 15 -30 0 -20 5
-30 15 -30 8 0 15 -8 15 -18 0 -10 9 -24 20 -32 11 -8 20 -25 20 -37 0 -13 5
-23 10 -23 6 0 10 -13 10 -30 0 -20 5 -30 15 -30 13 0 15 -31 15 -215 l0 -215
-325 0 c-282 0 -325 2 -325 15 0 13 34 15 250 15 216 0 250 2 250 15 0 13 -34
15 -250 15 -160 0 -250 4 -250 10 0 6 87 10 240 10 153 0 240 4 240 10 0 6 -4
10 -10 10 -5 0 -10 7 -10 15 0 8 -4 15 -10 15 -5 0 -10 7 -10 15 0 8 -4 15
-10 15 -5 0 -10 7 -10 16 0 18 -23 44 -39 44 -6 0 -11 11 -11 25 0 16 -6 25
-15 25 -8 0 -15 7 -15 15 0 8 -4 15 -10 15 -5 0 -10 9 -10 20 0 11 -4 20 -10
20 -5 0 -10 9 -10 20 0 11 -4 20 -10 20 -5 0 -10 7 -10 15 0 8 -7 15 -15 15
-9 0 -15 9 -15 25 0 18 -5 25 -20 25 -11 0 -20 7 -20 15 0 8 -4 15 -10 15 -5
0 -10 11 -10 25 0 14 -4 25 -10 25 -5 0 -10 9 -10 20 0 11 -7 20 -15 20 -9 0
-15 9 -15 25 0 16 -6 25 -15 25 -8 0 -15 7 -15 15 0 8 -4 15 -10 15 -5 0 -10
11 -10 25 0 14 -5 25 -11 25 -11 0 -39 24 -39 34 0 3 93 6 206 6 165 0 208 -3
220 -14z m4374 -91 c0 -11 11 -15 40 -15 29 0 40 4 40 15 0 12 13 15 60 15 47
0 60 -3 60 -15 0 -8 -7 -15 -15 -15 -9 0 -15 -9 -15 -25 0 -14 -5 -25 -11 -25
-20 0 -39 -29 -39 -59 0 -17 -4 -31 -10 -31 -5 0 -10 -13 -10 -30 0 -16 -4
-30 -10 -30 -5 0 -10 -11 -10 -25 0 -14 -5 -25 -11 -25 -16 0 -39 -26 -39 -44
0 -9 -7 -16 -15 -16 -9 0 -15 -9 -15 -25 0 -14 -4 -25 -10 -25 -5 0 -10 -11
-10 -25 0 -16 -6 -25 -15 -25 -8 0 -15 -9 -15 -20 0 -11 -7 -20 -15 -20 -8 0
-15 -4 -15 -10 0 -5 -7 -10 -15 -10 -10 0 -15 -10 -15 -30 0 -16 -4 -30 -10
-30 -5 0 -10 -9 -10 -20 0 -11 -4 -20 -10 -20 -5 0 -10 -7 -10 -15 0 -8 -4
-15 -10 -15 -5 0 -10 -11 -10 -25 0 -16 -6 -25 -15 -25 -8 0 -15 -9 -15 -20 0
-11 -7 -20 -15 -20 -8 0 -15 -7 -15 -15 0 -12 -14 -15 -65 -15 -63 0 -65 1
-65 25 0 14 5 25 10 25 6 0 10 16 10 35 0 19 5 35 10 35 6 0 10 11 10 25 0 16
6 25 15 25 11 0 15 11 15 40 0 22 5 40 10 40 6 0 10 9 10 20 0 11 5 20 10 20
6 0 10 16 10 35 0 19 5 35 10 35 6 0 10 11 10 25 0 16 6 25 15 25 8 0 15 9 15
20 0 11 7 20 15 20 10 0 15 11 15 35 0 19 5 35 10 35 6 0 10 14 10 30 0 17 5
30 10 30 6 0 10 16 10 35 0 19 5 35 10 35 6 0 10 9 10 20 0 11 7 20 15 20 8 0
15 7 15 15 0 10 10 15 30 15 20 0 30 5 30 15 0 8 5 15 10 15 6 0 10 -7 10 -15z
m740 -575 c0 -6 -90 -10 -250 -10 -216 0 -250 -2 -250 -15 0 -13 34 -15 250
-15 216 0 250 -2 250 -15 0 -13 -43 -15 -330 -15 l-330 0 0 30 0 30 70 0 c40
0 70 4 70 10 0 6 93 10 260 10 167 0 260 -4 260 -10z m-4630 -25 c0 -11 12
-15 45 -15 41 0 45 -2 45 -25 0 -14 5 -25 10 -25 6 0 10 -9 10 -20 0 -18 -7
-20 -55 -20 -43 0 -55 3 -55 16 0 18 -23 44 -39 44 -6 0 -11 14 -11 30 0 25 4
30 25 30 16 0 25 -6 25 -15z m-780 -95 c0 -5 -13 -10 -30 -10 -20 0 -30 -5
-30 -15 0 -10 10 -15 30 -15 20 0 30 -5 30 -15 0 -12 -15 -15 -75 -15 -60 0
-75 3 -75 15 0 8 9 15 20 15 11 0 20 7 20 15 0 8 -4 15 -10 15 -5 0 -10 5 -10
10 0 6 28 10 65 10 37 0 65 -4 65 -10z m5310 -15 c0 -14 5 -25 10 -25 6 0 10
-7 10 -15 0 -8 -4 -15 -10 -15 -5 0 -10 7 -10 15 0 8 -7 15 -15 15 -8 0 -15
-7 -15 -15 0 -11 -11 -15 -40 -15 -29 0 -40 4 -40 15 0 10 10 15 30 15 20 0
30 5 30 15 0 10 -10 15 -30 15 -16 0 -30 5 -30 10 0 6 25 10 55 10 52 0 55 -1
55 -25z m-5140 -10 c0 -8 -4 -15 -10 -15 -5 0 -10 -7 -10 -15 0 -8 -4 -15 -10
-15 -5 0 -10 7 -10 15 0 9 -9 15 -25 15 -16 0 -25 6 -25 15 0 11 12 15 45 15
33 0 45 -4 45 -15z m190 -25 c0 -36 -2 -40 -25 -40 -14 0 -25 5 -25 10 0 6 -9
10 -20 10 -11 0 -20 7 -20 15 0 8 9 15 20 15 11 0 20 7 20 15 0 9 9 15 25 15
23 0 25 -4 25 -40z m4530 25 c0 -8 9 -15 20 -15 11 0 20 -7 20 -15 0 -10 -10
-15 -30 -15 -16 0 -30 -4 -30 -10 0 -5 -13 -10 -30 -10 -25 0 -30 4 -30 25 0
16 6 25 15 25 8 0 15 7 15 15 0 9 9 15 25 15 16 0 25 -6 25 -15z m200 0 c0 -8
-4 -15 -10 -15 -14 0 -12 -28 3 -33 7 -2 8 -8 3 -13 -5 -5 -11 -4 -13 4 -3 6
-13 12 -24 12 -10 0 -19 7 -19 15 0 8 -7 15 -15 15 -8 0 -15 7 -15 15 0 11 12
15 45 15 33 0 45 -4 45 -15z m-4980 -55 c0 -5 -7 -10 -15 -10 -8 0 -15 5 -15
10 0 6 7 10 15 10 8 0 15 -4 15 -10z m390 0 c0 -5 -4 -10 -10 -10 -5 0 -10 5
-10 10 0 6 5 10 10 10 6 0 10 -4 10 -10z m-350 -50 c0 -6 -60 -10 -160 -10
-100 0 -160 4 -160 10 0 6 60 10 160 10 100 0 160 -4 160 -10z m5260 0 c0 -6
-70 -10 -190 -10 -120 0 -190 4 -190 10 0 6 70 10 190 10 120 0 190 -4 190
-10z m-4710 -20 c0 -6 55 -10 145 -10 90 0 145 -4 145 -10 0 -6 52 -10 135
-10 113 0 135 -2 135 -15 0 -8 5 -15 10 -15 6 0 10 7 10 15 0 8 7 15 15 15 8
0 15 -7 15 -15 0 -12 14 -15 65 -15 l65 0 0 -70 0 -70 -40 0 c-36 0 -40 3 -40
25 0 16 -6 25 -15 25 -8 0 -15 5 -15 10 0 6 -27 10 -60 10 l-60 0 0 -45 0 -45
-66 0 c-78 0 -94 12 -94 69 l0 41 -55 0 c-30 0 -55 -4 -55 -10 0 -5 -7 -10
-15 -10 -8 0 -15 -4 -15 -10 0 -5 -25 -10 -55 -10 -30 0 -55 5 -55 10 0 6 5
10 10 10 6 0 10 5 10 10 0 6 -9 10 -20 10 -11 0 -20 5 -20 10 0 6 -22 10 -50
10 -49 0 -50 -1 -50 -30 l0 -30 -65 0 -65 0 0 30 c0 17 -4 30 -10 30 -5 0 -10
7 -10 15 0 8 -7 15 -15 15 -10 0 -15 11 -15 35 l0 35 100 0 c60 0 100 -4 100
-10z m4020 -35 c0 -20 -5 -25 -25 -25 -15 0 -25 -6 -25 -14 0 -8 -6 -17 -12
-20 -10 -5 -10 -7 0 -12 6 -3 12 -14 12 -25 0 -17 -8 -19 -65 -19 l-65 0 0 45
c0 41 2 45 25 45 16 0 25 6 25 15 0 10 10 15 30 15 17 0 30 5 30 10 0 6 16 10
35 10 31 0 35 -3 35 -25z m-4240 -65 c0 -7 -147 -10 -420 -10 -273 0 -420 3
-420 10 0 7 147 10 420 10 273 0 420 -3 420 -10z m8370 -85 l0 -35 -115 0
c-70 0 -115 -4 -115 -10 0 -6 -38 -10 -95 -10 -78 0 -95 -3 -95 -15 0 -12 -18
-15 -100 -15 -82 0 -100 -3 -100 -15 0 -10 -11 -15 -35 -15 -24 0 -35 5 -35
15 0 9 -9 15 -25 15 -16 0 -25 -6 -25 -15 0 -12 -17 -15 -95 -15 -78 0 -95 -3
-95 -15 0 -12 -17 -15 -95 -15 -57 0 -95 -4 -95 -10 0 -7 -585 -10 -1735 -10
-1150 0 -1735 3 -1735 10 0 7 550 10 1630 10 1442 0 1630 2 1630 15 0 8 5 15
10 15 6 0 10 7 10 15 0 12 13 15 60 15 47 0 60 -3 60 -15 0 -12 14 -15 70 -15
56 0 70 3 70 15 0 12 -13 15 -55 15 -42 0 -55 3 -55 15 0 12 14 15 70 15 56 0
70 -3 70 -15 0 -12 16 -15 80 -15 64 0 80 3 80 15 0 11 12 15 50 15 28 0 50 5
50 10 0 6 23 10 50 10 28 0 50 -4 50 -10 0 -5 14 -10 30 -10 17 0 30 5 30 10
0 6 -4 10 -10 10 -5 0 -10 5 -10 10 0 6 27 10 60 10 33 0 60 -4 60 -10 0 -6
37 -10 90 -10 53 0 90 4 90 10 0 6 -22 10 -50 10 -27 0 -50 5 -50 10 0 6 23
10 50 10 28 0 50 -4 50 -10 0 -6 33 -10 80 -10 47 0 80 4 80 10 0 6 16 10 35
10 24 0 35 5 35 15 0 11 12 15 45 15 45 0 45 0 45 -35z m-12100 -5 c0 -5 -22
-10 -50 -10 -27 0 -50 5 -50 10 0 6 23 10 50 10 28 0 50 -4 50 -10z m7440 0
c0 -5 -9 -10 -20 -10 -11 0 -20 5 -20 10 0 6 9 10 20 10 11 0 20 -4 20 -10z
m-6910 -40 c0 -5 -16 -10 -35 -10 -19 0 -35 5 -35 10 0 6 16 10 35 10 19 0 35
-4 35 -10z m10690 0 c0 -5 -11 -10 -25 -10 -14 0 -25 5 -25 10 0 6 11 10 25
10 14 0 25 -4 25 -10z m-3250 -420 l0 -40 -110 0 c-67 0 -110 -4 -110 -10 0
-6 -35 -10 -85 -10 -50 0 -85 4 -85 10 0 6 30 10 70 10 56 0 70 3 70 15 0 13
-20 15 -120 15 -73 0 -120 4 -120 10 0 6 32 10 75 10 60 0 75 3 75 15 0 13 26
15 170 15 l170 0 0 -40z m-550 -25 c0 -10 -11 -15 -35 -15 -24 0 -35 5 -35 15
0 10 11 15 35 15 24 0 35 -5 35 -15z m140 -45 c0 -5 -11 -10 -25 -10 -14 0
-25 5 -25 10 0 6 11 10 25 10 14 0 25 -4 25 -10z m-3340 -20 c0 -5 -13 -10
-30 -10 -16 0 -30 5 -30 10 0 6 14 10 30 10 17 0 30 -4 30 -10z"/>
<path d="M19120 10080 c0 -6 80 -10 220 -10 140 0 220 4 220 10 0 6 -80 10
-220 10 -140 0 -220 -4 -220 -10z"/>
<path d="M19740 9940 c0 -33 4 -60 10 -60 6 0 10 27 10 60 0 33 -4 60 -10 60
-6 0 -10 -27 -10 -60z"/>
<path d="M17190 9865 c0 -12 18 -15 100 -15 82 0 100 3 100 15 0 12 -18 15
-100 15 -82 0 -100 -3 -100 -15z"/>
<path d="M13850 11110 c0 -5 9 -10 20 -10 11 0 20 5 20 10 0 6 -9 10 -20 10
-11 0 -20 -4 -20 -10z"/>
<path d="M13850 10860 c0 -24 6 -25 26 -6 19 20 18 26 -6 26 -13 0 -20 -7 -20
-20z"/>
<path d="M33123 10865 c-19 -21 -16 -25 22 -25 28 0 35 4 35 20 0 24 -38 27
-57 5z"/>
<path d="M28680 10420 c0 -11 5 -20 10 -20 6 0 10 9 10 20 0 11 -4 20 -10 20
-5 0 -10 -9 -10 -20z"/>
<path d="M28750 10420 c0 -15 7 -20 25 -20 18 0 25 5 25 20 0 15 -7 20 -25 20
-18 0 -25 -5 -25 -20z"/>
<path d="M20650 10235 l0 -105 305 0 305 0 0 105 0 105 -305 0 -305 0 0 -105z"/>
<path d="M25790 10315 c0 -14 5 -25 10 -25 6 0 10 -33 10 -80 l0 -80 290 0
290 0 0 105 0 105 -300 0 -300 0 0 -25z"/>
<path d="M13980 10305 c0 -12 13 -15 59 -15 38 0 61 -5 65 -12 5 -10 7 -10 12
0 7 15 164 17 164 2 0 -5 11 -10 25 -10 14 0 25 -4 25 -10 0 -6 -45 -10 -115
-10 l-115 0 0 -125 0 -125 -35 0 c-19 0 -35 -4 -35 -10 0 -6 -37 -10 -90 -10
-53 0 -90 -4 -90 -10 0 -7 268 -10 785 -10 517 0 785 3 785 10 0 6 -70 10
-190 10 -120 0 -190 4 -190 10 0 6 -72 10 -195 10 l-195 0 0 45 0 45 -90 0
-90 0 0 115 0 115 -245 0 c-211 0 -245 -2 -245 -15z m440 -45 c0 -5 -16 -10
-35 -10 -19 0 -35 5 -35 10 0 6 16 10 35 10 19 0 35 -4 35 -10z m-170 -50 c0
-5 18 -10 40 -10 36 0 40 -2 40 -25 l0 -25 -105 0 -105 0 0 25 c0 23 4 25 45
25 25 0 45 5 45 10 0 6 9 10 20 10 11 0 20 -4 20 -10z m200 -20 c0 -5 -7 -10
-15 -10 -8 0 -15 -7 -15 -15 0 -10 -11 -15 -35 -15 -37 0 -44 11 -22 35 14 16
87 20 87 5z m-150 -70 c0 -15 97 -12 104 3 5 10 7 10 12 0 3 -7 12 -13 20 -13
8 0 14 -4 14 -10 0 -6 -27 -10 -60 -10 -33 0 -60 -4 -60 -10 0 -5 -11 -10 -25
-10 -18 0 -25 -5 -25 -20 0 -15 7 -20 25 -20 16 0 25 -6 25 -15 0 -8 5 -15 10
-15 6 0 10 7 10 15 0 11 12 15 50 15 47 0 50 -2 50 -25 l0 -25 -165 0 -165 0
0 25 c0 18 5 25 20 25 16 0 20 7 20 30 0 23 -4 30 -20 30 -13 0 -20 7 -20 20
0 19 7 20 90 20 53 0 90 -4 90 -10z"/>
<path d="M33350 10305 c0 -10 10 -15 30 -15 20 0 30 5 30 15 0 10 -10 15 -30
15 -20 0 -30 -5 -30 -15z"/>
<path d="M28010 10165 c0 -8 5 -15 10 -15 6 0 10 7 10 15 0 8 -4 15 -10 15 -5
0 -10 -7 -10 -15z"/>
<path d="M32880 10165 c0 -11 -12 -15 -45 -15 -25 0 -45 -4 -45 -10 0 -5 25
-10 55 -10 52 0 55 1 55 25 0 14 -4 25 -10 25 -5 0 -10 -7 -10 -15z"/>
<path d="M28010 10120 c0 -5 5 -10 10 -10 6 0 10 5 10 10 0 6 -4 10 -10 10 -5
0 -10 -4 -10 -10z"/>
<path d="M32840 10080 c0 -5 5 -10 10 -10 6 0 10 -9 10 -20 0 -13 7 -20 20
-20 16 0 20 7 20 30 0 27 -3 30 -30 30 -16 0 -30 -4 -30 -10z"/>
<path d="M31490 9970 c0 -5 7 -10 15 -10 8 0 15 5 15 10 0 6 -7 10 -15 10 -8
0 -15 -4 -15 -10z"/>
<path d="M22440 9925 c0 -8 5 -15 10 -15 6 0 10 7 10 15 0 8 -4 15 -10 15 -5
0 -10 -7 -10 -15z"/>
<path d="M22900 9925 c0 -8 5 -15 10 -15 6 0 10 7 10 15 0 8 -4 15 -10 15 -5
0 -10 -7 -10 -15z"/>
<path d="M24270 9925 c0 -8 5 -15 10 -15 6 0 10 7 10 15 0 8 -4 15 -10 15 -5
0 -10 -7 -10 -15z"/>
<path d="M26990 9925 c0 -8 5 -15 10 -15 6 0 10 7 10 15 0 8 -4 15 -10 15 -5
0 -10 -7 -10 -15z"/>
<path d="M29610 9865 c0 -12 19 -15 115 -15 96 0 115 3 115 15 0 12 -19 15
-115 15 -96 0 -115 -3 -115 -15z"/>
<path d="M13890 9495 c0 -13 66 -15 535 -15 l535 0 0 -70 c0 -40 4 -70 10 -70
6 0 10 -35 10 -85 0 -50 4 -85 10 -85 6 0 10 35 10 85 0 50 -4 85 -10 85 -6 0
-10 35 -10 85 l0 85 -545 0 c-478 0 -545 -2 -545 -15z"/>
<path d="M17250 7670 c0 -5 20 -10 45 -10 25 0 45 5 45 10 0 6 -20 10 -45 10
-25 0 -45 -4 -45 -10z"/>
<path d="M17500 7640 c0 -18 7 -20 75 -20 68 0 75 2 75 20 0 18 -7 20 -75 20
-68 0 -75 -2 -75 -20z"/>
<path d="M29310 7640 c0 -19 -7 -20 -90 -20 -53 0 -90 -4 -90 -10 0 -6 37 -10
90 -10 53 0 90 4 90 10 0 6 35 10 85 10 78 0 85 2 85 20 0 18 -7 20 -85 20
-78 0 -85 -2 -85 -20z"/>
<path d="M29500 7640 c0 -11 5 -20 10 -20 6 0 10 9 10 20 0 11 -4 20 -10 20
-5 0 -10 -9 -10 -20z"/>
<path d="M17670 7610 c0 -6 37 -10 90 -10 53 0 90 4 90 10 0 6 -37 10 -90 10
-53 0 -90 -4 -90 -10z"/>
<path d="M17550 7590 c0 -5 14 -10 30 -10 17 0 30 5 30 10 0 6 -13 10 -30 10
-16 0 -30 -4 -30 -10z"/>
<path d="M17910 7590 c0 -6 27 -10 60 -10 33 0 60 4 60 10 0 6 -27 10 -60 10
-33 0 -60 -4 -60 -10z"/>
<path d="M18110 7590 c0 -5 11 -10 25 -10 14 0 25 -4 25 -10 0 -6 38 -10 95
-10 57 0 95 -4 95 -10 0 -6 38 -10 95 -10 57 0 95 4 95 10 0 6 -38 10 -95 10
-57 0 -95 4 -95 10 0 6 -38 10 -95 10 -57 0 -95 4 -95 10 0 6 -11 10 -25 10
-14 0 -25 -4 -25 -10z"/>
<path d="M28820 7590 c0 -6 -38 -10 -95 -10 -57 0 -95 -4 -95 -10 0 -6 -35
-10 -85 -10 -50 0 -85 -4 -85 -10 0 -6 35 -10 85 -10 50 0 85 4 85 10 0 6 38
10 95 10 57 0 95 4 95 10 0 6 11 10 25 10 14 0 25 5 25 10 0 6 -11 10 -25 10
-14 0 -25 -4 -25 -10z"/>
<path d="M28950 7590 c0 -5 25 -10 55 -10 30 0 55 5 55 10 0 6 -25 10 -55 10
-30 0 -55 -4 -55 -10z"/>
<path d="M29370 7590 c0 -5 14 -10 30 -10 17 0 30 5 30 10 0 6 -13 10 -30 10
-16 0 -30 -4 -30 -10z"/>
<path d="M17720 7570 c0 -5 11 -10 25 -10 14 0 25 5 25 10 0 6 -11 10 -25 10
-14 0 -25 -4 -25 -10z"/>
<path d="M29190 7570 c0 -5 14 -10 30 -10 17 0 30 5 30 10 0 6 -13 10 -30 10
-16 0 -30 -4 -30 -10z"/>
<path d="M18200 7520 c0 -16 7 -20 35 -20 28 0 35 4 35 20 0 16 -7 20 -35 20
-28 0 -35 -4 -35 -20z"/>
<path d="M28700 7520 c0 -17 7 -20 50 -20 43 0 50 3 50 20 0 17 -7 20 -50 20
-43 0 -50 -3 -50 -20z"/>
<path d="M18370 7490 c0 -5 16 -10 35 -10 19 0 35 5 35 10 0 6 -16 10 -35 10
-19 0 -35 -4 -35 -10z"/>
<path d="M28540 7490 c0 -5 20 -10 45 -10 25 0 45 5 45 10 0 6 -20 10 -45 10
-25 0 -45 -4 -45 -10z"/>
<path d="M18560 7470 c0 -5 5 -10 10 -10 6 0 10 5 10 10 0 6 -4 10 -10 10 -5
0 -10 -4 -10 -10z"/>
<path d="M21450 7245 c0 -16 6 -25 15 -25 9 0 15 9 15 25 0 16 -6 25 -15 25
-9 0 -15 -9 -15 -25z"/>
<path d="M24940 5955 c0 -12 -13 -15 -60 -15 -33 0 -60 -4 -60 -10 0 -5 -7
-10 -15 -10 -9 0 -15 -9 -15 -25 0 -14 -4 -25 -10 -25 -5 0 -10 -9 -10 -20 0
-11 -7 -20 -15 -20 -8 0 -15 -9 -15 -20 0 -11 -4 -20 -10 -20 -5 0 -10 -13
-10 -30 0 -28 -2 -30 -40 -30 -22 0 -40 -4 -40 -10 0 -15 -70 -12 -86 4 -8 8
-14 26 -14 40 0 14 -4 26 -10 26 -5 0 -10 9 -10 20 0 11 -6 20 -13 20 -7 0
-19 9 -27 20 -12 17 -26 20 -92 20 -45 0 -78 -4 -78 -10 0 -5 -9 -10 -20 -10
-13 0 -20 -7 -20 -20 0 -11 -7 -20 -15 -20 -11 0 -15 -11 -15 -40 0 -29 -4
-40 -15 -40 -8 0 -15 -7 -15 -15 0 -9 -11 -27 -25 -40 -22 -23 -31 -25 -120
-25 -98 0 -125 9 -125 42 0 8 -9 20 -20 28 -12 8 -20 26 -20 42 0 20 -5 28
-18 28 -10 0 -24 9 -32 20 -13 18 -26 20 -143 20 -122 0 -129 -1 -152 -25 -14
-13 -25 -36 -25 -50 0 -16 -6 -25 -16 -25 -18 0 -44 -23 -44 -40 0 -33 -28
-40 -155 -40 -127 0 -155 7 -155 40 0 17 -26 40 -44 40 -10 0 -16 9 -16 25 0
14 -11 37 -25 50 -21 22 -33 25 -90 25 -37 0 -65 4 -65 10 0 15 -80 12 -96 -4
-8 -8 -14 -22 -14 -30 0 -9 -4 -16 -10 -16 -5 0 -10 -18 -10 -40 0 -29 -4 -40
-15 -40 -8 0 -15 -4 -15 -10 0 -6 -42 -10 -105 -10 -98 0 -105 1 -105 20 0 11
-4 20 -10 20 -5 0 -10 14 -10 30 0 17 -4 30 -10 30 -5 0 -10 9 -10 20 0 11 -7
20 -15 20 -8 0 -15 9 -15 20 0 11 -4 20 -10 20 -5 0 -10 7 -10 15 0 11 -12 15
-50 15 -27 0 -50 5 -50 10 0 6 -12 10 -26 10 -26 0 -54 -20 -54 -39 0 -6 -4
-11 -10 -11 -5 0 -10 -9 -10 -20 0 -11 -7 -20 -15 -20 -8 0 -15 -9 -15 -20 0
-19 -7 -20 -95 -20 l-95 0 0 -85 0 -85 60 0 c33 0 60 -4 60 -10 0 -5 9 -10 21
-10 22 0 49 22 49 39 0 6 7 11 15 11 8 0 15 7 15 15 0 9 11 27 25 40 20 21 34
25 80 25 30 0 55 -4 55 -10 0 -5 7 -10 16 -10 20 0 44 -24 44 -44 0 -9 7 -16
15 -16 9 0 15 -9 15 -25 0 -14 5 -25 10 -25 6 0 10 -11 10 -25 0 -22 4 -25 40
-25 22 0 40 -4 40 -10 0 -6 32 -10 75 -10 43 0 75 4 75 10 0 6 7 10 15 10 8 0
15 7 15 15 0 8 5 15 10 15 6 0 10 9 10 20 0 11 5 20 10 20 6 0 10 5 10 11 0
17 27 39 49 39 12 0 21 -4 21 -10 0 -6 33 -10 80 -10 64 0 80 -3 80 -15 0 -8
5 -15 10 -15 6 0 10 -9 10 -20 0 -11 5 -20 10 -20 6 0 10 -7 10 -15 0 -8 7
-15 16 -15 18 0 44 -23 44 -39 0 -7 51 -11 155 -11 l155 0 0 25 c0 14 5 25 10
25 6 0 10 7 10 15 0 8 7 15 15 15 15 0 65 43 65 55 0 4 6 13 14 21 17 17 236
21 236 4 0 -5 9 -10 20 -10 15 0 20 -7 20 -25 0 -16 6 -25 16 -25 17 0 44 -23
44 -37 0 -5 9 -15 20 -23 11 -8 20 -20 20 -27 0 -10 28 -13 115 -13 l115 0 0
25 c0 14 5 25 10 25 6 0 10 11 10 25 0 16 6 25 15 25 9 0 15 9 15 25 0 14 6
25 13 25 7 0 19 9 27 20 12 16 26 20 77 20 35 0 63 4 63 10 0 6 11 10 25 10
16 0 25 -6 25 -16 0 -18 23 -44 39 -44 6 0 11 -9 11 -21 0 -39 23 -49 110 -49
87 0 110 10 110 49 0 12 6 21 15 21 8 0 15 9 15 20 0 11 5 20 10 20 6 0 10 9
10 20 0 11 7 20 15 20 10 0 15 10 15 30 l0 30 60 0 c33 0 60 4 60 10 0 6 14
10 30 10 23 0 30 4 30 20 0 11 7 20 15 20 9 0 15 9 15 25 0 16 -6 25 -15 25
-10 0 -15 11 -15 35 0 32 -2 35 -30 35 -20 0 -30 -5 -30 -15z"/>
</g>
</svg>
