<?xml version="1.0" standalone="no"?>
<!DOCTYPE svg PUBLIC "-//W3C//DTD SVG 20010904//EN"
 "http://www.w3.org/TR/2001/REC-SVG-20010904/DTD/svg10.dtd">
<svg version="1.0" xmlns="http://www.w3.org/2000/svg"
 width="874.000000pt" height="648.000000pt" viewBox="0 0 874.000000 648.000000"
 preserveAspectRatio="xMidYMid meet">
<metadata>
Created by potrace 1.16, written by Peter Selinger 2001-2019
</metadata>
<g transform="translate(0.000000,648.000000) scale(0.100000,-0.100000)"
fill="#000000" stroke="none">
<path d="M4000 3313 c0 -9 3 -14 6 -10 4 3 23 -2 44 -13 36 -18 37 -18 68 0
31 19 33 19 63 1 29 -18 33 -18 80 -3 45 15 52 14 85 -1 35 -17 38 -17 68 1
31 18 33 18 85 1 49 -17 55 -17 84 -2 27 14 40 14 92 4 65 -13 115 -2 115 26
0 11 -72 13 -395 13 -362 0 -395 -1 -395 -17z"/>
<path d="M2910 2853 c0 -5 18 -17 41 -27 39 -19 41 -19 70 -2 29 17 32 17 63
1 31 -17 36 -17 83 -1 47 16 52 16 81 -1 29 -17 32 -17 67 0 35 17 40 17 91 0
52 -16 56 -16 84 0 25 15 34 16 88 3 49 -11 64 -11 90 0 73 30 36 34 -363 34
-217 0 -395 -3 -395 -7z"/>
<path d="M5100 2853 c0 -5 20 -16 45 -27 43 -17 47 -17 71 -1 25 16 29 16 65
0 36 -17 41 -17 83 -1 41 16 46 16 80 -1 35 -16 38 -16 66 1 28 16 33 16 85 0
51 -16 58 -16 89 -1 30 14 41 14 92 2 50 -11 62 -11 86 1 15 8 28 19 28 24 0
6 -145 10 -395 10 -217 0 -395 -3 -395 -7z"/>
<path d="M4717 2313 c-4 -10 -12 -26 -19 -36 -11 -14 -11 -19 0 -26 11 -7 10
-10 -3 -15 -26 -9 -28 -8 -23 18 l5 25 -275 1 c-152 0 -273 -2 -270 -5 5 -6
159 -11 381 -14 64 0 107 -5 107 -11 0 -6 -58 -10 -152 -10 -84 0 -224 -3
-310 -7 -158 -6 -158 -6 -158 -30 0 -23 0 -23 26 -6 37 24 160 22 202 -2 22
-13 37 -16 58 -9 41 11 58 11 66 -1 5 -6 8 -3 8 8 0 9 5 17 11 17 6 0 9 -9 6
-20 -3 -11 -1 -18 4 -14 5 3 9 11 9 19 0 8 9 13 20 12 11 -1 20 -4 20 -8 0 -3
11 -5 25 -4 14 2 25 -1 25 -6 0 -4 7 -6 15 -3 10 4 15 0 15 -16 0 -11 4 -19 9
-15 6 3 8 14 6 25 -2 12 -1 18 4 16 4 -3 25 1 47 9 56 20 152 19 194 -3 31
-15 38 -16 64 -3 16 8 56 14 88 14 73 0 103 -22 93 -68 -14 -69 -16 -137 -5
-169 10 -31 9 -38 -7 -55 -31 -33 -82 -47 -155 -43 -38 2 -68 8 -68 13 0 5 11
9 25 9 23 0 24 2 15 20 -13 25 -25 25 -48 3 -10 -10 -27 -19 -37 -20 -90 -12
-169 8 -190 46 -14 25 -14 25 -15 4 0 -21 -14 -29 -42 -24 -5 0 -8 -3 -8 -9 0
-5 -10 -10 -22 -10 -19 0 -20 -2 -8 -10 8 -5 23 -7 33 -4 13 4 17 0 17 -21 0
-14 -4 -24 -9 -20 -5 3 -12 1 -16 -5 -10 -17 27 -11 47 7 17 15 19 15 31 0 16
-23 118 -42 129 -25 5 8 8 9 8 2 0 -13 48 -7 67 9 15 11 113 15 113 5 0 -5
-12 -8 -27 -9 l-28 -1 30 -13 c17 -7 32 -9 33 -4 6 14 22 11 22 -5 0 -9 7 -12
20 -9 27 7 34 21 21 37 -6 7 -8 16 -5 19 11 11 24 -3 24 -24 0 -19 1 -19 30 3
26 19 34 20 50 10 11 -7 36 -12 55 -12 28 0 35 4 35 20 0 11 5 20 11 20 6 0 9
9 6 20 -3 10 0 21 7 24 8 3 7 7 -3 14 -9 7 -10 11 -2 13 12 4 15 26 8 69 -3
14 -5 30 -6 37 -1 14 -66 34 -86 27 -7 -3 -16 0 -20 6 -6 9 -10 9 -16 -1 -6
-10 -9 -8 -9 9 0 12 7 25 15 28 8 4 15 10 15 16 0 5 -4 7 -9 4 -5 -4 -7 3 -4
15 8 28 42 39 121 39 77 0 85 -4 101 -45 l11 -30 -4 32 c-5 27 -1 33 28 47 40
19 128 21 159 5 11 -7 43 -13 70 -13 71 -3 87 -25 75 -103 -5 -32 -7 -86 -4
-120 6 -55 4 -63 -14 -73 -26 -14 -26 -37 1 -45 17 -6 19 -9 8 -16 -9 -7 -5
-7 14 -3 17 4 27 2 27 -5 0 -6 4 -11 9 -11 5 0 7 10 4 23 -4 17 -1 15 15 -9
26 -41 37 -47 69 -39 23 5 25 9 18 48 -3 23 -8 69 -10 102 -2 34 -4 65 -5 70
-2 6 -2 34 -1 63 1 45 4 54 24 61 16 6 31 3 55 -11 26 -16 32 -17 32 -5 0 19
-30 30 -160 61 -58 14 -123 32 -145 41 l-40 15 40 -6 c22 -3 45 -9 50 -14 6
-5 46 -16 90 -25 44 -9 90 -19 103 -22 12 -3 22 -1 22 4 0 6 -33 16 -72 23
-40 7 -119 27 -175 46 -101 32 -104 32 -285 32 -100 -1 -177 -3 -170 -6 6 -2
12 -10 12 -18 0 -9 4 -13 9 -9 5 3 12 1 15 -3 3 -5 -44 -10 -104 -11 -69 -1
-110 2 -110 8 0 6 -6 8 -12 6 -7 -3 -35 -1 -63 4 l-50 9 58 1 c88 2 69 21 -22
21 -61 0 -82 4 -92 17 -8 9 -12 18 -11 20 2 3 2 7 -1 9 -2 3 -7 -3 -10 -13z"/>
<path d="M3355 2264 c-27 -8 -119 -28 -202 -46 -84 -18 -153 -37 -153 -41 0
-5 17 -7 38 -3 36 5 36 5 7 -5 -45 -16 -75 -32 -75 -40 0 -4 9 -5 20 -2 11 3
17 9 14 14 -8 14 4 11 32 -7 23 -16 24 -20 18 -76 -8 -72 15 -264 33 -280 15
-12 48 12 58 43 4 13 16 19 33 19 16 0 34 8 42 20 19 27 31 25 27 -2 -2 -13
-2 -17 0 -11 3 9 10 10 21 4 11 -6 26 -5 42 4 20 11 27 10 49 -6 27 -19 94
-32 106 -21 4 4 10 7 13 7 19 2 52 17 52 25 0 5 12 2 28 -6 15 -7 41 -14 59
-14 19 0 36 -7 41 -16 8 -14 10 -12 16 11 5 21 10 24 20 16 10 -8 17 -7 27 5
11 14 10 19 -11 35 l-25 19 23 0 c12 0 22 -5 22 -11 0 -8 5 -8 15 1 13 10 15
9 15 -10 0 -13 3 -21 6 -17 4 3 14 -4 24 -16 23 -28 142 -37 188 -14 28 13 32
13 50 -5 21 -22 99 -41 108 -27 2 4 11 6 19 2 8 -3 15 0 15 7 0 7 8 9 20 5 15
-5 18 -3 14 9 -3 9 -1 16 5 16 6 0 11 -5 11 -12 0 -8 6 -6 17 4 14 15 20 15
42 3 15 -7 47 -15 72 -18 44 -5 46 -4 57 27 15 40 15 49 2 41 -5 -3 -7 0 -4 8
3 8 0 18 -6 22 -8 5 -5 11 7 21 10 7 13 14 6 14 -7 0 -10 10 -7 26 6 32 -16
86 -33 80 -6 -3 -14 5 -18 17 -4 14 -8 17 -12 9 -2 -6 -9 -10 -14 -6 -5 3 -9
-1 -9 -8 0 -9 -3 -9 -10 2 -6 10 -10 11 -10 3 0 -7 -5 -13 -11 -13 -5 0 -7 5
-4 10 8 13 -8 13 -22 -1 -8 -8 -10 4 -7 43 4 42 2 49 -7 35 -18 -29 -24 -164
-9 -192 12 -21 11 -27 -5 -45 -10 -11 -26 -22 -36 -25 -11 -4 -19 -13 -19 -21
0 -8 -4 -14 -10 -14 -5 0 -10 4 -10 9 0 5 -6 9 -12 8 -53 -2 -118 4 -114 11 2
4 -4 18 -14 32 -17 23 -19 23 -43 7 -60 -39 -187 -25 -202 24 -6 17 -8 17 -21
4 -21 -21 -46 -33 -77 -39 -26 -5 -34 7 -27 39 2 14 1 36 -3 65 -3 14 -5 33
-6 42 -1 11 -6 15 -17 11 -10 -4 -17 2 -21 18 -6 22 -7 22 -14 3 -6 -14 -8
-11 -8 16 -1 26 -4 31 -11 20 -5 -8 -7 -23 -4 -32 3 -12 0 -18 -10 -18 -9 0
-16 7 -16 16 0 8 -5 12 -10 9 -6 -4 -8 -11 -5 -16 4 -5 2 -9 -4 -9 -5 0 -12 8
-14 18 -3 9 -5 -11 -6 -46 0 -35 3 -71 9 -81 22 -43 -68 -87 -138 -69 -18 5
-36 17 -39 26 -11 29 -25 31 -47 6 -11 -14 -31 -26 -43 -29 -39 -7 -53 19 -54
103 -1 42 -1 83 1 91 3 27 -10 62 -23 56 -7 -4 -3 1 8 10 11 10 34 23 50 31
24 11 26 14 10 15 -11 1 0 5 25 10 25 5 50 7 55 5 6 -3 0 -5 -12 -5 -12 -1
-24 -5 -27 -10 -10 -15 36 -20 63 -7 14 8 44 12 66 10 22 -2 86 -6 142 -10
l103 -6 -2 23 -2 24 -140 -2 c-135 -1 -157 12 -29 17 132 6 201 1 207 -16 5
-13 3 -14 -7 -6 -10 8 -13 7 -14 -8 -1 -13 3 -17 13 -13 8 3 14 -1 14 -8 0
-12 2 -12 9 0 6 9 10 10 16 2 5 -9 10 -9 21 0 9 7 14 8 14 1 0 -10 51 -8 68 2
5 3 31 6 60 7 28 1 49 6 46 11 -8 12 -142 10 -149 -2 -4 -6 -15 -8 -26 -5 -12
4 -19 2 -19 -7 -1 -18 -40 30 -40 49 0 11 -25 14 -142 12 -86 -1 -163 -7 -193
-15z"/>
<path d="M5245 1940 c-3 -5 -19 -11 -35 -15 -17 -4 -28 -11 -24 -16 3 -5 10
-7 15 -4 5 4 9 -3 9 -14 0 -12 -4 -21 -10 -21 -5 0 -10 -4 -10 -10 0 -19 39
-10 54 12 11 16 16 18 16 7 0 -34 122 -51 170 -24 32 18 51 19 44 1 -6 -15 19
-28 40 -20 7 3 19 17 26 32 6 15 8 24 4 19 -9 -9 -44 21 -44 39 0 22 -18 25
-48 10 -46 -24 -81 -26 -126 -10 -58 21 -75 24 -81 14z"/>
<path d="M4765 1753 c-11 -3 -24 -9 -30 -13 -5 -4 -27 -10 -47 -14 -21 -4 -38
-10 -38 -14 0 -4 -10 -8 -21 -9 -28 -2 -35 -11 -22 -24 8 -8 18 -7 34 5 13 9
33 16 45 16 12 0 24 5 26 11 2 5 16 12 31 13 l28 3 -2 -494 c-2 -504 -2 -512
32 -513 13 0 16 49 3 54 -11 4 -13 100 -11 496 1 269 0 489 -3 489 -3 -1 -14
-4 -25 -6z"/>
<path d="M5154 764 l7 -27 -26 17 c-27 18 -27 18 -19 -6 11 -35 37 -68 51 -63
15 5 20 -12 28 -95 4 -36 11 -85 16 -109 5 -24 10 -59 11 -77 1 -18 5 -31 9
-28 4 2 12 -19 18 -48 9 -51 9 -50 5 22 -3 41 -7 82 -9 90 -2 8 -6 42 -10 75
-11 110 -15 130 -37 197 -12 37 -29 70 -36 73 -11 4 -13 -1 -8 -21z"/>
</g>
</svg>
